<svg xmlns="http://www.w3.org/2000/svg" xmlns:xlink="http://www.w3.org/1999/xlink" contentStyleType="text/css" data-diagram-type="ACTIVITY" height="1169.8958px" preserveAspectRatio="none" style="width:600px;height:1169px;background:#FFFFFF;" version="1.1" viewBox="0 0 600 1169" width="600.4167px" zoomAndPan="magnify"><defs/><g><ellipse cx="289.6713" cy="17.1875" fill="#FFFFFF" rx="11.4583" ry="11.4583" style="stroke:#000000;stroke-width:1.1458;"/><rect fill="#FFFFFF" height="46.9204" style="stroke:#000000;stroke-width:1.1458;" width="239.2934" x="170.0246" y="51.5625"/><text fill="#000000" font-family="Arial" font-size="14.8958" lengthAdjust="spacing" textLength="209.5017" x="184.9205" y="80.6741">Learner opens enrolled courses</text><rect fill="#FFFFFF" height="46.9204" style="stroke:#000000;stroke-width:1.1458;" width="248.3487" x="165.497" y="121.3996"/><text fill="#000000" font-family="Arial" font-size="14.8958" lengthAdjust="spacing" textLength="218.5571" x="180.3928" y="150.5112">System retrieves last saved state</text><rect fill="#FFFFFF" height="46.9204" style="stroke:#000000;stroke-width:1.1458;" width="250.8508" x="164.2459" y="191.2367"/><text fill="#000000" font-family="Arial" font-size="14.8958" lengthAdjust="spacing" textLength="221.0591" x="179.1418" y="220.3483">Learner selects course to resume</text><rect fill="#FFFFFF" height="46.9204" style="stroke:#000000;stroke-width:1.1458;" width="279.8278" x="149.7574" y="261.0738"/><text fill="#000000" font-family="Arial" font-size="14.8958" lengthAdjust="spacing" textLength="250.0362" x="164.6533" y="290.1854">System provides current learning step</text><rect fill="#FFFFFF" height="46.9204" style="stroke:#000000;stroke-width:1.1458;" width="187.0707" x="196.136" y="381.3275"/><text fill="#000000" font-family="Arial" font-size="14.8958" lengthAdjust="spacing" textLength="157.2791" x="211.0318" y="410.4391">System displays activity</text><rect fill="#FFFFFF" height="46.9204" style="stroke:#000000;stroke-width:1.1458;" width="188.7509" x="195.2959" y="451.1646"/><text fill="#000000" font-family="Arial" font-size="14.8958" lengthAdjust="spacing" textLength="158.9592" x="210.1917" y="480.2762">Learner submits answer</text><rect fill="#FFFFFF" height="46.9204" style="stroke:#000000;stroke-width:1.1458;" width="199.5154" x="189.9136" y="521.0017"/><text fill="#000000" font-family="Arial" font-size="14.8958" lengthAdjust="spacing" textLength="169.7238" x="204.8095" y="550.1133">System evaluates answer</text><polygon fill="#FFFFFF" points="257.675,590.8388,321.6677,590.8388,335.4177,604.5888,321.6677,618.3388,257.675,618.3388,243.925,604.5888,257.675,590.8388" style="stroke:#000000;stroke-width:1.1458;"/><text fill="#000000" font-family="Arial" font-size="14.8958" lengthAdjust="spacing" textLength="57.1177" x="261.1125" y="610.2402">Correct?</text><text fill="#000000" font-family="Arial" font-size="14.8958" lengthAdjust="spacing" textLength="23.1802" x="217.3073" y="598.2383">yes</text><text fill="#000000" font-family="Arial" font-size="14.8958" lengthAdjust="spacing" textLength="16.5687" x="338.8552" y="598.2383">no</text><rect fill="#FFFFFF" height="46.9204" style="stroke:#000000;stroke-width:1.1458;" width="256.6549" x="17.2177" y="629.7971"/><text fill="#000000" font-family="Arial" font-size="14.8958" lengthAdjust="spacing" textLength="226.8633" x="32.1135" y="658.9087">System updates completion status</text><rect fill="#FFFFFF" height="46.9204" style="stroke:#000000;stroke-width:1.1458;" width="175.4988" x="57.7958" y="699.6342"/><text fill="#000000" font-family="Arial" font-size="14.8958" lengthAdjust="spacing" textLength="145.7071" x="72.6916" y="728.7458">System awards points</text><rect fill="#FFFFFF" height="46.9204" style="stroke:#000000;stroke-width:1.1458;" width="277.3403" x="6.875" y="769.4713"/><text fill="#000000" font-family="Arial" font-size="14.8958" lengthAdjust="spacing" textLength="247.5487" x="21.7708" y="798.5829">System shows success and next step</text><rect fill="#FFFFFF" height="46.9204" style="stroke:#000000;stroke-width:1.1458;" width="253.331" x="307.132" y="629.7971"/><text fill="#000000" font-family="Arial" font-size="14.8958" lengthAdjust="spacing" textLength="223.5393" x="322.0278" y="658.9087">System shows feedback and retry</text><polygon fill="#FFFFFF" points="289.6713,827.85,303.4213,841.6,289.6713,855.35,275.9213,841.6,289.6713,827.85" style="stroke:#000000;stroke-width:1.1458;"/><polygon fill="#FFFFFF" points="289.6713,330.9108,303.4213,344.6608,289.6713,358.4108,275.9213,344.6608,289.6713,330.9108" style="stroke:#000000;stroke-width:1.1458;"/><polygon fill="#FFFFFF" points="212.962,878.2667,366.3806,878.2667,380.1306,892.0167,366.3806,905.7667,212.962,905.7667,199.212,892.0167,212.962,878.2667" style="stroke:#000000;stroke-width:1.1458;"/><text fill="#000000" font-family="Arial" font-size="14.8958" lengthAdjust="spacing" textLength="146.5436" x="216.3995" y="897.6681">More steps in course?</text><rect fill="#FFFFFF" height="46.9204" style="stroke:#000000;stroke-width:1.1458;" width="206.1633" x="186.5897" y="928.6834"/><text fill="#000000" font-family="Arial" font-size="14.8958" lengthAdjust="spacing" textLength="176.3716" x="201.4855" y="957.795">Learner views leaderboard</text><rect fill="#FFFFFF" height="46.9204" style="stroke:#000000;stroke-width:1.1458;" width="254.1674" x="162.5876" y="998.5205"/><text fill="#000000" font-family="Arial" font-size="14.8958" lengthAdjust="spacing" textLength="224.3758" x="177.4835" y="1027.6321">System calculates global rankings</text><rect fill="#FFFFFF" height="46.9204" style="stroke:#000000;stroke-width:1.1458;" width="288.9341" x="145.2043" y="1068.3575"/><text fill="#000000" font-family="Arial" font-size="14.8958" lengthAdjust="spacing" textLength="259.1424" x="160.1001" y="1097.4692">Learner compares progress with others</text><ellipse cx="289.6713" cy="1150.7988" fill="none" rx="12.6042" ry="12.6042" style="stroke:#000000;stroke-width:1.1458;"/><ellipse cx="289.6713" cy="1150.7988" fill="#FFFFFF" rx="6.875" ry="6.875" style="stroke:#000000;stroke-width:1.1458;"/><line style="stroke:#000000;stroke-width:1.1458;" x1="289.6713" x2="289.6713" y1="28.6458" y2="51.5625"/><polygon fill="#000000" points="285.088,40.1042,289.6713,51.5625,294.2547,40.1042,289.6713,44.6875" style="stroke:#000000;stroke-width:1.1458;"/><line style="stroke:#000000;stroke-width:1.1458;" x1="289.6713" x2="289.6713" y1="98.4829" y2="121.3996"/><polygon fill="#000000" points="285.088,109.9413,289.6713,121.3996,294.2547,109.9413,289.6713,114.5246" style="stroke:#000000;stroke-width:1.1458;"/><line style="stroke:#000000;stroke-width:1.1458;" x1="289.6713" x2="289.6713" y1="168.32" y2="191.2367"/><polygon fill="#000000" points="285.088,179.7783,289.6713,191.2367,294.2547,179.7783,289.6713,184.3617" style="stroke:#000000;stroke-width:1.1458;"/><line style="stroke:#000000;stroke-width:1.1458;" x1="289.6713" x2="289.6713" y1="238.1571" y2="261.0738"/><polygon fill="#000000" points="285.088,249.6154,289.6713,261.0738,294.2547,249.6154,289.6713,254.1988" style="stroke:#000000;stroke-width:1.1458;"/><line style="stroke:#000000;stroke-width:1.1458;" x1="289.6713" x2="289.6713" y1="428.2479" y2="451.1646"/><polygon fill="#000000" points="285.088,439.7063,289.6713,451.1646,294.2547,439.7063,289.6713,444.2896" style="stroke:#000000;stroke-width:1.1458;"/><line style="stroke:#000000;stroke-width:1.1458;" x1="289.6713" x2="289.6713" y1="498.085" y2="521.0017"/><polygon fill="#000000" points="285.088,509.5434,289.6713,521.0017,294.2547,509.5434,289.6713,514.1267" style="stroke:#000000;stroke-width:1.1458;"/><line style="stroke:#000000;stroke-width:1.1458;" x1="145.5452" x2="145.5452" y1="676.7175" y2="699.6342"/><polygon fill="#000000" points="140.9618,688.1759,145.5452,699.6342,150.1285,688.1759,145.5452,692.7592" style="stroke:#000000;stroke-width:1.1458;"/><line style="stroke:#000000;stroke-width:1.1458;" x1="145.5452" x2="145.5452" y1="746.5546" y2="769.4713"/><polygon fill="#000000" points="140.9618,758.0129,145.5452,769.4713,150.1285,758.0129,145.5452,762.5963" style="stroke:#000000;stroke-width:1.1458;"/><line style="stroke:#000000;stroke-width:1.1458;" x1="243.925" x2="145.5452" y1="604.5888" y2="604.5888"/><line style="stroke:#000000;stroke-width:1.1458;" x1="145.5452" x2="145.5452" y1="604.5888" y2="629.7971"/><polygon fill="#000000" points="140.9618,618.3388,145.5452,629.7971,150.1285,618.3388,145.5452,622.9221" style="stroke:#000000;stroke-width:1.1458;"/><line style="stroke:#000000;stroke-width:1.1458;" x1="335.4177" x2="433.7975" y1="604.5888" y2="604.5888"/><line style="stroke:#000000;stroke-width:1.1458;" x1="433.7975" x2="433.7975" y1="604.5888" y2="629.7971"/><polygon fill="#000000" points="429.2142,618.3388,433.7975,629.7971,438.3808,618.3388,433.7975,622.9221" style="stroke:#000000;stroke-width:1.1458;"/><line style="stroke:#000000;stroke-width:1.1458;" x1="145.5452" x2="145.5452" y1="816.3917" y2="841.6"/><line style="stroke:#000000;stroke-width:1.1458;" x1="145.5452" x2="275.9213" y1="841.6" y2="841.6"/><polygon fill="#000000" points="264.463,837.0167,275.9213,841.6,264.463,846.1834,269.0463,841.6" style="stroke:#000000;stroke-width:1.1458;"/><line style="stroke:#000000;stroke-width:1.1458;" x1="433.7975" x2="433.7975" y1="676.7175" y2="841.6"/><line style="stroke:#000000;stroke-width:1.1458;" x1="433.7975" x2="303.4213" y1="841.6" y2="841.6"/><polygon fill="#000000" points="314.8797,837.0167,303.4213,841.6,314.8797,846.1834,310.2963,841.6" style="stroke:#000000;stroke-width:1.1458;"/><line style="stroke:#000000;stroke-width:1.1458;" x1="289.6713" x2="289.6713" y1="567.9221" y2="590.8388"/><polygon fill="#000000" points="285.088,579.3804,289.6713,590.8388,294.2547,579.3804,289.6713,583.9638" style="stroke:#000000;stroke-width:1.1458;"/><line style="stroke:#000000;stroke-width:1.1458;" x1="289.6713" x2="289.6713" y1="358.4108" y2="381.3275"/><polygon fill="#000000" points="285.088,369.8692,289.6713,381.3275,294.2547,369.8692,289.6713,374.4525" style="stroke:#000000;stroke-width:1.1458;"/><line style="stroke:#000000;stroke-width:1.1458;" x1="380.1306" x2="576.5047" y1="892.0167" y2="892.0167"/><polygon fill="#000000" points="571.9213,622.3492,576.5047,610.8909,581.088,622.3492,576.5047,617.7659" style="stroke:#000000;stroke-width:1.1458;"/><line style="stroke:#000000;stroke-width:1.1458;" x1="576.5047" x2="576.5047" y1="344.6608" y2="892.0167"/><line style="stroke:#000000;stroke-width:1.1458;" x1="576.5047" x2="303.4213" y1="344.6608" y2="344.6608"/><polygon fill="#000000" points="314.8797,340.0775,303.4213,344.6608,314.8797,349.2442,310.2963,344.6608" style="stroke:#000000;stroke-width:1.1458;"/><line style="stroke:#000000;stroke-width:1.1458;" x1="289.6713" x2="289.6713" y1="855.35" y2="878.2667"/><polygon fill="#000000" points="285.088,866.8084,289.6713,878.2667,294.2547,866.8084,289.6713,871.3917" style="stroke:#000000;stroke-width:1.1458;"/><line style="stroke:#000000;stroke-width:1.1458;" x1="289.6713" x2="289.6713" y1="307.9942" y2="330.9108"/><polygon fill="#000000" points="285.088,319.4525,289.6713,330.9108,294.2547,319.4525,289.6713,324.0358" style="stroke:#000000;stroke-width:1.1458;"/><line style="stroke:#000000;stroke-width:1.1458;" x1="289.6713" x2="289.6713" y1="905.7667" y2="928.6834"/><polygon fill="#000000" points="285.088,917.225,289.6713,928.6834,294.2547,917.225,289.6713,921.8084" style="stroke:#000000;stroke-width:1.1458;"/><line style="stroke:#000000;stroke-width:1.1458;" x1="289.6713" x2="289.6713" y1="975.6038" y2="998.5205"/><polygon fill="#000000" points="285.088,987.0621,289.6713,998.5205,294.2547,987.0621,289.6713,991.6455" style="stroke:#000000;stroke-width:1.1458;"/><line style="stroke:#000000;stroke-width:1.1458;" x1="289.6713" x2="289.6713" y1="1045.4409" y2="1068.3575"/><polygon fill="#000000" points="285.088,1056.8992,289.6713,1068.3575,294.2547,1056.8992,289.6713,1061.4825" style="stroke:#000000;stroke-width:1.1458;"/><line style="stroke:#000000;stroke-width:1.1458;" x1="289.6713" x2="289.6713" y1="1115.278" y2="1138.1946"/><polygon fill="#000000" points="285.088,1126.7363,289.6713,1138.1946,294.2547,1126.7363,289.6713,1131.3196" style="stroke:#000000;stroke-width:1.1458;"/><!--SRC=[TL91Rjmm3Bpx5Unjzz1rKFIqFkJGQnOeqFG1j4IlXSYIG59szlUb7RUReAskd1boPlGf91Uh9nXLYvpRbd4vNOEEjQz2x79IIdfoUMe79fybulpbuU5hUmafJ1YVHvhe-y_BKyiqI3iIUcad3AcTtW2VTKMSIfrY8ugipVc9a1Cnv499W1Bd6Cc3ovM5f6lEFswYD06JSg2P12AAWk1iADDGwkuYGf6Soiu6pKQJEj5Tfd2UWpSLLvdD3CIL6jBLjAXq3LCXr0Ri_QRu82NYJG2TXZdehNiR_rbQ-odOKaoo47SVk3HZh7RZnsaOuF0jstwdZqUmJ18SRYJ7RVYUNelVo9PuYQGXfyrobUulA2x8Ng3aaFGVOndp8dQgSoJhCHuIlUfkUWLIjC0EAH__Gns8V8_kPUEkPUmnKF9Xs6E3PGpHL2wPQPCM26alu_5uhsaEP8gMl2VkizrzxyTXT3LkfgynznY1CRrOF_AkvZKEj6RNDg-y6bhiaqAs9Dbmehdy0W00]--></g></svg>