<svg xmlns="http://www.w3.org/2000/svg" xmlns:xlink="http://www.w3.org/1999/xlink" contentStyleType="text/css" data-diagram-type="ACTIVITY" height="1201.9792px" preserveAspectRatio="none" style="width:718px;height:1201px;background:#FFFFFF;" version="1.1" viewBox="0 0 718 1201" width="718.4375px" zoomAndPan="magnify"><defs/><g><rect fill="#FFFFFF" height="24.0038" style="stroke:#FFFFFF;stroke-width:1.1458;" width="692.6571" x="11.4583" y="6.875"/><ellipse cx="132.9905" cy="48.0663" fill="#FFFFFF" rx="11.4583" ry="11.4583" style="stroke:#000000;stroke-width:1.1458;"/><rect fill="#FFFFFF" height="46.9204" style="stroke:#000000;stroke-width:1.1458;" width="179.6664" x="43.1573" y="82.4413"/><text fill="#000000" font-family="Arial" font-size="14.8958" lengthAdjust="spacing" textLength="149.8748" x="58.0531" y="111.5529">Open enrolled courses</text><rect fill="#FFFFFF" height="46.9204" style="stroke:#000000;stroke-width:1.1458;" width="190.4092" x="37.7859" y="222.1154"/><text fill="#000000" font-family="Arial" font-size="14.8958" lengthAdjust="spacing" textLength="160.6175" x="52.6818" y="251.227">Select course to resume</text><rect fill="#FFFFFF" height="46.9204" style="stroke:#000000;stroke-width:1.1458;" width="128.3093" x="68.8359" y="482.0434"/><text fill="#000000" font-family="Arial" font-size="14.8958" lengthAdjust="spacing" textLength="98.5176" x="83.7317" y="511.155">Submit answer</text><polygon fill="#FFFFFF" points="56.2812,909.1455,209.6998,909.1455,223.4498,922.8955,209.6998,936.6455,56.2812,936.6455,42.5312,922.8955,56.2812,909.1455" style="stroke:#000000;stroke-width:1.1458;"/><text fill="#000000" font-family="Arial" font-size="14.8958" lengthAdjust="spacing" textLength="146.5436" x="59.7187" y="928.5469">More steps in course?</text><rect fill="#FFFFFF" height="46.9204" style="stroke:#000000;stroke-width:1.1458;" width="145.7217" x="60.1297" y="959.5621"/><text fill="#000000" font-family="Arial" font-size="14.8958" lengthAdjust="spacing" textLength="115.93" x="75.0255" y="988.6737">View leaderboard</text><rect fill="#FFFFFF" height="46.9204" style="stroke:#000000;stroke-width:1.1458;" width="229.3144" x="18.3333" y="1099.2363"/><text fill="#000000" font-family="Arial" font-size="14.8958" lengthAdjust="spacing" textLength="199.5227" x="33.2292" y="1128.3479">Compare progress with others</text><ellipse cx="132.9905" cy="1181.6776" fill="none" rx="12.6042" ry="12.6042" style="stroke:#000000;stroke-width:1.1458;"/><ellipse cx="132.9905" cy="1181.6776" fill="#FFFFFF" rx="6.875" ry="6.875" style="stroke:#000000;stroke-width:1.1458;"/><line style="stroke:#000000;stroke-width:1.1458;" x1="11.4583" x2="11.4583" y1="6.875" y2="1194.2817"/><rect fill="#FFFFFF" height="46.9204" style="stroke:#000000;stroke-width:1.1458;" width="166.3998" x="399.941" y="152.2783"/><text fill="#000000" font-family="Arial" font-size="14.8958" lengthAdjust="spacing" textLength="136.6082" x="414.8368" y="181.3899">Retrieve the courses</text><rect fill="#FFFFFF" height="46.9204" style="stroke:#000000;stroke-width:1.1458;" width="220.2299" x="373.026" y="291.9525"/><text fill="#000000" font-family="Arial" font-size="14.8958" lengthAdjust="spacing" textLength="190.4383" x="387.9218" y="321.0641">Provide current learning step</text><rect fill="#FFFFFF" height="46.9204" style="stroke:#000000;stroke-width:1.1458;" width="128.2947" x="418.9936" y="412.2063"/><text fill="#000000" font-family="Arial" font-size="14.8958" lengthAdjust="spacing" textLength="98.5031" x="433.8894" y="441.3179">Display activity</text><rect fill="#FFFFFF" height="46.9204" style="stroke:#000000;stroke-width:1.1458;" width="139.9176" x="413.1822" y="551.8804"/><text fill="#000000" font-family="Arial" font-size="14.8958" lengthAdjust="spacing" textLength="110.1259" x="428.078" y="580.9921">Evaluate answer</text><polygon fill="#FFFFFF" points="451.1446,621.7175,515.1373,621.7175,528.8873,635.4675,515.1373,649.2175,451.1446,649.2175,437.3946,635.4675,451.1446,621.7175" style="stroke:#000000;stroke-width:1.1458;"/><text fill="#000000" font-family="Arial" font-size="14.8958" lengthAdjust="spacing" textLength="57.1177" x="454.5821" y="641.1189">Correct?</text><text fill="#000000" font-family="Arial" font-size="14.8958" lengthAdjust="spacing" textLength="23.1802" x="410.7769" y="629.1171">yes</text><text fill="#000000" font-family="Arial" font-size="14.8958" lengthAdjust="spacing" textLength="16.5687" x="532.3248" y="629.1171">no</text><rect fill="#FFFFFF" height="46.9204" style="stroke:#000000;stroke-width:1.1458;" width="197.8789" x="269.456" y="660.6759"/><text fill="#000000" font-family="Arial" font-size="14.8958" lengthAdjust="spacing" textLength="168.0873" x="284.3519" y="689.7875">Update completion status</text><rect fill="#FFFFFF" height="46.9204" style="stroke:#000000;stroke-width:1.1458;" width="191.2529" x="272.769" y="730.5129"/><text fill="#000000" font-family="Arial" font-size="14.8958" lengthAdjust="spacing" textLength="161.4612" x="287.6649" y="759.6246">Award points (if needed)</text><rect fill="#FFFFFF" height="46.9204" style="stroke:#000000;stroke-width:1.1458;" width="218.5789" x="259.106" y="800.35"/><text fill="#000000" font-family="Arial" font-size="14.8958" lengthAdjust="spacing" textLength="188.7872" x="274.0019" y="829.4616">Show success and next step</text><rect fill="#FFFFFF" height="46.9204" style="stroke:#000000;stroke-width:1.1458;" width="194.5695" x="500.6016" y="660.6759"/><text fill="#000000" font-family="Arial" font-size="14.8958" lengthAdjust="spacing" textLength="164.7779" x="515.4974" y="689.7875">Show feedback and retry</text><polygon fill="#FFFFFF" points="483.1409,858.7288,496.8909,872.4788,483.1409,886.2288,469.3909,872.4788,483.1409,858.7288" style="stroke:#000000;stroke-width:1.1458;"/><polygon fill="#FFFFFF" points="483.1409,361.7896,496.8909,375.5396,483.1409,389.2896,469.3909,375.5396,483.1409,361.7896" style="stroke:#000000;stroke-width:1.1458;"/><rect fill="#FFFFFF" height="46.9204" style="stroke:#000000;stroke-width:1.1458;" width="152.3332" x="406.9743" y="1029.3992"/><text fill="#000000" font-family="Arial" font-size="14.8958" lengthAdjust="spacing" textLength="122.5415" x="421.8702" y="1058.5108">Calculate rankings</text><line style="stroke:#000000;stroke-width:1.1458;" x1="252.231" x2="252.231" y1="6.875" y2="1194.2817"/><line style="stroke:#000000;stroke-width:1.1458;" x1="699.7545" x2="699.7545" y1="6.875" y2="1194.2817"/><line style="stroke:#000000;stroke-width:1.1458;" x1="132.9905" x2="132.9905" y1="59.5246" y2="82.4413"/><polygon fill="#000000" points="128.4072,70.9829,132.9905,82.4413,137.5739,70.9829,132.9905,75.5663" style="stroke:#000000;stroke-width:1.1458;"/><line style="stroke:#000000;stroke-width:1.1458;" x1="132.9905" x2="132.9905" y1="936.6455" y2="959.5621"/><polygon fill="#000000" points="128.4072,948.1038,132.9905,959.5621,137.5739,948.1038,132.9905,952.6871" style="stroke:#000000;stroke-width:1.1458;"/><line style="stroke:#000000;stroke-width:1.1458;" x1="132.9905" x2="132.9905" y1="1146.1567" y2="1169.0734"/><polygon fill="#000000" points="128.4072,1157.6151,132.9905,1169.0734,137.5739,1157.6151,132.9905,1162.1984" style="stroke:#000000;stroke-width:1.1458;"/><line style="stroke:#000000;stroke-width:1.1458;" x1="368.3955" x2="368.3955" y1="707.5963" y2="730.5129"/><polygon fill="#000000" points="363.8122,719.0546,368.3955,730.5129,372.9788,719.0546,368.3955,723.6379" style="stroke:#000000;stroke-width:1.1458;"/><line style="stroke:#000000;stroke-width:1.1458;" x1="368.3955" x2="368.3955" y1="777.4334" y2="800.35"/><polygon fill="#000000" points="363.8122,788.8917,368.3955,800.35,372.9788,788.8917,368.3955,793.475" style="stroke:#000000;stroke-width:1.1458;"/><line style="stroke:#000000;stroke-width:1.1458;" x1="437.3946" x2="368.3955" y1="635.4675" y2="635.4675"/><line style="stroke:#000000;stroke-width:1.1458;" x1="368.3955" x2="368.3955" y1="635.4675" y2="660.6759"/><polygon fill="#000000" points="363.8122,649.2175,368.3955,660.6759,372.9788,649.2175,368.3955,653.8009" style="stroke:#000000;stroke-width:1.1458;"/><line style="stroke:#000000;stroke-width:1.1458;" x1="528.8873" x2="597.8864" y1="635.4675" y2="635.4675"/><line style="stroke:#000000;stroke-width:1.1458;" x1="597.8864" x2="597.8864" y1="635.4675" y2="660.6759"/><polygon fill="#000000" points="593.303,649.2175,597.8864,660.6759,602.4697,649.2175,597.8864,653.8009" style="stroke:#000000;stroke-width:1.1458;"/><line style="stroke:#000000;stroke-width:1.1458;" x1="368.3955" x2="368.3955" y1="847.2705" y2="872.4788"/><line style="stroke:#000000;stroke-width:1.1458;" x1="368.3955" x2="469.3909" y1="872.4788" y2="872.4788"/><polygon fill="#000000" points="457.9326,867.8955,469.3909,872.4788,457.9326,877.0621,462.5159,872.4788" style="stroke:#000000;stroke-width:1.1458;"/><line style="stroke:#000000;stroke-width:1.1458;" x1="597.8864" x2="597.8864" y1="707.5963" y2="872.4788"/><line style="stroke:#000000;stroke-width:1.1458;" x1="597.8864" x2="496.8909" y1="872.4788" y2="872.4788"/><polygon fill="#000000" points="508.3493,867.8955,496.8909,872.4788,508.3493,877.0621,503.7659,872.4788" style="stroke:#000000;stroke-width:1.1458;"/><line style="stroke:#000000;stroke-width:1.1458;" x1="483.1409" x2="483.1409" y1="598.8009" y2="621.7175"/><polygon fill="#000000" points="478.5576,610.2592,483.1409,621.7175,487.7243,610.2592,483.1409,614.8425" style="stroke:#000000;stroke-width:1.1458;"/><line style="stroke:#000000;stroke-width:1.1458;" x1="483.1409" x2="483.1409" y1="389.2896" y2="412.2063"/><polygon fill="#000000" points="478.5576,400.7479,483.1409,412.2063,487.7243,400.7479,483.1409,405.3313" style="stroke:#000000;stroke-width:1.1458;"/><line style="stroke:#000000;stroke-width:1.1458;" x1="483.1409" x2="483.1409" y1="338.8729" y2="361.7896"/><polygon fill="#000000" points="478.5576,350.3313,483.1409,361.7896,487.7243,350.3313,483.1409,354.9146" style="stroke:#000000;stroke-width:1.1458;"/><line style="stroke:#000000;stroke-width:1.1458;" x1="132.9905" x2="132.9905" y1="129.3617" y2="135.0908"/><line style="stroke:#000000;stroke-width:1.1458;" x1="132.9905" x2="483.1409" y1="135.0908" y2="135.0908"/><line style="stroke:#000000;stroke-width:1.1458;" x1="483.1409" x2="483.1409" y1="135.0908" y2="152.2783"/><polygon fill="#000000" points="478.5576,140.82,483.1409,152.2783,487.7243,140.82,483.1409,145.4033" style="stroke:#000000;stroke-width:1.1458;"/><line style="stroke:#000000;stroke-width:1.1458;" x1="483.1409" x2="483.1409" y1="199.1988" y2="204.9279"/><line style="stroke:#000000;stroke-width:1.1458;" x1="483.1409" x2="132.9905" y1="204.9279" y2="204.9279"/><line style="stroke:#000000;stroke-width:1.1458;" x1="132.9905" x2="132.9905" y1="204.9279" y2="222.1154"/><polygon fill="#000000" points="128.4072,210.6571,132.9905,222.1154,137.5739,210.6571,132.9905,215.2404" style="stroke:#000000;stroke-width:1.1458;"/><line style="stroke:#000000;stroke-width:1.1458;" x1="132.9905" x2="132.9905" y1="269.0358" y2="274.765"/><line style="stroke:#000000;stroke-width:1.1458;" x1="132.9905" x2="483.1409" y1="274.765" y2="274.765"/><line style="stroke:#000000;stroke-width:1.1458;" x1="483.1409" x2="483.1409" y1="274.765" y2="291.9525"/><polygon fill="#000000" points="478.5576,280.4942,483.1409,291.9525,487.7243,280.4942,483.1409,285.0775" style="stroke:#000000;stroke-width:1.1458;"/><line style="stroke:#000000;stroke-width:1.1458;" x1="483.1409" x2="483.1409" y1="459.1267" y2="464.8559"/><line style="stroke:#000000;stroke-width:1.1458;" x1="483.1409" x2="132.9905" y1="464.8559" y2="464.8559"/><line style="stroke:#000000;stroke-width:1.1458;" x1="132.9905" x2="132.9905" y1="464.8559" y2="482.0434"/><polygon fill="#000000" points="128.4072,470.585,132.9905,482.0434,137.5739,470.585,132.9905,475.1684" style="stroke:#000000;stroke-width:1.1458;"/><line style="stroke:#000000;stroke-width:1.1458;" x1="132.9905" x2="132.9905" y1="528.9638" y2="534.6929"/><line style="stroke:#000000;stroke-width:1.1458;" x1="132.9905" x2="483.1409" y1="534.6929" y2="534.6929"/><line style="stroke:#000000;stroke-width:1.1458;" x1="483.1409" x2="483.1409" y1="534.6929" y2="551.8804"/><polygon fill="#000000" points="478.5576,540.4221,483.1409,551.8804,487.7243,540.4221,483.1409,545.0054" style="stroke:#000000;stroke-width:1.1458;"/><line style="stroke:#000000;stroke-width:1.1458;" x1="223.4498" x2="407.9057" y1="922.8955" y2="922.8955"/><polygon fill="#000000" points="403.3223,653.2279,407.9057,641.7696,412.489,653.2279,407.9057,648.6446" style="stroke:#000000;stroke-width:1.1458;"/><line style="stroke:#000000;stroke-width:1.1458;" x1="407.9057" x2="407.9057" y1="375.5396" y2="922.8955"/><line style="stroke:#000000;stroke-width:1.1458;" x1="407.9057" x2="469.3909" y1="375.5396" y2="375.5396"/><polygon fill="#000000" points="457.9326,370.9563,469.3909,375.5396,457.9326,380.1229,462.5159,375.5396" style="stroke:#000000;stroke-width:1.1458;"/><line style="stroke:#000000;stroke-width:1.1458;" x1="483.1409" x2="483.1409" y1="886.2288" y2="891.958"/><line style="stroke:#000000;stroke-width:1.1458;" x1="483.1409" x2="132.9905" y1="891.958" y2="891.958"/><line style="stroke:#000000;stroke-width:1.1458;" x1="132.9905" x2="132.9905" y1="891.958" y2="909.1455"/><polygon fill="#000000" points="128.4072,897.6871,132.9905,909.1455,137.5739,897.6871,132.9905,902.2705" style="stroke:#000000;stroke-width:1.1458;"/><line style="stroke:#000000;stroke-width:1.1458;" x1="132.9905" x2="132.9905" y1="1006.4825" y2="1012.2117"/><line style="stroke:#000000;stroke-width:1.1458;" x1="132.9905" x2="483.1409" y1="1012.2117" y2="1012.2117"/><line style="stroke:#000000;stroke-width:1.1458;" x1="483.1409" x2="483.1409" y1="1012.2117" y2="1029.3992"/><polygon fill="#000000" points="478.5576,1017.9409,483.1409,1029.3992,487.7243,1017.9409,483.1409,1022.5242" style="stroke:#000000;stroke-width:1.1458;"/><line style="stroke:#000000;stroke-width:1.1458;" x1="483.1409" x2="483.1409" y1="1076.3196" y2="1082.0488"/><line style="stroke:#000000;stroke-width:1.1458;" x1="483.1409" x2="132.9905" y1="1082.0488" y2="1082.0488"/><line style="stroke:#000000;stroke-width:1.1458;" x1="132.9905" x2="132.9905" y1="1082.0488" y2="1099.2363"/><polygon fill="#000000" points="128.4072,1087.778,132.9905,1099.2363,137.5739,1087.778,132.9905,1092.3613" style="stroke:#000000;stroke-width:1.1458;"/><text fill="#000000" font-family="Arial" font-size="14.8958" lengthAdjust="spacing" textLength="51.3426" x="106.1734" y="24.5283">Learner</text><text fill="#000000" font-family="Arial" font-size="14.8958" lengthAdjust="spacing" textLength="49.6625" x="451.1615" y="24.5283">System</text><!--SRC=[NP91Rzim38Nl_XNQBJuiBeQTd4CnfBirMB6ikoiI7HEL9O6ax0N8Zn_jUcjQ7yMFZtoF_eJHXUB1z2APswOXEstFA7qv5GPoAGf4sReqD1s1Jnpi-ENkxcjpm8Y33Rzw6E3f-V3O47JSz60zDuF5s0olm6UPYMqkGwYkZs0f0bqh5ajIjJyoH0EHKWZWZKk567XNNOyN5XYkLViJX116CAfoK_-lqnuXW9ErP2GP0Yu3t6eyKHfH7Rf2f5vCc9indetMywuYo62bClgr3yWvs8knJd14kUoMvxTn2tGifm75sCWJq4hy6xO0tqSRYXLuXs1dDlka6pYvhsSxqMmkmFLINDgUiv-RDEeSG315NT1AuTqRycsov4rE68NDHYKZW0TVto37Fas6YtF0h0juHVx8QdK686XEcvZg3osTAfsiUrbwI6DVpKFqs7s8uJKoC_KOLEkG29O1R32kbxYlg_OtmZI7xO5EIVU-lSdU1bV2R9TiVD5ZlB_gNZEmgfefdMasCkaVQPAcHWgofFmN]--></g></svg>