<svg xmlns="http://www.w3.org/2000/svg" xmlns:xlink="http://www.w3.org/1999/xlink" contentStyleType="text/css" data-diagram-type="DESCRIPTION" height="1352.0833px" preserveAspectRatio="none" style="width:529px;height:1352px;background:#FFFFFF;" version="1.1" viewBox="0 0 529 1352" width="529.375px" zoomAndPan="magnify"><title>Learnify System Deployment Diagram</title><defs/><g><g class="title" data-source-line="2"><text fill="#000000" font-family="Arial" font-size="25.2083" font-weight="bold" lengthAdjust="spacing" textLength="453.8977" x="32.5824" y="44.6825">Learnify System Deployment Diagram</text></g><!--cluster User Device--><g class="cluster" data-entity="User Device" data-source-line="4" data-uid="ent0002" id="cluster_User Device"><polygon fill="#FFFFFF" points="98.5417,83.9871,110,72.5288,277.2917,72.5288,277.2917,188.258,265.8333,199.7163,98.5417,199.7163,98.5417,83.9871" style="stroke:#000000;stroke-width:1.1458;"/><line style="stroke:#000000;stroke-width:1.1458;" x1="265.8333" x2="277.2917" y1="83.9871" y2="72.5288"/><line style="stroke:#000000;stroke-width:1.1458;" x1="98.5417" x2="265.8333" y1="83.9871" y2="83.9871"/><line style="stroke:#000000;stroke-width:1.1458;" x1="265.8333" x2="265.8333" y1="83.9871" y2="199.7163"/><text fill="#000000" font-family="Arial" font-size="14.8958" font-weight="bold" lengthAdjust="spacing" textLength="85.2946" x="140.686" y="105.0779">User Device</text></g><!--cluster Client Server--><g class="cluster" data-entity="Client Server" data-source-line="8" data-uid="ent0004" id="cluster_Client Server"><polygon fill="#FFFFFF" points="58.4375,355.5496,69.8958,344.0913,482.3958,344.0913,482.3958,475.8621,470.9375,487.3205,58.4375,487.3205,58.4375,355.5496" style="stroke:#000000;stroke-width:1.1458;"/><line style="stroke:#000000;stroke-width:1.1458;" x1="470.9375" x2="482.3958" y1="355.5496" y2="344.0913"/><line style="stroke:#000000;stroke-width:1.1458;" x1="58.4375" x2="470.9375" y1="355.5496" y2="355.5496"/><line style="stroke:#000000;stroke-width:1.1458;" x1="470.9375" x2="470.9375" y1="355.5496" y2="487.3205"/><text fill="#000000" font-family="Arial" font-size="14.8958" font-weight="bold" lengthAdjust="spacing" textLength="91.8989" x="219.8839" y="376.6404">Client Server</text></g><!--cluster Logic Server--><g class="cluster" data-entity="Logic Server" data-source-line="13" data-uid="ent0007" id="cluster_Logic Server"><polygon fill="#FFFFFF" points="45.8333,643.1538,57.2917,631.6955,509.8958,631.6955,509.8958,763.4663,498.4375,774.9246,45.8333,774.9246,45.8333,643.1538" style="stroke:#000000;stroke-width:1.1458;"/><line style="stroke:#000000;stroke-width:1.1458;" x1="498.4375" x2="509.8958" y1="643.1538" y2="631.6955"/><line style="stroke:#000000;stroke-width:1.1458;" x1="45.8333" x2="498.4375" y1="643.1538" y2="643.1538"/><line style="stroke:#000000;stroke-width:1.1458;" x1="498.4375" x2="498.4375" y1="643.1538" y2="774.9246"/><text fill="#000000" font-family="Arial" font-size="14.8958" font-weight="bold" lengthAdjust="spacing" textLength="90.2405" x="228.161" y="664.2446">Logic Server</text></g><!--cluster Data Server--><g class="cluster" data-entity="Data Server" data-source-line="18" data-uid="ent0010" id="cluster_Data Server"><polygon fill="#FFFFFF" points="59.5833,930.758,71.0417,919.2996,493.8542,919.2996,493.8542,1051.0705,482.3958,1062.5288,59.5833,1062.5288,59.5833,930.758" style="stroke:#000000;stroke-width:1.1458;"/><line style="stroke:#000000;stroke-width:1.1458;" x1="482.3958" x2="493.8542" y1="930.758" y2="919.2996"/><line style="stroke:#000000;stroke-width:1.1458;" x1="59.5833" x2="482.3958" y1="930.758" y2="930.758"/><line style="stroke:#000000;stroke-width:1.1458;" x1="482.3958" x2="482.3958" y1="930.758" y2="1062.5288"/><text fill="#000000" font-family="Arial" font-size="14.8958" font-weight="bold" lengthAdjust="spacing" textLength="82.8072" x="230.7318" y="951.8487">Data Server</text></g><!--cluster Database Server--><g class="cluster" data-entity="Database Server" data-source-line="23" data-uid="ent0013" id="cluster_Database Server"><polygon fill="#FFFFFF" points="83.6458,1218.3621,95.1042,1206.9038,293.3333,1206.9038,293.3333,1321.4871,281.875,1332.9455,83.6458,1332.9455,83.6458,1218.3621" style="stroke:#000000;stroke-width:1.1458;"/><line style="stroke:#000000;stroke-width:1.1458;" x1="281.875" x2="293.3333" y1="1218.3621" y2="1206.9038"/><line style="stroke:#000000;stroke-width:1.1458;" x1="83.6458" x2="281.875" y1="1218.3621" y2="1218.3621"/><line style="stroke:#000000;stroke-width:1.1458;" x1="281.875" x2="281.875" y1="1218.3621" y2="1332.9455"/><text fill="#000000" font-family="Arial" font-size="14.8958" font-weight="bold" lengthAdjust="spacing" textLength="116.7592" x="125.5267" y="1239.4529">Database Server</text></g><!--entity Web Browser--><g class="entity" data-entity="Web Browser" data-source-line="5" data-uid="ent0003" id="entity_Web Browser"><rect fill="#FFFFFF" height="58.3788" style="stroke:#000000;stroke-width:1.1458;" width="142.1052" x="116.875" y="122.9455"/><rect fill="#FFFFFF" height="11.4583" style="stroke:#000000;stroke-width:1.1458;" width="17.1875" x="236.0635" y="128.6746"/><rect fill="#FFFFFF" height="2.2917" style="stroke:#000000;stroke-width:1.1458;" width="4.5833" x="233.7718" y="130.9663"/><rect fill="#FFFFFF" height="2.2917" style="stroke:#000000;stroke-width:1.1458;" width="4.5833" x="233.7718" y="135.5496"/><text fill="#000000" font-family="Arial" font-size="14.8958" lengthAdjust="spacing" textLength="89.3968" x="137.5" y="163.5154">Web Browser</text></g><!--entity ClientApp.dll--><g class="entity" data-entity="ClientApp.dll" data-source-line="9" data-uid="ent0005" id="entity_ClientApp.dll"><rect fill="#FFFFFF" height="74.3617" style="stroke:#000000;stroke-width:1.1458;" width="124.879" x="338.5938" y="394.508"/><polygon fill="#FFFFFF" points="443.9936,400.2371,443.9936,416.2788,457.7436,416.2788,457.7436,407.1121,450.8686,400.2371,443.9936,400.2371" style="stroke:#000000;stroke-width:1.1458;"/><line style="stroke:#000000;stroke-width:1.1458;" x1="450.8686" x2="450.8686" y1="400.2371" y2="407.1121"/><line style="stroke:#000000;stroke-width:1.1458;" x1="457.7436" x2="450.8686" y1="407.1121" y2="407.1121"/><text fill="#000000" font-family="Arial" font-size="14.8958" font-style="italic" lengthAdjust="spacing" textLength="79.4978" x="355.5552" y="427.0571">&lt;&lt;artifact&gt;&gt;</text><text fill="#000000" font-family="Arial" font-size="14.8958" lengthAdjust="spacing" textLength="83.629" x="353.4896" y="451.0608">ClientApp.dll</text></g><!--entity ClientApp--><g class="entity" data-entity="ClientApp" data-source-line="10" data-uid="ent0006" id="entity_ClientApp"><rect fill="#FFFFFF" height="58.3788" style="stroke:#000000;stroke-width:1.1458;" width="221.5884" x="77.3438" y="402.5288"/><rect fill="#FFFFFF" height="11.4583" style="stroke:#000000;stroke-width:1.1458;" width="17.1875" x="276.0155" y="408.258"/><rect fill="#FFFFFF" height="2.2917" style="stroke:#000000;stroke-width:1.1458;" width="4.5833" x="273.7238" y="410.5496"/><rect fill="#FFFFFF" height="2.2917" style="stroke:#000000;stroke-width:1.1458;" width="4.5833" x="273.7238" y="415.133"/><text fill="#000000" font-family="Arial" font-size="14.8958" lengthAdjust="spacing" textLength="168.8801" x="97.9688" y="443.0987">ClientApp (Blazor Server)</text></g><!--entity LogicServer.dll--><g class="entity" data-entity="LogicServer.dll" data-source-line="14" data-uid="ent0008" id="entity_LogicServer.dll"><rect fill="#FFFFFF" height="74.3617" style="stroke:#000000;stroke-width:1.1458;" width="139.7749" x="351.7708" y="682.1121"/><polygon fill="#FFFFFF" points="472.0665,687.8413,472.0665,703.883,485.8165,703.883,485.8165,694.7163,478.9415,687.8413,472.0665,687.8413" style="stroke:#000000;stroke-width:1.1458;"/><line style="stroke:#000000;stroke-width:1.1458;" x1="478.9415" x2="478.9415" y1="687.8413" y2="694.7163"/><line style="stroke:#000000;stroke-width:1.1458;" x1="485.8165" x2="478.9415" y1="694.7163" y2="694.7163"/><text fill="#000000" font-family="Arial" font-size="14.8958" font-style="italic" lengthAdjust="spacing" textLength="79.4978" x="376.1802" y="714.6612">&lt;&lt;artifact&gt;&gt;</text><text fill="#000000" font-family="Arial" font-size="14.8958" lengthAdjust="spacing" textLength="98.5249" x="366.6667" y="738.665">LogicServer.dll</text></g><!--entity LogicServer--><g class="entity" data-entity="LogicServer" data-source-line="15" data-uid="ent0009" id="entity_LogicServer"><rect fill="#FFFFFF" height="58.3788" style="stroke:#000000;stroke-width:1.1458;" width="246.4124" x="64.7396" y="690.133"/><rect fill="#FFFFFF" height="11.4583" style="stroke:#000000;stroke-width:1.1458;" width="17.1875" x="288.2353" y="695.8621"/><rect fill="#FFFFFF" height="2.2917" style="stroke:#000000;stroke-width:1.1458;" width="4.5833" x="285.9436" y="698.1538"/><rect fill="#FFFFFF" height="2.2917" style="stroke:#000000;stroke-width:1.1458;" width="4.5833" x="285.9436" y="702.7371"/><text fill="#000000" font-family="Arial" font-size="14.8958" lengthAdjust="spacing" textLength="193.704" x="85.3646" y="730.7029">LogicServer (ASP.NET Core)</text></g><!--entity DataServer.jar--><g class="entity" data-entity="DataServer.jar" data-source-line="19" data-uid="ent0011" id="entity_DataServer.jar"><rect fill="#FFFFFF" height="74.3617" style="stroke:#000000;stroke-width:1.1458;" width="137.2801" x="338.0208" y="969.7163"/><polygon fill="#FFFFFF" points="455.8218,975.4455,455.8218,991.4871,469.5718,991.4871,469.5718,982.3205,462.6968,975.4455,455.8218,975.4455" style="stroke:#000000;stroke-width:1.1458;"/><line style="stroke:#000000;stroke-width:1.1458;" x1="462.6968" x2="462.6968" y1="975.4455" y2="982.3205"/><line style="stroke:#000000;stroke-width:1.1458;" x1="469.5718" x2="462.6968" y1="982.3205" y2="982.3205"/><text fill="#000000" font-family="Arial" font-size="14.8958" font-style="italic" lengthAdjust="spacing" textLength="79.4978" x="361.1828" y="1002.2654">&lt;&lt;artifact&gt;&gt;</text><text fill="#000000" font-family="Arial" font-size="14.8958" lengthAdjust="spacing" textLength="96.0301" x="352.9167" y="1026.2691">DataServer.jar</text></g><!--entity DataServer--><g class="entity" data-entity="DataServer" data-source-line="20" data-uid="ent0012" id="entity_DataServer"><rect fill="#FFFFFF" height="58.3788" style="stroke:#000000;stroke-width:1.1458;" width="219.9446" x="77.9167" y="977.7371"/><rect fill="#FFFFFF" height="11.4583" style="stroke:#000000;stroke-width:1.1458;" width="17.1875" x="274.9446" y="983.4663"/><rect fill="#FFFFFF" height="2.2917" style="stroke:#000000;stroke-width:1.1458;" width="4.5833" x="272.6529" y="985.758"/><rect fill="#FFFFFF" height="2.2917" style="stroke:#000000;stroke-width:1.1458;" width="4.5833" x="272.6529" y="990.3413"/><text fill="#000000" font-family="Arial" font-size="14.8958" lengthAdjust="spacing" textLength="167.2363" x="98.5417" y="1018.3071">DataServer (Spring Boot)</text></g><!--entity DB--><g class="entity" data-entity="DB" data-source-line="24" data-uid="ent0014" id="entity_DB"><path d="M132.3438,1268.7788 C132.3438,1257.3205 187.8104,1257.3205 187.8104,1257.3205 C187.8104,1257.3205 243.277,1257.3205 243.277,1268.7788 L243.277,1303.095 C243.277,1314.5534 187.8104,1314.5534 187.8104,1314.5534 C187.8104,1314.5534 132.3438,1314.5534 132.3438,1303.095 L132.3438,1268.7788" fill="#FFFFFF" style="stroke:#000000;stroke-width:1.1458;"/><path d="M132.3438,1268.7788 C132.3438,1280.2371 187.8104,1280.2371 187.8104,1280.2371 C187.8104,1280.2371 243.277,1280.2371 243.277,1268.7788" fill="none" style="stroke:#000000;stroke-width:1.1458;"/><text fill="#000000" font-family="Arial" font-size="14.8958" lengthAdjust="spacing" textLength="81.1416" x="147.2396" y="1302.4737">PostgreSQL</text></g><!--entity HTTPS--><g class="entity" data-entity="HTTPS" data-source-line="27" data-uid="ent0015" id="entity_HTTPS"><ellipse cx="187.9167" cy="287.9455" fill="#FFFFFF" rx="9.1667" ry="9.1667" style="stroke:#000000;stroke-width:1.1458;"/><text fill="#000000" font-family="Arial" font-size="14.8958" lengthAdjust="spacing" textLength="48.826" x="163.5036" y="325.0779">HTTPS</text></g><!--entity HTTP/REST--><g class="entity" data-entity="HTTP.REST" data-source-line="30" data-uid="ent0018" id="entity_HTTP.REST"><ellipse cx="187.9167" cy="575.5496" fill="#FFFFFF" rx="9.1667" ry="9.1667" style="stroke:#000000;stroke-width:1.1458;"/><text fill="#000000" font-family="Arial" font-size="14.8958" lengthAdjust="spacing" textLength="82.7562" x="146.5385" y="612.6821">HTTP/REST</text></g><!--entity gRPC--><g class="entity" data-entity="gRPC" data-source-line="33" data-uid="ent0021" id="entity_gRPC"><ellipse cx="187.9167" cy="863.1538" fill="#FFFFFF" rx="9.1667" ry="9.1667" style="stroke:#000000;stroke-width:1.1458;"/><text fill="#000000" font-family="Arial" font-size="14.8958" lengthAdjust="spacing" textLength="39.7343" x="168.0495" y="900.2862">gRPC</text></g><!--entity JDBC/SQL--><g class="entity" data-entity="JDBC.SQL" data-source-line="36" data-uid="ent0024" id="entity_JDBC.SQL"><ellipse cx="187.9167" cy="1150.758" fill="#FFFFFF" rx="9.1667" ry="9.1667" style="stroke:#000000;stroke-width:1.1458;"/><text fill="#000000" font-family="Arial" font-size="14.8958" lengthAdjust="spacing" textLength="72.8427" x="151.4953" y="1187.8904">JDBC/SQL</text></g><!--link Web Browser to HTTPS--><g class="link" data-entity-1="Web Browser" data-entity-2="HTTPS" data-source-line="27" data-uid="lnk16" id="link_Web Browser_HTTPS"><path d="M187.9167,181.6236 C187.9167,211.885 187.9167,245.8819 187.9167,266.1288" fill="none" id="Web Browser-to-HTTPS" style="stroke:#000000;stroke-width:1.1458;"/><path d="M197.6072,274.06 A10.3125,10.3125 0 0 0 178.2261 274.06" fill="none" style="stroke:#000000;stroke-width:1.7188;"/><text fill="#000000" font-family="Arial" font-size="14.8958" lengthAdjust="spacing" textLength="93.5499" x="90.5208" y="223.1904">User Interface</text></g><!--link HTTPS to ClientApp--><g class="link" data-entity-1="HTTPS" data-entity-2="ClientApp" data-source-line="28" data-uid="lnk17" id="link_HTTPS_ClientApp"><path d="M187.9167,298.2923 C187.9167,319.7996 187.9167,370.033 187.9167,402.3684" fill="none" id="HTTPS-ClientApp" style="stroke:#000000;stroke-width:1.1458;"/></g><!--link ClientApp to HTTP/REST--><g class="link" data-entity-1="ClientApp" data-entity-2="HTTP.REST" data-source-line="30" data-uid="lnk19" id="link_ClientApp_HTTP.REST"><path d="M187.9167,461.1955 C187.9167,493.4048 187.9167,531.8705 187.9167,553.5038" fill="none" id="ClientApp-to-HTTP/REST" style="stroke:#000000;stroke-width:1.1458;"/><path d="M197.6072,561.435 A10.3125,10.3125 0 0 0 178.2261 561.435" fill="none" style="stroke:#000000;stroke-width:1.7188;"/><text fill="#000000" font-family="Arial" font-size="14.8958" lengthAdjust="spacing" textLength="167.2581" x="17.1875" y="506.6696">Business Logic Requests</text></g><!--link HTTP/REST to LogicServer--><g class="link" data-entity-1="HTTP.REST" data-entity-2="LogicServer" data-source-line="31" data-uid="lnk20" id="link_HTTP.REST_LogicServer"><path d="M187.9167,585.8965 C187.9167,607.4038 187.9167,657.6371 187.9167,689.9725" fill="none" id="HTTP/REST-LogicServer" style="stroke:#000000;stroke-width:1.1458;"/></g><!--link LogicServer to gRPC--><g class="link" data-entity-1="LogicServer" data-entity-2="gRPC" data-source-line="33" data-uid="lnk22" id="link_LogicServer_gRPC"><path d="M187.9167,748.7996 C187.9167,781.009 187.9167,819.4746 187.9167,841.108" fill="none" id="LogicServer-to-gRPC" style="stroke:#000000;stroke-width:1.1458;"/><path d="M197.6072,849.0392 A10.3125,10.3125 0 0 0 178.2261 849.0392" fill="none" style="stroke:#000000;stroke-width:1.7188;"/><text fill="#000000" font-family="Arial" font-size="14.8958" lengthAdjust="spacing" textLength="150.6821" x="33.2292" y="794.2737">Data Access Requests</text></g><!--link gRPC to DataServer--><g class="link" data-entity-1="gRPC" data-entity-2="DataServer" data-source-line="34" data-uid="lnk23" id="link_gRPC_DataServer"><path d="M187.9167,873.5007 C187.9167,895.008 187.9167,945.2413 187.9167,977.5767" fill="none" id="gRPC-DataServer" style="stroke:#000000;stroke-width:1.1458;"/></g><!--link DataServer to JDBC/SQL--><g class="link" data-entity-1="DataServer" data-entity-2="JDBC.SQL" data-source-line="36" data-uid="lnk25" id="link_DataServer_JDBC.SQL"><path d="M187.9167,1036.4038 C187.9167,1068.6132 187.9167,1107.0788 187.9167,1128.7121" fill="none" id="DataServer-to-JDBC/SQL" style="stroke:#000000;stroke-width:1.1458;"/><path d="M197.6072,1136.6434 A10.3125,10.3125 0 0 0 178.2261 1136.6434" fill="none" style="stroke:#000000;stroke-width:1.7188;"/><text fill="#000000" font-family="Arial" font-size="14.8958" lengthAdjust="spacing" textLength="77.8249" x="106.5625" y="1081.8779">Persistence</text></g><!--link JDBC/SQL to DB--><g class="link" data-entity-1="JDBC.SQL" data-entity-2="DB" data-source-line="37" data-uid="lnk26" id="link_JDBC.SQL_DB"><path d="M187.9167,1161.3684 C187.9167,1181.7871 187.9167,1227.185 187.9167,1257.1715" fill="none" id="JDBC/SQL-DB" style="stroke:#000000;stroke-width:1.1458;"/></g><!--SRC=[XPB1Rjim44Jl_8ejJ-v1OX3q50G1B3j06pY5QYde8SY1bjOo2ufKISg1M_JVIqfMnGH8ggFUx0mvomz2LRAl4GxETVQACSEVqqQuGx_hBPfAAuVAfPLksTvWhQtanykBYq_iNYZHSbaUiCNyuNx33EujEo2lBMkvKAmT1OaBYhJhMqcSS19XWzmeiJz1SR8EMrXZ9_MfzJ6m5hmnl2L4QNya-k1FuF5HL4ZXDm7_FNx77MH6FtlqHFvCofKKORv0SqGpQRbnOiyhD-5brwMrb1IkhoTqSpCe_VKwhOB3B8L59lalRSwc7obm2__e7BtHZQZUJ1xe2F-V7ObXiIpozEjj2IjjS0oFy1o_vew_cHxWEVm7D- -7prfO59qHge5CQpT6p_1byevRV9LUJxzfhgrh31RVDgD75cPVB12IP06Vop8luEgyxY_-mHb_GgHa14aIjKxczOHH6YHiUrkKD1XalHKAxRafsEBF7gspbCGwxnSNIUBI1yzccwy6kw7QPLK5nyXhvDucAeL4xGqcT-jinOQRUwCSZHN-hQjmgmW5Zupy1G00]--></g></svg>