<svg xmlns="http://www.w3.org/2000/svg" xmlns:xlink="http://www.w3.org/1999/xlink" contentStyleType="text/css" data-diagram-type="SEQUENCE" height="776.875px" preserveAspectRatio="none" style="width:512px;height:776px;background:#FFFFFF;" version="1.1" viewBox="0 0 512 776" width="512.1875px" zoomAndPan="magnify"><title>UC9 - Edit Course Content</title><defs/><g><text fill="#000000" font-family="Arial" font-size="25.2083" font-weight="bold" lengthAdjust="spacing" textLength="316.5074" x="102.3192" y="44.6825">UC9 - Edit Course Content</text><rect fill="#FFFFFF" height="409.5621" style="stroke:#000000;stroke-width:1.1458;" width="487.9166" x="17.1875" y="340.3601"/><rect fill="#FFFFFF" height="241.4184" style="stroke:none;stroke-width:1.1458;" width="487.9166" x="17.1875" y="508.5038"/><g><title>Teacher</title><rect fill="#000000" fill-opacity="0.00000" height="608.7021" width="9.1667" x="58.2599" y="160.6992"/><line style="stroke:#000000;stroke-width:1.1458;" x1="61.875" x2="61.875" y1="160.6992" y2="769.4013"/></g><g><title>System</title><rect fill="#000000" fill-opacity="0.00000" height="608.7021" width="9.1667" x="338.547" y="160.6992"/><line style="stroke:#000000;stroke-width:1.1458;" x1="342.3616" x2="342.3616" y1="160.6992" y2="769.4013"/></g><g class="participant participant-head" data-participant="Teacher"><text fill="#000000" font-family="Arial" font-size="14.8958" lengthAdjust="spacing" textLength="54.6447" x="32.0833" y="154.3487">Teacher</text><ellipse cx="62.8432" cy="76.5392" fill="#FFFFFF" rx="9.1667" ry="9.1667" style="stroke:#000000;stroke-width:1.7188;"/><path d="M62.8432,85.7059 L62.8432,116.6434 M47.9474,94.8725 L77.739,94.8725 M62.8432,116.6434 L47.9474,133.8309 M62.8432,116.6434 L77.739,133.8309" fill="none" style="stroke:#000000;stroke-width:1.7188;"/></g><g class="participant participant-head" data-participant="System"><rect fill="#FFFFFF" height="40.0454" style="stroke:#000000;stroke-width:1.7188;" width="72.5791" x="306.8408" y="119.508"/><text fill="#000000" font-family="Arial" font-size="14.8958" lengthAdjust="spacing" textLength="49.6625" x="318.2991" y="145.1821">System</text></g><g class="message" data-participant-1="Teacher" data-participant-2="System"><polygon fill="#000000" points="329.3804,198.453,340.8387,203.0363,329.3804,207.6196,333.9637,203.0363" style="stroke:#000000;stroke-width:1.1458;"/><line style="stroke:#000000;stroke-width:1.1458;" x1="62.8432" x2="336.2554" y1="203.0363" y2="203.0363"/><text fill="#000000" font-family="Arial" font-size="14.8958" lengthAdjust="spacing" textLength="124.1998" x="140.8869" y="194.3941">Open own courses</text></g><g class="message" data-participant-1="System" data-participant-2="Teacher"><polygon fill="#000000" points="75.4474,238.4984,63.989,243.0817,75.4474,247.665,70.864,243.0817" style="stroke:#000000;stroke-width:1.1458;"/><line style="stroke:#000000;stroke-width:1.1458;stroke-dasharray:2.2917,2.2917;" x1="68.5724" x2="341.9845" y1="243.0817" y2="243.0817"/><text fill="#000000" font-family="Arial" font-size="14.8958" lengthAdjust="spacing" textLength="245.9122" x="80.0307" y="234.4396">Retrieve courses assigned to teacher</text></g><g class="message" data-participant-1="Teacher" data-participant-2="System"><polygon fill="#000000" points="329.3804,278.5438,340.8387,283.1271,329.3804,287.7105,333.9637,283.1271" style="stroke:#000000;stroke-width:1.1458;"/><line style="stroke:#000000;stroke-width:1.1458;" x1="62.8432" x2="336.2554" y1="283.1271" y2="283.1271"/><text fill="#000000" font-family="Arial" font-size="14.8958" lengthAdjust="spacing" textLength="134.9644" x="135.5046" y="274.485">Select course to edit</text></g><g class="message" data-participant-1="System" data-participant-2="Teacher"><polygon fill="#000000" points="75.4474,318.5892,63.989,323.1726,75.4474,327.7559,70.864,323.1726" style="stroke:#000000;stroke-width:1.1458;"/><line style="stroke:#000000;stroke-width:1.1458;stroke-dasharray:2.2917,2.2917;" x1="68.5724" x2="341.9845" y1="323.1726" y2="323.1726"/><text fill="#000000" font-family="Arial" font-size="14.8958" lengthAdjust="spacing" textLength="152.355" x="126.8093" y="314.5304">Provide course content</text></g><path d="M17.1875,340.3601 L93.0083,340.3601 L93.0083,355.1971 L81.55,366.6555 L17.1875,366.6555 L17.1875,340.3601" fill="#FFFFFF" style="stroke:#000000;stroke-width:1.1458;"/><rect fill="none" height="409.5621" style="stroke:#000000;stroke-width:1.1458;" width="487.9166" x="17.1875" y="340.3601"/><text fill="#000000" font-family="Arial" font-size="14.8958" font-weight="bold" lengthAdjust="spacing" textLength="17.3833" x="37.8125" y="359.1592">alt</text><text fill="#000000" font-family="Arial" font-size="14.8958" font-weight="bold" lengthAdjust="spacing" textLength="177.0989" x="113.6333" y="360.305">[Add New Learning Step]</text><g class="message" data-participant-1="Teacher" data-participant-2="System"><polygon fill="#000000" points="329.3804,399.7672,340.8387,404.3505,329.3804,408.9338,333.9637,404.3505" style="stroke:#000000;stroke-width:1.1458;"/><line style="stroke:#000000;stroke-width:1.1458;" x1="62.8432" x2="336.2554" y1="404.3505" y2="404.3505"/><text fill="#000000" font-family="Arial" font-size="14.8958" lengthAdjust="spacing" textLength="147.4018" x="129.2859" y="395.7083">Add new learning step</text></g><g class="message" data-participant-1="System" data-participant-2="System"><line style="stroke:#000000;stroke-width:1.1458;" x1="343.1304" x2="391.2554" y1="444.3959" y2="444.3959"/><line style="stroke:#000000;stroke-width:1.1458;" x1="391.2554" x2="391.2554" y1="444.3959" y2="459.2917"/><line style="stroke:#000000;stroke-width:1.1458;" x1="344.2762" x2="391.2554" y1="459.2917" y2="459.2917"/><polygon fill="#000000" points="355.7345,454.7084,344.2762,459.2917,355.7345,463.8751,351.1512,459.2917" style="stroke:#000000;stroke-width:1.1458;"/><text fill="#000000" font-family="Arial" font-size="14.8958" lengthAdjust="spacing" textLength="108.4676" x="354.5887" y="435.7538">Create new step</text></g><g class="message" data-participant-1="System" data-participant-2="Teacher"><polygon fill="#000000" points="75.4474,494.7538,63.989,499.3372,75.4474,503.9205,70.864,499.3372" style="stroke:#000000;stroke-width:1.1458;"/><line style="stroke:#000000;stroke-width:1.1458;stroke-dasharray:2.2917,2.2917;" x1="68.5724" x2="341.9845" y1="499.3372" y2="499.3372"/><text fill="#000000" font-family="Arial" font-size="14.8958" lengthAdjust="spacing" textLength="125.8654" x="140.0541" y="490.695">Show the new step</text></g><line style="stroke:#000000;stroke-width:1.1458;stroke-dasharray:2.2917,2.2917;" x1="17.1875" x2="505.1041" y1="509.6497" y2="509.6497"/><text fill="#000000" font-family="Arial" font-size="14.8958" font-weight="bold" lengthAdjust="spacing" textLength="203.5885" x="26.3542" y="527.3029">[Edit Existing Learning Step]</text><g class="message" data-participant-1="Teacher" data-participant-2="System"><polygon fill="#000000" points="329.3804,561.0947,340.8387,565.678,329.3804,570.2613,333.9637,565.678" style="stroke:#000000;stroke-width:1.1458;"/><line style="stroke:#000000;stroke-width:1.1458;" x1="62.8432" x2="336.2554" y1="565.678" y2="565.678"/><text fill="#000000" font-family="Arial" font-size="14.8958" lengthAdjust="spacing" textLength="175.5497" x="115.2119" y="557.0359">Select learning step to edit</text></g><g class="message" data-participant-1="System" data-participant-2="Teacher"><polygon fill="#000000" points="75.4474,601.1401,63.989,605.7234,75.4474,610.3068,70.864,605.7234" style="stroke:#000000;stroke-width:1.1458;"/><line style="stroke:#000000;stroke-width:1.1458;stroke-dasharray:2.2917,2.2917;" x1="68.5724" x2="341.9845" y1="605.7234" y2="605.7234"/><text fill="#000000" font-family="Arial" font-size="14.8958" lengthAdjust="spacing" textLength="186.2997" x="109.8369" y="597.0813">Provide current step content</text></g><g class="message" data-participant-1="Teacher" data-participant-2="System"><polygon fill="#000000" points="329.3804,641.1855,340.8387,645.7688,329.3804,650.3522,333.9637,645.7688" style="stroke:#000000;stroke-width:1.1458;"/><line style="stroke:#000000;stroke-width:1.1458;" x1="62.8432" x2="336.2554" y1="645.7688" y2="645.7688"/><text fill="#000000" font-family="Arial" font-size="14.8958" lengthAdjust="spacing" textLength="215.2986" x="95.3375" y="637.1267">Edit learning step, save changes</text></g><g class="message" data-participant-1="System" data-participant-2="System"><line style="stroke:#000000;stroke-width:1.1458;" x1="343.1304" x2="391.2554" y1="685.8143" y2="685.8143"/><line style="stroke:#000000;stroke-width:1.1458;" x1="391.2554" x2="391.2554" y1="685.8143" y2="700.7101"/><line style="stroke:#000000;stroke-width:1.1458;" x1="344.2762" x2="391.2554" y1="700.7101" y2="700.7101"/><polygon fill="#000000" points="355.7345,696.1268,344.2762,700.7101,355.7345,705.2934,351.1512,700.7101" style="stroke:#000000;stroke-width:1.1458;"/><text fill="#000000" font-family="Arial" font-size="14.8958" lengthAdjust="spacing" textLength="133.3279" x="354.5887" y="677.1721">Update step content</text></g><g class="message" data-participant-1="System" data-participant-2="Teacher"><polygon fill="#000000" points="75.4474,736.1722,63.989,740.7555,75.4474,745.3388,70.864,740.7555" style="stroke:#000000;stroke-width:1.1458;"/><line style="stroke:#000000;stroke-width:1.1458;stroke-dasharray:2.2917,2.2917;" x1="68.5724" x2="341.9845" y1="740.7555" y2="740.7555"/><text fill="#000000" font-family="Arial" font-size="14.8958" lengthAdjust="spacing" textLength="134.1352" x="135.9192" y="732.1134">Confirm step update</text></g><!--SRC=[ZPBBRi8m44Nt_ehfli6ewgOiAbM87RIeWGzmxKbYoO_8df3sx-kye8WWDHjByPcSgpiXJGRXk7w133PA4wnz4oAcmn4wOW_QITCeX8geZYlEWsWNfQQg-MeY1ZbW2-ajBm8g7uquFIsNptoddRR272gqk3_kjZnW4Nc5GaLkXNRS3a167R6e6siO4v9yW0CAMM5WjGYafQw58yX_8g5bRBo3x7LyjOAF6Xture7ieqSsN42Mc15VmITIq7Z22G8HeouTAY0FD0fdFfwZGKdZLCTYAcdMi0_-fDKaWB4P9Wp1crBmZYriKGIdNGavOSqWFJF63dO9DXCS9tYoNjXrG47OupVKtsnvvLj8HLz8D2bZl_3DjuxKUVwLRkpZAjovbdlwSpLD2AcJOMWgw8weptQbUOGekWLMmfLfo_ED76lLDN9Zc8kL_l521pl0JJ_8qAbV]--></g></svg>