<svg xmlns="http://www.w3.org/2000/svg" xmlns:xlink="http://www.w3.org/1999/xlink" contentStyleType="text/css" data-diagram-type="SEQUENCE" height="506.4583px" preserveAspectRatio="none" style="width:437px;height:506px;background:#FFFFFF;" version="1.1" viewBox="0 0 437 506" width="437.7083px" zoomAndPan="magnify"><title>UC3 - Manage Personal Learning</title><defs/><g><text fill="#000000" font-family="Arial" font-size="25.2083" font-weight="bold" lengthAdjust="spacing" textLength="393.6217" x="20.625" y="44.6825">UC3 - Manage Personal Learning</text><rect fill="#FFFFFF" height="219.5888" style="stroke:#000000;stroke-width:1.1458;" width="328.0242" x="53.9967" y="260.2692"/><rect fill="#FFFFFF" height="106.3863" style="stroke:none;stroke-width:1.1458;" width="328.0242" x="53.9967" y="373.4717"/><g><title>Learner</title><rect fill="#000000" fill-opacity="0.00000" height="338.6379" width="9.1667" x="93.418" y="160.6992"/><line style="stroke:#000000;stroke-width:1.1458;" x1="97.5384" x2="97.5384" y1="160.6992" y2="499.3372"/></g><g><title>System</title><rect fill="#000000" fill-opacity="0.00000" height="338.6379" width="9.1667" x="318.2313" y="160.6992"/><line style="stroke:#000000;stroke-width:1.1458;" x1="322.0459" x2="322.0459" y1="160.6992" y2="499.3372"/></g><g class="participant participant-head" data-participant="Learner"><text fill="#000000" font-family="Arial" font-size="14.8958" lengthAdjust="spacing" textLength="51.3426" x="68.8925" y="154.3487">Learner</text><ellipse cx="98.0013" cy="76.5392" fill="#FFFFFF" rx="9.1667" ry="9.1667" style="stroke:#000000;stroke-width:1.7188;"/><path d="M98.0013,85.7059 L98.0013,116.6434 M83.1055,94.8725 L112.8972,94.8725 M98.0013,116.6434 L83.1055,133.8309 M98.0013,116.6434 L112.8972,133.8309" fill="none" style="stroke:#000000;stroke-width:1.7188;"/></g><g class="participant participant-head" data-participant="System"><rect fill="#FFFFFF" height="40.0454" style="stroke:#000000;stroke-width:1.7188;" width="72.5791" x="286.5251" y="119.508"/><text fill="#000000" font-family="Arial" font-size="14.8958" lengthAdjust="spacing" textLength="49.6625" x="297.9834" y="145.1821">System</text></g><g class="message" data-participant-1="Learner" data-participant-2="System"><polygon fill="#000000" points="309.0646,198.453,320.523,203.0363,309.0646,207.6196,313.648,203.0363" style="stroke:#000000;stroke-width:1.1458;"/><line style="stroke:#000000;stroke-width:1.1458;" x1="98.0013" x2="315.9396" y1="203.0363" y2="203.0363"/><text fill="#000000" font-family="Arial" font-size="14.8958" lengthAdjust="spacing" textLength="149.8748" x="135.4706" y="194.3941">Open enrolled courses</text></g><g class="message" data-participant-1="System" data-participant-2="Learner"><polygon fill="#000000" points="110.6055,238.4984,99.1472,243.0817,110.6055,247.665,106.0222,243.0817" style="stroke:#000000;stroke-width:1.1458;"/><line style="stroke:#000000;stroke-width:1.1458;stroke-dasharray:2.2917,2.2917;" x1="103.7305" x2="321.6688" y1="243.0817" y2="243.0817"/><text fill="#000000" font-family="Arial" font-size="14.8958" lengthAdjust="spacing" textLength="136.6082" x="142.1039" y="234.4396">Retrieve the courses</text></g><path d="M53.9967,260.2692 L129.8175,260.2692 L129.8175,275.1063 L118.3592,286.5646 L53.9967,286.5646 L53.9967,260.2692" fill="#FFFFFF" style="stroke:#000000;stroke-width:1.1458;"/><rect fill="none" height="219.5888" style="stroke:#000000;stroke-width:1.1458;" width="328.0242" x="53.9967" y="260.2692"/><text fill="#000000" font-family="Arial" font-size="14.8958" font-weight="bold" lengthAdjust="spacing" textLength="17.3833" x="74.6217" y="279.0683">alt</text><text fill="#000000" font-family="Arial" font-size="14.8958" font-weight="bold" lengthAdjust="spacing" textLength="123.3343" x="150.4425" y="280.2142">[Resume Course]</text><g class="message" data-participant-1="Learner" data-participant-2="System"><polygon fill="#000000" points="309.0646,319.6763,320.523,324.2596,309.0646,328.843,313.648,324.2596" style="stroke:#000000;stroke-width:1.1458;"/><line style="stroke:#000000;stroke-width:1.1458;" x1="98.0013" x2="315.9396" y1="324.2596" y2="324.2596"/><text fill="#000000" font-family="Arial" font-size="14.8958" lengthAdjust="spacing" textLength="160.6175" x="130.0992" y="315.6175">Select course to resume</text></g><g class="message" data-participant-1="System" data-participant-2="Learner"><polygon fill="#000000" points="110.6055,359.7217,99.1472,364.3051,110.6055,368.8884,106.0222,364.3051" style="stroke:#000000;stroke-width:1.1458;"/><line style="stroke:#000000;stroke-width:1.1458;stroke-dasharray:2.2917,2.2917;" x1="103.7305" x2="321.6688" y1="364.3051" y2="364.3051"/><text fill="#000000" font-family="Arial" font-size="14.8958" lengthAdjust="spacing" textLength="190.4383" x="115.1888" y="355.6629">Provide current learning step</text></g><line style="stroke:#000000;stroke-width:1.1458;stroke-dasharray:2.2917,2.2917;" x1="53.9967" x2="382.0209" y1="374.6176" y2="374.6176"/><text fill="#000000" font-family="Arial" font-size="14.8958" font-weight="bold" lengthAdjust="spacing" textLength="70.3334" x="63.1634" y="392.2708">[Unenroll]</text><g class="message" data-participant-1="Learner" data-participant-2="System"><polygon fill="#000000" points="309.0646,426.0626,320.523,430.6459,309.0646,435.2292,313.648,430.6459" style="stroke:#000000;stroke-width:1.1458;"/><line style="stroke:#000000;stroke-width:1.1458;" x1="98.0013" x2="315.9396" y1="430.6459" y2="430.6459"/><text fill="#000000" font-family="Arial" font-size="14.8958" lengthAdjust="spacing" textLength="181.3175" x="119.7492" y="422.0038">Select unenroll from course</text></g><g class="message" data-participant-1="System" data-participant-2="Learner"><polygon fill="#000000" points="110.6055,466.108,99.1472,470.6913,110.6055,475.2747,106.0222,470.6913" style="stroke:#000000;stroke-width:1.1458;"/><line style="stroke:#000000;stroke-width:1.1458;stroke-dasharray:2.2917,2.2917;" x1="103.7305" x2="321.6688" y1="470.6913" y2="470.6913"/><text fill="#000000" font-family="Arial" font-size="14.8958" lengthAdjust="spacing" textLength="142.3978" x="139.2091" y="462.0492">Confirm unenrollment</text></g><!--SRC=[XP0nRiCm34LtdO8zWAsWxPIXIzO42Phw0AnCnm8aog2e5BrzrLZ8bA8Q-T_N8wXU0y6mUu4E3iXu8JYHvCGOO4yexFbYdZoxK4Q2MNN9Msi5l_gBrxbybapY4YknzYv5EmcDAGUyFcysh_RWsKSC7pD5EWs7lHMQifq9nsmZUhPn1Jhz9Vgbn60CEasooadCWgBU-GLPuVoTbQ8nBOFkhOssS5o8WLXI23I2IqKoPREcq5MmTRRmJYgUhWJLUGSnQ0roYGIxsyX0VGyyPmhajFL04yYjTSCVsKwIhhvUpXMHUYC8xQPGqSLGg9yClExzZx8q32P9iItmftQNUF8IxwLOtOPu_040]--></g></svg>