<svg xmlns="http://www.w3.org/2000/svg" xmlns:xlink="http://www.w3.org/1999/xlink" contentStyleType="text/css" data-diagram-type="SEQUENCE" height="506.4583px" preserveAspectRatio="none" style="width:437px;height:506px;background:#FFFFFF;" version="1.1" viewBox="0 0 437 506" width="437.7083px" zoomAndPan="magnify"><title>UC3 - Manage Personal Learning</title><defs/><g><text fill="#000000" font-family="Arial" font-size="25.2083" font-weight="bold" lengthAdjust="spacing" textLength="393.6217" x="20.625" y="44.6825">UC3 - Manage Personal Learning</text><rect fill="#FFFFFF" height="219.5888" style="stroke:#000000;stroke-width:1.1458;" width="347.0658" x="44.4759" y="260.2692"/><rect fill="#FFFFFF" height="106.3863" style="stroke:none;stroke-width:1.1458;" width="347.0658" x="44.4759" y="373.4717"/><g><title>Learner</title><rect fill="#000000" fill-opacity="0.00000" height="338.6379" width="9.1667" x="83.8972" y="160.6992"/><line style="stroke:#000000;stroke-width:1.1458;" x1="88.0175" x2="88.0175" y1="160.6992" y2="499.3372"/></g><g><title>System</title><rect fill="#000000" fill-opacity="0.00000" height="338.6379" width="9.1667" x="327.7521" y="160.6992"/><line style="stroke:#000000;stroke-width:1.1458;" x1="331.5667" x2="331.5667" y1="160.6992" y2="499.3372"/></g><g class="participant participant-head" data-participant="Learner"><text fill="#000000" font-family="Arial" font-size="14.8958" lengthAdjust="spacing" textLength="51.3426" x="59.3717" y="154.3487">Learner</text><ellipse cx="88.4805" cy="76.5392" fill="#FFFFFF" rx="9.1667" ry="9.1667" style="stroke:#000000;stroke-width:1.7188;"/><path d="M88.4805,85.7059 L88.4805,116.6434 M73.5847,94.8725 L103.3764,94.8725 M88.4805,116.6434 L73.5847,133.8309 M88.4805,116.6434 L103.3764,133.8309" fill="none" style="stroke:#000000;stroke-width:1.7188;"/></g><g class="participant participant-head" data-participant="System"><rect fill="#FFFFFF" height="40.0454" style="stroke:#000000;stroke-width:1.7188;" width="72.5791" x="296.0459" y="119.508"/><text fill="#000000" font-family="Arial" font-size="14.8958" lengthAdjust="spacing" textLength="49.6625" x="307.5042" y="145.1821">System</text></g><g class="message" data-participant-1="Learner" data-participant-2="System"><polygon fill="#000000" points="318.5854,198.453,330.0438,203.0363,318.5854,207.6196,323.1688,203.0363" style="stroke:#000000;stroke-width:1.1458;"/><line style="stroke:#000000;stroke-width:1.1458;" x1="88.4805" x2="325.4604" y1="203.0363" y2="203.0363"/><text fill="#000000" font-family="Arial" font-size="14.8958" lengthAdjust="spacing" textLength="168.9164" x="125.9498" y="194.3941">Request enrolled courses</text></g><g class="message" data-participant-1="System" data-participant-2="Learner"><polygon fill="#000000" points="101.0847,238.4984,89.6264,243.0817,101.0847,247.665,96.5014,243.0817" style="stroke:#000000;stroke-width:1.1458;"/><line style="stroke:#000000;stroke-width:1.1458;stroke-dasharray:2.2917,2.2917;" x1="94.2097" x2="331.1896" y1="243.0817" y2="243.0817"/><text fill="#000000" font-family="Arial" font-size="14.8958" lengthAdjust="spacing" textLength="201.181" x="109.8175" y="234.4396">Display list of enrolled courses</text></g><path d="M44.4759,260.2692 L120.2967,260.2692 L120.2967,275.1063 L108.8384,286.5646 L44.4759,286.5646 L44.4759,260.2692" fill="#FFFFFF" style="stroke:#000000;stroke-width:1.1458;"/><rect fill="none" height="219.5888" style="stroke:#000000;stroke-width:1.1458;" width="347.0658" x="44.4759" y="260.2692"/><text fill="#000000" font-family="Arial" font-size="14.8958" font-weight="bold" lengthAdjust="spacing" textLength="17.3833" x="65.1009" y="279.0683">alt</text><text fill="#000000" font-family="Arial" font-size="14.8958" font-weight="bold" lengthAdjust="spacing" textLength="123.3343" x="140.9217" y="280.2142">[Resume Course]</text><g class="message" data-participant-1="Learner" data-participant-2="System"><polygon fill="#000000" points="318.5854,319.6763,330.0438,324.2596,318.5854,328.843,323.1688,324.2596" style="stroke:#000000;stroke-width:1.1458;"/><line style="stroke:#000000;stroke-width:1.1458;" x1="88.4805" x2="325.4604" y1="324.2596" y2="324.2596"/><text fill="#000000" font-family="Arial" font-size="14.8958" lengthAdjust="spacing" textLength="160.6175" x="130.0992" y="315.6175">Select course to resume</text></g><g class="message" data-participant-1="System" data-participant-2="Learner"><polygon fill="#000000" points="101.0847,359.7217,89.6264,364.3051,101.0847,368.8884,96.5014,364.3051" style="stroke:#000000;stroke-width:1.1458;"/><line style="stroke:#000000;stroke-width:1.1458;stroke-dasharray:2.2917,2.2917;" x1="94.2097" x2="331.1896" y1="364.3051" y2="364.3051"/><text fill="#000000" font-family="Arial" font-size="14.8958" lengthAdjust="spacing" textLength="209.4799" x="105.668" y="355.6629">Display last saved learning step</text></g><line style="stroke:#000000;stroke-width:1.1458;stroke-dasharray:2.2917,2.2917;" x1="44.4759" x2="391.5417" y1="374.6176" y2="374.6176"/><text fill="#000000" font-family="Arial" font-size="14.8958" font-weight="bold" lengthAdjust="spacing" textLength="70.3334" x="53.6425" y="392.2708">[Unenroll]</text><g class="message" data-participant-1="Learner" data-participant-2="System"><polygon fill="#000000" points="318.5854,426.0626,330.0438,430.6459,318.5854,435.2292,323.1688,430.6459" style="stroke:#000000;stroke-width:1.1458;"/><line style="stroke:#000000;stroke-width:1.1458;" x1="88.4805" x2="325.4604" y1="430.6459" y2="430.6459"/><text fill="#000000" font-family="Arial" font-size="14.8958" lengthAdjust="spacing" textLength="181.3175" x="119.7492" y="422.0038">Select unenroll from course</text></g><g class="message" data-participant-1="System" data-participant-2="Learner"><polygon fill="#000000" points="101.0847,466.108,89.6264,470.6913,101.0847,475.2747,96.5014,470.6913" style="stroke:#000000;stroke-width:1.1458;"/><line style="stroke:#000000;stroke-width:1.1458;stroke-dasharray:2.2917,2.2917;" x1="94.2097" x2="331.1896" y1="470.6913" y2="470.6913"/><text fill="#000000" font-family="Arial" font-size="14.8958" lengthAdjust="spacing" textLength="142.3978" x="139.2091" y="462.0492">Confirm unenrollment</text></g><!--SRC=[XP5DJWCn34RtEOKvm3GLiEg2JLbIgQBq02RZwKHodC5nYdfxGcV4XZylxVVvMOb5OuBZzWuwsA7WYM1FMh8WmnEXIfIJkuaIkFO4ezbKDjuhlgzEqSRwMWjfo68ajWev-K6fpuNnVBjUt_jTb9YGNqPAj3_kdhpIKFn8s1UVC8fFCz3P9x6QQcBdC5ZMMKxg9bIB8Kue1eTBCKhEBJFe7fRM1fxfhL8n8D7CJ3s4NBLGSJC0NMENs0OUOvaOBy2n9VBmFOHiRMEfYM1xRJbezOFsG4p1bXnO1hschlYVPcpcWkVcvEMLeT6J8svxZZ9Vz8-rBXWCcjDomw_cRPOXQleAfVPZZgJ_0000]--></g></svg>