<svg xmlns="http://www.w3.org/2000/svg" xmlns:xlink="http://www.w3.org/1999/xlink" contentStyleType="text/css" data-diagram-type="ACTIVITY" height="673.75px" preserveAspectRatio="none" style="width:693px;height:673px;background:#FFFFFF;" version="1.1" viewBox="0 0 693 673" width="693.2292px" zoomAndPan="magnify"><defs/><g><rect fill="#FFFFFF" height="24.0038" style="stroke:#FFFFFF;stroke-width:1.1458;" width="667.0375" x="11.4583" y="6.875"/><ellipse cx="234.0602" cy="48.0663" fill="#FFFFFF" rx="11.4583" ry="11.4583" style="stroke:#000000;stroke-width:1.1458;"/><rect fill="#FFFFFF" height="46.9204" style="stroke:#000000;stroke-width:1.1458;" width="168.0654" x="150.0275" y="82.4413"/><text fill="#000000" font-family="Arial" font-size="14.8958" lengthAdjust="spacing" textLength="138.2738" x="164.9234" y="111.5529">Display learning step</text><rect fill="#FFFFFF" height="46.9204" style="stroke:#000000;stroke-width:1.1458;" width="139.9176" x="164.1015" y="342.3692"/><text fill="#000000" font-family="Arial" font-size="14.8958" lengthAdjust="spacing" textLength="110.1259" x="178.9973" y="371.4808">Evaluate answer</text><polygon fill="#FFFFFF" points="169.7775,412.2063,298.343,412.2063,312.093,425.9563,298.343,439.7063,169.7775,439.7063,156.0275,425.9563,169.7775,412.2063" style="stroke:#000000;stroke-width:1.1458;"/><text fill="#000000" font-family="Arial" font-size="14.8958" lengthAdjust="spacing" textLength="121.6905" x="173.215" y="431.6077">Is answer correct?</text><text fill="#000000" font-family="Arial" font-size="14.8958" lengthAdjust="spacing" textLength="23.1802" x="129.4098" y="419.6058">yes</text><text fill="#000000" font-family="Arial" font-size="14.8958" lengthAdjust="spacing" textLength="16.5687" x="315.5305" y="419.6058">no</text><rect fill="#FFFFFF" height="46.9204" style="stroke:#000000;stroke-width:1.1458;" width="201.1592" x="18.3333" y="451.1646"/><text fill="#000000" font-family="Arial" font-size="14.8958" lengthAdjust="spacing" textLength="171.3675" x="33.2292" y="480.2762">Display success message</text><rect fill="#FFFFFF" height="46.9204" style="stroke:#000000;stroke-width:1.1458;" width="187.9217" x="24.9521" y="521.0017"/><text fill="#000000" font-family="Arial" font-size="14.8958" lengthAdjust="spacing" textLength="158.13" x="39.8479" y="550.1133">Mark step as completed</text><ellipse cx="118.9129" cy="603.4429" fill="none" rx="12.6042" ry="12.6042" style="stroke:#000000;stroke-width:1.1458;"/><ellipse cx="118.9129" cy="603.4429" fill="#FFFFFF" rx="6.875" ry="6.875" style="stroke:#000000;stroke-width:1.1458;"/><rect fill="#FFFFFF" height="46.9204" style="stroke:#000000;stroke-width:1.1458;" width="178.8009" x="259.8071" y="451.1646"/><text fill="#000000" font-family="Arial" font-size="14.8958" lengthAdjust="spacing" textLength="149.0092" x="274.7029" y="480.2762">Display error message</text><rect fill="#FFFFFF" height="46.9204" style="stroke:#000000;stroke-width:1.1458;" width="213.5966" x="242.4092" y="521.0017"/><text fill="#000000" font-family="Arial" font-size="14.8958" lengthAdjust="spacing" textLength="183.805" x="257.305" y="550.1133">Provide corrective feedback</text><line style="stroke:#000000;stroke-width:1.1458;" x1="11.4583" x2="11.4583" y1="6.875" y2="666.4638"/><rect fill="#FFFFFF" height="46.9204" style="stroke:#000000;stroke-width:1.1458;" width="115.079" x="499.51" y="202.695"/><text fill="#000000" font-family="Arial" font-size="14.8958" lengthAdjust="spacing" textLength="85.2874" x="514.4059" y="231.8066">Input answer</text><rect fill="#FFFFFF" height="46.9204" style="stroke:#000000;stroke-width:1.1458;" width="128.3093" x="492.8949" y="272.5321"/><text fill="#000000" font-family="Arial" font-size="14.8958" lengthAdjust="spacing" textLength="98.5176" x="507.7908" y="301.6437">Submit answer</text><polygon fill="#FFFFFF" points="557.0496,152.2783,570.7996,166.0283,557.0496,179.7783,543.2996,166.0283,557.0496,152.2783" style="stroke:#000000;stroke-width:1.1458;"/><polygon fill="#FFFFFF" points="491.5267,638.9638,622.5724,638.9638,636.3224,652.7138,622.5724,666.4638,491.5267,666.4638,477.7767,652.7138,491.5267,638.9638" style="stroke:#000000;stroke-width:1.1458;"/><text fill="#000000" font-family="Arial" font-size="14.8958" lengthAdjust="spacing" textLength="124.1707" x="494.9642" y="658.3652">answer is incorrect</text><line style="stroke:#000000;stroke-width:1.1458;" x1="460.5892" x2="460.5892" y1="6.875" y2="666.4638"/><line style="stroke:#000000;stroke-width:1.1458;" x1="674.1349" x2="674.1349" y1="6.875" y2="666.4638"/><line style="stroke:#000000;stroke-width:1.1458;" x1="234.0602" x2="234.0602" y1="59.5246" y2="82.4413"/><polygon fill="#000000" points="229.4769,70.9829,234.0602,82.4413,238.6436,70.9829,234.0602,75.5663" style="stroke:#000000;stroke-width:1.1458;"/><line style="stroke:#000000;stroke-width:1.1458;" x1="118.9129" x2="118.9129" y1="498.085" y2="521.0017"/><polygon fill="#000000" points="114.3296,509.5434,118.9129,521.0017,123.4963,509.5434,118.9129,514.1267" style="stroke:#000000;stroke-width:1.1458;"/><line style="stroke:#000000;stroke-width:1.1458;" x1="118.9129" x2="118.9129" y1="567.9221" y2="590.8388"/><polygon fill="#000000" points="114.3296,579.3804,118.9129,590.8388,123.4963,579.3804,118.9129,583.9638" style="stroke:#000000;stroke-width:1.1458;"/><line style="stroke:#000000;stroke-width:1.1458;" x1="349.2075" x2="349.2075" y1="498.085" y2="521.0017"/><polygon fill="#000000" points="344.6242,509.5434,349.2075,521.0017,353.7909,509.5434,349.2075,514.1267" style="stroke:#000000;stroke-width:1.1458;"/><line style="stroke:#000000;stroke-width:1.1458;" x1="156.0275" x2="118.9129" y1="425.9563" y2="425.9563"/><line style="stroke:#000000;stroke-width:1.1458;" x1="118.9129" x2="118.9129" y1="425.9563" y2="451.1646"/><polygon fill="#000000" points="114.3296,439.7063,118.9129,451.1646,123.4963,439.7063,118.9129,444.2896" style="stroke:#000000;stroke-width:1.1458;"/><line style="stroke:#000000;stroke-width:1.1458;" x1="312.093" x2="349.2075" y1="425.9563" y2="425.9563"/><line style="stroke:#000000;stroke-width:1.1458;" x1="349.2075" x2="349.2075" y1="425.9563" y2="451.1646"/><polygon fill="#000000" points="344.6242,439.7063,349.2075,451.1646,353.7909,439.7063,349.2075,444.2896" style="stroke:#000000;stroke-width:1.1458;"/><line style="stroke:#000000;stroke-width:1.1458;" x1="349.2075" x2="349.2075" y1="567.9221" y2="621.7763"/><line style="stroke:#000000;stroke-width:1.1458;" x1="349.2075" x2="557.0496" y1="621.7763" y2="621.7763"/><line style="stroke:#000000;stroke-width:1.1458;" x1="234.0602" x2="234.0602" y1="389.2896" y2="412.2063"/><polygon fill="#000000" points="229.4769,400.7479,234.0602,412.2063,238.6436,400.7479,234.0602,405.3313" style="stroke:#000000;stroke-width:1.1458;"/><line style="stroke:#000000;stroke-width:1.1458;" x1="557.0496" x2="557.0496" y1="249.6154" y2="272.5321"/><polygon fill="#000000" points="552.4662,261.0738,557.0496,272.5321,561.6329,261.0738,557.0496,265.6571" style="stroke:#000000;stroke-width:1.1458;"/><line style="stroke:#000000;stroke-width:1.1458;" x1="557.0496" x2="557.0496" y1="179.7783" y2="202.695"/><polygon fill="#000000" points="552.4662,191.2367,557.0496,202.695,561.6329,191.2367,557.0496,195.82" style="stroke:#000000;stroke-width:1.1458;"/><line style="stroke:#000000;stroke-width:1.1458;" x1="636.3224" x2="652.3641" y1="652.7138" y2="652.7138"/><polygon fill="#000000" points="647.7808,415.6731,652.3641,404.2148,656.9474,415.6731,652.3641,411.0898" style="stroke:#000000;stroke-width:1.1458;"/><line style="stroke:#000000;stroke-width:1.1458;" x1="652.3641" x2="652.3641" y1="166.0283" y2="652.7138"/><line style="stroke:#000000;stroke-width:1.1458;" x1="652.3641" x2="570.7996" y1="166.0283" y2="166.0283"/><polygon fill="#000000" points="582.2579,161.445,570.7996,166.0283,582.2579,170.6117,577.6746,166.0283" style="stroke:#000000;stroke-width:1.1458;"/><line style="stroke:#000000;stroke-width:1.1458;" x1="557.0496" x2="557.0496" y1="319.4525" y2="325.1817"/><line style="stroke:#000000;stroke-width:1.1458;" x1="557.0496" x2="234.0602" y1="325.1817" y2="325.1817"/><line style="stroke:#000000;stroke-width:1.1458;" x1="234.0602" x2="234.0602" y1="325.1817" y2="342.3692"/><polygon fill="#000000" points="229.4769,330.9108,234.0602,342.3692,238.6436,330.9108,234.0602,335.4942" style="stroke:#000000;stroke-width:1.1458;"/><line style="stroke:#000000;stroke-width:1.1458;" x1="557.0496" x2="557.0496" y1="621.7763" y2="638.9638"/><polygon fill="#000000" points="552.4662,627.5054,557.0496,638.9638,561.6329,627.5054,557.0496,632.0888" style="stroke:#000000;stroke-width:1.1458;"/><line style="stroke:#000000;stroke-width:1.1458;" x1="234.0602" x2="234.0602" y1="129.3617" y2="135.0908"/><line style="stroke:#000000;stroke-width:1.1458;" x1="234.0602" x2="557.0496" y1="135.0908" y2="135.0908"/><line style="stroke:#000000;stroke-width:1.1458;" x1="557.0496" x2="557.0496" y1="135.0908" y2="152.2783"/><polygon fill="#000000" points="552.4662,140.82,557.0496,152.2783,561.6329,140.82,557.0496,145.4033" style="stroke:#000000;stroke-width:1.1458;"/><text fill="#000000" font-family="Arial" font-size="14.8958" lengthAdjust="spacing" textLength="49.6625" x="211.1925" y="24.5283">System</text><text fill="#000000" font-family="Arial" font-size="14.8958" lengthAdjust="spacing" textLength="31.45" x="551.6371" y="24.5283">User</text><!--SRC=[NP7FQiCm3CRlVWhjrXvMbx5JSjXbEnHMA7Hx0DLH6bF_Gx9J2dduUKl9s7mmYD_dJv_a1nkCAnt1a7EIHcl6w-Piyr1EHOXD39b2tfZeTS_KHN4uFcstptflW_NeFWRoTFZSlskcNlH0s8dsQ8Fsi-0nVoisgNYdfkDDClb9IKREgdcraXpUm15oiE4CbQPMJP-rywIO4c5LxK8g6J38bRXLpR6SlFsj5y_cRKHNCDE2bErXjPDx3IOoayalQwYH0gnk96i5zImvf1X38k3hXMTgPxf7llma0vHgufEZJDqC9SUao0d1AiH_RiGSUV626HuuZhQk-nx6ZWGzKNT2SsahLnGws__T05m7wsg3-nXMeFxP_7pz1G00]--></g></svg>