<svg xmlns="http://www.w3.org/2000/svg" xmlns:xlink="http://www.w3.org/1999/xlink" contentStyleType="text/css" data-diagram-type="SEQUENCE" height="521.3542px" preserveAspectRatio="none" style="width:422px;height:521px;background:#FFFFFF;" version="1.1" viewBox="0 0 422 521" width="422.8125px" zoomAndPan="magnify"><title>UC1 - Register</title><defs/><g><text fill="#000000" font-family="Arial" font-size="25.2083" font-weight="bold" lengthAdjust="spacing" textLength="173.7012" x="129.1054" y="44.6825">UC1 - Register</text><rect fill="#FFFFFF" height="139.4979" style="stroke:#000000;stroke-width:1.1458;" width="345.4038" x="17.1875" y="355.2559"/><rect fill="#FFFFFF" height="66.3408" style="stroke:none;stroke-width:1.1458;" width="345.4038" x="17.1875" y="428.413"/><g><title>User</title><rect fill="#000000" fill-opacity="0.00000" height="353.5338" width="9.1667" x="46.6625" y="160.6992"/><line style="stroke:#000000;stroke-width:1.1458;" x1="50.4167" x2="50.4167" y1="160.6992" y2="514.233"/></g><g><title>System</title><rect fill="#000000" fill-opacity="0.00000" height="353.5338" width="9.1667" x="298.8018" y="160.6992"/><line style="stroke:#000000;stroke-width:1.1458;" x1="302.6164" x2="302.6164" y1="160.6992" y2="514.233"/></g><g class="participant participant-head" data-participant="User"><text fill="#000000" font-family="Arial" font-size="14.8958" lengthAdjust="spacing" textLength="31.45" x="32.0833" y="154.3487">User</text><ellipse cx="51.2458" cy="76.5392" fill="#FFFFFF" rx="9.1667" ry="9.1667" style="stroke:#000000;stroke-width:1.7188;"/><path d="M51.2458,85.7059 L51.2458,116.6434 M36.35,94.8725 L66.1417,94.8725 M51.2458,116.6434 L36.35,133.8309 M51.2458,116.6434 L66.1417,133.8309" fill="none" style="stroke:#000000;stroke-width:1.7188;"/></g><g class="participant participant-head" data-participant="System"><rect fill="#FFFFFF" height="40.0454" style="stroke:#000000;stroke-width:1.7188;" width="72.5791" x="267.0955" y="119.508"/><text fill="#000000" font-family="Arial" font-size="14.8958" lengthAdjust="spacing" textLength="49.6625" x="278.5539" y="145.1821">System</text></g><g class="message" data-participant-1="User" data-participant-2="System"><polygon fill="#000000" points="289.6351,198.453,301.0934,203.0363,289.6351,207.6196,294.2184,203.0363" style="stroke:#000000;stroke-width:1.1458;"/><line style="stroke:#000000;stroke-width:1.1458;" x1="51.2458" x2="296.5101" y1="203.0363" y2="203.0363"/><text fill="#000000" font-family="Arial" font-size="14.8958" lengthAdjust="spacing" textLength="121.7123" x="116.4593" y="194.3941">Initiate registration</text></g><g class="message" data-participant-1="System" data-participant-2="User"><polygon fill="#000000" points="63.85,238.4984,52.3917,243.0817,63.85,247.665,59.2667,243.0817" style="stroke:#000000;stroke-width:1.1458;"/><line style="stroke:#000000;stroke-width:1.1458;stroke-dasharray:2.2917,2.2917;" x1="56.975" x2="302.2393" y1="243.0817" y2="243.0817"/><text fill="#000000" font-family="Arial" font-size="14.8958" lengthAdjust="spacing" textLength="135.7936" x="109.4187" y="234.4396">Request user details</text></g><g class="message" data-participant-1="User" data-participant-2="System"><polygon fill="#000000" points="289.6351,278.5438,301.0934,283.1271,289.6351,287.7105,294.2184,283.1271" style="stroke:#000000;stroke-width:1.1458;"/><line style="stroke:#000000;stroke-width:1.1458;" x1="51.2458" x2="296.5101" y1="283.1271" y2="283.1271"/><text fill="#000000" font-family="Arial" font-size="14.8958" lengthAdjust="spacing" textLength="217.7643" x="68.4333" y="274.485">Provide username and password</text></g><g class="message" data-participant-1="System" data-participant-2="System"><line style="stroke:#000000;stroke-width:1.1458;" x1="303.3851" x2="351.5101" y1="323.1726" y2="323.1726"/><line style="stroke:#000000;stroke-width:1.1458;" x1="351.5101" x2="351.5101" y1="323.1726" y2="338.0684"/><line style="stroke:#000000;stroke-width:1.1458;" x1="304.5309" x2="351.5101" y1="338.0684" y2="338.0684"/><polygon fill="#000000" points="315.9893,333.4851,304.5309,338.0684,315.9893,342.6517,311.4059,338.0684" style="stroke:#000000;stroke-width:1.1458;"/><text fill="#000000" font-family="Arial" font-size="14.8958" lengthAdjust="spacing" textLength="101.0269" x="314.8434" y="314.5304">Validate details</text></g><path d="M17.1875,355.2559 L93.0083,355.2559 L93.0083,370.093 L81.55,381.5513 L17.1875,381.5513 L17.1875,355.2559" fill="#FFFFFF" style="stroke:#000000;stroke-width:1.1458;"/><rect fill="none" height="139.4979" style="stroke:#000000;stroke-width:1.1458;" width="345.4038" x="17.1875" y="355.2559"/><text fill="#000000" font-family="Arial" font-size="14.8958" font-weight="bold" lengthAdjust="spacing" textLength="17.3833" x="37.8125" y="374.055">alt</text><text fill="#000000" font-family="Arial" font-size="14.8958" font-weight="bold" lengthAdjust="spacing" textLength="70.377" x="113.6333" y="375.2008">[Success]</text><g class="message" data-participant-1="System" data-participant-2="User"><polygon fill="#000000" points="63.85,414.663,52.3917,419.2463,63.85,423.8297,59.2667,419.2463" style="stroke:#000000;stroke-width:1.1458;"/><line style="stroke:#000000;stroke-width:1.1458;stroke-dasharray:2.2917,2.2917;" x1="56.975" x2="302.2393" y1="419.2463" y2="419.2463"/><text fill="#000000" font-family="Arial" font-size="14.8958" lengthAdjust="spacing" textLength="129.9676" x="112.3317" y="410.6042">Confirm registration</text></g><line style="stroke:#000000;stroke-width:1.1458;stroke-dasharray:2.2917,2.2917;" x1="17.1875" x2="362.5913" y1="429.5588" y2="429.5588"/><text fill="#000000" font-family="Arial" font-size="14.8958" font-weight="bold" lengthAdjust="spacing" textLength="58.7614" x="26.3542" y="447.2121">[Failure]</text><g class="message" data-participant-1="System" data-participant-2="User"><polygon fill="#000000" points="63.85,481.0038,52.3917,485.5872,63.85,490.1705,59.2667,485.5872" style="stroke:#000000;stroke-width:1.1458;"/><line style="stroke:#000000;stroke-width:1.1458;stroke-dasharray:2.2917,2.2917;" x1="56.975" x2="302.2393" y1="485.5872" y2="485.5872"/><text fill="#000000" font-family="Arial" font-size="14.8958" lengthAdjust="spacing" textLength="137.4301" x="108.6004" y="476.945">Show error message</text></g><!--SRC=[RP3BJWCn34Nt-Ghp0JCfY5KNR2eX8L6feWnxaxWTItaCZjCHVq-6yX0gtaM-FZwEiWQ2ONCD7JpHaOkIc2jEBbHFCAfEPMsjuDmVMSVwMWk9oqafQUzoj0SXdql0qyrgTMktd3XYU1ufqcxOFbgXGx4ZeIys8YSRpu5EbqG_rHYCGQTPO6XWCw4eEvumAUpVcqiqPcb0T_VrNiD3OcLK0ldK5LJEoPoxqBNWCh1knxnLAWgBC7XIv50kM3l99svtBg64aG2JXmbBcRFu7-Pl_WK3-sNtDn134wtEKIa6MbreR78wiCI_iXGAmNq3LA7_n_PZde54siV4niOZ6Kh-0m00]--></g></svg>