<svg xmlns="http://www.w3.org/2000/svg" xmlns:xlink="http://www.w3.org/1999/xlink" contentStyleType="text/css" data-diagram-type="SEQUENCE" height="696.6667px" preserveAspectRatio="none" style="width:703px;height:696px;background:#FFFFFF;" version="1.1" viewBox="0 0 703 696" width="703.5417px" zoomAndPan="magnify"><title>UC11 - Review Course Drafts</title><defs/><g><text fill="#000000" font-family="Arial" font-size="25.2083" font-weight="bold" lengthAdjust="spacing" textLength="347.427" x="182.2676" y="44.6825">UC11 - Review Course Drafts</text><rect fill="#FFFFFF" height="329.4713" style="stroke:#000000;stroke-width:1.1458;" width="678.7331" x="17.1875" y="340.3601"/><rect fill="#FFFFFF" height="161.3275" style="stroke:none;stroke-width:1.1458;" width="678.7331" x="17.1875" y="508.5038"/><g><title>Admin</title><rect fill="#000000" fill-opacity="0.00000" height="528.6113" width="9.1667" x="52.0484" y="160.6992"/><line style="stroke:#000000;stroke-width:1.1458;" x1="56.1458" x2="56.1458" y1="160.6992" y2="689.3105"/></g><g><title>System</title><rect fill="#000000" fill-opacity="0.00000" height="528.6113" width="9.1667" x="321.5347" y="160.6992"/><line style="stroke:#000000;stroke-width:1.1458;" x1="325.3492" x2="325.3492" y1="160.6992" y2="689.3105"/></g><g class="participant participant-head" data-participant="Admin"><text fill="#000000" font-family="Arial" font-size="14.8958" lengthAdjust="spacing" textLength="42.2218" x="32.0833" y="154.3487">Admin</text><ellipse cx="56.6317" cy="76.5392" fill="#FFFFFF" rx="9.1667" ry="9.1667" style="stroke:#000000;stroke-width:1.7188;"/><path d="M56.6317,85.7059 L56.6317,116.6434 M41.7359,94.8725 L71.5276,94.8725 M56.6317,116.6434 L41.7359,133.8309 M56.6317,116.6434 L71.5276,133.8309" fill="none" style="stroke:#000000;stroke-width:1.7188;"/></g><g class="participant participant-head" data-participant="System"><rect fill="#FFFFFF" height="40.0454" style="stroke:#000000;stroke-width:1.7188;" width="72.5791" x="289.8284" y="119.508"/><text fill="#000000" font-family="Arial" font-size="14.8958" lengthAdjust="spacing" textLength="49.6625" x="301.2867" y="145.1821">System</text></g><g class="message" data-participant-1="Admin" data-participant-2="System"><polygon fill="#000000" points="312.368,198.453,323.8263,203.0363,312.368,207.6196,316.9513,203.0363" style="stroke:#000000;stroke-width:1.1458;"/><line style="stroke:#000000;stroke-width:1.1458;" x1="56.6317" x2="319.243" y1="203.0363" y2="203.0363"/><text fill="#000000" font-family="Arial" font-size="14.8958" lengthAdjust="spacing" textLength="154.0279" x="114.3609" y="194.3941">Request pending drafts</text></g><g class="message" data-participant-1="System" data-participant-2="Admin"><polygon fill="#000000" points="69.2359,238.4984,57.7776,243.0817,69.2359,247.665,64.6526,243.0817" style="stroke:#000000;stroke-width:1.1458;"/><line style="stroke:#000000;stroke-width:1.1458;stroke-dasharray:2.2917,2.2917;" x1="62.3609" x2="324.9722" y1="243.0817" y2="243.0817"/><text fill="#000000" font-family="Arial" font-size="14.8958" lengthAdjust="spacing" textLength="235.1112" x="73.8192" y="234.4396">Display list of drafts awaiting review</text></g><g class="message" data-participant-1="Admin" data-participant-2="System"><polygon fill="#000000" points="312.368,278.5438,323.8263,283.1271,312.368,287.7105,316.9513,283.1271" style="stroke:#000000;stroke-width:1.1458;"/><line style="stroke:#000000;stroke-width:1.1458;" x1="56.6317" x2="319.243" y1="283.1271" y2="283.1271"/><text fill="#000000" font-family="Arial" font-size="14.8958" lengthAdjust="spacing" textLength="139.0884" x="121.8307" y="274.485">Select draft to review</text></g><g class="message" data-participant-1="System" data-participant-2="Admin"><polygon fill="#000000" points="69.2359,318.5892,57.7776,323.1726,69.2359,327.7559,64.6526,323.1726" style="stroke:#000000;stroke-width:1.1458;"/><line style="stroke:#000000;stroke-width:1.1458;stroke-dasharray:2.2917,2.2917;" x1="62.3609" x2="324.9722" y1="323.1726" y2="323.1726"/><text fill="#000000" font-family="Arial" font-size="14.8958" lengthAdjust="spacing" textLength="118.403" x="132.1734" y="314.5304">Show draft details</text></g><path d="M17.1875,340.3601 L93.0083,340.3601 L93.0083,355.1971 L81.55,366.6555 L17.1875,366.6555 L17.1875,340.3601" fill="#FFFFFF" style="stroke:#000000;stroke-width:1.1458;"/><rect fill="none" height="329.4713" style="stroke:#000000;stroke-width:1.1458;" width="678.7331" x="17.1875" y="340.3601"/><text fill="#000000" font-family="Arial" font-size="14.8958" font-weight="bold" lengthAdjust="spacing" textLength="17.3833" x="37.8125" y="359.1592">alt</text><text fill="#000000" font-family="Arial" font-size="14.8958" font-weight="bold" lengthAdjust="spacing" textLength="70.3406" x="113.6333" y="360.305">[Approve]</text><g class="message" data-participant-1="Admin" data-participant-2="System"><polygon fill="#000000" points="312.368,399.7672,323.8263,404.3505,312.368,408.9338,316.9513,404.3505" style="stroke:#000000;stroke-width:1.1458;"/><line style="stroke:#000000;stroke-width:1.1458;" x1="56.6317" x2="319.243" y1="404.3505" y2="404.3505"/><text fill="#000000" font-family="Arial" font-size="14.8958" lengthAdjust="spacing" textLength="89.4259" x="146.6619" y="395.7083">Approve draft</text></g><g class="message" data-participant-1="System" data-participant-2="System"><line style="stroke:#000000;stroke-width:1.1458;" x1="326.118" x2="374.243" y1="444.3959" y2="444.3959"/><line style="stroke:#000000;stroke-width:1.1458;" x1="374.243" x2="374.243" y1="444.3959" y2="459.2917"/><line style="stroke:#000000;stroke-width:1.1458;" x1="327.2638" x2="374.243" y1="459.2917" y2="459.2917"/><polygon fill="#000000" points="338.7222,454.7084,327.2638,459.2917,338.7222,463.8751,334.1388,459.2917" style="stroke:#000000;stroke-width:1.1458;"/><text fill="#000000" font-family="Arial" font-size="14.8958" lengthAdjust="spacing" textLength="341.1568" x="337.5763" y="435.7538">Update status to approved and initialize new course</text></g><g class="message" data-participant-1="System" data-participant-2="Admin"><polygon fill="#000000" points="69.2359,494.7538,57.7776,499.3372,69.2359,503.9205,64.6526,499.3372" style="stroke:#000000;stroke-width:1.1458;"/><line style="stroke:#000000;stroke-width:1.1458;stroke-dasharray:2.2917,2.2917;" x1="62.3609" x2="324.9722" y1="499.3372" y2="499.3372"/><text fill="#000000" font-family="Arial" font-size="14.8958" lengthAdjust="spacing" textLength="113.4207" x="134.6645" y="490.695">Confirm approval</text></g><line style="stroke:#000000;stroke-width:1.1458;stroke-dasharray:2.2917,2.2917;" x1="17.1875" x2="695.9206" y1="509.6497" y2="509.6497"/><text fill="#000000" font-family="Arial" font-size="14.8958" font-weight="bold" lengthAdjust="spacing" textLength="91.0479" x="26.3542" y="527.3029">[Disapprove]</text><g class="message" data-participant-1="Admin" data-participant-2="System"><polygon fill="#000000" points="312.368,561.0947,323.8263,565.678,312.368,570.2613,316.9513,565.678" style="stroke:#000000;stroke-width:1.1458;"/><line style="stroke:#000000;stroke-width:1.1458;" x1="56.6317" x2="319.243" y1="565.678" y2="565.678"/><text fill="#000000" font-family="Arial" font-size="14.8958" lengthAdjust="spacing" textLength="109.2894" x="136.7301" y="557.0359">Disapprove draft</text></g><g class="message" data-participant-1="System" data-participant-2="System"><line style="stroke:#000000;stroke-width:1.1458;" x1="326.118" x2="374.243" y1="605.7234" y2="605.7234"/><line style="stroke:#000000;stroke-width:1.1458;" x1="374.243" x2="374.243" y1="605.7234" y2="620.6193"/><line style="stroke:#000000;stroke-width:1.1458;" x1="327.2638" x2="374.243" y1="620.6193" y2="620.6193"/><polygon fill="#000000" points="338.7222,616.0359,327.2638,620.6193,338.7222,625.2026,334.1388,620.6193" style="stroke:#000000;stroke-width:1.1458;"/><text fill="#000000" font-family="Arial" font-size="14.8958" lengthAdjust="spacing" textLength="101.8488" x="337.5763" y="597.0813">Delete the draft</text></g><g class="message" data-participant-1="System" data-participant-2="Admin"><polygon fill="#000000" points="69.2359,656.0813,57.7776,660.6647,69.2359,665.248,64.6526,660.6647" style="stroke:#000000;stroke-width:1.1458;"/><line style="stroke:#000000;stroke-width:1.1458;stroke-dasharray:2.2917,2.2917;" x1="62.3609" x2="324.9722" y1="660.6647" y2="660.6647"/><text fill="#000000" font-family="Arial" font-size="14.8958" lengthAdjust="spacing" textLength="112.5843" x="135.0827" y="652.0225">Confirm rejection</text></g><!--SRC=[VP5DJiCm48NtFiLmWDGKiUe2gMgNL4AK7c289yqW_s5F6fNJuoQfAXHKB_s-UNwU9ooMuB1PBg62TpenzR09NSe4suIDPFN0lhQT8MX5ObvfdR1V75dQxhFBbEhWXRmiwk1qayY4RF7qzFZuh7VisQ7zQCdHss7tgXCrMRU49ck7xBKRWKekn29spYg5jOG4QrCq5J49rnpH2-pFMSWfDIXGlKmNgvBvkwCi4CaRzaSmO-fHXggGmyWAjfoZnJDOBdHe9X2mHvRBO1e-FtzWJvPg6N6GSENc3-pRq4-O8K6sMQ4LMCUOmeaKb3CpdyHnR42klZVc40qAGHQKBbyIu3Xa0Bs1iaDXjFn3u4jtzT3T7wTRmatm3ISt6Q1LP2yzSyPx6M_wtPZRigSIivJv3pRFaEYhh9M3LwMuNm00]--></g></svg>