<svg xmlns="http://www.w3.org/2000/svg" xmlns:xlink="http://www.w3.org/1999/xlink" contentStyleType="text/css" data-diagram-type="SEQUENCE" height="586.6667px" preserveAspectRatio="none" style="width:398px;height:586px;background:#FFFFFF;" version="1.1" viewBox="0 0 398 586" width="398.75px" zoomAndPan="magnify"><title>UC11 - Review Course Drafts</title><defs/><g><text fill="#000000" font-family="Arial" font-size="25.2083" font-weight="bold" lengthAdjust="spacing" textLength="347.427" x="27.4022" y="44.6825">UC11 - Review Course Drafts</text><rect fill="#FFFFFF" height="219.5888" style="stroke:#000000;stroke-width:1.1458;" width="369.0023" x="17.1875" y="340.3601"/><rect fill="#FFFFFF" height="106.3863" style="stroke:none;stroke-width:1.1458;" width="369.0023" x="17.1875" y="453.5626"/><g><title>Admin</title><rect fill="#000000" fill-opacity="0.00000" height="418.7288" width="9.1667" x="52.0484" y="160.6992"/><line style="stroke:#000000;stroke-width:1.1458;" x1="56.1458" x2="56.1458" y1="160.6992" y2="579.428"/></g><g><title>System</title><rect fill="#000000" fill-opacity="0.00000" height="418.7288" width="9.1667" x="322.4002" y="160.6992"/><line style="stroke:#000000;stroke-width:1.1458;" x1="326.2148" x2="326.2148" y1="160.6992" y2="579.428"/></g><g class="participant participant-head" data-participant="Admin"><text fill="#000000" font-family="Arial" font-size="14.8958" lengthAdjust="spacing" textLength="42.2218" x="32.0833" y="154.3487">Admin</text><ellipse cx="56.6317" cy="76.5392" fill="#FFFFFF" rx="9.1667" ry="9.1667" style="stroke:#000000;stroke-width:1.7188;"/><path d="M56.6317,85.7059 L56.6317,116.6434 M41.7359,94.8725 L71.5276,94.8725 M56.6317,116.6434 L41.7359,133.8309 M56.6317,116.6434 L71.5276,133.8309" fill="none" style="stroke:#000000;stroke-width:1.7188;"/></g><g class="participant participant-head" data-participant="System"><rect fill="#FFFFFF" height="40.0454" style="stroke:#000000;stroke-width:1.7188;" width="72.5791" x="290.6939" y="119.508"/><text fill="#000000" font-family="Arial" font-size="14.8958" lengthAdjust="spacing" textLength="49.6625" x="302.1523" y="145.1821">System</text></g><g class="message" data-participant-1="Admin" data-participant-2="System"><polygon fill="#000000" points="313.2335,198.453,324.6918,203.0363,313.2335,207.6196,317.8168,203.0363" style="stroke:#000000;stroke-width:1.1458;"/><line style="stroke:#000000;stroke-width:1.1458;" x1="56.6317" x2="320.1085" y1="203.0363" y2="203.0363"/><text fill="#000000" font-family="Arial" font-size="14.8958" lengthAdjust="spacing" textLength="154.0279" x="114.7937" y="194.3941">Request pending drafts</text></g><g class="message" data-participant-1="System" data-participant-2="Admin"><polygon fill="#000000" points="69.2359,238.4984,57.7776,243.0817,69.2359,247.665,64.6526,243.0817" style="stroke:#000000;stroke-width:1.1458;"/><line style="stroke:#000000;stroke-width:1.1458;stroke-dasharray:2.2917,2.2917;" x1="62.3609" x2="325.8377" y1="243.0817" y2="243.0817"/><text fill="#000000" font-family="Arial" font-size="14.8958" lengthAdjust="spacing" textLength="235.1112" x="74.252" y="234.4396">Display list of drafts awaiting review</text></g><g class="message" data-participant-1="Admin" data-participant-2="System"><polygon fill="#000000" points="313.2335,278.5438,324.6918,283.1271,313.2335,287.7105,317.8168,283.1271" style="stroke:#000000;stroke-width:1.1458;"/><line style="stroke:#000000;stroke-width:1.1458;" x1="56.6317" x2="320.1085" y1="283.1271" y2="283.1271"/><text fill="#000000" font-family="Arial" font-size="14.8958" lengthAdjust="spacing" textLength="139.0884" x="122.2634" y="274.485">Select draft to review</text></g><g class="message" data-participant-1="System" data-participant-2="Admin"><polygon fill="#000000" points="69.2359,318.5892,57.7776,323.1726,69.2359,327.7559,64.6526,323.1726" style="stroke:#000000;stroke-width:1.1458;"/><line style="stroke:#000000;stroke-width:1.1458;stroke-dasharray:2.2917,2.2917;" x1="62.3609" x2="325.8377" y1="323.1726" y2="323.1726"/><text fill="#000000" font-family="Arial" font-size="14.8958" lengthAdjust="spacing" textLength="118.403" x="132.6062" y="314.5304">Show draft details</text></g><path d="M17.1875,340.3601 L93.0083,340.3601 L93.0083,355.1971 L81.55,366.6555 L17.1875,366.6555 L17.1875,340.3601" fill="#FFFFFF" style="stroke:#000000;stroke-width:1.1458;"/><rect fill="none" height="219.5888" style="stroke:#000000;stroke-width:1.1458;" width="369.0023" x="17.1875" y="340.3601"/><text fill="#000000" font-family="Arial" font-size="14.8958" font-weight="bold" lengthAdjust="spacing" textLength="17.3833" x="37.8125" y="359.1592">alt</text><text fill="#000000" font-family="Arial" font-size="14.8958" font-weight="bold" lengthAdjust="spacing" textLength="70.3406" x="113.6333" y="360.305">[Approve]</text><g class="message" data-participant-1="Admin" data-participant-2="System"><polygon fill="#000000" points="313.2335,399.7672,324.6918,404.3505,313.2335,408.9338,317.8168,404.3505" style="stroke:#000000;stroke-width:1.1458;"/><line style="stroke:#000000;stroke-width:1.1458;" x1="56.6317" x2="320.1085" y1="404.3505" y2="404.3505"/><text fill="#000000" font-family="Arial" font-size="14.8958" lengthAdjust="spacing" textLength="89.4259" x="147.0947" y="395.7083">Approve draft</text></g><g class="message" data-participant-1="System" data-participant-2="Admin"><polygon fill="#000000" points="69.2359,439.8126,57.7776,444.3959,69.2359,448.9792,64.6526,444.3959" style="stroke:#000000;stroke-width:1.1458;"/><line style="stroke:#000000;stroke-width:1.1458;stroke-dasharray:2.2917,2.2917;" x1="62.3609" x2="325.8377" y1="444.3959" y2="444.3959"/><text fill="#000000" font-family="Arial" font-size="14.8958" lengthAdjust="spacing" textLength="235.9768" x="73.8192" y="435.7538">Confirm approval and notify teacher</text></g><line style="stroke:#000000;stroke-width:1.1458;stroke-dasharray:2.2917,2.2917;" x1="17.1875" x2="386.1898" y1="454.7084" y2="454.7084"/><text fill="#000000" font-family="Arial" font-size="14.8958" font-weight="bold" lengthAdjust="spacing" textLength="91.0479" x="26.3542" y="472.3617">[Disapprove]</text><g class="message" data-participant-1="Admin" data-participant-2="System"><polygon fill="#000000" points="313.2335,506.1534,324.6918,510.7367,313.2335,515.3201,317.8168,510.7367" style="stroke:#000000;stroke-width:1.1458;"/><line style="stroke:#000000;stroke-width:1.1458;" x1="56.6317" x2="320.1085" y1="510.7367" y2="510.7367"/><text fill="#000000" font-family="Arial" font-size="14.8958" lengthAdjust="spacing" textLength="204.5122" x="89.5515" y="502.0946">Disapprove draft with feedback</text></g><g class="message" data-participant-1="System" data-participant-2="Admin"><polygon fill="#000000" points="69.2359,546.1988,57.7776,550.7822,69.2359,555.3655,64.6526,550.7822" style="stroke:#000000;stroke-width:1.1458;"/><line style="stroke:#000000;stroke-width:1.1458;stroke-dasharray:2.2917,2.2917;" x1="62.3609" x2="325.8377" y1="550.7822" y2="550.7822"/><text fill="#000000" font-family="Arial" font-size="14.8958" lengthAdjust="spacing" textLength="235.1403" x="74.2375" y="542.14">Confirm rejection and notify teacher</text></g><!--SRC=[XP5DRi8m48NtFiNq0C5GTSMY4e9baQfI3Z3O4pBKVxKdHDo-8KdLHQhMIx_lpNls28iZE6vNAwZWZQvC7MnZcml1BcCjHJrmCAwr18r8AckjCtQBCqlJdjf2sSGW56HXejTr9XkBm-lZSlcaznpOetjloDFhSV-YCzL5DuIsQ8ySj1-1Ikx48hNUAOL6OeQDxJMLC0iRJXW43hSYv9KQ5AYUfujrt_cpfIAGA5WEPx1Zwr66gYS7onfsN9B36pZkwLXF8627B7TZ7Xu_3pYG8oCZ3XA_kNd0eOdTX5aIP5SKEe5DIZbUIK5_PiCdSRGDo7pkDeQQimSSM7I0mKA8mlKDXD0qb1Mv-yAuu5zXF_fKi-kt23MHFQ7v-2SzqwN_1exXr_XWlm00]--></g></svg>