<svg xmlns="http://www.w3.org/2000/svg" xmlns:xlink="http://www.w3.org/1999/xlink" contentStyleType="text/css" data-diagram-type="ACTIVITY" height="543.125px" preserveAspectRatio="none" style="width:609px;height:543px;background:#FFFFFF;" version="1.1" viewBox="0 0 609 543" width="609.5833px" zoomAndPan="magnify"><defs/><g><ellipse cx="305.3335" cy="17.1875" fill="#FFFFFF" rx="11.4583" ry="11.4583" style="stroke:#000000;stroke-width:1.1458;"/><rect fill="#000000" height="6.875" rx="2.8646" ry="2.8646" style="stroke:#000000;stroke-width:1.1458;" width="596.9171" x="6.875" y="51.5625"/><rect fill="#FFFFFF" height="46.9204" style="stroke:#000000;stroke-width:1.1458;" width="244.2175" x="40.5213" y="124.8665"/><text fill="#000000" font-family="Arial" font-size="14.8958" lengthAdjust="spacing" textLength="214.4258" x="55.4171" y="153.9781">Admin manages system settings</text><rect fill="#FFFFFF" height="46.9204" style="stroke:#000000;stroke-width:1.1458;" width="284.01" x="20.625" y="211.891"/><text fill="#000000" font-family="Arial" font-size="14.8958" lengthAdjust="spacing" textLength="254.2183" x="35.5208" y="241.0027">Admin adds new category or language</text><rect fill="#FFFFFF" height="46.9204" style="stroke:#000000;stroke-width:1.1458;" width="246.7195" x="39.2702" y="298.9156"/><text fill="#000000" font-family="Arial" font-size="14.8958" lengthAdjust="spacing" textLength="216.9278" x="54.1661" y="328.0272">System updates platform options</text><rect fill="#FFFFFF" height="46.9204" style="stroke:#000000;stroke-width:1.1458;" width="206.9706" x="359.8949" y="81.3542"/><text fill="#000000" font-family="Arial" font-size="14.8958" lengthAdjust="spacing" textLength="177.179" x="374.7907" y="110.4658">Admin manages user roles</text><rect fill="#FFFFFF" height="46.9204" style="stroke:#000000;stroke-width:1.1458;" width="197.8571" x="364.4516" y="168.3788"/><text fill="#000000" font-family="Arial" font-size="14.8958" lengthAdjust="spacing" textLength="168.0654" x="379.3475" y="197.4904">Admin selects target user</text><rect fill="#FFFFFF" height="46.9204" style="stroke:#000000;stroke-width:1.1458;" width="229.3144" x="348.723" y="255.4033"/><text fill="#000000" font-family="Arial" font-size="14.8958" lengthAdjust="spacing" textLength="199.5227" x="363.6189" y="284.5149">Admin assigns or revokes role</text><rect fill="#FFFFFF" height="46.9204" style="stroke:#000000;stroke-width:1.1458;" width="253.3237" x="336.7183" y="342.4279"/><text fill="#000000" font-family="Arial" font-size="14.8958" lengthAdjust="spacing" textLength="223.5321" x="351.6142" y="371.5395">System updates user permissions</text><rect fill="#000000" height="6.875" rx="2.8646" ry="2.8646" style="stroke:#000000;stroke-width:1.1458;" width="596.9171" x="6.875" y="412.265"/><rect fill="#FFFFFF" height="46.9204" style="stroke:#000000;stroke-width:1.1458;" width="200.33" x="205.1685" y="442.0567"/><text fill="#000000" font-family="Arial" font-size="14.8958" lengthAdjust="spacing" textLength="170.5384" x="220.0643" y="471.1683">System confirms changes</text><ellipse cx="305.3335" cy="524.4979" fill="none" rx="12.6042" ry="12.6042" style="stroke:#000000;stroke-width:1.1458;"/><ellipse cx="305.3335" cy="524.4979" fill="#FFFFFF" rx="6.875" ry="6.875" style="stroke:#000000;stroke-width:1.1458;"/><line style="stroke:#000000;stroke-width:1.1458;" x1="162.63" x2="162.63" y1="171.7869" y2="211.891"/><polygon fill="#000000" points="158.0467,200.4327,162.63,211.891,167.2133,200.4327,162.63,205.016" style="stroke:#000000;stroke-width:1.1458;"/><line style="stroke:#000000;stroke-width:1.1458;" x1="162.63" x2="162.63" y1="258.8115" y2="298.9156"/><polygon fill="#000000" points="158.0467,287.4573,162.63,298.9156,167.2133,287.4573,162.63,292.0406" style="stroke:#000000;stroke-width:1.1458;"/><line style="stroke:#000000;stroke-width:1.1458;" x1="463.3802" x2="463.3802" y1="128.2746" y2="168.3788"/><polygon fill="#000000" points="458.7969,156.9204,463.3802,168.3788,467.9635,156.9204,463.3802,161.5038" style="stroke:#000000;stroke-width:1.1458;"/><line style="stroke:#000000;stroke-width:1.1458;" x1="463.3802" x2="463.3802" y1="215.2992" y2="255.4033"/><polygon fill="#000000" points="458.7969,243.945,463.3802,255.4033,467.9635,243.945,463.3802,248.5283" style="stroke:#000000;stroke-width:1.1458;"/><line style="stroke:#000000;stroke-width:1.1458;" x1="463.3802" x2="463.3802" y1="302.3238" y2="342.4279"/><polygon fill="#000000" points="458.7969,330.9696,463.3802,342.4279,467.9635,330.9696,463.3802,335.5529" style="stroke:#000000;stroke-width:1.1458;"/><line style="stroke:#000000;stroke-width:1.1458;" x1="162.63" x2="162.63" y1="58.4375" y2="124.8665"/><polygon fill="#000000" points="158.0467,113.4081,162.63,124.8665,167.2133,113.4081,162.63,117.9915" style="stroke:#000000;stroke-width:1.1458;"/><line style="stroke:#000000;stroke-width:1.1458;" x1="463.3802" x2="463.3802" y1="58.4375" y2="81.3542"/><polygon fill="#000000" points="458.7969,69.8958,463.3802,81.3542,467.9635,69.8958,463.3802,74.4792" style="stroke:#000000;stroke-width:1.1458;"/><line style="stroke:#000000;stroke-width:1.1458;" x1="162.63" x2="162.63" y1="345.8361" y2="412.265"/><polygon fill="#000000" points="158.0467,400.8067,162.63,412.265,167.2133,400.8067,162.63,405.39" style="stroke:#000000;stroke-width:1.1458;"/><line style="stroke:#000000;stroke-width:1.1458;" x1="463.3802" x2="463.3802" y1="389.3483" y2="412.265"/><polygon fill="#000000" points="458.7969,400.8067,463.3802,412.265,467.9635,400.8067,463.3802,405.39" style="stroke:#000000;stroke-width:1.1458;"/><line style="stroke:#000000;stroke-width:1.1458;" x1="305.3335" x2="305.3335" y1="28.6458" y2="51.5625"/><polygon fill="#000000" points="300.7502,40.1042,305.3335,51.5625,309.9169,40.1042,305.3335,44.6875" style="stroke:#000000;stroke-width:1.1458;"/><line style="stroke:#000000;stroke-width:1.1458;" x1="305.3335" x2="305.3335" y1="419.14" y2="442.0567"/><polygon fill="#000000" points="300.7502,430.5983,305.3335,442.0567,309.9169,430.5983,305.3335,435.1817" style="stroke:#000000;stroke-width:1.1458;"/><line style="stroke:#000000;stroke-width:1.1458;" x1="305.3335" x2="305.3335" y1="488.9771" y2="511.8938"/><polygon fill="#000000" points="300.7502,500.4354,305.3335,511.8938,309.9169,500.4354,305.3335,505.0188" style="stroke:#000000;stroke-width:1.1458;"/><!--SRC=[RP1DJWCn34RtSmfp02OLObLMxAc411p099vCrFmfTbhrzZXJaAXKhv-_xzaF8TlO7S4gKdblJCFpx8Ei_RipDLkoK9RPbcIMHgvmnDFJRlTi3Y67XF5pfKJlNuStqsXXin8wDWb3DkaAFCeWvjfJd5YmoRIKTfn0P__g58A46Jqny8M54Z29XEpvvJ-3pZ5aEeD58L_Q1Kg3YDbtNVqbFwxxlJfb66f4qQe4fKeeMVD6CQ1NkNlrurne9T9jCrCaAmogxaaswjQCEVZCmwVHgHmrQOJSTzewAhKKT6jpeknWUyWVgXzVGaiCTjNpXWnBgJy0]--></g></svg>