<svg xmlns="http://www.w3.org/2000/svg" xmlns:xlink="http://www.w3.org/1999/xlink" contentStyleType="text/css" data-diagram-type="ACTIVITY" height="575.2083px" preserveAspectRatio="none" style="width:965px;height:575px;background:#FFFFFF;" version="1.1" viewBox="0 0 965 575" width="965.9375px" zoomAndPan="magnify"><defs/><g><rect fill="#FFFFFF" height="24.0038" style="stroke:#FFFFFF;stroke-width:1.1458;" width="940.6746" x="11.4583" y="6.875"/><ellipse cx="261.3253" cy="48.0663" fill="#FFFFFF" rx="11.4583" ry="11.4583" style="stroke:#000000;stroke-width:1.1458;"/><rect fill="#000000" height="6.875" rx="2.8646" ry="2.8646" style="stroke:#000000;stroke-width:1.1458;" width="449.3678" x="18.3333" y="82.4413"/><rect fill="#FFFFFF" height="46.9204" style="stroke:#000000;stroke-width:1.1458;" width="190.4092" x="52.8051" y="155.7452"/><text fill="#000000" font-family="Arial" font-size="14.8958" lengthAdjust="spacing" textLength="160.6175" x="67.701" y="184.8568">Manage system settings</text><rect fill="#FFFFFF" height="46.9204" style="stroke:#000000;stroke-width:1.1458;" width="231.8528" x="32.0833" y="242.7698"/><text fill="#000000" font-family="Arial" font-size="14.8958" lengthAdjust="spacing" textLength="202.0611" x="46.9792" y="271.8814">Add new category or language</text><rect fill="#FFFFFF" height="46.9204" style="stroke:#000000;stroke-width:1.1458;" width="153.1623" x="292.5154" y="112.2329"/><text fill="#000000" font-family="Arial" font-size="14.8958" lengthAdjust="spacing" textLength="123.3707" x="307.4112" y="141.3445">Manage user roles</text><rect fill="#FFFFFF" height="46.9204" style="stroke:#000000;stroke-width:1.1458;" width="146.5363" x="295.8284" y="199.2575"/><text fill="#000000" font-family="Arial" font-size="14.8958" lengthAdjust="spacing" textLength="116.7446" x="310.7242" y="228.3691">Select target user</text><rect fill="#FFFFFF" height="46.9204" style="stroke:#000000;stroke-width:1.1458;" width="169.7092" x="284.2419" y="286.2821"/><text fill="#000000" font-family="Arial" font-size="14.8958" lengthAdjust="spacing" textLength="139.9176" x="299.1378" y="315.3937">Assign or revoke role</text><line style="stroke:#000000;stroke-width:1.1458;" x1="11.4583" x2="11.4583" y1="6.875" y2="567.9809"/><rect fill="#FFFFFF" height="46.9204" style="stroke:#000000;stroke-width:1.1458;" width="187.9435" x="492.9095" y="329.7944"/><text fill="#000000" font-family="Arial" font-size="14.8958" lengthAdjust="spacing" textLength="158.1519" x="507.8053" y="358.906">Update platform options</text><rect fill="#FFFFFF" height="46.9204" style="stroke:#000000;stroke-width:1.1458;" width="194.5477" x="734.891" y="373.3067"/><text fill="#000000" font-family="Arial" font-size="14.8958" lengthAdjust="spacing" textLength="164.7561" x="749.7868" y="402.4183">Update user permissions</text><rect fill="#000000" height="6.875" rx="2.8646" ry="2.8646" style="stroke:#000000;stroke-width:1.1458;" width="464.0292" x="479.1595" y="443.1438"/><rect fill="#FFFFFF" height="46.9204" style="stroke:#000000;stroke-width:1.1458;" width="142.3905" x="629.0015" y="472.9354"/><text fill="#000000" font-family="Arial" font-size="14.8958" lengthAdjust="spacing" textLength="112.5988" x="643.8973" y="502.047">Confirm changes</text><ellipse cx="700.1968" cy="555.3767" fill="none" rx="12.6042" ry="12.6042" style="stroke:#000000;stroke-width:1.1458;"/><ellipse cx="700.1968" cy="555.3767" fill="#FFFFFF" rx="6.875" ry="6.875" style="stroke:#000000;stroke-width:1.1458;"/><line style="stroke:#000000;stroke-width:1.1458;" x1="472.2845" x2="472.2845" y1="6.875" y2="567.9809"/><line style="stroke:#000000;stroke-width:1.1458;" x1="947.772" x2="947.772" y1="6.875" y2="567.9809"/><line style="stroke:#000000;stroke-width:1.1458;" x1="148.0097" x2="148.0097" y1="202.6656" y2="242.7698"/><polygon fill="#000000" points="143.4264,231.3115,148.0097,242.7698,152.5931,231.3115,148.0097,235.8948" style="stroke:#000000;stroke-width:1.1458;"/><line style="stroke:#000000;stroke-width:1.1458;" x1="369.0965" x2="369.0965" y1="159.1533" y2="199.2575"/><polygon fill="#000000" points="364.5132,187.7992,369.0965,199.2575,373.6799,187.7992,369.0965,192.3825" style="stroke:#000000;stroke-width:1.1458;"/><line style="stroke:#000000;stroke-width:1.1458;" x1="369.0965" x2="369.0965" y1="246.1779" y2="286.2821"/><polygon fill="#000000" points="364.5132,274.8238,369.0965,286.2821,373.6799,274.8238,369.0965,279.4071" style="stroke:#000000;stroke-width:1.1458;"/><line style="stroke:#000000;stroke-width:1.1458;" x1="148.0097" x2="148.0097" y1="89.3163" y2="155.7452"/><polygon fill="#000000" points="143.4264,144.2869,148.0097,155.7452,152.5931,144.2869,148.0097,148.8702" style="stroke:#000000;stroke-width:1.1458;"/><line style="stroke:#000000;stroke-width:1.1458;" x1="369.0965" x2="369.0965" y1="89.3163" y2="112.2329"/><polygon fill="#000000" points="364.5132,100.7746,369.0965,112.2329,373.6799,100.7746,369.0965,105.3579" style="stroke:#000000;stroke-width:1.1458;"/><line style="stroke:#000000;stroke-width:1.1458;" x1="261.3253" x2="261.3253" y1="59.5246" y2="82.4413"/><polygon fill="#000000" points="256.7419,70.9829,261.3253,82.4413,265.9086,70.9829,261.3253,75.5663" style="stroke:#000000;stroke-width:1.1458;"/><line style="stroke:#000000;stroke-width:1.1458;" x1="586.8812" x2="586.8812" y1="376.7148" y2="443.1438"/><polygon fill="#000000" points="582.2979,431.6854,586.8812,443.1438,591.4646,431.6854,586.8812,436.2688" style="stroke:#000000;stroke-width:1.1458;"/><line style="stroke:#000000;stroke-width:1.1458;" x1="832.1648" x2="832.1648" y1="420.2271" y2="443.1438"/><polygon fill="#000000" points="827.5815,431.6854,832.1648,443.1438,836.7481,431.6854,832.1648,436.2688" style="stroke:#000000;stroke-width:1.1458;"/><line style="stroke:#000000;stroke-width:1.1458;" x1="700.1968" x2="700.1968" y1="450.0188" y2="472.9354"/><polygon fill="#000000" points="695.6134,461.4771,700.1968,472.9354,704.7801,461.4771,700.1968,466.0604" style="stroke:#000000;stroke-width:1.1458;"/><line style="stroke:#000000;stroke-width:1.1458;" x1="700.1968" x2="700.1968" y1="519.8559" y2="542.7725"/><polygon fill="#000000" points="695.6134,531.3142,700.1968,542.7725,704.7801,531.3142,700.1968,535.8975" style="stroke:#000000;stroke-width:1.1458;"/><line style="stroke:#000000;stroke-width:1.1458;" x1="148.0097" x2="148.0097" y1="289.6902" y2="309.7423"/><line style="stroke:#000000;stroke-width:1.1458;" x1="148.0097" x2="586.8812" y1="309.7423" y2="309.7423"/><line style="stroke:#000000;stroke-width:1.1458;" x1="586.8812" x2="586.8812" y1="309.7423" y2="329.7944"/><polygon fill="#000000" points="582.2979,318.3361,586.8812,329.7944,591.4646,318.3361,586.8812,322.9194" style="stroke:#000000;stroke-width:1.1458;"/><line style="stroke:#000000;stroke-width:1.1458;" x1="369.0965" x2="369.0965" y1="333.2025" y2="353.2546"/><line style="stroke:#000000;stroke-width:1.1458;" x1="369.0965" x2="832.1648" y1="353.2546" y2="353.2546"/><line style="stroke:#000000;stroke-width:1.1458;" x1="832.1648" x2="832.1648" y1="353.2546" y2="373.3067"/><polygon fill="#000000" points="827.5815,361.8483,832.1648,373.3067,836.7481,361.8483,832.1648,366.4317" style="stroke:#000000;stroke-width:1.1458;"/><text fill="#000000" font-family="Arial" font-size="14.8958" lengthAdjust="spacing" textLength="42.2218" x="220.7605" y="24.5283">Admin</text><text fill="#000000" font-family="Arial" font-size="14.8958" lengthAdjust="spacing" textLength="49.6625" x="685.197" y="24.5283">System</text><!--SRC=[VOynRiCm34Ltdu8zGAsWwEHEGTS6293c0Af4oq8aIX3f105y-CeoF7IfHl5_liSNJoRC5c4IoJmeLVIZTrwc-MTcB2QH84blKbHZGPiuwFlRuV2kJfvyrE5xmeZdw-bB5HnPJQWjgwWzgRW5NcLDz7cEeLkEjluk7Oikqesft3geRpXfqWw1domOWL74a-EFRNYq5WWVOBIWI-K9gK3GvEPQsIBBfHMNBN_DjYOX1osL425byOdgjfs-Sa6xwlY7lfuB9GNSmHSCQ0IggqDfuzs8sJjQFGhUqmrRwn-LjZbZYRuMcmgIXNR-y9bezDNIJFMa5SsIyYy0]--></g></svg>