<svg xmlns="http://www.w3.org/2000/svg" xmlns:xlink="http://www.w3.org/1999/xlink" contentStyleType="text/css" data-diagram-type="ACTIVITY" height="673.75px" preserveAspectRatio="none" style="width:520px;height:673px;background:#FFFFFF;" version="1.1" viewBox="0 0 520 673" width="520.2083px" zoomAndPan="magnify"><defs/><g><rect fill="#FFFFFF" height="24.0038" style="stroke:#FFFFFF;stroke-width:1.1458;" width="494.2489" x="11.4583" y="6.875"/><ellipse cx="113.9671" cy="48.0663" fill="#FFFFFF" rx="11.4583" ry="11.4583" style="stroke:#000000;stroke-width:1.1458;"/><rect fill="#FFFFFF" height="46.9204" style="stroke:#000000;stroke-width:1.1458;" width="153.9915" x="36.9713" y="82.4413"/><text fill="#000000" font-family="Arial" font-size="14.8958" lengthAdjust="spacing" textLength="124.1998" x="51.8671" y="111.5529">Open own courses</text><rect fill="#FFFFFF" height="46.9204" style="stroke:#000000;stroke-width:1.1458;" width="164.7561" x="31.589" y="222.1154"/><text fill="#000000" font-family="Arial" font-size="14.8958" lengthAdjust="spacing" textLength="134.9644" x="46.4849" y="251.227">Select course to edit</text><rect fill="#FFFFFF" height="46.9204" style="stroke:#000000;stroke-width:1.1458;" width="191.2674" x="18.3333" y="361.7896"/><text fill="#000000" font-family="Arial" font-size="14.8958" lengthAdjust="spacing" textLength="161.4758" x="33.2292" y="390.9012">Add or edit learning step</text><rect fill="#FFFFFF" height="46.9204" style="stroke:#000000;stroke-width:1.1458;" width="124.1998" x="51.8671" y="501.4638"/><text fill="#000000" font-family="Arial" font-size="14.8958" lengthAdjust="spacing" textLength="94.4082" x="66.763" y="530.5754">Save changes</text><line style="stroke:#000000;stroke-width:1.1458;" x1="11.4583" x2="11.4583" y1="6.875" y2="666.3463"/><rect fill="#FFFFFF" height="46.9204" style="stroke:#000000;stroke-width:1.1458;" width="275.7038" x="221.0591" y="152.2783"/><text fill="#000000" font-family="Arial" font-size="14.8958" lengthAdjust="spacing" textLength="245.9122" x="235.9549" y="181.3899">Retrieve courses assigned to teacher</text><rect fill="#FFFFFF" height="46.9204" style="stroke:#000000;stroke-width:1.1458;" width="182.1467" x="267.8377" y="291.9525"/><text fill="#000000" font-family="Arial" font-size="14.8958" lengthAdjust="spacing" textLength="152.355" x="282.7335" y="321.0641">Provide course content</text><rect fill="#FFFFFF" height="46.9204" style="stroke:#000000;stroke-width:1.1458;" width="163.1196" x="277.3513" y="431.6267"/><text fill="#000000" font-family="Arial" font-size="14.8958" lengthAdjust="spacing" textLength="133.3279" x="292.2471" y="460.7383">Update step content</text><rect fill="#FFFFFF" height="46.9204" style="stroke:#000000;stroke-width:1.1458;" width="131.6332" x="293.0944" y="571.3009"/><text fill="#000000" font-family="Arial" font-size="14.8958" lengthAdjust="spacing" textLength="101.8415" x="307.9903" y="600.4125">Confirm update</text><ellipse cx="358.911" cy="653.7421" fill="none" rx="12.6042" ry="12.6042" style="stroke:#000000;stroke-width:1.1458;"/><ellipse cx="358.911" cy="653.7421" fill="#FFFFFF" rx="6.875" ry="6.875" style="stroke:#000000;stroke-width:1.1458;"/><line style="stroke:#000000;stroke-width:1.1458;" x1="214.1841" x2="214.1841" y1="6.875" y2="666.3463"/><line style="stroke:#000000;stroke-width:1.1458;" x1="501.3463" x2="501.3463" y1="6.875" y2="666.3463"/><line style="stroke:#000000;stroke-width:1.1458;" x1="113.9671" x2="113.9671" y1="59.5246" y2="82.4413"/><polygon fill="#000000" points="109.3837,70.9829,113.9671,82.4413,118.5504,70.9829,113.9671,75.5663" style="stroke:#000000;stroke-width:1.1458;"/><line style="stroke:#000000;stroke-width:1.1458;" x1="358.911" x2="358.911" y1="618.2213" y2="641.1379"/><polygon fill="#000000" points="354.3277,629.6796,358.911,641.1379,363.4944,629.6796,358.911,634.2629" style="stroke:#000000;stroke-width:1.1458;"/><line style="stroke:#000000;stroke-width:1.1458;" x1="113.9671" x2="113.9671" y1="129.3617" y2="135.0908"/><line style="stroke:#000000;stroke-width:1.1458;" x1="113.9671" x2="358.911" y1="135.0908" y2="135.0908"/><line style="stroke:#000000;stroke-width:1.1458;" x1="358.911" x2="358.911" y1="135.0908" y2="152.2783"/><polygon fill="#000000" points="354.3277,140.82,358.911,152.2783,363.4944,140.82,358.911,145.4033" style="stroke:#000000;stroke-width:1.1458;"/><line style="stroke:#000000;stroke-width:1.1458;" x1="358.911" x2="358.911" y1="199.1988" y2="204.9279"/><line style="stroke:#000000;stroke-width:1.1458;" x1="358.911" x2="113.9671" y1="204.9279" y2="204.9279"/><line style="stroke:#000000;stroke-width:1.1458;" x1="113.9671" x2="113.9671" y1="204.9279" y2="222.1154"/><polygon fill="#000000" points="109.3837,210.6571,113.9671,222.1154,118.5504,210.6571,113.9671,215.2404" style="stroke:#000000;stroke-width:1.1458;"/><line style="stroke:#000000;stroke-width:1.1458;" x1="113.9671" x2="113.9671" y1="269.0358" y2="274.765"/><line style="stroke:#000000;stroke-width:1.1458;" x1="113.9671" x2="358.911" y1="274.765" y2="274.765"/><line style="stroke:#000000;stroke-width:1.1458;" x1="358.911" x2="358.911" y1="274.765" y2="291.9525"/><polygon fill="#000000" points="354.3277,280.4942,358.911,291.9525,363.4944,280.4942,358.911,285.0775" style="stroke:#000000;stroke-width:1.1458;"/><line style="stroke:#000000;stroke-width:1.1458;" x1="358.911" x2="358.911" y1="338.8729" y2="344.6021"/><line style="stroke:#000000;stroke-width:1.1458;" x1="358.911" x2="113.9671" y1="344.6021" y2="344.6021"/><line style="stroke:#000000;stroke-width:1.1458;" x1="113.9671" x2="113.9671" y1="344.6021" y2="361.7896"/><polygon fill="#000000" points="109.3837,350.3313,113.9671,361.7896,118.5504,350.3313,113.9671,354.9146" style="stroke:#000000;stroke-width:1.1458;"/><line style="stroke:#000000;stroke-width:1.1458;" x1="113.9671" x2="113.9671" y1="408.71" y2="414.4392"/><line style="stroke:#000000;stroke-width:1.1458;" x1="113.9671" x2="358.911" y1="414.4392" y2="414.4392"/><line style="stroke:#000000;stroke-width:1.1458;" x1="358.911" x2="358.911" y1="414.4392" y2="431.6267"/><polygon fill="#000000" points="354.3277,420.1684,358.911,431.6267,363.4944,420.1684,358.911,424.7517" style="stroke:#000000;stroke-width:1.1458;"/><line style="stroke:#000000;stroke-width:1.1458;" x1="358.911" x2="358.911" y1="478.5471" y2="484.2763"/><line style="stroke:#000000;stroke-width:1.1458;" x1="358.911" x2="113.9671" y1="484.2763" y2="484.2763"/><line style="stroke:#000000;stroke-width:1.1458;" x1="113.9671" x2="113.9671" y1="484.2763" y2="501.4638"/><polygon fill="#000000" points="109.3837,490.0054,113.9671,501.4638,118.5504,490.0054,113.9671,494.5888" style="stroke:#000000;stroke-width:1.1458;"/><line style="stroke:#000000;stroke-width:1.1458;" x1="113.9671" x2="113.9671" y1="548.3842" y2="554.1134"/><line style="stroke:#000000;stroke-width:1.1458;" x1="113.9671" x2="358.911" y1="554.1134" y2="554.1134"/><line style="stroke:#000000;stroke-width:1.1458;" x1="358.911" x2="358.911" y1="554.1134" y2="571.3009"/><polygon fill="#000000" points="354.3277,559.8425,358.911,571.3009,363.4944,559.8425,358.911,564.4259" style="stroke:#000000;stroke-width:1.1458;"/><text fill="#000000" font-family="Arial" font-size="14.8958" lengthAdjust="spacing" textLength="54.6447" x="85.4989" y="24.5283">Teacher</text><text fill="#000000" font-family="Arial" font-size="14.8958" lengthAdjust="spacing" textLength="49.6625" x="332.934" y="24.5283">System</text><!--SRC=[RP31QiCm38RlUGhl0HQNiLDo6hkkj2pj0sYs4XjYsSXooY0FloPj8OLTfU__qAyNJsOi5fKJIRdHck5I3rvS-IaPsKGI9AbD3Bfdj36FCBtjTkzwxya764yE0nxF-o_Ds6Vj46pM0JpfS0DUPI7gLC9OpIS4uv3dAWkmLCqX8Qbu8MLYuOovhURkDmk6kMg-KTZZX8-TWfpzG6YLH2KtKRjHDXsEQEIEBn1QBrlZaUFaxKEexjsU71_MgiXhKeq8J9u6TOsdhUUSB0Ykutyb7InNEw3XkT5dfDvpK6NDjzSdnFG7]--></g></svg>