<svg xmlns="http://www.w3.org/2000/svg" xmlns:xlink="http://www.w3.org/1999/xlink" contentStyleType="text/css" data-diagram-type="SEQUENCE" height="570.625px" preserveAspectRatio="none" style="width:488px;height:570px;background:#FFFFFF;" version="1.1" viewBox="0 0 488 570" width="488.125px" zoomAndPan="magnify"><title>UC5 - Complete Learning Activity</title><defs/><g><text fill="#000000" font-family="Arial" font-size="25.2083" font-weight="bold" lengthAdjust="spacing" textLength="399.1976" x="49.3127" y="44.6825">UC5 - Complete Learning Activity</text><rect fill="#FFFFFF" height="283.6379" style="stroke:#000000;stroke-width:1.1458;" width="464.5937" x="17.1875" y="260.2692"/><rect fill="#FFFFFF" height="139.4979" style="stroke:#000000;stroke-width:1.1458;" width="373.5699" x="28.6458" y="396.3884"/><rect fill="#FFFFFF" height="66.3408" style="stroke:none;stroke-width:1.1458;" width="373.5699" x="28.6458" y="469.5455"/><g><title>Learner</title><rect fill="#000000" fill-opacity="0.00000" height="402.6871" width="9.1667" x="68.0671" y="160.6992"/><line style="stroke:#000000;stroke-width:1.1458;" x1="72.1875" x2="72.1875" y1="160.6992" y2="563.3863"/></g><g><title>System</title><rect fill="#000000" fill-opacity="0.00000" height="402.6871" width="9.1667" x="338.4262" y="160.6992"/><line style="stroke:#000000;stroke-width:1.1458;" x1="342.2408" x2="342.2408" y1="160.6992" y2="563.3863"/></g><g class="participant participant-head" data-participant="Learner"><text fill="#000000" font-family="Arial" font-size="14.8958" lengthAdjust="spacing" textLength="51.3426" x="43.5417" y="154.3487">Learner</text><ellipse cx="72.6505" cy="76.5392" fill="#FFFFFF" rx="9.1667" ry="9.1667" style="stroke:#000000;stroke-width:1.7188;"/><path d="M72.6505,85.7059 L72.6505,116.6434 M57.7546,94.8725 L87.5463,94.8725 M72.6505,116.6434 L57.7546,133.8309 M72.6505,116.6434 L87.5463,133.8309" fill="none" style="stroke:#000000;stroke-width:1.7188;"/></g><g class="participant participant-head" data-participant="System"><rect fill="#FFFFFF" height="40.0454" style="stroke:#000000;stroke-width:1.7188;" width="72.5791" x="306.7199" y="119.508"/><text fill="#000000" font-family="Arial" font-size="14.8958" lengthAdjust="spacing" textLength="49.6625" x="318.1783" y="145.1821">System</text></g><g class="message" data-participant-1="Learner" data-participant-2="System"><polygon fill="#000000" points="329.2595,198.453,340.7178,203.0363,329.2595,207.6196,333.8428,203.0363" style="stroke:#000000;stroke-width:1.1458;"/><line style="stroke:#000000;stroke-width:1.1458;" x1="72.6505" x2="336.1345" y1="203.0363" y2="203.0363"/><text fill="#000000" font-family="Arial" font-size="14.8958" lengthAdjust="spacing" textLength="212.782" x="101.439" y="194.3941">Request current learning activity</text></g><g class="message" data-participant-1="System" data-participant-2="Learner"><polygon fill="#000000" points="85.2546,238.4984,73.7963,243.0817,85.2546,247.665,80.6713,243.0817" style="stroke:#000000;stroke-width:1.1458;"/><line style="stroke:#000000;stroke-width:1.1458;stroke-dasharray:2.2917,2.2917;" x1="78.3796" x2="341.8637" y1="243.0817" y2="243.0817"/><text fill="#000000" font-family="Arial" font-size="14.8958" lengthAdjust="spacing" textLength="186.2852" x="114.6874" y="234.4396">Display question or exercise</text></g><path d="M17.1875,260.2692 L107.0604,260.2692 L107.0604,275.1063 L95.6021,286.5646 L17.1875,286.5646 L17.1875,260.2692" fill="#FFFFFF" style="stroke:#000000;stroke-width:1.1458;"/><rect fill="none" height="283.6379" style="stroke:#000000;stroke-width:1.1458;" width="464.5937" x="17.1875" y="260.2692"/><text fill="#000000" font-family="Arial" font-size="14.8958" font-weight="bold" lengthAdjust="spacing" textLength="31.4354" x="37.8125" y="279.0683">loop</text><text fill="#000000" font-family="Arial" font-size="14.8958" font-weight="bold" lengthAdjust="spacing" textLength="153.1332" x="127.6854" y="280.2142">[Until correct answer]</text><g class="message" data-participant-1="Learner" data-participant-2="System"><polygon fill="#000000" points="329.2595,319.6763,340.7178,324.2596,329.2595,328.843,333.8428,324.2596" style="stroke:#000000;stroke-width:1.1458;"/><line style="stroke:#000000;stroke-width:1.1458;" x1="72.6505" x2="336.1345" y1="324.2596" y2="324.2596"/><text fill="#000000" font-family="Arial" font-size="14.8958" lengthAdjust="spacing" textLength="98.5176" x="158.5712" y="315.6175">Submit answer</text></g><g class="message" data-participant-1="System" data-participant-2="System"><line style="stroke:#000000;stroke-width:1.1458;" x1="343.0095" x2="391.1345" y1="364.3051" y2="364.3051"/><line style="stroke:#000000;stroke-width:1.1458;" x1="391.1345" x2="391.1345" y1="364.3051" y2="379.2009"/><line style="stroke:#000000;stroke-width:1.1458;" x1="344.1553" x2="391.1345" y1="379.2009" y2="379.2009"/><polygon fill="#000000" points="355.6137,374.6176,344.1553,379.2009,355.6137,383.7842,351.0303,379.2009" style="stroke:#000000;stroke-width:1.1458;"/><text fill="#000000" font-family="Arial" font-size="14.8958" lengthAdjust="spacing" textLength="110.1259" x="354.4678" y="355.6629">Evaluate answer</text></g><path d="M28.6458,396.3884 L104.4667,396.3884 L104.4667,411.2255 L93.0083,422.6838 L28.6458,422.6838 L28.6458,396.3884" fill="#FFFFFF" style="stroke:#000000;stroke-width:1.1458;"/><rect fill="none" height="139.4979" style="stroke:#000000;stroke-width:1.1458;" width="373.5699" x="28.6458" y="396.3884"/><text fill="#000000" font-family="Arial" font-size="14.8958" font-weight="bold" lengthAdjust="spacing" textLength="17.3833" x="49.2708" y="415.1875">alt</text><text fill="#000000" font-family="Arial" font-size="14.8958" font-weight="bold" lengthAdjust="spacing" textLength="62.9" x="125.0917" y="416.3333">[Correct]</text><g class="message" data-participant-1="System" data-participant-2="Learner"><polygon fill="#000000" points="85.2546,455.7955,73.7963,460.3788,85.2546,464.9622,80.6713,460.3788" style="stroke:#000000;stroke-width:1.1458;"/><line style="stroke:#000000;stroke-width:1.1458;stroke-dasharray:2.2917,2.2917;" x1="78.3796" x2="341.8637" y1="460.3788" y2="460.3788"/><text fill="#000000" font-family="Arial" font-size="14.8958" lengthAdjust="spacing" textLength="235.984" x="89.838" y="451.7367">Show success and unlock next step</text></g><line style="stroke:#000000;stroke-width:1.1458;stroke-dasharray:2.2917,2.2917;" x1="28.6458" x2="402.2158" y1="470.6913" y2="470.6913"/><text fill="#000000" font-family="Arial" font-size="14.8958" font-weight="bold" lengthAdjust="spacing" textLength="73.6646" x="37.8125" y="488.3446">[Incorrect]</text><g class="message" data-participant-1="System" data-participant-2="Learner"><polygon fill="#000000" points="85.2546,522.1363,73.7963,526.7197,85.2546,531.303,80.6713,526.7197" style="stroke:#000000;stroke-width:1.1458;"/><line style="stroke:#000000;stroke-width:1.1458;stroke-dasharray:2.2917,2.2917;" x1="78.3796" x2="341.8637" y1="526.7197" y2="526.7197"/><text fill="#000000" font-family="Arial" font-size="14.8958" lengthAdjust="spacing" textLength="215.2768" x="100.1916" y="518.0775">Show feedback and prompt retry</text></g><!--SRC=[ZPBFJW8n4CRlVOhn0POIenSE9WOvc41YH1vWw0xinFwpdGBxzfPTY9Xui4aFRN_VDzzCAYoMO3D_X0RcmKLBGh0aJ9xz7fwDy86bLtViZIqjGISIyqphXCV9dgKhsv8fcU25l4nCS7gNg0tPuk5-EdtGA_Riq7vqvEXjirhgHBkiEy8sQuVijHk1Hix491PdbK8Z8OqfAAc8ITXmH2-mxhEGK-ho1itJvMe6x_HLA0kOabBD0lRQ15wR64begkYYdy4BvsYnXq7BmKCjJAVQ4MTIDeG86ozimOJgQWJGvsFD17NzaM5Tjev_GTUQFypYWBPWdV8DXLRgz8SAm_bMUPjstOKZv68CvLprBHHlW_a4JoU1YiT1JJOJl7hpNyCTKRl5QdDsZAd-0e54alhHpRUgxcy0]--></g></svg>