<svg xmlns="http://www.w3.org/2000/svg" xmlns:xlink="http://www.w3.org/1999/xlink" contentStyleType="text/css" data-diagram-type="DESCRIPTION" height="179.8958px" preserveAspectRatio="none" style="width:430px;height:179px;background:#FFFFFF;" version="1.1" viewBox="0 0 430 179" width="430.8333px" zoomAndPan="magnify"><defs/><g><!--cluster Internal--><g class="cluster" data-entity="Internal" data-source-line="7" data-uid="ent0003" id="cluster_Internal"><rect fill="#FFFFFF" height="144.9479" style="stroke:#000000;stroke-width:0.5729;" width="65.8854" x="4.0104" y="10.8854"/><text fill="#000000" font-family="Arial" font-size="7.4479" font-weight="bold" lengthAdjust="spacing" textLength="26.9005" x="23.5029" y="20.7361">Internal</text></g><!--entity t--><g class="entity" data-entity="t" data-source-line="8" data-uid="ent0004" id="entity_t"><ellipse cx="36.8643" cy="38.3854" fill="#F1F1F1" rx="4.5833" ry="4.5833" style="stroke:#181818;stroke-width:0.2865;"/><path d="M36.8643,42.9688 L36.8643,58.4375 M29.4164,47.5521 L44.3122,47.5521 M36.8643,58.4375 L29.4164,67.0313 M36.8643,58.4375 L44.3122,67.0313" fill="none" style="stroke:#181818;stroke-width:0.2865;"/><text fill="#000000" font-family="Arial" font-size="7.4479" lengthAdjust="spacing" textLength="27.3224" x="23.2031" y="76.5954">Teacher</text></g><!--entity a--><g class="entity" data-entity="a" data-source-line="9" data-uid="ent0005" id="entity_a"><ellipse cx="36.8323" cy="104.8438" fill="#F1F1F1" rx="4.5833" ry="4.5833" style="stroke:#181818;stroke-width:0.2865;"/><path d="M36.8323,109.4271 L36.8323,124.8958 M29.3844,114.0104 L44.2802,114.0104 M36.8323,124.8958 L29.3844,133.4896 M36.8323,124.8958 L44.2802,133.4896" fill="none" style="stroke:#181818;stroke-width:0.2865;"/><text fill="#000000" font-family="Arial" font-size="7.4479" lengthAdjust="spacing" textLength="43.8729" x="14.8958" y="143.0538">Administrator</text></g><!--entity s--><g class="entity" data-entity="s" data-source-line="6" data-uid="ent0002" id="entity_s"><ellipse cx="145.4677" cy="92.2396" fill="#F1F1F1" rx="4.5833" ry="4.5833" style="stroke:#181818;stroke-width:0.2865;"/><path d="M145.4677,96.8229 L145.4677,112.2917 M138.0198,101.4063 L152.9156,101.4063 M145.4677,112.2917 L138.0198,120.8854 M145.4677,112.2917 L152.9156,120.8854" fill="none" style="stroke:#181818;stroke-width:0.2865;"/><text fill="#000000" font-family="Arial" font-size="7.4479" lengthAdjust="spacing" textLength="25.6749" x="132.6302" y="130.4496">Student</text></g><!--entity UC1--><g class="entity" data-entity="UC1" data-source-line="15" data-uid="ent0008" id="entity_UC1"><ellipse cx="273.5749" cy="108.8556" fill="#F1F1F1" rx="43.2624" ry="10.0275" style="stroke:#181818;stroke-width:0.2865;"/><text fill="#000000" font-family="Arial" font-size="7.4479" lengthAdjust="spacing" textLength="71.2025" x="237.9737" y="111.1326">See Course Progress</text></g><!--entity UC2--><g class="entity" data-entity="UC2" data-source-line="16" data-uid="ent0009" id="entity_UC2"><ellipse cx="145.6464" cy="14.921" fill="#F1F1F1" rx="50.5423" ry="11.4835" style="stroke:#181818;stroke-width:0.2865;"/><text fill="#000000" font-family="Arial" font-size="7.4479" lengthAdjust="spacing" textLength="87.7567" x="101.7681" y="17.1979">Create Course Description</text></g><!--entity UC3--><g class="entity" data-entity="UC3" data-source-line="17" data-uid="ent0010" id="entity_UC3"><ellipse cx="145.4804" cy="165.4503" fill="#F1F1F1" rx="49.8034" ry="11.3357" style="stroke:#181818;stroke-width:0.2865;"/><text fill="#000000" font-family="Arial" font-size="7.4479" lengthAdjust="spacing" textLength="86.1093" x="102.4258" y="167.7272">Approve Created Courses</text></g><!--entity UC4--><g class="entity" data-entity="UC4" data-source-line="18" data-uid="ent0011" id="entity_UC4"><ellipse cx="145.5285" cy="56.7203" fill="#F1F1F1" rx="44.6952" ry="10.314" style="stroke:#181818;stroke-width:0.2865;"/><text fill="#000000" font-family="Arial" font-size="7.4479" lengthAdjust="spacing" textLength="74.5264" x="108.2653" y="58.9973">Create Learning Steps</text></g><!--entity auth--><g class="entity" data-entity="auth" data-source-line="20" data-uid="ent0012" id="entity_auth"><ellipse cx="389.4493" cy="85.2232" fill="#F1F1F1" rx="38.2514" ry="9.0253" style="stroke:#181818;stroke-width:0.2865;"/><text fill="#000000" font-family="Arial" font-size="7.4479" lengthAdjust="spacing" textLength="59.2015" x="359.8485" y="87.5002">Authenticate User</text></g><!--link t to s--><g class="link" data-entity-1="t" data-entity-2="s" data-source-line="12" data-uid="lnk6" id="link_t_s"><path d="M37.2396,80.1224 C37.2396,87.4557 37.2396,93.6719 37.2396,93.6719 C37.2396,93.6719 90.7214,93.6719 120.3813,93.6719" fill="none" id="t-to-s" style="stroke:#000000;stroke-width:0.5729;"/><polygon fill="none" points="130.6938,93.6719,120.3813,90.2344,120.3813,97.1094,130.6938,93.6719" style="stroke:#000000;stroke-width:0.5729;"/></g><!--link a to s--><g class="link" data-entity-1="a" data-entity-2="s" data-source-line="13" data-uid="lnk7" id="link_a_s"><path d="M60.7807,116.875 C82.1276,116.875 102.4547,116.875 120.4443,116.875" fill="none" id="a-to-s" style="stroke:#000000;stroke-width:0.5729;"/><polygon fill="none" points="130.7568,116.875,120.4443,113.4375,120.4443,120.3125,130.7568,116.875" style="stroke:#000000;stroke-width:0.5729;"/></g><!--link s to UC1--><g class="link" data-entity-1="s" data-entity-2="UC1" data-source-line="22" data-uid="lnk13" id="link_s_UC1"><path d="M160.2104,108.8542 C177.1573,108.8542 205.8089,108.8542 230.0661,108.8542" fill="none" id="s-UC1" style="stroke:#000000;stroke-width:0.5729;"/></g><!--link t to UC2--><g class="link" data-entity-1="t" data-entity-2="UC2" data-source-line="23" data-uid="lnk14" id="link_t_UC2"><path d="M52.4792,39.9609 C70.8927,39.9609 99.1146,39.9609 99.1146,39.9609 C99.1146,39.9609 99.1146,26.7266 99.1146,19.4906" fill="none" id="t-UC2" style="stroke:#000000;stroke-width:0.5729;"/></g><!--link a to UC3--><g class="link" data-entity-1="a" data-entity-2="UC3" data-source-line="24" data-uid="lnk15" id="link_a_UC3"><path d="M60.8438,140.0781 C77.7391,140.0781 97.3958,140.0781 97.3958,140.0781 C97.3958,140.0781 97.3958,155.6385 97.3958,162.4448" fill="none" id="a-UC3" style="stroke:#000000;stroke-width:0.5729;"/></g><!--link t to UC4--><g class="link" data-entity-1="t" data-entity-2="UC4" data-source-line="25" data-uid="lnk16" id="link_t_UC4"><path d="M52.5078,56.7187 C65.112,56.7187 83.537,56.7187 100.6615,56.7187" fill="none" id="t-UC4" style="stroke:#000000;stroke-width:0.5729;"/></g><!--link UC1 to auth--><g class="link" data-entity-1="UC1" data-entity-2="auth" data-source-line="27" data-uid="lnk17" id="link_UC1_auth"><path d="M273.8542,98.7479 C273.8542,95.2302 273.8542,92.1422 273.8542,92.1422 C273.8542,92.1422 326.0526,92.1422 360.1755,92.1422" fill="none" id="UC1-to-auth" style="stroke:#000000;stroke-width:0.5729;stroke-dasharray:4.0104,4.0104;"/><polygon fill="#000000" points="363.613,92.1422,358.4568,89.8505,360.7484,92.1422,358.4568,94.4339,363.613,92.1422" style="stroke:#000000;stroke-width:0.5729;"/><text fill="#000000" font-family="Arial" font-size="7.4479" lengthAdjust="spacing" textLength="31.8864" x="281.6286" y="88.8157">&#171;include&#187;</text></g><!--link UC2 to auth--><g class="link" data-entity-1="UC2" data-entity-2="auth" data-source-line="28" data-uid="lnk18" id="link_UC2_auth"><path d="M193.6458,18.3391 C193.6458,32.0948 193.6458,82.4026 193.6458,82.4026 C193.6458,82.4026 293.087,82.4026 349.7484,82.4026" fill="none" id="UC2-to-auth" style="stroke:#000000;stroke-width:0.5729;stroke-dasharray:4.0104,4.0104;"/><polygon fill="#000000" points="353.1859,82.4026,348.0297,80.1109,350.3214,82.4026,348.0297,84.6943,353.1859,82.4026" style="stroke:#000000;stroke-width:0.5729;"/><text fill="#000000" font-family="Arial" font-size="7.4479" lengthAdjust="spacing" textLength="31.8864" x="207.5792" y="79.0762">&#171;include&#187;</text></g><!--link UC3 to auth--><g class="link" data-entity-1="UC3" data-entity-2="auth" data-source-line="29" data-uid="lnk19" id="link_UC3_auth"><path d="M191.9271,161.2818 C191.9271,145.2401 191.9271,89.7589 191.9271,89.7589 C191.9271,89.7589 295.9401,89.7589 352.3896,89.7589" fill="none" id="UC3-to-auth" style="stroke:#000000;stroke-width:0.5729;stroke-dasharray:4.0104,4.0104;"/><polygon fill="#000000" points="355.8271,89.7589,350.6708,87.4672,352.9625,89.7589,350.6708,92.0505,355.8271,89.7589" style="stroke:#000000;stroke-width:0.5729;"/><text fill="#000000" font-family="Arial" font-size="7.4479" lengthAdjust="spacing" textLength="31.8864" x="240.4073" y="92.7345">&#171;include&#187;</text></g><!--link UC4 to auth--><g class="link" data-entity-1="UC4" data-entity-2="auth" data-source-line="30" data-uid="lnk20" id="link_UC4_auth"><path d="M175.3125,64.4187 C175.3125,72.7547 175.3125,84.8891 175.3125,84.8891 C175.3125,84.8891 285.9026,84.8891 347.5885,84.8891" fill="none" id="UC4-to-auth" style="stroke:#000000;stroke-width:0.5729;stroke-dasharray:4.0104,4.0104;"/><polygon fill="#000000" points="351.026,84.8891,345.8698,82.5974,348.1615,84.8891,345.8698,87.1807,351.026,84.8891" style="stroke:#000000;stroke-width:0.5729;"/><text fill="#000000" font-family="Arial" font-size="7.4479" lengthAdjust="spacing" textLength="31.8864" x="255.2286" y="81.5626">&#171;include&#187;</text></g><!--SRC=[TP71JiCm38RlUGgpUolenWLDbQfoGUA0D7RZOgMcZTObbUDo0TuTBwHi4bfEZl_Fl-tandaxpXr1-OPHS2YEpfVJV1oDYHP7WjlotepqBY01sFM3GEUOhBZWZK4hWM6r4tNmiWAC4Cs4ze0zmPCNOeyZV1hGazbNGZiG9rOkXQRJrYuAerwJZERR686Y-AhL5fV0p94iHjA-HD26cJL-uT0pnPWAz-tT6MgPKFwuHugMtNGQFwFL6MscYSE7igcaopMBv_gVvpCXU-Txs0bD2xQv6B2PPT27SVP4xsDU6pMhpwlxf4dbDwZIXgbFpgYJwb2MTIg11zXkytVLjKhLTMbzNTfSatu0]--></g></svg>