<svg xmlns="http://www.w3.org/2000/svg" xmlns:xlink="http://www.w3.org/1999/xlink" contentStyleType="text/css" data-diagram-type="DESCRIPTION" height="1049.5833px" preserveAspectRatio="none" style="width:559px;height:1049px;background:#FFFFFF;" version="1.1" viewBox="0 0 559 1049" width="559.1667px" zoomAndPan="magnify"><defs/><g><!--cluster Internal--><g class="cluster" data-entity="Internal" data-source-line="7" data-uid="ent0003" id="cluster_Internal"><rect fill="#FFFFFF" height="294.4792" style="stroke:#000000;stroke-width:1.1458;" width="131.7708" x="13.75" y="440"/><text fill="#000000" font-family="Arial" font-size="14.8958" font-weight="bold" lengthAdjust="spacing" textLength="53.801" x="52.7349" y="459.9449">Internal</text></g><!--cluster System--><g class="cluster" data-entity="System" data-source-line="15" data-uid="ent0008" id="cluster_System"><rect fill="#FFFFFF" height="990" style="stroke:#000000;stroke-width:1.1458;" width="247.5" x="304.7917" y="13.75"/><text fill="#000000" font-family="Arial" font-size="14.8958" font-weight="bold" lengthAdjust="spacing" textLength="52.9937" x="402.0448" y="33.6949">System</text></g><!--entity t--><g class="entity" data-entity="t" data-source-line="8" data-uid="ent0004" id="entity_t"><ellipse cx="79.4578" cy="496.1458" fill="#FFFFFF" rx="9.1667" ry="9.1667" style="stroke:#000000;stroke-width:1.7188;"/><path d="M79.4578,505.3125 L79.4578,536.25 M64.5619,514.4792 L94.3536,514.4792 M79.4578,536.25 L64.5619,553.4375 M79.4578,536.25 L94.3536,553.4375" fill="none" style="stroke:#000000;stroke-width:1.7188;"/><text fill="#000000" font-family="Arial" font-size="14.8958" lengthAdjust="spacing" textLength="54.6447" x="52.1354" y="573.9554">Teacher</text></g><!--entity a--><g class="entity" data-entity="a" data-source-line="9" data-uid="ent0005" id="entity_a"><ellipse cx="79.3937" cy="631.3542" fill="#FFFFFF" rx="9.1667" ry="9.1667" style="stroke:#000000;stroke-width:1.7188;"/><path d="M79.3937,640.5208 L79.3937,671.4583 M64.4979,649.6875 L94.2896,649.6875 M79.3937,671.4583 L64.4979,688.6458 M79.3937,671.4583 L94.2896,688.6458" fill="none" style="stroke:#000000;stroke-width:1.7188;"/><text fill="#000000" font-family="Arial" font-size="14.8958" lengthAdjust="spacing" textLength="87.7458" x="35.5208" y="709.1637">Administrator</text></g><!--entity UC1--><g class="entity" data-entity="UC1" data-source-line="16" data-uid="ent0009" id="entity_UC1"><ellipse cx="428.5721" cy="722.9593" fill="#FFFFFF" rx="38.9887" ry="17.126" style="stroke:#000000;stroke-width:1.1458;"/><text fill="#000000" font-family="Arial" font-size="14.8958" lengthAdjust="spacing" textLength="55.4666" x="400.8388" y="727.5133">Register</text></g><!--entity UC2--><g class="entity" data-entity="UC2" data-source-line="17" data-uid="ent0010" id="entity_UC2"><ellipse cx="428.6173" cy="233.9402" fill="#FFFFFF" rx="29.8673" ry="16.8048" style="stroke:#000000;stroke-width:1.1458;"/><text fill="#000000" font-family="Arial" font-size="14.8958" lengthAdjust="spacing" textLength="40.5853" x="408.3247" y="238.4942">Log in</text></g><!--entity UC3--><g class="entity" data-entity="UC3" data-source-line="18" data-uid="ent0011" id="entity_UC3"><ellipse cx="428.5868" cy="313.7382" fill="#FFFFFF" rx="102.5973" ry="23.2695" style="stroke:#000000;stroke-width:1.1458;"/><text fill="#000000" font-family="Arial" font-size="14.8958" lengthAdjust="spacing" textLength="178.8736" x="339.15" y="318.2922">Manage Personal Learning</text></g><!--entity UC4--><g class="entity" data-entity="UC4" data-source-line="19" data-uid="ent0012" id="entity_UC4"><ellipse cx="428.7105" cy="401.9921" fill="#FFFFFF" rx="105.5855" ry="23.8671" style="stroke:#000000;stroke-width:1.1458;"/><text fill="#000000" font-family="Arial" font-size="14.8958" lengthAdjust="spacing" textLength="185.4779" x="335.9716" y="406.5461">Browse and Search Catalog</text></g><!--entity UC5--><g class="entity" data-entity="UC5" data-source-line="20" data-uid="ent0013" id="entity_UC5"><ellipse cx="428.3962" cy="489.4709" fill="#FFFFFF" rx="101.8337" ry="23.1167" style="stroke:#000000;stroke-width:1.1458;"/><text fill="#000000" font-family="Arial" font-size="14.8958" lengthAdjust="spacing" textLength="177.179" x="339.8067" y="494.0249">Complete Learning Activity</text></g><!--entity UC6--><g class="entity" data-entity="UC6" data-source-line="21" data-uid="ent0014" id="entity_UC6"><ellipse cx="428.3143" cy="570.5795" fill="#FFFFFF" rx="74.8248" ry="17.715" style="stroke:#000000;stroke-width:1.1458;"/><text fill="#000000" font-family="Arial" font-size="14.8958" lengthAdjust="spacing" textLength="114.2353" x="371.1967" y="575.1335">View User Profile</text></g><!--entity UC7--><g class="entity" data-entity="UC7" data-source-line="22" data-uid="ent0015" id="entity_UC7"><ellipse cx="428.7179" cy="647.3165" fill="#FFFFFF" rx="77.52" ry="18.254" style="stroke:#000000;stroke-width:1.1458;"/><text fill="#000000" font-family="Arial" font-size="14.8958" lengthAdjust="spacing" textLength="120.905" x="368.2654" y="651.8705">View Leaderboard</text></g><!--entity UC8--><g class="entity" data-entity="UC8" data-source-line="23" data-uid="ent0016" id="entity_UC8"><ellipse cx="428.6933" cy="77.7178" fill="#FFFFFF" rx="82.6517" ry="19.2803" style="stroke:#000000;stroke-width:1.1458;"/><text fill="#000000" font-family="Arial" font-size="14.8958" lengthAdjust="spacing" textLength="133.2843" x="362.0512" y="82.2718">Create Course Draft</text></g><!--entity UC9--><g class="entity" data-entity="UC9" data-source-line="24" data-uid="ent0017" id="entity_UC9"><ellipse cx="428.4787" cy="156.852" fill="#FFFFFF" rx="83.01" ry="19.352" style="stroke:#000000;stroke-width:1.1458;"/><text fill="#000000" font-family="Arial" font-size="14.8958" lengthAdjust="spacing" textLength="134.1352" x="361.4111" y="161.406">Edit Course Content</text></g><!--entity UC10--><g class="entity" data-entity="UC10" data-source-line="25" data-uid="ent0018" id="entity_UC10"><ellipse cx="428.6311" cy="803.1325" fill="#FFFFFF" rx="100.3499" ry="22.82" style="stroke:#000000;stroke-width:1.1458;"/><text fill="#000000" font-family="Arial" font-size="14.8958" lengthAdjust="spacing" textLength="173.8769" x="341.6927" y="807.6864">Manage System Metadata</text></g><!--entity UC11--><g class="entity" data-entity="UC11" data-source-line="26" data-uid="ent0019" id="entity_UC11"><ellipse cx="428.4661" cy="887.089" fill="#FFFFFF" rx="87.5806" ry="20.2661" style="stroke:#000000;stroke-width:1.1458;"/><text fill="#000000" font-family="Arial" font-size="14.8958" lengthAdjust="spacing" textLength="144.8634" x="356.0343" y="891.643">Review Course Drafts</text></g><!--entity UC12--><g class="entity" data-entity="UC12" data-source-line="27" data-uid="ent0020" id="entity_UC12"><ellipse cx="428.5761" cy="966.1735" fill="#FFFFFF" rx="81.9615" ry="19.1423" style="stroke:#000000;stroke-width:1.1458;"/><text fill="#000000" font-family="Arial" font-size="14.8958" lengthAdjust="spacing" textLength="131.6405" x="362.7558" y="970.7275">Manage User Roles</text></g><!--entity s--><g class="entity" data-entity="s" data-source-line="6" data-uid="ent0002" id="entity_s"><ellipse cx="225.0463" cy="496.1458" fill="#FFFFFF" rx="9.1667" ry="9.1667" style="stroke:#000000;stroke-width:1.7188;"/><path d="M225.0463,505.3125 L225.0463,536.25 M210.1505,514.4792 L239.9421,514.4792 M225.0463,536.25 L210.1505,553.4375 M225.0463,536.25 L239.9421,553.4375" fill="none" style="stroke:#000000;stroke-width:1.7188;"/><text fill="#000000" font-family="Arial" font-size="14.8958" lengthAdjust="spacing" textLength="51.3426" x="199.375" y="573.9554">Learner</text></g><!--link t to s--><g class="link" data-entity-1="t" data-entity-2="s" data-source-line="12" data-uid="lnk6" id="link_t_s"><path d="M110.8479,532.8125 C135.9073,532.8125 150.2187,532.8125 174.8542,532.8125" fill="none" id="t-to-s" style="stroke:#000000;stroke-width:1.1458;"/><polygon fill="none" points="195.4792,532.8125,174.8542,525.9375,174.8542,539.6875,195.4792,532.8125" style="stroke:#000000;stroke-width:1.1458;"/></g><!--link a to s--><g class="link" data-entity-1="a" data-entity-2="s" data-source-line="13" data-uid="lnk7" id="link_a_s"><path d="M127.3708,624.7656 C164.8854,624.7656 210.8333,624.7656 210.8333,624.7656 C210.8333,624.7656 210.8333,623.4708 210.8333,601.0354" fill="none" id="a-to-s" style="stroke:#000000;stroke-width:1.1458;"/><polygon fill="none" points="210.8333,580.4104,203.9583,601.0354,217.7083,601.0354,210.8333,580.4104" style="stroke:#000000;stroke-width:1.1458;"/></g><!--link s to UC1--><g class="link" data-entity-1="s" data-entity-2="UC1" data-source-line="31" data-uid="lnk21" id="link_s_UC1"><path d="M225.7292,580.5135 C225.7292,632.7177 225.7292,709.076 225.7292,709.076 C225.7292,709.076 352.6302,709.076 405.6708,709.076" fill="none" id="s-UC1" style="stroke:#000000;stroke-width:1.1458;"/></g><!--link s to UC2--><g class="link" data-entity-1="s" data-entity-2="UC2" data-source-line="32" data-uid="lnk22" id="link_s_UC2"><path d="M210.8333,485.1 C210.8333,400.6635 210.8333,233.75 210.8333,233.75 C210.8333,233.75 339.0979,233.75 398.7271,233.75" fill="none" id="s-UC2" style="stroke:#000000;stroke-width:1.1458;"/></g><!--link s to UC3--><g class="link" data-entity-1="s" data-entity-2="UC3" data-source-line="33" data-uid="lnk23" id="link_s_UC3"><path d="M225.7292,484.7792 C225.7292,420.3604 225.7292,313.9583 225.7292,313.9583 C225.7292,313.9583 275.6417,313.9583 325.9437,313.9583" fill="none" id="s-UC3" style="stroke:#000000;stroke-width:1.1458;"/></g><!--link s to UC4--><g class="link" data-entity-1="s" data-entity-2="UC4" data-source-line="34" data-uid="lnk24" id="link_s_UC4"><path d="M240.625,484.9167 C240.625,447.6313 240.625,402.1875 240.625,402.1875 C240.625,402.1875 280.2135,402.1875 323.0448,402.1875" fill="none" id="s-UC4" style="stroke:#000000;stroke-width:1.1458;"/></g><!--link s to UC5--><g class="link" data-entity-1="s" data-entity-2="UC5" data-source-line="35" data-uid="lnk25" id="link_s_UC5"><path d="M254.7302,498.724 C276.1,498.724 306.2354,498.724 335.4198,498.724" fill="none" id="s-UC5" style="stroke:#000000;stroke-width:1.1458;"/></g><!--link s to UC6--><g class="link" data-entity-1="s" data-entity-2="UC6" data-source-line="36" data-uid="lnk26" id="link_s_UC6"><path d="M254.7302,566.6146 C280.9469,566.6146 320.3521,566.6146 355.0135,566.6146" fill="none" id="s-UC6" style="stroke:#000000;stroke-width:1.1458;"/></g><!--link s to UC7--><g class="link" data-entity-1="s" data-entity-2="UC7" data-source-line="37" data-uid="lnk27" id="link_s_UC7"><path d="M240.625,580.4104 C240.625,611.8979 240.625,647.3958 240.625,647.3958 C240.625,647.3958 299.2573,647.3958 351.026,647.3958" fill="none" id="s-UC7" style="stroke:#000000;stroke-width:1.1458;"/></g><!--link t to UC8--><g class="link" data-entity-1="t" data-entity-2="UC8" data-source-line="38" data-uid="lnk28" id="link_t_UC8"><path d="M69.8958,484.9854 C69.8958,368.2021 69.8958,77.9167 69.8958,77.9167 C69.8958,77.9167 239.8917,77.9167 345.8125,77.9167" fill="none" id="t-UC8" style="stroke:#000000;stroke-width:1.1458;"/></g><!--link t to UC9--><g class="link" data-entity-1="t" data-entity-2="UC9" data-source-line="39" data-uid="lnk29" id="link_t_UC9"><path d="M90.5208,485.2146 C90.5208,384.0833 90.5208,156.9792 90.5208,156.9792 C90.5208,156.9792 245.3344,156.9792 345.4229,156.9792" fill="none" id="t-UC9" style="stroke:#000000;stroke-width:1.1458;"/></g><!--link a to UC10--><g class="link" data-entity-1="a" data-entity-2="UC10" data-source-line="40" data-uid="lnk30" id="link_a_UC10"><path d="M127.451,712.3302 C202.6979,712.3302 340.3125,712.3302 340.3125,712.3302 C340.3125,712.3302 340.3125,767.8115 340.3125,792.0802" fill="none" id="a-UC10" style="stroke:#000000;stroke-width:1.1458;"/></g><!--link a to UC11--><g class="link" data-entity-1="a" data-entity-2="UC11" data-source-line="41" data-uid="lnk31" id="link_a_UC11"><path d="M96.25,716.0542 C96.25,780.4729 96.25,886.875 96.25,886.875 C96.25,886.875 242.3552,886.875 340.8052,886.875" fill="none" id="a-UC11" style="stroke:#000000;stroke-width:1.1458;"/></g><!--link a to UC12--><g class="link" data-entity-1="a" data-entity-2="UC12" data-source-line="42" data-uid="lnk32" id="link_a_UC12"><path d="M64.1667,715.8823 C64.1667,800.101 64.1667,965.9375 64.1667,965.9375 C64.1667,965.9375 238.849,965.9375 346.3167,965.9375" fill="none" id="a-UC12" style="stroke:#000000;stroke-width:1.1458;"/></g><g class="footer" data-source-line="45"><text fill="#999999" font-family="Arial" font-size="11.4583" lengthAdjust="spacing" textLength="205.7409" x="171.5567" y="1029.581">all use cases include user authentication</text></g><!--SRC=[RPDDRzim38Rl-XLSBZibJjAqNNSOqAKx34Y0e6rsPsNQ5YPB0KKtABRzzycE5DH5VF5hym4_n5UVZDEsAmaQaKFuMXICnrbjfEbUka2ilHDoCjE-BIgcqWUBhylvV5LiZJCjskU6Mjhjjvk2gGf5GrY6eaNZYlO4JAKdPeUkjKe5ZPPWeInL0kA1JTq8b8P9Y_5EATJY6IORGdR44y00GHrG_yQQu6ViXHrQ-ACWFebz9jHDOkLzuBxiMmZ263-7CAf_IWbCft-_nRIOnRd0qriGQbFwEBx6G31vf3fcIHNswyKukl4r69TYot5iYwvFkoCElkzx6CkuEj5NO_ex-sDyeolXAOAwWJKAMf_nrHXV-_PWIUYS5UxZ8RuQUKlyzPZ_PUW8-xXJsB6lZAM4tLp0OigI-CKZbucw_L2S2MFfjUyuVZumLfB0BsFmHsaaO-kJcH9uT_6iqWgs95Z6wVEPpp-kvBLlyttvaD75nRp3u8_UqfbRzcPG8PfWM6eIoookibXbSPt5JHQtWvc6ePEu6rnrwXXFOd7-jLJgCpnGq6mElTt1Ln1lH_G_reojghoFDWEqjcyV-lu3vFlPtqR0Bl9EZCRXklm7]--></g></svg>