<svg xmlns="http://www.w3.org/2000/svg" xmlns:xlink="http://www.w3.org/1999/xlink" contentStyleType="text/css" data-diagram-type="DESCRIPTION" height="1228.3333px" preserveAspectRatio="none" style="width:1365px;height:1228px;background:#FFFFFF;" version="1.1" viewBox="0 0 1365 1228" width="1365.8333px" zoomAndPan="magnify"><defs/><g><!--cluster Internal--><g class="cluster" data-entity="Internal" data-source-line="7" data-uid="ent0003" id="cluster_Internal"><rect fill="#FFFFFF" height="588.9583" style="stroke:#000000;stroke-width:2.2917;" width="263.5417" x="27.5" y="317.3958"/><text fill="#000000" font-family="Arial" font-size="29.7917" font-weight="bold" lengthAdjust="spacing" textLength="107.602" x="105.4698" y="357.2857">Internal</text></g><!--entity t--><g class="entity" data-entity="t" data-source-line="8" data-uid="ent0004" id="entity_t"><ellipse cx="158.9156" cy="429.6875" fill="#FFFFFF" rx="18.3333" ry="18.3333" style="stroke:#000000;stroke-width:3.4375;"/><path d="M158.9156,448.0208 L158.9156,509.8958 M129.1239,466.3542 L188.7072,466.3542 M158.9156,509.8958 L129.1239,544.2708 M158.9156,509.8958 L188.7072,544.2708" fill="none" style="stroke:#000000;stroke-width:3.4375;"/><text fill="#000000" font-family="Arial" font-size="29.7917" lengthAdjust="spacing" textLength="109.2894" x="104.2708" y="585.3065">Teacher</text></g><!--entity a--><g class="entity" data-entity="a" data-source-line="9" data-uid="ent0005" id="entity_a"><ellipse cx="158.7874" cy="700.1042" fill="#FFFFFF" rx="18.3333" ry="18.3333" style="stroke:#000000;stroke-width:3.4375;"/><path d="M158.7874,718.4375 L158.7874,780.3125 M128.9958,736.7708 L188.5791,736.7708 M158.7874,780.3125 L128.9958,814.6875 M158.7874,780.3125 L188.5791,814.6875" fill="none" style="stroke:#000000;stroke-width:3.4375;"/><text fill="#000000" font-family="Arial" font-size="29.7917" lengthAdjust="spacing" textLength="175.4915" x="71.0417" y="855.7232">Administrator</text></g><!--entity s--><g class="entity" data-entity="s" data-source-line="6" data-uid="ent0002" id="entity_s"><ellipse cx="592.176" cy="477.8125" fill="#FFFFFF" rx="18.3333" ry="18.3333" style="stroke:#000000;stroke-width:3.4375;"/><path d="M592.176,496.1458 L592.176,558.0208 M562.3843,514.4792 L621.9676,514.4792 M592.176,558.0208 L562.3843,592.3958 M592.176,558.0208 L621.9676,592.3958" fill="none" style="stroke:#000000;stroke-width:3.4375;"/><text fill="#000000" font-family="Arial" font-size="29.7917" lengthAdjust="spacing" textLength="102.6852" x="540.8333" y="633.4315">Learner</text></g><!--entity UC1--><g class="entity" data-entity="UC1" data-source-line="15" data-uid="ent0008" id="entity_UC1"><ellipse cx="1141.4468" cy="60.2172" fill="#FFFFFF" rx="121.6551" ry="35.0089" style="stroke:#000000;stroke-width:2.2917;"/><text fill="#000000" font-family="Arial" font-size="29.7917" lengthAdjust="spacing" textLength="182.1103" x="1050.3917" y="69.3251">Register User</text></g><!--entity UC2--><g class="entity" data-entity="UC2" data-source-line="16" data-uid="ent0009" id="entity_UC2"><ellipse cx="1141.0154" cy="212.2919" fill="#FFFFFF" rx="98.3071" ry="34.6878" style="stroke:#000000;stroke-width:2.2917;"/><text fill="#000000" font-family="Arial" font-size="29.7917" lengthAdjust="spacing" textLength="144.0706" x="1068.9801" y="221.3998">User Login</text></g><!--entity UC3--><g class="entity" data-entity="UC3" data-source-line="17" data-uid="ent0010" id="entity_UC3"><ellipse cx="1141.3404" cy="374.2472" fill="#FFFFFF" rx="205.1945" ry="46.5389" style="stroke:#000000;stroke-width:2.2917;"/><text fill="#000000" font-family="Arial" font-size="29.7917" lengthAdjust="spacing" textLength="357.7473" x="962.4667" y="383.3552">Manage Personal Learning</text></g><!--entity UC4--><g class="entity" data-entity="UC4" data-source-line="18" data-uid="ent0011" id="entity_UC4"><ellipse cx="1141.5877" cy="550.755" fill="#FFFFFF" rx="211.1711" ry="47.7342" style="stroke:#000000;stroke-width:2.2917;"/><text fill="#000000" font-family="Arial" font-size="29.7917" lengthAdjust="spacing" textLength="370.9557" x="956.1099" y="559.863">Browse and Search Catalog</text></g><!--entity UC5--><g class="entity" data-entity="UC5" data-source-line="19" data-uid="ent0012" id="entity_UC5"><ellipse cx="1140.959" cy="725.7126" fill="#FFFFFF" rx="203.6674" ry="46.2335" style="stroke:#000000;stroke-width:2.2917;"/><text fill="#000000" font-family="Arial" font-size="29.7917" lengthAdjust="spacing" textLength="354.3579" x="963.7801" y="734.8206">Complete Learning Activity</text></g><!--entity UC6--><g class="entity" data-entity="UC6" data-source-line="20" data-uid="ent0013" id="entity_UC6"><ellipse cx="1140.7954" cy="887.9299" fill="#FFFFFF" rx="149.6495" ry="35.4299" style="stroke:#000000;stroke-width:2.2917;"/><text fill="#000000" font-family="Arial" font-size="29.7917" lengthAdjust="spacing" textLength="228.4707" x="1026.56" y="897.0378">View User Profile</text></g><!--entity UC7--><g class="entity" data-entity="UC7" data-source-line="21" data-uid="ent0014" id="entity_UC7"><ellipse cx="1141.6025" cy="1041.4038" fill="#FFFFFF" rx="155.04" ry="36.508" style="stroke:#000000;stroke-width:2.2917;"/><text fill="#000000" font-family="Arial" font-size="29.7917" lengthAdjust="spacing" textLength="241.81" x="1020.6975" y="1050.5118">View Leaderboard</text></g><!--entity UC8--><g class="entity" data-entity="UC8" data-source-line="22" data-uid="ent0015" id="entity_UC8"><ellipse cx="592.6992" cy="177.2065" fill="#FFFFFF" rx="165.3034" ry="38.5607" style="stroke:#000000;stroke-width:2.2917;"/><text fill="#000000" font-family="Arial" font-size="29.7917" lengthAdjust="spacing" textLength="266.5685" x="459.4149" y="186.3144">Create Course Draft</text></g><!--entity UC9--><g class="entity" data-entity="UC9" data-source-line="23" data-uid="ent0016" id="entity_UC9"><ellipse cx="592.27" cy="335.4748" fill="#FFFFFF" rx="166.02" ry="38.704" style="stroke:#000000;stroke-width:2.2917;"/><text fill="#000000" font-family="Arial" font-size="29.7917" lengthAdjust="spacing" textLength="268.2705" x="458.1347" y="344.5827">Edit Course Content</text></g><!--entity UC10--><g class="entity" data-entity="UC10" data-source-line="24" data-uid="ent0017" id="entity_UC10"><ellipse cx="592.5747" cy="773.2441" fill="#FFFFFF" rx="200.6997" ry="45.6399" style="stroke:#000000;stroke-width:2.2917;"/><text fill="#000000" font-family="Arial" font-size="29.7917" lengthAdjust="spacing" textLength="347.7537" x="418.6978" y="782.352">Manage System Metadata</text></g><!--entity UC11--><g class="entity" data-entity="UC11" data-source-line="25" data-uid="ent0018" id="entity_UC11"><ellipse cx="592.2446" cy="941.1573" fill="#FFFFFF" rx="175.1613" ry="40.5323" style="stroke:#000000;stroke-width:2.2917;"/><text fill="#000000" font-family="Arial" font-size="29.7917" lengthAdjust="spacing" textLength="289.7269" x="447.3812" y="950.2652">Review Course Drafts</text></g><!--entity UC12--><g class="entity" data-entity="UC12" data-source-line="26" data-uid="ent0019" id="entity_UC12"><ellipse cx="592.4646" cy="1099.3263" fill="#FFFFFF" rx="163.923" ry="38.2846" style="stroke:#000000;stroke-width:2.2917;"/><text fill="#000000" font-family="Arial" font-size="29.7917" lengthAdjust="spacing" textLength="263.2809" x="460.8242" y="1108.4342">Manage User Roles</text></g><!--link t to s--><g class="link" data-entity-1="t" data-entity-2="s" data-source-line="12" data-uid="lnk6" id="link_t_s"><path d="M221.3292,527.0833 C304.8375,527.0833 411.0333,527.0833 492.6625,527.0833" fill="none" id="t-to-s" style="stroke:#000000;stroke-width:2.2917;"/><polygon fill="none" points="533.9125,527.0833,492.6625,513.3333,492.6625,540.8333,533.9125,527.0833" style="stroke:#000000;stroke-width:2.2917;"/></g><!--link a to s--><g class="link" data-entity-1="a" data-entity-2="s" data-source-line="13" data-uid="lnk7" id="link_a_s"><path d="M238.3333,677.6458 C238.3333,647.625 238.3333,622.1875 238.3333,622.1875 C238.3333,622.1875 392.1271,622.1875 492.6854,622.1875" fill="none" id="a-to-s" style="stroke:#000000;stroke-width:2.2917;"/><polygon fill="none" points="533.9354,622.1875,492.6854,608.4375,492.6854,635.9375,533.9354,622.1875" style="stroke:#000000;stroke-width:2.2917;"/></g><!--link s to UC1--><g class="link" data-entity-1="s" data-entity-2="UC1" data-source-line="28" data-uid="lnk20" id="link_s_UC1"><path d="M651.5437,471.6937 C703.1979,471.6937 770,471.6937 770,471.6937 C770,471.6937 770,60.7292 770,60.7292 C770,60.7292 911.4187,60.7292 1019.7,60.7292" fill="none" id="s-UC1" style="stroke:#000000;stroke-width:2.2917;"/></g><!--link s to UC2--><g class="link" data-entity-1="s" data-entity-2="UC2" data-source-line="29" data-uid="lnk21" id="link_s_UC2"><path d="M651.1771,487.3688 C706.6813,487.3688 781.4583,487.3688 781.4583,487.3688 C781.4583,487.3688 781.4583,231.4583 781.4583,231.4583 C781.4583,231.4583 953.4479,231.4583 1059.5979,231.4583" fill="none" id="s-UC2" style="stroke:#000000;stroke-width:2.2917;"/></g><!--link s to UC3--><g class="link" data-entity-1="s" data-entity-2="UC3" data-source-line="30" data-uid="lnk22" id="link_s_UC3"><path d="M593.5417,455.4 C593.5417,421.3458 593.5417,391.3021 593.5417,391.3021 C593.5417,391.3021 791.1062,391.3021 948.9104,391.3021" fill="none" id="s-UC3" style="stroke:#000000;stroke-width:2.2917;"/></g><!--link s to UC4--><g class="link" data-entity-1="s" data-entity-2="UC4" data-source-line="31" data-uid="lnk23" id="link_s_UC4"><path d="M651.1312,551.1458 C717.6354,551.1458 829.8125,551.1458 930.0729,551.1458" fill="none" id="s-UC4" style="stroke:#000000;stroke-width:2.2917;"/></g><!--link s to UC5--><g class="link" data-entity-1="s" data-entity-2="UC5" data-source-line="32" data-uid="lnk24" id="link_s_UC5"><path d="M593.5417,646.8 C593.5417,677.4167 593.5417,703.5417 593.5417,703.5417 C593.5417,703.5417 801.5104,703.5417 961.1479,703.5417" fill="none" id="s-UC5" style="stroke:#000000;stroke-width:2.2917;"/></g><!--link s to UC6--><g class="link" data-entity-1="s" data-entity-2="UC6" data-source-line="33" data-uid="lnk25" id="link_s_UC6"><path d="M651.5208,614.9229 C736.9083,614.9229 884.5833,614.9229 884.5833,614.9229 C884.5833,614.9229 884.5833,860.5208 884.5833,860.5208 C884.5833,860.5208 972.6979,860.5208 1045.6875,860.5208" fill="none" id="s-UC6" style="stroke:#000000;stroke-width:2.2917;"/></g><!--link s to UC7--><g class="link" data-entity-1="s" data-entity-2="UC7" data-source-line="34" data-uid="lnk26" id="link_s_UC7"><path d="M651.4063,630.5979 C724.2813,630.5979 838.75,630.5979 838.75,630.5979 C838.75,630.5979 838.75,1032.9688 838.75,1032.9688 C838.75,1032.9688 914.375,1032.9688 990,1032.9688" fill="none" id="s-UC7" style="stroke:#000000;stroke-width:2.2917;"/></g><!--link t to UC8--><g class="link" data-entity-1="t" data-entity-2="UC8" data-source-line="35" data-uid="lnk27" id="link_t_UC8"><path d="M160.4167,407.1375 C160.4167,311.1625 160.4167,177.6042 160.4167,177.6042 C160.4167,177.6042 305.2958,177.6042 427.2354,177.6042" fill="none" id="t-UC8" style="stroke:#000000;stroke-width:2.2917;"/></g><!--link t to UC9--><g class="link" data-entity-1="t" data-entity-2="UC9" data-source-line="36" data-uid="lnk28" id="link_t_UC9"><path d="M221.3521,438.8542 C314.9208,438.8542 481.25,438.8542 481.25,438.8542 C481.25,438.8542 481.25,395.4958 481.25,364.9937" fill="none" id="t-UC9" style="stroke:#000000;stroke-width:2.2917;"/></g><!--link a to UC10--><g class="link" data-entity-1="a" data-entity-2="UC10" data-source-line="37" data-uid="lnk29" id="link_a_UC10"><path d="M255.4063,773.4375 C295.7625,773.4375 344.3229,773.4375 391.8521,773.4375" fill="none" id="a-UC10" style="stroke:#000000;stroke-width:2.2917;"/></g><!--link a to UC11--><g class="link" data-entity-1="a" data-entity-2="UC11" data-source-line="38" data-uid="lnk30" id="link_a_UC11"><path d="M192.5,868.8167 C192.5,906.3771 192.5,940.7292 192.5,940.7292 C192.5,940.7292 309.5583,940.7292 416.9917,940.7292" fill="none" id="a-UC11" style="stroke:#000000;stroke-width:2.2917;"/></g><!--link a to UC12--><g class="link" data-entity-1="a" data-entity-2="UC12" data-source-line="39" data-uid="lnk31" id="link_a_UC12"><path d="M128.3333,869.3208 C128.3333,965.2958 128.3333,1098.8542 128.3333,1098.8542 C128.3333,1098.8542 294.6396,1098.8542 428.1292,1098.8542" fill="none" id="a-UC12" style="stroke:#000000;stroke-width:2.2917;"/></g><g class="footer" data-source-line="42"><text fill="#999999" font-family="Arial" font-size="22.9167" lengthAdjust="spacing" textLength="411.4817" x="467.2011" y="1189.2729">all use cases include user authentication</text></g><!--SRC=[PPD1Rzim38Nl-XLSBZibJjAqNNSOqAKx34Y0e6rwPsNQ5YPB0IKtABRzzz6E50ThBdasFrEFzFCduxJjIe8cnaFuMXICnrbjOjEzTe5OUnV9nPdsRL4nbJvOV5lEvwjYQvnfqJutrD9klzqKJ5Ke6i8o52qQLxGdO1fxOdReMgjKq6W9bifI5I5wO5Ct4Kh3fAFnJYdKqJDCDeJiY2U00O8weFw5DS5FyS8EBVnM8B_4FXFg9h7nid1VzXP2P9JBeOpghr8HfjC_twGjPg5aKes1OF98jJn03FkGEkxNYx7StuMDhurBjULOswBhFUw8W-yz3YCOLoVoQYI_ip_AFxeIdWJI3QmnelKPNOteshS7Iv7EtU1U5lLcudjYhqVsnT1ny0qxzfMnb92R_n1fLHA_UkGo4RSN1pAX7BVs7Slb0sCL4_HbX7wK9cPaVGf8Wku-xEFfNVRPmfOYbZ9btkdySkTllQtB8qF65X_w3GC-UajdPYcnaZSvlAaabbbSPR7AuZgBconkXqGC4oPnDqJZP1DFOd6-9STzXWSAcisXpopu2YJY4cAi6LjLUTy72Aq5yGwz-G3v8-i_AS1EU1UDnY7p_m00]--></g></svg>