<svg xmlns="http://www.w3.org/2000/svg" xmlns:xlink="http://www.w3.org/1999/xlink" contentStyleType="text/css" data-diagram-type="ACTIVITY" height="657.7083px" preserveAspectRatio="none" style="width:602px;height:657px;background:#FFFFFF;" version="1.1" viewBox="0 0 602 657" width="602.7083px" zoomAndPan="magnify"><defs/><g><ellipse cx="281.5834" cy="17.1875" fill="#FFFFFF" rx="11.4583" ry="11.4583" style="stroke:#000000;stroke-width:1.1458;"/><rect fill="#FFFFFF" height="46.9204" style="stroke:#000000;stroke-width:1.1458;" width="379.1455" x="92.0106" y="51.5625"/><text fill="#000000" font-family="Arial" font-size="14.8958" lengthAdjust="spacing" textLength="349.3538" x="106.9064" y="80.6741">System displays learning activity (Question/Exercise)</text><rect fill="#FFFFFF" height="46.9204" style="stroke:#000000;stroke-width:1.1458;" width="157.2863" x="202.9402" y="171.8163"/><text fill="#000000" font-family="Arial" font-size="14.8958" lengthAdjust="spacing" textLength="127.4947" x="217.836" y="200.9279">User inputs answer</text><rect fill="#FFFFFF" height="46.9204" style="stroke:#000000;stroke-width:1.1458;" width="168.8582" x="197.1542" y="241.6533"/><text fill="#000000" font-family="Arial" font-size="14.8958" lengthAdjust="spacing" textLength="139.0666" x="212.0501" y="270.7649">User submits answer</text><rect fill="#FFFFFF" height="46.9204" style="stroke:#000000;stroke-width:1.1458;" width="199.5154" x="181.8257" y="311.4904"/><text fill="#000000" font-family="Arial" font-size="14.8958" lengthAdjust="spacing" textLength="169.7238" x="196.7215" y="340.602">System evaluates answer</text><polygon fill="#FFFFFF" points="217.3006,384.7356,345.8661,384.7356,359.6161,398.4856,345.8661,412.2356,217.3006,412.2356,203.5506,398.4856,217.3006,384.7356" style="stroke:#000000;stroke-width:1.1458;"/><text fill="#000000" font-family="Arial" font-size="14.8958" lengthAdjust="spacing" textLength="121.6905" x="220.7381" y="404.137">Is answer correct?</text><text fill="#000000" font-family="Arial" font-size="14.8958" lengthAdjust="spacing" textLength="23.1802" x="176.9329" y="392.1352">yes</text><text fill="#000000" font-family="Arial" font-size="14.8958" lengthAdjust="spacing" textLength="16.5687" x="363.0536" y="392.1352">no</text><rect fill="#FFFFFF" height="46.9204" style="stroke:#000000;stroke-width:1.1458;" width="259.9352" x="6.875" y="423.694"/><text fill="#000000" font-family="Arial" font-size="14.8958" lengthAdjust="spacing" textLength="230.1435" x="21.7708" y="452.8056">System displays success message</text><rect fill="#FFFFFF" height="46.9204" style="stroke:#000000;stroke-width:1.1458;" width="249.1706" x="12.2573" y="493.5311"/><text fill="#000000" font-family="Arial" font-size="14.8958" lengthAdjust="spacing" textLength="219.379" x="27.1531" y="522.6427">System marks step as completed</text><ellipse cx="136.8426" cy="575.9723" fill="none" rx="12.6042" ry="12.6042" style="stroke:#000000;stroke-width:1.1458;"/><ellipse cx="136.8426" cy="575.9723" fill="#FFFFFF" rx="6.875" ry="6.875" style="stroke:#000000;stroke-width:1.1458;"/><rect fill="#FFFFFF" height="46.9204" style="stroke:#000000;stroke-width:1.1458;" width="237.5769" x="307.5357" y="423.694"/><text fill="#000000" font-family="Arial" font-size="14.8958" lengthAdjust="spacing" textLength="207.7852" x="322.4315" y="452.8056">System displays error message</text><rect fill="#FFFFFF" height="46.9204" style="stroke:#000000;stroke-width:1.1458;" width="273.1945" x="289.7269" y="493.5311"/><text fill="#000000" font-family="Arial" font-size="14.8958" lengthAdjust="spacing" textLength="243.4029" x="304.6227" y="522.6427">System provides corrective feedback</text><polygon fill="#FFFFFF" points="281.5834,121.3996,295.3334,135.1496,281.5834,148.8996,267.8334,135.1496,281.5834,121.3996" style="stroke:#000000;stroke-width:1.1458;"/><line style="stroke:#000000;stroke-width:1.1458;" x1="281.5834" x2="281.5834" y1="28.6458" y2="51.5625"/><polygon fill="#000000" points="277,40.1042,281.5834,51.5625,286.1667,40.1042,281.5834,44.6875" style="stroke:#000000;stroke-width:1.1458;"/><line style="stroke:#000000;stroke-width:1.1458;" x1="281.5834" x2="281.5834" y1="218.7367" y2="241.6533"/><polygon fill="#000000" points="277,230.195,281.5834,241.6533,286.1667,230.195,281.5834,234.7783" style="stroke:#000000;stroke-width:1.1458;"/><line style="stroke:#000000;stroke-width:1.1458;" x1="281.5834" x2="281.5834" y1="288.5738" y2="311.4904"/><polygon fill="#000000" points="277,300.0321,281.5834,311.4904,286.1667,300.0321,281.5834,304.6154" style="stroke:#000000;stroke-width:1.1458;"/><line style="stroke:#000000;stroke-width:1.1458;" x1="136.8426" x2="136.8426" y1="470.6144" y2="493.5311"/><polygon fill="#000000" points="132.2593,482.0727,136.8426,493.5311,141.4259,482.0727,136.8426,486.6561" style="stroke:#000000;stroke-width:1.1458;"/><line style="stroke:#000000;stroke-width:1.1458;" x1="136.8426" x2="136.8426" y1="540.4515" y2="563.3681"/><polygon fill="#000000" points="132.2593,551.9098,136.8426,563.3681,141.4259,551.9098,136.8426,556.4931" style="stroke:#000000;stroke-width:1.1458;"/><line style="stroke:#000000;stroke-width:1.1458;" x1="426.3241" x2="426.3241" y1="470.6144" y2="493.5311"/><polygon fill="#000000" points="421.7408,482.0727,426.3241,493.5311,430.9075,482.0727,426.3241,486.6561" style="stroke:#000000;stroke-width:1.1458;"/><line style="stroke:#000000;stroke-width:1.1458;" x1="203.5506" x2="136.8426" y1="398.4856" y2="398.4856"/><line style="stroke:#000000;stroke-width:1.1458;" x1="136.8426" x2="136.8426" y1="398.4856" y2="423.694"/><polygon fill="#000000" points="132.2593,412.2356,136.8426,423.694,141.4259,412.2356,136.8426,416.819" style="stroke:#000000;stroke-width:1.1458;"/><line style="stroke:#000000;stroke-width:1.1458;" x1="359.6161" x2="426.3241" y1="398.4856" y2="398.4856"/><line style="stroke:#000000;stroke-width:1.1458;" x1="426.3241" x2="426.3241" y1="398.4856" y2="423.694"/><polygon fill="#000000" points="421.7408,412.2356,426.3241,423.694,430.9075,412.2356,426.3241,416.819" style="stroke:#000000;stroke-width:1.1458;"/><line style="stroke:#000000;stroke-width:1.1458;" x1="426.3241" x2="426.3241" y1="540.4515" y2="595.4515"/><line style="stroke:#000000;stroke-width:1.1458;" x1="426.3241" x2="281.5834" y1="595.4515" y2="595.4515"/><line style="stroke:#000000;stroke-width:1.1458;" x1="281.5834" x2="281.5834" y1="358.4108" y2="384.7356"/><polygon fill="#000000" points="277,373.2773,281.5834,384.7356,286.1667,373.2773,281.5834,377.8606" style="stroke:#000000;stroke-width:1.1458;"/><line style="stroke:#000000;stroke-width:1.1458;" x1="281.5834" x2="281.5834" y1="148.8996" y2="171.8163"/><polygon fill="#000000" points="277,160.3579,281.5834,171.8163,286.1667,160.3579,281.5834,164.9413" style="stroke:#000000;stroke-width:1.1458;"/><line style="stroke:#000000;stroke-width:1.1458;" x1="281.5834" x2="578.9631" y1="650.4515" y2="650.4515"/><polygon fill="#000000" points="574.3797,381.3275,578.9631,369.8692,583.5464,381.3275,578.9631,376.7442" style="stroke:#000000;stroke-width:1.1458;"/><line style="stroke:#000000;stroke-width:1.1458;" x1="578.9631" x2="578.9631" y1="135.1496" y2="650.4515"/><line style="stroke:#000000;stroke-width:1.1458;" x1="578.9631" x2="295.3334" y1="135.1496" y2="135.1496"/><polygon fill="#000000" points="306.7917,130.5663,295.3334,135.1496,306.7917,139.7329,302.2084,135.1496" style="stroke:#000000;stroke-width:1.1458;"/><line style="stroke:#000000;stroke-width:1.1458;" x1="281.5834" x2="281.5834" y1="595.4515" y2="650.4515"/><line style="stroke:#000000;stroke-width:1.1458;" x1="281.5834" x2="281.5834" y1="98.4829" y2="121.3996"/><polygon fill="#000000" points="277,109.9413,281.5834,121.3996,286.1667,109.9413,281.5834,114.5246" style="stroke:#000000;stroke-width:1.1458;"/><!--SRC=[TP3BRXin34Nt-WfsPozg1K5MzgAhBWB4G8es7q1hxdW8wmMH6iT_tmdi82dQQa50vD7bWRv83h4FeCciwjRxnkVDKMpgXwveeMH3jaqeoOyDGz78y_tTtOFVIvR4yTU4XEUN_PDl6DLFu45zOia-NO6lzaPiQa_HgN4pj_rvKKEYGRH6lYX5SCkIZyJ1P1QxqEf7XvgKxB-_BXAYMEzSGmKlpryMBv9SkobnrZFQxjRKVaZokNlRX9bZPyF7nCb8gyVtEuNI6e9zMzDYcsbrWQuTBUSlL-qXG9NIKlY8tHzKudPQ44CbrYKqrGZ3S8NKIdM82bhbyfzqj5RQlxDhAxCCq7TNcK4ZC1mud7OEUP3nzaDqdYJ2kTy0]--></g></svg>