<svg xmlns="http://www.w3.org/2000/svg" xmlns:xlink="http://www.w3.org/1999/xlink" contentStyleType="text/css" data-diagram-type="SEQUENCE" height="570.625px" preserveAspectRatio="none" style="width:616px;height:570px;background:#FFFFFF;" version="1.1" viewBox="0 0 616 570" width="616.4583px" zoomAndPan="magnify"><title>UC5 - Complete Learning Step</title><defs/><g><text fill="#000000" font-family="Arial" font-size="25.2083" font-weight="bold" lengthAdjust="spacing" textLength="362.7637" x="131.6843" y="44.6825">UC5 - Complete Learning Step</text><rect fill="#FFFFFF" height="283.6379" style="stroke:#000000;stroke-width:1.1458;" width="592.903" x="17.1875" y="260.2692"/><rect fill="#FFFFFF" height="139.4979" style="stroke:#000000;stroke-width:1.1458;" width="501.8792" x="28.6458" y="396.3884"/><rect fill="#FFFFFF" height="66.3408" style="stroke:none;stroke-width:1.1458;" width="501.8792" x="28.6458" y="469.5455"/><g><title>Learner</title><rect fill="#000000" fill-opacity="0.00000" height="402.6871" width="9.1667" x="68.0671" y="160.6992"/><line style="stroke:#000000;stroke-width:1.1458;" x1="72.1875" x2="72.1875" y1="160.6992" y2="563.3863"/></g><g><title>System</title><rect fill="#000000" fill-opacity="0.00000" height="402.6871" width="9.1667" x="466.7355" y="160.6992"/><line style="stroke:#000000;stroke-width:1.1458;" x1="470.5501" x2="470.5501" y1="160.6992" y2="563.3863"/></g><g class="participant participant-head" data-participant="Learner"><text fill="#000000" font-family="Arial" font-size="14.8958" lengthAdjust="spacing" textLength="51.3426" x="43.5417" y="154.3487">Learner</text><ellipse cx="72.6505" cy="76.5392" fill="#FFFFFF" rx="9.1667" ry="9.1667" style="stroke:#000000;stroke-width:1.7188;"/><path d="M72.6505,85.7059 L72.6505,116.6434 M57.7546,94.8725 L87.5463,94.8725 M72.6505,116.6434 L57.7546,133.8309 M72.6505,116.6434 L87.5463,133.8309" fill="none" style="stroke:#000000;stroke-width:1.7188;"/></g><g class="participant participant-head" data-participant="System"><rect fill="#FFFFFF" height="40.0454" style="stroke:#000000;stroke-width:1.7188;" width="72.5791" x="435.0292" y="119.508"/><text fill="#000000" font-family="Arial" font-size="14.8958" lengthAdjust="spacing" textLength="49.6625" x="446.4876" y="145.1821">System</text></g><g class="message" data-participant-1="Learner" data-participant-2="System"><polygon fill="#000000" points="457.5688,198.453,469.0271,203.0363,457.5688,207.6196,462.1521,203.0363" style="stroke:#000000;stroke-width:1.1458;"/><line style="stroke:#000000;stroke-width:1.1458;" x1="72.6505" x2="464.4438" y1="203.0363" y2="203.0363"/><text fill="#000000" font-family="Arial" font-size="14.8958" lengthAdjust="spacing" textLength="195.4133" x="174.278" y="194.3941">Request current learning step</text></g><g class="message" data-participant-1="System" data-participant-2="Learner"><polygon fill="#000000" points="85.2546,238.4984,73.7963,243.0817,85.2546,247.665,80.6713,243.0817" style="stroke:#000000;stroke-width:1.1458;"/><line style="stroke:#000000;stroke-width:1.1458;stroke-dasharray:2.2917,2.2917;" x1="78.3796" x2="470.173" y1="243.0817" y2="243.0817"/><text fill="#000000" font-family="Arial" font-size="14.8958" lengthAdjust="spacing" textLength="138.2738" x="202.8477" y="234.4396">Display learning step</text></g><path d="M17.1875,260.2692 L107.0604,260.2692 L107.0604,275.1063 L95.6021,286.5646 L17.1875,286.5646 L17.1875,260.2692" fill="#FFFFFF" style="stroke:#000000;stroke-width:1.1458;"/><rect fill="none" height="283.6379" style="stroke:#000000;stroke-width:1.1458;" width="592.903" x="17.1875" y="260.2692"/><text fill="#000000" font-family="Arial" font-size="14.8958" font-weight="bold" lengthAdjust="spacing" textLength="31.4354" x="37.8125" y="279.0683">loop</text><text fill="#000000" font-family="Arial" font-size="14.8958" font-weight="bold" lengthAdjust="spacing" textLength="153.1332" x="127.6854" y="280.2142">[Until correct answer]</text><g class="message" data-participant-1="Learner" data-participant-2="System"><polygon fill="#000000" points="457.5688,319.6763,469.0271,324.2596,457.5688,328.843,462.1521,324.2596" style="stroke:#000000;stroke-width:1.1458;"/><line style="stroke:#000000;stroke-width:1.1458;" x1="72.6505" x2="464.4438" y1="324.2596" y2="324.2596"/><text fill="#000000" font-family="Arial" font-size="14.8958" lengthAdjust="spacing" textLength="98.5176" x="222.7258" y="315.6175">Submit answer</text></g><g class="message" data-participant-1="System" data-participant-2="System"><line style="stroke:#000000;stroke-width:1.1458;" x1="471.3188" x2="519.4438" y1="364.3051" y2="364.3051"/><line style="stroke:#000000;stroke-width:1.1458;" x1="519.4438" x2="519.4438" y1="364.3051" y2="379.2009"/><line style="stroke:#000000;stroke-width:1.1458;" x1="472.4646" x2="519.4438" y1="379.2009" y2="379.2009"/><polygon fill="#000000" points="483.923,374.6176,472.4646,379.2009,483.923,383.7842,479.3396,379.2009" style="stroke:#000000;stroke-width:1.1458;"/><text fill="#000000" font-family="Arial" font-size="14.8958" lengthAdjust="spacing" textLength="110.1259" x="482.7771" y="355.6629">Evaluate answer</text></g><path d="M28.6458,396.3884 L104.4667,396.3884 L104.4667,411.2255 L93.0083,422.6838 L28.6458,422.6838 L28.6458,396.3884" fill="#FFFFFF" style="stroke:#000000;stroke-width:1.1458;"/><rect fill="none" height="139.4979" style="stroke:#000000;stroke-width:1.1458;" width="501.8792" x="28.6458" y="396.3884"/><text fill="#000000" font-family="Arial" font-size="14.8958" font-weight="bold" lengthAdjust="spacing" textLength="17.3833" x="49.2708" y="415.1875">alt</text><text fill="#000000" font-family="Arial" font-size="14.8958" font-weight="bold" lengthAdjust="spacing" textLength="62.9" x="125.0917" y="416.3333">[Correct]</text><g class="message" data-participant-1="System" data-participant-2="Learner"><polygon fill="#000000" points="85.2546,455.7955,73.7963,460.3788,85.2546,464.9622,80.6713,460.3788" style="stroke:#000000;stroke-width:1.1458;"/><line style="stroke:#000000;stroke-width:1.1458;stroke-dasharray:2.2917,2.2917;" x1="78.3796" x2="470.173" y1="460.3788" y2="460.3788"/><text fill="#000000" font-family="Arial" font-size="14.8958" lengthAdjust="spacing" textLength="362.6277" x="90.6708" y="451.7367">Display success message and mark step as completed</text></g><line style="stroke:#000000;stroke-width:1.1458;stroke-dasharray:2.2917,2.2917;" x1="28.6458" x2="530.525" y1="470.6913" y2="470.6913"/><text fill="#000000" font-family="Arial" font-size="14.8958" font-weight="bold" lengthAdjust="spacing" textLength="73.6646" x="37.8125" y="488.3446">[Incorrect]</text><g class="message" data-participant-1="System" data-participant-2="Learner"><polygon fill="#000000" points="85.2546,522.1363,73.7963,526.7197,85.2546,531.303,80.6713,526.7197" style="stroke:#000000;stroke-width:1.1458;"/><line style="stroke:#000000;stroke-width:1.1458;stroke-dasharray:2.2917,2.2917;" x1="78.3796" x2="470.173" y1="526.7197" y2="526.7197"/><text fill="#000000" font-family="Arial" font-size="14.8958" lengthAdjust="spacing" textLength="364.2933" x="89.838" y="518.0775">Display error message and provide corrective feedback</text></g><!--SRC=[bL7DJW8n4BxlKumFiDGOlN3mWXvC834Y3p2q0zlGFplJ9RozPNU9QBZOf4tQVdyp8rOSmMRn12qiea-EX619c8CDUrWBfURE1ksA8UX44i-LodYSxQrqPLkOiev1ACXCHwzscKnaX_t3_VsZMjbWFRhFZZozRrPBbMd7gYCqh3pQeFm8QEMCcANYNTEWbfZ719IRX5cijWc3mFh4GhvffZzedwUdENpGLo4Mq2NdcWNSfG0-5p2YeAs4YJk75yl9uUaFqiMOO1F4Ej2nIca137oiGQ2k6yRhilNs5-XYzeDvxT4Lh6szGg6Jskx1ORXVCs_5vA8rCOEl1-xFKWOyviCG6v1ht75sPf0ZnmHlGV_3WNAkVR_MJpdsjevzKh4zmOx8R54VHfDWchg_0G00]--></g></svg>