<svg xmlns="http://www.w3.org/2000/svg" xmlns:xlink="http://www.w3.org/1999/xlink" contentStyleType="text/css" data-diagram-type="ACTIVITY" height="649.6875px" preserveAspectRatio="none" style="width:561px;height:649px;background:#FFFFFF;" version="1.1" viewBox="0 0 561 649" width="561.4583px" zoomAndPan="magnify"><defs/><g><ellipse cx="284.9346" cy="17.1875" fill="#FFFFFF" rx="11.4583" ry="11.4583" style="stroke:#000000;stroke-width:1.1458;"/><rect fill="#FFFFFF" height="46.9204" style="stroke:#000000;stroke-width:1.1458;" width="230.1654" x="169.8519" y="51.5625"/><text fill="#000000" font-family="Arial" font-size="14.8958" lengthAdjust="spacing" textLength="200.3737" x="184.7477" y="80.6741">Teacher proposes new course</text><rect fill="#FFFFFF" height="46.9204" style="stroke:#000000;stroke-width:1.1458;" width="274.0164" x="147.9264" y="121.3996"/><text fill="#000000" font-family="Arial" font-size="14.8958" lengthAdjust="spacing" textLength="244.2248" x="162.8222" y="150.5112">System stores course details as draft</text><rect fill="#FFFFFF" height="46.9204" style="stroke:#000000;stroke-width:1.1458;" width="225.1904" x="172.3394" y="191.2367"/><text fill="#000000" font-family="Arial" font-size="14.8958" lengthAdjust="spacing" textLength="195.3987" x="187.2352" y="220.3483">Admin reviews pending drafts</text><polygon fill="#FFFFFF" points="216.4951,261.0738,353.374,261.0738,367.124,274.8238,353.374,288.5738,216.4951,288.5738,202.7451,274.8238,216.4951,261.0738" style="stroke:#000000;stroke-width:1.1458;"/><text fill="#000000" font-family="Arial" font-size="14.8958" lengthAdjust="spacing" textLength="130.004" x="219.9326" y="280.4752">Is draft acceptable?</text><text fill="#000000" font-family="Arial" font-size="14.8958" lengthAdjust="spacing" textLength="23.1802" x="176.1274" y="268.4733">yes</text><text fill="#000000" font-family="Arial" font-size="14.8958" lengthAdjust="spacing" textLength="16.5687" x="370.5615" y="268.4733">no</text><rect fill="#FFFFFF" height="46.9204" style="stroke:#000000;stroke-width:1.1458;" width="171.3748" x="56.5593" y="300.0321"/><text fill="#000000" font-family="Arial" font-size="14.8958" lengthAdjust="spacing" textLength="141.5832" x="71.4551" y="329.1437">Admin approves draft</text><rect fill="#FFFFFF" height="46.9204" style="stroke:#000000;stroke-width:1.1458;" width="263.2955" x="10.599" y="369.8692"/><text fill="#000000" font-family="Arial" font-size="14.8958" lengthAdjust="spacing" textLength="233.5038" x="25.4948" y="398.9808">System updates status to approved</text><rect fill="#FFFFFF" height="46.9204" style="stroke:#000000;stroke-width:1.1458;" width="224.3394" x="30.077" y="439.7063"/><text fill="#000000" font-family="Arial" font-size="14.8958" lengthAdjust="spacing" textLength="194.5477" x="44.9728" y="468.8179">System initializes new course</text><rect fill="#FFFFFF" height="46.9204" style="stroke:#000000;stroke-width:1.1458;" width="270.7434" x="6.875" y="509.5434"/><text fill="#000000" font-family="Arial" font-size="14.8958" lengthAdjust="spacing" textLength="240.9517" x="21.7708" y="538.655">Teacher starts adding learning steps</text><rect fill="#FFFFFF" height="46.9204" style="stroke:#000000;stroke-width:1.1458;" width="190.4165" x="332.4142" y="300.0321"/><text fill="#000000" font-family="Arial" font-size="14.8958" lengthAdjust="spacing" textLength="160.6248" x="347.31" y="329.1437">Admin disapproves draft</text><rect fill="#FFFFFF" height="46.9204" style="stroke:#000000;stroke-width:1.1458;" width="197.0498" x="329.0975" y="369.8692"/><text fill="#000000" font-family="Arial" font-size="14.8958" lengthAdjust="spacing" textLength="167.2581" x="343.9934" y="398.9808">Admin provides feedback</text><rect fill="#FFFFFF" height="46.9204" style="stroke:#000000;stroke-width:1.1458;" width="254.1747" x="300.5351" y="439.7063"/><text fill="#000000" font-family="Arial" font-size="14.8958" lengthAdjust="spacing" textLength="224.383" x="315.4309" y="468.8179">System updates status to rejected</text><rect fill="#FFFFFF" height="46.9204" style="stroke:#000000;stroke-width:1.1458;" width="203.6612" x="325.7918" y="509.5434"/><text fill="#000000" font-family="Arial" font-size="14.8958" lengthAdjust="spacing" textLength="173.8696" x="340.6876" y="538.655">Teacher reviews feedback</text><polygon fill="#FFFFFF" points="284.9346,567.9221,298.6846,581.6721,284.9346,595.4221,271.1846,581.6721,284.9346,567.9221" style="stroke:#000000;stroke-width:1.1458;"/><ellipse cx="284.9346" cy="630.9429" fill="none" rx="12.6042" ry="12.6042" style="stroke:#000000;stroke-width:1.1458;"/><ellipse cx="284.9346" cy="630.9429" fill="#FFFFFF" rx="6.875" ry="6.875" style="stroke:#000000;stroke-width:1.1458;"/><line style="stroke:#000000;stroke-width:1.1458;" x1="284.9346" x2="284.9346" y1="28.6458" y2="51.5625"/><polygon fill="#000000" points="280.3512,40.1042,284.9346,51.5625,289.5179,40.1042,284.9346,44.6875" style="stroke:#000000;stroke-width:1.1458;"/><line style="stroke:#000000;stroke-width:1.1458;" x1="284.9346" x2="284.9346" y1="98.4829" y2="121.3996"/><polygon fill="#000000" points="280.3512,109.9413,284.9346,121.3996,289.5179,109.9413,284.9346,114.5246" style="stroke:#000000;stroke-width:1.1458;"/><line style="stroke:#000000;stroke-width:1.1458;" x1="284.9346" x2="284.9346" y1="168.32" y2="191.2367"/><polygon fill="#000000" points="280.3512,179.7783,284.9346,191.2367,289.5179,179.7783,284.9346,184.3617" style="stroke:#000000;stroke-width:1.1458;"/><line style="stroke:#000000;stroke-width:1.1458;" x1="142.2467" x2="142.2467" y1="346.9525" y2="369.8692"/><polygon fill="#000000" points="137.6634,358.4108,142.2467,369.8692,146.83,358.4108,142.2467,362.9942" style="stroke:#000000;stroke-width:1.1458;"/><line style="stroke:#000000;stroke-width:1.1458;" x1="142.2467" x2="142.2467" y1="416.7896" y2="439.7063"/><polygon fill="#000000" points="137.6634,428.2479,142.2467,439.7063,146.83,428.2479,142.2467,432.8313" style="stroke:#000000;stroke-width:1.1458;"/><line style="stroke:#000000;stroke-width:1.1458;" x1="142.2467" x2="142.2467" y1="486.6267" y2="509.5434"/><polygon fill="#000000" points="137.6634,498.085,142.2467,509.5434,146.83,498.085,142.2467,502.6684" style="stroke:#000000;stroke-width:1.1458;"/><line style="stroke:#000000;stroke-width:1.1458;" x1="427.6224" x2="427.6224" y1="346.9525" y2="369.8692"/><polygon fill="#000000" points="423.0391,358.4108,427.6224,369.8692,432.2058,358.4108,427.6224,362.9942" style="stroke:#000000;stroke-width:1.1458;"/><line style="stroke:#000000;stroke-width:1.1458;" x1="427.6224" x2="427.6224" y1="416.7896" y2="439.7063"/><polygon fill="#000000" points="423.0391,428.2479,427.6224,439.7063,432.2058,428.2479,427.6224,432.8313" style="stroke:#000000;stroke-width:1.1458;"/><line style="stroke:#000000;stroke-width:1.1458;" x1="427.6224" x2="427.6224" y1="486.6267" y2="509.5434"/><polygon fill="#000000" points="423.0391,498.085,427.6224,509.5434,432.2058,498.085,427.6224,502.6684" style="stroke:#000000;stroke-width:1.1458;"/><line style="stroke:#000000;stroke-width:1.1458;" x1="202.7451" x2="142.2467" y1="274.8238" y2="274.8238"/><line style="stroke:#000000;stroke-width:1.1458;" x1="142.2467" x2="142.2467" y1="274.8238" y2="300.0321"/><polygon fill="#000000" points="137.6634,288.5738,142.2467,300.0321,146.83,288.5738,142.2467,293.1571" style="stroke:#000000;stroke-width:1.1458;"/><line style="stroke:#000000;stroke-width:1.1458;" x1="367.124" x2="427.6224" y1="274.8238" y2="274.8238"/><line style="stroke:#000000;stroke-width:1.1458;" x1="427.6224" x2="427.6224" y1="274.8238" y2="300.0321"/><polygon fill="#000000" points="423.0391,288.5738,427.6224,300.0321,432.2058,288.5738,427.6224,293.1571" style="stroke:#000000;stroke-width:1.1458;"/><line style="stroke:#000000;stroke-width:1.1458;" x1="142.2467" x2="142.2467" y1="556.4638" y2="581.6721"/><line style="stroke:#000000;stroke-width:1.1458;" x1="142.2467" x2="271.1846" y1="581.6721" y2="581.6721"/><polygon fill="#000000" points="259.7262,577.0888,271.1846,581.6721,259.7262,586.2554,264.3096,581.6721" style="stroke:#000000;stroke-width:1.1458;"/><line style="stroke:#000000;stroke-width:1.1458;" x1="427.6224" x2="427.6224" y1="556.4638" y2="581.6721"/><line style="stroke:#000000;stroke-width:1.1458;" x1="427.6224" x2="298.6846" y1="581.6721" y2="581.6721"/><polygon fill="#000000" points="310.1429,577.0888,298.6846,581.6721,310.1429,586.2554,305.5596,581.6721" style="stroke:#000000;stroke-width:1.1458;"/><line style="stroke:#000000;stroke-width:1.1458;" x1="284.9346" x2="284.9346" y1="238.1571" y2="261.0738"/><polygon fill="#000000" points="280.3512,249.6154,284.9346,261.0738,289.5179,249.6154,284.9346,254.1988" style="stroke:#000000;stroke-width:1.1458;"/><line style="stroke:#000000;stroke-width:1.1458;" x1="284.9346" x2="284.9346" y1="595.4221" y2="618.3388"/><polygon fill="#000000" points="280.3512,606.8804,284.9346,618.3388,289.5179,606.8804,284.9346,611.4638" style="stroke:#000000;stroke-width:1.1458;"/><!--SRC=[XP71JiCm44Jl-OhbrXweAyIfFI2EI5H2edp0rjuqBevjUJUjojUpIPgY8YHyiZoZyPlTEnzjw1n18v9vPKp1qsBlfUbs7LEnAGf5MTZKchgGInpm-B1SFfgDZxx5i6sefRUFpQifLBDf21sR5dqqxMYubzwno5qRAXOiKgssXBQX0hcad9WO8ft0fgumhQlL-vc5Mc19HQNn6Hm9-i203AvWBUfxTle353fwEZ5aYix7_QZokl8rp5ukPa1hAGlk0ZtDGNaYpCx4ymhqN78mAysHhl63T47fiaDHIV6bOv0qkTsjJmkBn-2_VbKQF5FfOGPQn0suWR34_g81MR4fQDbPJ3TiplEVUAFQ2zwfL1Ev7ThF_-0B7SZA5Nu2coRv4zEFjDQbfVmD]--></g></svg>