<svg xmlns="http://www.w3.org/2000/svg" xmlns:xlink="http://www.w3.org/1999/xlink" contentStyleType="text/css" data-diagram-type="ACTIVITY" height="750.5208px" preserveAspectRatio="none" style="width:1158px;height:750px;background:#FFFFFF;" version="1.1" viewBox="0 0 1158 750" width="1158.4375px" zoomAndPan="magnify"><defs/><g><rect fill="#FFFFFF" height="24.0038" style="stroke:#FFFFFF;stroke-width:1.1458;" width="1132.5572" x="11.4583" y="6.875"/><ellipse cx="242.7284" cy="48.0663" fill="#FFFFFF" rx="11.4583" ry="11.4583" style="stroke:#000000;stroke-width:1.1458;"/><rect fill="#FFFFFF" height="46.9204" style="stroke:#000000;stroke-width:1.1458;" width="165.5852" x="159.9358" y="82.4413"/><text fill="#000000" font-family="Arial" font-size="14.8958" lengthAdjust="spacing" textLength="135.7936" x="174.8316" y="111.5529">Propose new course</text><rect fill="#FFFFFF" height="325.1229" style="stroke:#000000;stroke-width:1.1458;" width="229.9164" x="18.3333" y="330.9108"/><path d="M92.1478,330.9108 L92.1478,346.8938 L80.6895,358.3521 L18.3333,358.3521" fill="none" style="stroke:#000000;stroke-width:1.1458;"/><text fill="#000000" font-family="Arial" font-size="14.8958" lengthAdjust="spacing" textLength="55.4812" x="25.2083" y="349.71">Approve</text><rect fill="#FFFFFF" height="46.9204" style="stroke:#000000;stroke-width:1.1458;" width="206.9997" x="29.7917" y="595.3634"/><text fill="#000000" font-family="Arial" font-size="14.8958" lengthAdjust="spacing" textLength="177.208" x="44.6875" y="624.475">Start adding learning steps</text><line style="stroke:#000000;stroke-width:1.1458;" x1="11.4583" x2="11.4583" y1="6.875" y2="743.1171"/><rect fill="#FFFFFF" height="46.9204" style="stroke:#000000;stroke-width:1.1458;" width="215.255" x="453.7469" y="152.2783"/><text fill="#000000" font-family="Arial" font-size="14.8958" lengthAdjust="spacing" textLength="185.4633" x="468.6428" y="181.3899">Store course details as draft</text><rect fill="#FFFFFF" height="325.1229" style="stroke:#000000;stroke-width:1.1458;" width="229.9164" x="336.9793" y="330.9108"/><path d="M410.7938,330.9108 L410.7938,346.8938 L399.3355,358.3521 L336.9793,358.3521" fill="none" style="stroke:#000000;stroke-width:1.1458;"/><text fill="#000000" font-family="Arial" font-size="14.8958" lengthAdjust="spacing" textLength="55.4812" x="343.8543" y="349.71">Approve</text><rect fill="#FFFFFF" height="46.9204" style="stroke:#000000;stroke-width:1.1458;" width="204.5195" x="349.6778" y="447.6684"/><text fill="#000000" font-family="Arial" font-size="14.8958" lengthAdjust="spacing" textLength="174.7278" x="364.5736" y="476.78">Update status to approved</text><rect fill="#FFFFFF" height="46.9204" style="stroke:#000000;stroke-width:1.1458;" width="163.9196" x="369.9777" y="525.5263"/><text fill="#000000" font-family="Arial" font-size="14.8958" lengthAdjust="spacing" textLength="134.128" x="384.8736" y="554.6379">Initialize new course</text><rect fill="#FFFFFF" height="177.4279" style="stroke:#000000;stroke-width:1.1458;" width="160.5691" x="589.8124" y="330.9108"/><path d="M683.4904,330.9108 L683.4904,346.8938 L672.0321,358.3521 L589.8124,358.3521" fill="none" style="stroke:#000000;stroke-width:1.1458;"/><text fill="#000000" font-family="Arial" font-size="14.8958" lengthAdjust="spacing" textLength="75.3447" x="596.6874" y="349.71">Disapprove</text><rect fill="#FFFFFF" height="46.9204" style="stroke:#000000;stroke-width:1.1458;" width="131.6405" x="604.991" y="447.6684"/><text fill="#000000" font-family="Arial" font-size="14.8958" lengthAdjust="spacing" textLength="101.8488" x="619.8869" y="476.78">Delete the draft</text><ellipse cx="561.3744" cy="730.5129" fill="none" rx="12.6042" ry="12.6042" style="stroke:#000000;stroke-width:1.1458;"/><ellipse cx="561.3744" cy="730.5129" fill="#FFFFFF" rx="6.875" ry="6.875" style="stroke:#000000;stroke-width:1.1458;"/><line style="stroke:#000000;stroke-width:1.1458;" x1="330.1043" x2="330.1043" y1="6.875" y2="743.1171"/><rect fill="#FFFFFF" height="46.9204" style="stroke:#000000;stroke-width:1.1458;" width="177.179" x="856.046" y="222.1154"/><text fill="#000000" font-family="Arial" font-size="14.8958" lengthAdjust="spacing" textLength="147.3873" x="870.9419" y="251.227">Review pending drafts</text><polygon fill="#FFFFFF" points="876.196,291.9525,1013.075,291.9525,1026.825,305.7025,1013.075,319.4525,876.196,319.4525,862.446,305.7025,876.196,291.9525" style="stroke:#000000;stroke-width:1.1458;"/><text fill="#000000" font-family="Arial" font-size="14.8958" lengthAdjust="spacing" textLength="130.004" x="879.6335" y="311.3539">Is draft acceptable?</text><text fill="#000000" font-family="Arial" font-size="14.8958" lengthAdjust="spacing" textLength="23.1802" x="835.8283" y="299.352">yes</text><text fill="#000000" font-family="Arial" font-size="14.8958" lengthAdjust="spacing" textLength="16.5687" x="1030.2625" y="299.352">no</text><rect fill="#FFFFFF" height="325.1229" style="stroke:#000000;stroke-width:1.1458;" width="188.317" x="761.8399" y="330.9108"/><path d="M835.6543,330.9108 L835.6543,346.8938 L824.196,358.3521 L761.8399,358.3521" fill="none" style="stroke:#000000;stroke-width:1.1458;"/><text fill="#000000" font-family="Arial" font-size="14.8958" lengthAdjust="spacing" textLength="55.4812" x="768.7149" y="349.71">Approve</text><rect fill="#FFFFFF" height="46.9204" style="stroke:#000000;stroke-width:1.1458;" width="119.2176" x="775.5899" y="377.8313"/><text fill="#000000" font-family="Arial" font-size="14.8958" lengthAdjust="spacing" textLength="89.4259" x="790.4857" y="406.9429">Approve draft</text><rect fill="#FFFFFF" height="177.4279" style="stroke:#000000;stroke-width:1.1458;" width="161.9978" x="973.0735" y="330.9108"/><path d="M1066.7515,330.9108 L1066.7515,346.8938 L1055.2932,358.3521 L973.0735,358.3521" fill="none" style="stroke:#000000;stroke-width:1.1458;"/><text fill="#000000" font-family="Arial" font-size="14.8958" lengthAdjust="spacing" textLength="75.3447" x="979.9485" y="349.71">Disapprove</text><rect fill="#FFFFFF" height="46.9204" style="stroke:#000000;stroke-width:1.1458;" width="139.0811" x="984.5318" y="377.8313"/><text fill="#000000" font-family="Arial" font-size="14.8958" lengthAdjust="spacing" textLength="109.2894" x="999.4277" y="406.9429">Disapprove draft</text><polygon fill="#FFFFFF" points="944.6355,667.4921,958.3855,681.2421,944.6355,694.9921,930.8855,681.2421,944.6355,667.4921" style="stroke:#000000;stroke-width:1.1458;"/><line style="stroke:#000000;stroke-width:1.1458;" x1="754.9649" x2="754.9649" y1="6.875" y2="743.1171"/><line style="stroke:#000000;stroke-width:1.1458;" x1="1139.6546" x2="1139.6546" y1="6.875" y2="743.1171"/><line style="stroke:#000000;stroke-width:1.1458;" x1="242.7284" x2="242.7284" y1="59.5246" y2="82.4413"/><polygon fill="#000000" points="238.1451,70.9829,242.7284,82.4413,247.3117,70.9829,242.7284,75.5663" style="stroke:#000000;stroke-width:1.1458;"/><line style="stroke:#000000;stroke-width:1.1458;" x1="451.9375" x2="451.9375" y1="494.5888" y2="525.5263"/><polygon fill="#000000" points="447.3542,514.0679,451.9375,525.5263,456.5209,514.0679,451.9375,518.6513" style="stroke:#000000;stroke-width:1.1458;"/><line style="stroke:#000000;stroke-width:1.1458;" x1="862.446" x2="835.1986" y1="305.7025" y2="305.7025"/><line style="stroke:#000000;stroke-width:1.1458;" x1="835.1986" x2="835.1986" y1="305.7025" y2="377.8313"/><polygon fill="#000000" points="830.6153,366.3729,835.1986,377.8313,839.782,366.3729,835.1986,370.9563" style="stroke:#000000;stroke-width:1.1458;"/><line style="stroke:#000000;stroke-width:1.1458;" x1="1026.825" x2="1054.0724" y1="305.7025" y2="305.7025"/><line style="stroke:#000000;stroke-width:1.1458;" x1="1054.0724" x2="1054.0724" y1="305.7025" y2="377.8313"/><polygon fill="#000000" points="1049.4891,366.3729,1054.0724,377.8313,1058.6557,366.3729,1054.0724,370.9563" style="stroke:#000000;stroke-width:1.1458;"/><line style="stroke:#000000;stroke-width:1.1458;" x1="944.6355" x2="944.6355" y1="269.0358" y2="291.9525"/><polygon fill="#000000" points="940.0522,280.4942,944.6355,291.9525,949.2189,280.4942,944.6355,285.0775" style="stroke:#000000;stroke-width:1.1458;"/><line style="stroke:#000000;stroke-width:1.1458;" x1="242.7284" x2="242.7284" y1="129.3617" y2="135.0908"/><line style="stroke:#000000;stroke-width:1.1458;" x1="242.7284" x2="561.3744" y1="135.0908" y2="135.0908"/><line style="stroke:#000000;stroke-width:1.1458;" x1="561.3744" x2="561.3744" y1="135.0908" y2="152.2783"/><polygon fill="#000000" points="556.7911,140.82,561.3744,152.2783,565.9577,140.82,561.3744,145.4033" style="stroke:#000000;stroke-width:1.1458;"/><line style="stroke:#000000;stroke-width:1.1458;" x1="561.3744" x2="561.3744" y1="199.1988" y2="204.9279"/><line style="stroke:#000000;stroke-width:1.1458;" x1="561.3744" x2="944.6355" y1="204.9279" y2="204.9279"/><line style="stroke:#000000;stroke-width:1.1458;" x1="944.6355" x2="944.6355" y1="204.9279" y2="222.1154"/><polygon fill="#000000" points="940.0522,210.6571,944.6355,222.1154,949.2189,210.6571,944.6355,215.2404" style="stroke:#000000;stroke-width:1.1458;"/><line style="stroke:#000000;stroke-width:1.1458;" x1="835.1986" x2="835.1986" y1="424.7517" y2="430.4809"/><line style="stroke:#000000;stroke-width:1.1458;" x1="835.1986" x2="451.9375" y1="430.4809" y2="430.4809"/><line style="stroke:#000000;stroke-width:1.1458;" x1="451.9375" x2="451.9375" y1="430.4809" y2="447.6684"/><polygon fill="#000000" points="447.3542,436.21,451.9375,447.6684,456.5209,436.21,451.9375,440.7934" style="stroke:#000000;stroke-width:1.1458;"/><line style="stroke:#000000;stroke-width:1.1458;" x1="451.9375" x2="451.9375" y1="572.4467" y2="578.1759"/><line style="stroke:#000000;stroke-width:1.1458;" x1="451.9375" x2="133.2915" y1="578.1759" y2="578.1759"/><line style="stroke:#000000;stroke-width:1.1458;" x1="133.2915" x2="133.2915" y1="578.1759" y2="595.3634"/><polygon fill="#000000" points="128.7082,583.905,133.2915,595.3634,137.8749,583.905,133.2915,588.4884" style="stroke:#000000;stroke-width:1.1458;"/><line style="stroke:#000000;stroke-width:1.1458;" x1="1054.0724" x2="1054.0724" y1="424.7517" y2="430.4809"/><line style="stroke:#000000;stroke-width:1.1458;" x1="1054.0724" x2="670.8113" y1="430.4809" y2="430.4809"/><line style="stroke:#000000;stroke-width:1.1458;" x1="670.8113" x2="670.8113" y1="430.4809" y2="447.6684"/><polygon fill="#000000" points="666.228,436.21,670.8113,447.6684,675.3946,436.21,670.8113,440.7934" style="stroke:#000000;stroke-width:1.1458;"/><line style="stroke:#000000;stroke-width:1.1458;" x1="133.2915" x2="133.2915" y1="642.2838" y2="681.2421"/><line style="stroke:#000000;stroke-width:1.1458;" x1="133.2915" x2="930.8855" y1="681.2421" y2="681.2421"/><polygon fill="#000000" points="919.4272,676.6588,930.8855,681.2421,919.4272,685.8254,924.0105,681.2421" style="stroke:#000000;stroke-width:1.1458;"/><line style="stroke:#000000;stroke-width:1.1458;" x1="670.8113" x2="670.8113" y1="494.5888" y2="661.7629"/><line style="stroke:#000000;stroke-width:1.1458;" x1="670.8113" x2="979.0105" y1="661.7629" y2="661.7629"/><line style="stroke:#000000;stroke-width:1.1458;" x1="979.0105" x2="979.0105" y1="661.7629" y2="681.2421"/><line style="stroke:#000000;stroke-width:1.1458;" x1="979.0105" x2="958.3855" y1="681.2421" y2="681.2421"/><polygon fill="#000000" points="969.8439,676.6588,958.3855,681.2421,969.8439,685.8254,965.2605,681.2421" style="stroke:#000000;stroke-width:1.1458;"/><line style="stroke:#000000;stroke-width:1.1458;" x1="944.6355" x2="944.6355" y1="694.9921" y2="700.7213"/><line style="stroke:#000000;stroke-width:1.1458;" x1="944.6355" x2="561.3744" y1="700.7213" y2="700.7213"/><line style="stroke:#000000;stroke-width:1.1458;" x1="561.3744" x2="561.3744" y1="700.7213" y2="717.9088"/><polygon fill="#000000" points="556.7911,706.4504,561.3744,717.9088,565.9577,706.4504,561.3744,711.0338" style="stroke:#000000;stroke-width:1.1458;"/><text fill="#000000" font-family="Arial" font-size="14.8958" lengthAdjust="spacing" textLength="54.6447" x="143.459" y="24.5283">Teacher</text><text fill="#000000" font-family="Arial" font-size="14.8958" lengthAdjust="spacing" textLength="49.6625" x="517.7034" y="24.5283">System</text><text fill="#000000" font-family="Arial" font-size="14.8958" lengthAdjust="spacing" textLength="42.2218" x="926.1988" y="24.5283">Admin</text><!--SRC=[XP71Ri8m38RlUGhl1eSHDEtK7IOaBaX3GWCUm3Jk6YbDeiG5iR5tdqkXOzjXEKNsv_p-_znPNxhM4DJCCHTQ9pnCtYpNxQxDbChWcJnFoj3eAf49sU7-OJfzr4lhRODkKrD3g-toHIUgigu9JTODMg-R7hZdZfZ4jd5AdJQ4PKtff39ZObMiKeWX4tWwG1dQbEb9gFKnCpKdLQmv9Beqm12ZTHamWqbOSKVEZCW8-4fxAqz4yiRwjxwV1R0LZ1ON7h0iAJBk73sFGTRoC3fI7YkG4sKTopPucCMOmfxWurplJd4jNMIlzM7F0Tn6WqmWvhZDm06mdpJVGyN2Ymuw-_xJzV3e4D4miUwo0ZHdQuum-UuYqZ7tSv-Ad0Gqyk6tcRdD-CVFDRL1u8Rwr-AS78b5YU-MbGqa-Kh9luRu1G00]--></g></svg>