<svg xmlns="http://www.w3.org/2000/svg" xmlns:xlink="http://www.w3.org/1999/xlink" contentStyleType="text/css" data-diagram-type="ACTIVITY" height="649.6875px" preserveAspectRatio="none" style="width:497px;height:649px;background:#FFFFFF;" version="1.1" viewBox="0 0 497 649" width="497.2917px" zoomAndPan="magnify"><defs/><g><ellipse cx="268.995" cy="17.1875" fill="#FFFFFF" rx="11.4583" ry="11.4583" style="stroke:#000000;stroke-width:1.1458;"/><rect fill="#FFFFFF" height="46.9204" style="stroke:#000000;stroke-width:1.1458;" width="230.1654" x="153.9123" y="51.5625"/><text fill="#000000" font-family="Arial" font-size="14.8958" lengthAdjust="spacing" textLength="200.3737" x="168.8082" y="80.6741">Teacher proposes new course</text><rect fill="#FFFFFF" height="46.9204" style="stroke:#000000;stroke-width:1.1458;" width="274.0164" x="131.9868" y="121.3996"/><text fill="#000000" font-family="Arial" font-size="14.8958" lengthAdjust="spacing" textLength="244.2248" x="146.8826" y="150.5112">System stores course details as draft</text><rect fill="#FFFFFF" height="46.9204" style="stroke:#000000;stroke-width:1.1458;" width="225.1904" x="156.3998" y="191.2367"/><text fill="#000000" font-family="Arial" font-size="14.8958" lengthAdjust="spacing" textLength="195.3987" x="171.2956" y="220.3483">Admin reviews pending drafts</text><polygon fill="#FFFFFF" points="200.5555,261.0738,337.4345,261.0738,351.1845,274.8238,337.4345,288.5738,200.5555,288.5738,186.8055,274.8238,200.5555,261.0738" style="stroke:#000000;stroke-width:1.1458;"/><text fill="#000000" font-family="Arial" font-size="14.8958" lengthAdjust="spacing" textLength="130.004" x="203.993" y="280.4752">Is draft acceptable?</text><text fill="#000000" font-family="Arial" font-size="14.8958" lengthAdjust="spacing" textLength="23.1802" x="160.1878" y="268.4733">yes</text><text fill="#000000" font-family="Arial" font-size="14.8958" lengthAdjust="spacing" textLength="16.5687" x="354.622" y="268.4733">no</text><rect fill="#FFFFFF" height="46.9204" style="stroke:#000000;stroke-width:1.1458;" width="171.3748" x="56.5593" y="300.0321"/><text fill="#000000" font-family="Arial" font-size="14.8958" lengthAdjust="spacing" textLength="141.5832" x="71.4551" y="329.1437">Admin approves draft</text><rect fill="#FFFFFF" height="46.9204" style="stroke:#000000;stroke-width:1.1458;" width="263.2955" x="10.599" y="369.8692"/><text fill="#000000" font-family="Arial" font-size="14.8958" lengthAdjust="spacing" textLength="233.5038" x="25.4948" y="398.9808">System updates status to approved</text><rect fill="#FFFFFF" height="46.9204" style="stroke:#000000;stroke-width:1.1458;" width="224.3394" x="30.077" y="439.7063"/><text fill="#000000" font-family="Arial" font-size="14.8958" lengthAdjust="spacing" textLength="194.5477" x="44.9728" y="468.8179">System initializes new course</text><rect fill="#FFFFFF" height="46.9204" style="stroke:#000000;stroke-width:1.1458;" width="270.7434" x="6.875" y="509.5434"/><text fill="#000000" font-family="Arial" font-size="14.8958" lengthAdjust="spacing" textLength="240.9517" x="21.7708" y="538.655">Teacher starts adding learning steps</text><rect fill="#FFFFFF" height="46.9204" style="stroke:#000000;stroke-width:1.1458;" width="190.4165" x="300.5351" y="300.0321"/><text fill="#000000" font-family="Arial" font-size="14.8958" lengthAdjust="spacing" textLength="160.6248" x="315.4309" y="329.1437">Admin disapproves draft</text><rect fill="#FFFFFF" height="46.9204" style="stroke:#000000;stroke-width:1.1458;" width="190.4165" x="300.5351" y="369.8692"/><text fill="#000000" font-family="Arial" font-size="14.8958" lengthAdjust="spacing" textLength="160.6248" x="315.4309" y="398.9808">System deletes the draft</text><polygon fill="#FFFFFF" points="268.995,567.9221,282.745,581.6721,268.995,595.4221,255.245,581.6721,268.995,567.9221" style="stroke:#000000;stroke-width:1.1458;"/><ellipse cx="268.995" cy="630.9429" fill="none" rx="12.6042" ry="12.6042" style="stroke:#000000;stroke-width:1.1458;"/><ellipse cx="268.995" cy="630.9429" fill="#FFFFFF" rx="6.875" ry="6.875" style="stroke:#000000;stroke-width:1.1458;"/><line style="stroke:#000000;stroke-width:1.1458;" x1="268.995" x2="268.995" y1="28.6458" y2="51.5625"/><polygon fill="#000000" points="264.4117,40.1042,268.995,51.5625,273.5783,40.1042,268.995,44.6875" style="stroke:#000000;stroke-width:1.1458;"/><line style="stroke:#000000;stroke-width:1.1458;" x1="268.995" x2="268.995" y1="98.4829" y2="121.3996"/><polygon fill="#000000" points="264.4117,109.9413,268.995,121.3996,273.5783,109.9413,268.995,114.5246" style="stroke:#000000;stroke-width:1.1458;"/><line style="stroke:#000000;stroke-width:1.1458;" x1="268.995" x2="268.995" y1="168.32" y2="191.2367"/><polygon fill="#000000" points="264.4117,179.7783,268.995,191.2367,273.5783,179.7783,268.995,184.3617" style="stroke:#000000;stroke-width:1.1458;"/><line style="stroke:#000000;stroke-width:1.1458;" x1="142.2467" x2="142.2467" y1="346.9525" y2="369.8692"/><polygon fill="#000000" points="137.6634,358.4108,142.2467,369.8692,146.83,358.4108,142.2467,362.9942" style="stroke:#000000;stroke-width:1.1458;"/><line style="stroke:#000000;stroke-width:1.1458;" x1="142.2467" x2="142.2467" y1="416.7896" y2="439.7063"/><polygon fill="#000000" points="137.6634,428.2479,142.2467,439.7063,146.83,428.2479,142.2467,432.8313" style="stroke:#000000;stroke-width:1.1458;"/><line style="stroke:#000000;stroke-width:1.1458;" x1="142.2467" x2="142.2467" y1="486.6267" y2="509.5434"/><polygon fill="#000000" points="137.6634,498.085,142.2467,509.5434,146.83,498.085,142.2467,502.6684" style="stroke:#000000;stroke-width:1.1458;"/><line style="stroke:#000000;stroke-width:1.1458;" x1="395.7433" x2="395.7433" y1="346.9525" y2="369.8692"/><polygon fill="#000000" points="391.16,358.4108,395.7433,369.8692,400.3266,358.4108,395.7433,362.9942" style="stroke:#000000;stroke-width:1.1458;"/><line style="stroke:#000000;stroke-width:1.1458;" x1="186.8055" x2="142.2467" y1="274.8238" y2="274.8238"/><line style="stroke:#000000;stroke-width:1.1458;" x1="142.2467" x2="142.2467" y1="274.8238" y2="300.0321"/><polygon fill="#000000" points="137.6634,288.5738,142.2467,300.0321,146.83,288.5738,142.2467,293.1571" style="stroke:#000000;stroke-width:1.1458;"/><line style="stroke:#000000;stroke-width:1.1458;" x1="351.1845" x2="395.7433" y1="274.8238" y2="274.8238"/><line style="stroke:#000000;stroke-width:1.1458;" x1="395.7433" x2="395.7433" y1="274.8238" y2="300.0321"/><polygon fill="#000000" points="391.16,288.5738,395.7433,300.0321,400.3266,288.5738,395.7433,293.1571" style="stroke:#000000;stroke-width:1.1458;"/><line style="stroke:#000000;stroke-width:1.1458;" x1="142.2467" x2="142.2467" y1="556.4638" y2="581.6721"/><line style="stroke:#000000;stroke-width:1.1458;" x1="142.2467" x2="255.245" y1="581.6721" y2="581.6721"/><polygon fill="#000000" points="243.7867,577.0888,255.245,581.6721,243.7867,586.2554,248.37,581.6721" style="stroke:#000000;stroke-width:1.1458;"/><line style="stroke:#000000;stroke-width:1.1458;" x1="395.7433" x2="395.7433" y1="416.7896" y2="581.6721"/><line style="stroke:#000000;stroke-width:1.1458;" x1="395.7433" x2="282.745" y1="581.6721" y2="581.6721"/><polygon fill="#000000" points="294.2033,577.0888,282.745,581.6721,294.2033,586.2554,289.62,581.6721" style="stroke:#000000;stroke-width:1.1458;"/><line style="stroke:#000000;stroke-width:1.1458;" x1="268.995" x2="268.995" y1="238.1571" y2="261.0738"/><polygon fill="#000000" points="264.4117,249.6154,268.995,261.0738,273.5783,249.6154,268.995,254.1988" style="stroke:#000000;stroke-width:1.1458;"/><line style="stroke:#000000;stroke-width:1.1458;" x1="268.995" x2="268.995" y1="595.4221" y2="618.3388"/><polygon fill="#000000" points="264.4117,606.8804,268.995,618.3388,273.5783,606.8804,268.995,611.4638" style="stroke:#000000;stroke-width:1.1458;"/><!--SRC=[VP3BQWCn34NtynNgBbaq3gMhP56wB3HGQFe1Ygt96Fp2aXFIhwzc9YcaYtfbV0_okNhmoORc20QHmXjZAfvNHoz3EpIcQdCIIhAoEPg-aiiSyFIqNZ-RdKy-OjWF5EdZQ_TkAlLi1aB79g9F9ix0eup4ghGOEXQiqctsX7QW2gNcafaO4ft1vbQPjjtcyy924LXorMX-1aU2FZ0WWwlOYtAlJd-0IYTFPuP2oVbqd5FUThw7nTiL1hIMYk0XqCiIr2V1uaAyx43FTGuMjJdHx_Wfkggqub0qKdrf399ljBldjB1u3FxxJwM9kPMUTg15tAGR26iQBpgWg3O5BRj8-SxDUVvFpr6WKK-BtU9n6RskEvSV]--></g></svg>