<?xml version="1.0" encoding="us-ascii" standalone="no"?><svg xmlns="http://www.w3.org/2000/svg" xmlns:xlink="http://www.w3.org/1999/xlink" contentStyleType="text/css" height="847.9167px" preserveAspectRatio="none" style="width:584px;height:847px;background:#FFFFFF;" version="1.1" viewBox="0 0 584 847" width="584.375px" zoomAndPan="magnify"><defs/><g><rect fill="none" height="47.3205" id="_title" rx="8.5938" ry="8.5938" style="stroke:#000000;stroke-width:2.2916666666666665;" width="420.5208" x="76.8332" y="11.4583"/><text fill="#000000" font-family="Arial" font-size="25.2083" font-weight="bold" lengthAdjust="spacing" textLength="402.1875" x="85.9999" y="44.2701">Entities DataServer Class Diagram</text><!--cluster data--><g id="cluster_data"><rect fill="#FFFFFF" height="767.7083" style="stroke:#000000;stroke-width:1.1458333333333333;" width="558.0208" x="19.604" y="73.6746"/><text fill="#000000" font-family="Arial" font-size="14.8958" font-weight="bold" lengthAdjust="spacing" textLength="32.0833" x="282.5727" y="93.3759">data</text></g><!--class SystemUser--><g id="elem_SystemUser"><rect codeLine="11" fill="#FFFFFF" height="111.3696" id="SystemUser" style="stroke:#000000;stroke-width:1.1458333333333333;" width="168.4375" x="38.5102" y="464.4038"/><text fill="#000000" font-family="Arial" font-size="13.75" lengthAdjust="spacing" textLength="77.9167" x="83.7706" y="486.4678">SystemUser</text><line style="stroke:#000000;stroke-width:1.1458333333333333;" x1="39.6561" x2="205.8019" y1="498.5483" y2="498.5483"/><text fill="#000000" font-family="Arial" font-size="13.75" lengthAdjust="spacing" textLength="63.0208" x="48.8227" y="519.4665">-Integer id</text><text fill="#000000" font-family="Arial" font-size="13.75" lengthAdjust="spacing" textLength="110" x="48.8227" y="542.1526">-String username</text><text fill="#000000" font-family="Arial" font-size="13.75" lengthAdjust="spacing" textLength="147.8125" x="48.8227" y="564.8388">-String password_hash</text></g><!--class Role--><g id="elem_Role"><rect codeLine="17" fill="#FFFFFF" height="65.9973" id="Role" style="stroke:#000000;stroke-width:1.1458333333333333;" width="89.375" x="78.0415" y="756.5913"/><text fill="#000000" font-family="Arial" font-size="13.75" lengthAdjust="spacing" textLength="29.7917" x="107.8331" y="778.6553">Role</text><line style="stroke:#000000;stroke-width:1.1458333333333333;" x1="79.1873" x2="166.2706" y1="790.7358" y2="790.7358"/><text fill="#000000" font-family="Arial" font-size="13.75" lengthAdjust="spacing" textLength="68.75" x="88.354" y="811.654">-String role</text></g><!--class SystemUserRole--><g id="elem_SystemUserRole"><rect codeLine="21" fill="#FFFFFF" height="43.3112" id="SystemUserRole" style="stroke:#000000;stroke-width:1.1458333333333333;" width="121.4583" x="61.9998" y="644.2996"/><text fill="#000000" font-family="Arial" font-size="13.75" lengthAdjust="spacing" textLength="107.7083" x="68.8748" y="666.3636">SystemUserRole</text><line style="stroke:#000000;stroke-width:1.1458333333333333;" x1="63.1456" x2="182.3123" y1="678.4441" y2="678.4441"/></g><!--class Course--><g id="elem_Course"><rect codeLine="25" fill="#FFFFFF" height="111.3696" id="Course" style="stroke:#000000;stroke-width:1.1458333333333333;" width="135.2083" x="80.3331" y="284.508"/><text fill="#000000" font-family="Arial" font-size="13.75" lengthAdjust="spacing" textLength="46.9792" x="124.4477" y="306.572">Course</text><line style="stroke:#000000;stroke-width:1.1458333333333333;" x1="81.479" x2="214.3956" y1="318.6524" y2="318.6524"/><text fill="#000000" font-family="Arial" font-size="13.75" lengthAdjust="spacing" textLength="63.0208" x="90.6456" y="339.5706">-Integer id</text><text fill="#000000" font-family="Arial" font-size="13.75" lengthAdjust="spacing" textLength="66.4583" x="90.6456" y="362.2568">-String title</text><text fill="#000000" font-family="Arial" font-size="13.75" lengthAdjust="spacing" textLength="114.5833" x="90.6456" y="384.9429">-String description</text></g><!--class CourseCategory--><g id="elem_CourseCategory"><rect codeLine="31" fill="#FFFFFF" height="88.6835" id="CourseCategory" style="stroke:#000000;stroke-width:1.1458333333333333;" width="116.875" x="247.6248" y="475.8621"/><text fill="#000000" font-family="Arial" font-size="13.75" lengthAdjust="spacing" textLength="103.125" x="254.4998" y="497.9261">CourseCategory</text><line style="stroke:#000000;stroke-width:1.1458333333333333;" x1="248.7706" x2="363.354" y1="510.0066" y2="510.0066"/><text fill="#000000" font-family="Arial" font-size="13.75" lengthAdjust="spacing" textLength="63.0208" x="257.9373" y="530.9248">-Integer id</text><text fill="#000000" font-family="Arial" font-size="13.75" lengthAdjust="spacing" textLength="81.3542" x="257.9373" y="553.6109">-String name</text></g><!--class Language--><g id="elem_Language"><rect codeLine="36" fill="#FFFFFF" height="88.6835" id="Language" style="stroke:#000000;stroke-width:1.1458333333333333;" width="101.9792" x="405.1769" y="475.8621"/><text fill="#000000" font-family="Arial" font-size="13.75" lengthAdjust="spacing" textLength="64.1667" x="424.0831" y="497.9261">Language</text><line style="stroke:#000000;stroke-width:1.1458333333333333;" x1="406.3227" x2="506.0102" y1="510.0066" y2="510.0066"/><text fill="#000000" font-family="Arial" font-size="13.75" lengthAdjust="spacing" textLength="75.625" x="415.4894" y="530.9248">-String code</text><text fill="#000000" font-family="Arial" font-size="13.75" lengthAdjust="spacing" textLength="81.3542" x="415.4894" y="553.6109">-String name</text></g><!--class LearningStep--><g id="elem_LearningStep"><rect codeLine="41" fill="#FFFFFF" height="65.9973" id="LearningStep" style="stroke:#000000;stroke-width:1.1458333333333333;" width="111.1458" x="397.1561" y="133.8309"/><text fill="#000000" font-family="Arial" font-size="13.75" lengthAdjust="spacing" textLength="84.7917" x="410.3331" y="155.8949">LearningStep</text><line style="stroke:#000000;stroke-width:1.1458333333333333;" x1="398.3019" x2="507.1561" y1="167.9754" y2="167.9754"/><text fill="#000000" font-family="Arial" font-size="13.75" lengthAdjust="spacing" textLength="90.5208" x="407.4686" y="188.8935">-String content</text></g><!--class LearningStepId--><g id="elem_LearningStepId"><rect codeLine="45" fill="#FFFFFF" height="88.6835" id="LearningStepId" style="stroke:#000000;stroke-width:1.1458333333333333;" width="135.2083" x="255.6456" y="295.9663"/><text fill="#000000" font-family="Arial" font-size="13.75" lengthAdjust="spacing" textLength="96.25" x="275.1248" y="318.0303">LearningStepId</text><line style="stroke:#000000;stroke-width:1.1458333333333333;" x1="256.7915" x2="389.7081" y1="330.1108" y2="330.1108"/><text fill="#000000" font-family="Arial" font-size="13.75" lengthAdjust="spacing" textLength="114.5833" x="265.9581" y="351.029">-Integer stepOrder</text><text fill="#000000" font-family="Arial" font-size="13.75" lengthAdjust="spacing" textLength="106.5625" x="265.9581" y="373.7151">-Integer courseId</text></g><!--class LearningStepType--><g id="elem_LearningStepType"><rect codeLine="50" fill="#FFFFFF" height="88.6835" id="LearningStepType" style="stroke:#000000;stroke-width:1.1458333333333333;" width="128.3333" x="430.9581" y="295.9663"/><text fill="#000000" font-family="Arial" font-size="13.75" lengthAdjust="spacing" textLength="114.5833" x="437.8331" y="318.0303">LearningStepType</text><line style="stroke:#000000;stroke-width:1.1458333333333333;" x1="432.104" x2="558.1456" y1="330.1108" y2="330.1108"/><text fill="#000000" font-family="Arial" font-size="13.75" lengthAdjust="spacing" textLength="63.0208" x="441.2706" y="351.029">-Integer id</text><text fill="#000000" font-family="Arial" font-size="13.75" lengthAdjust="spacing" textLength="81.3542" x="441.2706" y="373.7151">-String name</text></g><!--class UserCourseProgress--><g id="elem_UserCourseProgress"><rect codeLine="55" fill="#FFFFFF" height="65.9973" id="UserCourseProgress" style="stroke:#000000;stroke-width:1.1458333333333333;" width="150.1042" x="206.9477" y="133.8309"/><text fill="#000000" font-family="Arial" font-size="13.75" lengthAdjust="spacing" textLength="136.3542" x="213.8227" y="155.8949">UserCourseProgress</text><line style="stroke:#000000;stroke-width:1.1458333333333333;" x1="208.0936" x2="355.9061" y1="167.9754" y2="167.9754"/><text fill="#000000" font-family="Arial" font-size="13.75" lengthAdjust="spacing" textLength="95.1042" x="217.2602" y="188.8935">-int currentStep</text></g><!--class LeaderboardEntry--><g id="elem_LeaderboardEntry"><rect codeLine="59" fill="#FFFFFF" height="97.8501" id="LeaderboardEntry" style="stroke:#000000;stroke-width:1.1458333333333333;" width="128.3333" x="37.9373" y="118.3621"/><text fill="#000000" font-family="Arial" font-size="13.75" font-style="italic" lengthAdjust="spacing" textLength="114.5833" x="44.8123" y="140.4261">LeaderboardEntry</text><line style="stroke:#000000;stroke-width:1.1458333333333333;" x1="39.0831" x2="165.1248" y1="152.5066" y2="152.5066"/><line style="stroke:#000000;stroke-width:1.1458333333333333;" x1="39.0831" x2="165.1248" y1="161.6733" y2="161.6733"/><text fill="#000000" font-family="Arial" font-size="13.75" lengthAdjust="spacing" textLength="104.2708" x="48.2498" y="182.5915">+getUsername()</text><text fill="#000000" font-family="Arial" font-size="13.75" lengthAdjust="spacing" textLength="104.2708" x="48.2498" y="205.2776">+getTotalScore()</text></g><!--reverse link SystemUser to SystemUserRole--><g id="link_SystemUser_SystemUserRole"><path codeLine="69" d="M122.729,589.3798 C122.729,613.2475 122.729,625.9892 122.729,644.1048 " fill="none" id="SystemUser-backto-SystemUserRole" style="stroke:#000000;stroke-width:1.1458333333333333;"/><polygon fill="#000000" points="122.729,575.6298,118.1456,582.5048,122.729,589.3798,127.3123,582.5048,122.729,575.6298" style="stroke:#000000;stroke-width:1.1458333333333333;"/><polygon fill="#000000" points="128.4581,603.5359,131.8257,593.1717,125.0906,593.1717,128.4581,603.5359" style="stroke:#000000;stroke-width:1.1458333333333333;"/><text fill="#000000" font-family="Arial" font-size="14.8958" lengthAdjust="spacing" textLength="56.1458" x="142.2081" y="603.2144">contains</text><text fill="#000000" font-family="Arial" font-size="14.8958" lengthAdjust="spacing" textLength="8.0208" x="110.2233" y="602.5377">1</text><text fill="#000000" font-family="Arial" font-size="14.8958" lengthAdjust="spacing" textLength="5.7292" x="111.6323" y="628.5635">*</text></g><!--link SystemUserRole to Role--><g id="link_SystemUserRole_Role"><path codeLine="70" d="M122.729,687.91 C122.729,706.9194 122.729,727.8996 122.729,749.6819 " fill="none" id="SystemUserRole-to-Role" style="stroke:#000000;stroke-width:1.1458333333333333;"/><polygon fill="#000000" points="122.729,756.5569,127.3123,746.2444,122.729,750.8277,118.1456,746.2444,122.729,756.5569" style="stroke:#000000;stroke-width:1.1458333333333333;"/><polygon fill="#000000" points="128.4581,715.8963,131.8257,705.5321,125.0906,705.5321,128.4581,715.8963" style="stroke:#000000;stroke-width:1.1458333333333333;"/><text fill="#000000" font-family="Arial" font-size="14.8958" lengthAdjust="spacing" textLength="24.0625" x="142.2081" y="715.5749">has</text><text fill="#000000" font-family="Arial" font-size="14.8958" lengthAdjust="spacing" textLength="5.7292" x="111.9474" y="714.0211">*</text><text fill="#000000" font-family="Arial" font-size="14.8958" lengthAdjust="spacing" textLength="8.0208" x="109.5483" y="740.8869">1</text></g><!--link Course to Language--><g id="link_Course_Language"><path codeLine="72" d="M215.7592,388.7788 C295.7727,388.7788 418.0675,388.7788 418.0675,388.7788 C418.0675,388.7788 418.0675,430.6246 418.0675,468.6892 " fill="none" id="Course-to-Language" style="stroke:#000000;stroke-width:1.1458333333333333;"/><polygon fill="#000000" points="418.0675,475.5642,422.6509,465.2517,418.0675,469.835,413.4842,465.2517,418.0675,475.5642" style="stroke:#000000;stroke-width:1.1458333333333333;"/><polygon fill="#000000" points="371.3638,404.0312,362.9615,397.0917,360.4872,403.3558,371.3638,404.0312" style="stroke:#000000;stroke-width:1.1458333333333333;"/><text fill="#000000" font-family="Arial" font-size="14.8958" lengthAdjust="spacing" textLength="32.0833" x="379.7852" y="407.3342">uses</text><text fill="#000000" font-family="Arial" font-size="14.8958" lengthAdjust="spacing" textLength="5.7292" x="228.2305" y="413.5726">*</text><text fill="#000000" font-family="Arial" font-size="14.8958" lengthAdjust="spacing" textLength="8.0208" x="398.4961" y="460.1615">1</text></g><!--link Course to CourseCategory--><g id="link_Course_CourseCategory"><path codeLine="73" d="M215.6561,392.2163 C235.33,392.2163 251.6352,392.2163 251.6352,392.2163 C251.6352,392.2163 251.6352,431.8736 251.6352,468.7809 " fill="none" id="Course-to-CourseCategory" style="stroke:#000000;stroke-width:1.1458333333333333;"/><polygon fill="#000000" points="251.6352,475.6559,256.2186,465.3434,251.6352,469.9267,247.0519,465.3434,251.6352,475.6559" style="stroke:#000000;stroke-width:1.1458333333333333;"/><polygon fill="#000000" points="259.801,409.0711,258.4409,398.2588,252.3453,401.1232,259.801,409.0711" style="stroke:#000000;stroke-width:1.1458333333333333;"/><text fill="#000000" font-family="Arial" font-size="14.8958" lengthAdjust="spacing" textLength="82.5" x="271.1144" y="409.2936">classified as</text><text fill="#000000" font-family="Arial" font-size="14.8958" lengthAdjust="spacing" textLength="5.7292" x="228.1149" y="391.7194">*</text><text fill="#000000" font-family="Arial" font-size="14.8958" lengthAdjust="spacing" textLength="8.0208" x="229.1554" y="460.2695">1</text></g><!--link Course to SystemUser--><g id="link_Course_SystemUser"><path codeLine="74" d="M164.7467,396.0205 C164.7467,417.7798 164.7467,435.7809 164.7467,457.5059 " fill="none" id="Course-to-SystemUser" style="stroke:#000000;stroke-width:1.1458333333333333;"/><polygon fill="#000000" points="164.7467,464.3809,169.33,454.0684,164.7467,458.6517,160.1634,454.0684,164.7467,464.3809" style="stroke:#000000;stroke-width:1.1458333333333333;"/><polygon fill="#000000" points="170.4759,423.8692,173.8434,413.505,167.1083,413.505,170.4759,423.8692" style="stroke:#000000;stroke-width:1.1458333333333333;"/><text fill="#000000" font-family="Arial" font-size="14.8958" lengthAdjust="spacing" textLength="41.25" x="184.2259" y="423.5478">author</text><text fill="#000000" font-family="Arial" font-size="14.8958" lengthAdjust="spacing" textLength="5.7292" x="156.9919" y="422.5447">*</text><text fill="#000000" font-family="Arial" font-size="14.8958" lengthAdjust="spacing" textLength="8.0208" x="158.5819" y="448.6722">1</text></g><!--link Course to SystemUser--><g id="link_Course_SystemUser"><path codeLine="75" d="M122.5342,396.0205 C122.5342,417.7798 122.5342,435.7809 122.5342,457.5059 " fill="none" id="Course-to-SystemUser-1" style="stroke:#000000;stroke-width:1.1458333333333333;"/><polygon fill="#000000" points="122.5342,464.3809,127.1175,454.0684,122.5342,458.6517,117.9509,454.0684,122.5342,464.3809" style="stroke:#000000;stroke-width:1.1458333333333333;"/><polygon fill="#000000" points="27.43,423.8692,30.7975,413.505,24.0625,413.505,27.43,423.8692" style="stroke:#000000;stroke-width:1.1458333333333333;"/><text fill="#000000" font-family="Arial" font-size="14.8958" lengthAdjust="spacing" textLength="76.7708" x="41.18" y="423.5478">approvedBy</text><text fill="#000000" font-family="Arial" font-size="14.8958" lengthAdjust="spacing" textLength="5.7292" x="109.1071" y="422.5447">*</text><text fill="#000000" font-family="Arial" font-size="14.8958" lengthAdjust="spacing" textLength="25.2083" x="91.4021" y="448.6722">0..1</text></g><!--link LearningStep to Course--><g id="link_LearningStep_Course"><path codeLine="77" d="M399.8259,200.3923 C399.8259,236.8757 399.8259,290.2371 399.8259,290.2371 C399.8259,290.2371 297.2509,290.2371 222.6456,290.2371 " fill="none" id="LearningStep-to-Course" style="stroke:#000000;stroke-width:1.1458333333333333;"/><polygon fill="#000000" points="215.7706,290.2371,226.0831,294.8205,221.4998,290.2371,226.0831,285.6538,215.7706,290.2371" style="stroke:#000000;stroke-width:1.1458333333333333;"/><polygon fill="#000000" points="260.5275,280.7676,271.2942,279.0837,268.2482,273.0768,260.5275,280.7676" style="stroke:#000000;stroke-width:1.1458333333333333;"/><text fill="#000000" font-family="Arial" font-size="14.8958" lengthAdjust="spacing" textLength="68.75" x="279.3873" y="283.5842">belongs to</text><text fill="#000000" font-family="Arial" font-size="14.8958" lengthAdjust="spacing" textLength="5.7292" x="379.3732" y="226.4877">*</text><text fill="#000000" font-family="Arial" font-size="14.8958" lengthAdjust="spacing" textLength="8.0208" x="227.9125" y="277.6919">1</text></g><!--link LearningStep to LearningStepType--><g id="link_LearningStep_LearningStepType"><path codeLine="78" d="M469.63,200.4152 C469.63,227.5257 469.63,259.1163 469.63,288.8163 " fill="none" id="LearningStep-to-LearningStepType" style="stroke:#000000;stroke-width:1.1458333333333333;"/><polygon fill="#000000" points="469.63,295.6913,474.2134,285.3788,469.63,289.9621,465.0467,285.3788,469.63,295.6913" style="stroke:#000000;stroke-width:1.1458333333333333;"/><polygon fill="#000000" points="406.6092,241.7275,409.9767,231.3634,403.2417,231.3634,406.6092,241.7275" style="stroke:#000000;stroke-width:1.1458333333333333;"/><text fill="#000000" font-family="Arial" font-size="14.8958" lengthAdjust="spacing" textLength="44.6875" x="420.3592" y="241.4061">is type</text><text fill="#000000" font-family="Arial" font-size="14.8958" lengthAdjust="spacing" textLength="5.7292" x="462.4838" y="226.515">*</text><text fill="#000000" font-family="Arial" font-size="14.8958" lengthAdjust="spacing" textLength="8.0208" x="452.3038" y="280.2927">1</text></g><!--link LearningStep to LearningStepId--><g id="link_LearningStep_LearningStepId"><path codeLine="79" d="M402.5071,200.5298 C402.5071,250.9694 402.5071,340.6538 402.5071,340.6538 C402.5071,340.6538 398.004,340.6538 391.1519,340.6538 " fill="none" id="LearningStep-LearningStepId" style="stroke:#000000;stroke-width:1.1458333333333333;"/><polygon fill="#000000" points="407.7735,269.9192,411.9672,259.8609,405.2541,259.3169,407.7735,269.9192" style="stroke:#000000;stroke-width:1.1458333333333333;"/><text fill="#000000" font-family="Arial" font-size="14.8958" lengthAdjust="spacing" textLength="84.7917" x="421.9863" y="269.6165">embedded id</text></g><!--link UserCourseProgress to SystemUser--><g id="link_UserCourseProgress_SystemUser"><path codeLine="81" d="M231.5831,200.358 C231.5831,279.0882 231.5831,470.133 231.5831,470.133 C231.5831,470.133 228.3519,470.133 214.304,470.133 " fill="none" id="UserCourseProgress-to-SystemUser" style="stroke:#000000;stroke-width:1.1458333333333333;"/><polygon fill="#000000" points="207.429,470.133,217.7415,474.7163,213.1581,470.133,217.7415,465.5496,207.429,470.133" style="stroke:#000000;stroke-width:1.1458333333333333;"/><polygon fill="#000000" points="210.5919,366.1877,214.615,356.06,207.8938,355.6295,210.5919,366.1877" style="stroke:#000000;stroke-width:1.1458333333333333;"/><text fill="#000000" font-family="Arial" font-size="14.8958" lengthAdjust="spacing" textLength="28.6458" x="224.7081" y="365.878">user</text><text fill="#000000" font-family="Arial" font-size="14.8958" lengthAdjust="spacing" textLength="5.7292" x="211.6045" y="226.4468">*</text><text fill="#000000" font-family="Arial" font-size="14.8958" lengthAdjust="spacing" textLength="8.0208" x="219.6493" y="458.8242">1</text></g><!--link UserCourseProgress to Course--><g id="link_UserCourseProgress_Course"><path codeLine="82" d="M211.2446,200.4152 C211.2446,224.1798 211.2446,249.8121 211.2446,277.484 " fill="none" id="UserCourseProgress-to-Course" style="stroke:#000000;stroke-width:1.1458333333333333;"/><polygon fill="#000000" points="211.2446,284.359,215.8279,274.0465,211.2446,278.6298,206.6613,274.0465,211.2446,284.359" style="stroke:#000000;stroke-width:1.1458333333333333;"/><polygon fill="#000000" points="148.2238,236.0557,151.5913,225.6915,144.8563,225.6915,148.2238,236.0557" style="stroke:#000000;stroke-width:1.1458333333333333;"/><text fill="#000000" font-family="Arial" font-size="14.8958" lengthAdjust="spacing" textLength="44.6875" x="161.9738" y="235.7342">course</text><text fill="#000000" font-family="Arial" font-size="14.8958" lengthAdjust="spacing" textLength="5.7292" x="188.8337" y="225.6602">*</text><text fill="#000000" font-family="Arial" font-size="14.8958" lengthAdjust="spacing" textLength="8.0208" x="208.3397" y="268.6311">1</text></g><!--SRC=[fLJ1Rjim3BtxAxHSrdPmd1JRnOS2RRf3XXOhclGyC19Z2xKbWv9J1CN-VPITPaxiT0LcvE2Gxr7aqwC_QIEBMg78lQzScYG4B-DC-xnUrGv9MkFH-B6qPR8cLDOLiBcSJBuczzhe4efbZYK-FDtV9OHhb-G8oYKbQ9EKBI3s0J6kwhA88YUXG36DtBCs5H2KmcjVu8qbXVHeQwDcbWoIc7uRnYnpBPyDEYSkeoOiHjyDlsXquXOyB90sJ9yLm91R3HdpHr5KWNo638LYIFGQ2Nu-YpYEnPxCVvgmR9YBhVDOFh40eaM79nPp5YFZc5QTuCAJDfa8QXaeiP-fkE8BT_yh1vStwTzHvwn7orEyzcd4yJxwRsSxNXyoipKv_73ZZOpzi48dILTUMtFgY1bmLKlR3n-rr-UWs1sOh0wtCo22j0e_N0U13ASN7glXMesNtoVErU0qB7hrCnXm82SRCURg_SBBRON_ALIuzLRv1x8PXIte5jJ62raJyOpXm2wVKqXha1XQuYbM5aYnzm_kxel8q3_jR7nsVXXVMW_5Gbfwot1b_hLRz8W51AEuN5VjAd6YMQsjk7REIjscnTcFX-lpgBDTe-b8N725qSNesDffSs7y9N7YAZhA1NWSNpNq7PYNYt7HplnTmDvVQLZIW1e07JawRINNQurAm0bEPuvKGErpImF0oNZSmrOLsGsgcsre-S2t_PuOlyB2cim9Rnb_4jvpMoeqSyBR4Oi5F_9yAh1SeL8yhLQXgG6ldHmzVFgOym_AVffsNvZm1m00]--></g></svg>