<svg xmlns="http://www.w3.org/2000/svg" xmlns:xlink="http://www.w3.org/1999/xlink" contentStyleType="text/css" data-diagram-type="ACTIVITY" height="1444.8958px" preserveAspectRatio="none" style="width:571px;height:1444px;background:#FFFFFF;" version="1.1" viewBox="0 0 571 1444" width="571.7708px" zoomAndPan="magnify"><defs/><g><ellipse cx="149.2873" cy="17.1875" fill="#FFFFFF" rx="11.4583" ry="11.4583" style="stroke:#000000;stroke-width:1.1458;"/><rect fill="#FFFFFF" height="46.9204" style="stroke:#000000;stroke-width:1.1458;" width="185.4197" x="56.5775" y="51.5625"/><text fill="#000000" font-family="Arial" font-size="14.8958" lengthAdjust="spacing" textLength="155.628" x="71.4733" y="80.6741">User accesses platform</text><rect fill="#FFFFFF" height="46.9204" style="stroke:#000000;stroke-width:1.1458;" width="122.4979" x="88.0384" y="181.5265"/><text fill="#000000" font-family="Arial" font-size="14.8958" lengthAdjust="spacing" textLength="92.7062" x="102.9342" y="210.6381">User registers</text><polygon fill="#FFFFFF" points="100.3077,121.3996,198.2669,121.3996,212.0169,135.1496,198.2669,148.8996,100.3077,148.8996,86.5577,135.1496,100.3077,121.3996" style="stroke:#000000;stroke-width:1.1458;"/><text fill="#000000" font-family="Arial" font-size="14.8958" lengthAdjust="spacing" textLength="16.5687" x="157.3081" y="166.5529">no</text><text fill="#000000" font-family="Arial" font-size="14.8958" lengthAdjust="spacing" textLength="91.0842" x="103.7452" y="140.801">Has account?</text><polygon fill="#FFFFFF" points="149.2873,251.3636,163.0373,265.1136,149.2873,278.8636,135.5373,265.1136,149.2873,251.3636" style="stroke:#000000;stroke-width:1.1458;"/><rect fill="#FFFFFF" height="46.9204" style="stroke:#000000;stroke-width:1.1458;" width="108.4385" x="95.0681" y="301.7802"/><text fill="#000000" font-family="Arial" font-size="14.8958" lengthAdjust="spacing" textLength="78.6468" x="109.9639" y="330.8918">User logs in</text><rect fill="#FFFFFF" height="46.9204" style="stroke:#000000;stroke-width:1.1458;" width="205.3196" x="46.6275" y="371.6173"/><text fill="#000000" font-family="Arial" font-size="14.8958" lengthAdjust="spacing" textLength="175.5279" x="61.5234" y="400.7289">System authenticates user</text><rect fill="#FFFFFF" height="46.9204" style="stroke:#000000;stroke-width:1.1458;" width="241.7591" x="28.4078" y="491.8711"/><text fill="#000000" font-family="Arial" font-size="14.8958" lengthAdjust="spacing" textLength="211.9674" x="43.3036" y="520.9827">Learner browses course catalog</text><rect fill="#FFFFFF" height="46.9204" style="stroke:#000000;stroke-width:1.1458;" width="284.8246" x="6.875" y="561.7081"/><text fill="#000000" font-family="Arial" font-size="14.8958" lengthAdjust="spacing" textLength="255.033" x="21.7708" y="590.8198">Learner filters by category or language</text><rect fill="#FFFFFF" height="46.9204" style="stroke:#000000;stroke-width:1.1458;" width="193.7331" x="52.4208" y="631.5452"/><text fill="#000000" font-family="Arial" font-size="14.8958" lengthAdjust="spacing" textLength="163.9414" x="67.3166" y="660.6568">Learner enrolls in course</text><rect fill="#FFFFFF" height="46.9204" style="stroke:#000000;stroke-width:1.1458;" width="246.6977" x="25.9385" y="751.799"/><text fill="#000000" font-family="Arial" font-size="14.8958" lengthAdjust="spacing" textLength="216.906" x="40.8343" y="780.9106">System provides learning activity</text><rect fill="#FFFFFF" height="46.9204" style="stroke:#000000;stroke-width:1.1458;" width="259.9643" x="19.3052" y="904.1067"/><text fill="#000000" font-family="Arial" font-size="14.8958" lengthAdjust="spacing" textLength="230.1726" x="34.201" y="933.2183">Learner completes learning activity</text><rect fill="#FFFFFF" height="46.9204" style="stroke:#000000;stroke-width:1.1458;" width="204.4904" x="47.0421" y="982.5375"/><text fill="#000000" font-family="Arial" font-size="14.8958" lengthAdjust="spacing" textLength="174.6987" x="61.9379" y="1011.6491">System provides feedback</text><polygon fill="#FFFFFF" points="149.2873,821.6361,163.0373,835.3861,149.2873,849.1361,135.5373,835.3861,149.2873,821.6361" style="stroke:#000000;stroke-width:1.1458;"/><polygon fill="#FFFFFF" points="39.0551,1052.3746,259.5195,1052.3746,273.2695,1066.1246,259.5195,1079.8746,39.0551,1079.8746,25.3051,1066.1246,39.0551,1052.3746" style="stroke:#000000;stroke-width:1.1458;"/><text fill="#000000" font-family="Arial" font-size="14.8958" lengthAdjust="spacing" textLength="213.5894" x="42.4926" y="1071.776">Activity not completed correctly?</text><rect fill="#FFFFFF" height="46.9204" style="stroke:#000000;stroke-width:1.1458;" width="274.0528" x="12.2609" y="1102.7913"/><text fill="#000000" font-family="Arial" font-size="14.8958" lengthAdjust="spacing" textLength="244.2611" x="27.1568" y="1131.9029">System updates points (leaderboard)</text><polygon fill="#FFFFFF" points="149.2873,701.3823,163.0373,715.1323,149.2873,728.8823,135.5373,715.1323,149.2873,701.3823" style="stroke:#000000;stroke-width:1.1458;"/><polygon fill="#FFFFFF" points="77.5348,1172.6284,221.0398,1172.6284,234.7898,1186.3784,221.0398,1200.1284,77.5348,1200.1284,63.7848,1186.3784,77.5348,1172.6284" style="stroke:#000000;stroke-width:1.1458;"/><text fill="#000000" font-family="Arial" font-size="14.8958" lengthAdjust="spacing" textLength="136.63" x="80.9723" y="1192.0298">Course not finished?</text><rect fill="#FFFFFF" height="46.9204" style="stroke:#000000;stroke-width:1.1458;" width="270.758" x="13.9083" y="1223.045"/><text fill="#000000" font-family="Arial" font-size="14.8958" lengthAdjust="spacing" textLength="240.9663" x="28.8042" y="1252.1567">Learner checks leaderboard position</text><polygon fill="#FFFFFF" points="149.2873,441.4544,163.0373,455.2044,149.2873,468.9544,135.5373,455.2044,149.2873,441.4544" style="stroke:#000000;stroke-width:1.1458;"/><polygon fill="#FFFFFF" points="58.5077,1292.8821,240.0669,1292.8821,253.8169,1306.6321,240.0669,1320.3821,58.5077,1320.3821,44.7577,1306.6321,58.5077,1292.8821" style="stroke:#000000;stroke-width:1.1458;"/><text fill="#000000" font-family="Arial" font-size="14.8958" lengthAdjust="spacing" textLength="174.6842" x="61.9452" y="1312.2835">User wants to learn more?</text><rect fill="#FFFFFF" height="46.9204" style="stroke:#000000;stroke-width:1.1458;" width="235.9477" x="329.6861" y="860.5944"/><text fill="#000000" font-family="Arial" font-size="14.8958" lengthAdjust="spacing" textLength="206.156" x="344.582" y="889.706">Learner explores more courses</text><rect fill="#FFFFFF" height="46.9204" style="stroke:#000000;stroke-width:1.1458;" width="117.552" x="90.5113" y="1343.2988"/><text fill="#000000" font-family="Arial" font-size="14.8958" lengthAdjust="spacing" textLength="87.7603" x="105.4072" y="1372.4104">User logs out</text><ellipse cx="149.2873" cy="1425.7401" fill="none" rx="12.6042" ry="12.6042" style="stroke:#000000;stroke-width:1.1458;"/><ellipse cx="149.2873" cy="1425.7401" fill="#FFFFFF" rx="6.875" ry="6.875" style="stroke:#000000;stroke-width:1.1458;"/><line style="stroke:#000000;stroke-width:1.1458;" x1="149.2873" x2="149.2873" y1="28.6458" y2="51.5625"/><polygon fill="#000000" points="144.704,40.1042,149.2873,51.5625,153.8706,40.1042,149.2873,44.6875" style="stroke:#000000;stroke-width:1.1458;"/><line style="stroke:#000000;stroke-width:1.1458;" x1="149.2873" x2="149.2873" y1="148.8996" y2="181.5265"/><polygon fill="#000000" points="144.704,170.0681,149.2873,181.5265,153.8706,170.0681,149.2873,174.6515" style="stroke:#000000;stroke-width:1.1458;"/><line style="stroke:#000000;stroke-width:1.1458;" x1="212.0169" x2="225.7669" y1="135.1496" y2="135.1496"/><polygon fill="#000000" points="221.1836,196.9658,225.7669,208.4242,230.3503,196.9658,225.7669,201.5492" style="stroke:#000000;stroke-width:1.1458;"/><line style="stroke:#000000;stroke-width:1.1458;" x1="225.7669" x2="225.7669" y1="135.1496" y2="265.1136"/><line style="stroke:#000000;stroke-width:1.1458;" x1="225.7669" x2="163.0373" y1="265.1136" y2="265.1136"/><polygon fill="#000000" points="174.4956,260.5302,163.0373,265.1136,174.4956,269.6969,169.9123,265.1136" style="stroke:#000000;stroke-width:1.1458;"/><line style="stroke:#000000;stroke-width:1.1458;" x1="149.2873" x2="149.2873" y1="228.4469" y2="251.3636"/><polygon fill="#000000" points="144.704,239.9052,149.2873,251.3636,153.8706,239.9052,149.2873,244.4886" style="stroke:#000000;stroke-width:1.1458;"/><line style="stroke:#000000;stroke-width:1.1458;" x1="149.2873" x2="149.2873" y1="98.4829" y2="121.3996"/><polygon fill="#000000" points="144.704,109.9413,149.2873,121.3996,153.8706,109.9413,149.2873,114.5246" style="stroke:#000000;stroke-width:1.1458;"/><line style="stroke:#000000;stroke-width:1.1458;" x1="149.2873" x2="149.2873" y1="278.8636" y2="301.7802"/><polygon fill="#000000" points="144.704,290.3219,149.2873,301.7802,153.8706,290.3219,149.2873,294.9052" style="stroke:#000000;stroke-width:1.1458;"/><line style="stroke:#000000;stroke-width:1.1458;" x1="149.2873" x2="149.2873" y1="348.7006" y2="371.6173"/><polygon fill="#000000" points="144.704,360.159,149.2873,371.6173,153.8706,360.159,149.2873,364.7423" style="stroke:#000000;stroke-width:1.1458;"/><line style="stroke:#000000;stroke-width:1.1458;" x1="149.2873" x2="149.2873" y1="538.7915" y2="561.7081"/><polygon fill="#000000" points="144.704,550.2498,149.2873,561.7081,153.8706,550.2498,149.2873,554.8331" style="stroke:#000000;stroke-width:1.1458;"/><line style="stroke:#000000;stroke-width:1.1458;" x1="149.2873" x2="149.2873" y1="608.6286" y2="631.5452"/><polygon fill="#000000" points="144.704,620.0869,149.2873,631.5452,153.8706,620.0869,149.2873,624.6702" style="stroke:#000000;stroke-width:1.1458;"/><line style="stroke:#000000;stroke-width:1.1458;" x1="149.2873" x2="149.2873" y1="951.0271" y2="982.5375"/><polygon fill="#000000" points="144.704,971.0792,149.2873,982.5375,153.8706,971.0792,149.2873,975.6625" style="stroke:#000000;stroke-width:1.1458;"/><line style="stroke:#000000;stroke-width:1.1458;" x1="149.2873" x2="149.2873" y1="849.1361" y2="904.1067"/><polygon fill="#000000" points="144.704,892.6484,149.2873,904.1067,153.8706,892.6484,149.2873,897.2317" style="stroke:#000000;stroke-width:1.1458;"/><line style="stroke:#000000;stroke-width:1.1458;" x1="273.2695" x2="293.0195" y1="1066.1246" y2="1066.1246"/><polygon fill="#000000" points="288.4361,973.9438,293.0195,962.4855,297.6028,973.9438,293.0195,969.3605" style="stroke:#000000;stroke-width:1.1458;"/><line style="stroke:#000000;stroke-width:1.1458;" x1="293.0195" x2="293.0195" y1="835.3861" y2="1066.1246"/><line style="stroke:#000000;stroke-width:1.1458;" x1="293.0195" x2="163.0373" y1="835.3861" y2="835.3861"/><polygon fill="#000000" points="174.4956,830.8027,163.0373,835.3861,174.4956,839.9694,169.9123,835.3861" style="stroke:#000000;stroke-width:1.1458;"/><line style="stroke:#000000;stroke-width:1.1458;" x1="149.2873" x2="149.2873" y1="1029.458" y2="1052.3746"/><polygon fill="#000000" points="144.704,1040.9163,149.2873,1052.3746,153.8706,1040.9163,149.2873,1045.4996" style="stroke:#000000;stroke-width:1.1458;"/><line style="stroke:#000000;stroke-width:1.1458;" x1="149.2873" x2="149.2873" y1="798.7194" y2="821.6361"/><polygon fill="#000000" points="144.704,810.1777,149.2873,821.6361,153.8706,810.1777,149.2873,814.7611" style="stroke:#000000;stroke-width:1.1458;"/><line style="stroke:#000000;stroke-width:1.1458;" x1="149.2873" x2="149.2873" y1="1079.8746" y2="1102.7913"/><polygon fill="#000000" points="144.704,1091.333,149.2873,1102.7913,153.8706,1091.333,149.2873,1095.9163" style="stroke:#000000;stroke-width:1.1458;"/><line style="stroke:#000000;stroke-width:1.1458;" x1="149.2873" x2="149.2873" y1="728.8823" y2="751.799"/><polygon fill="#000000" points="144.704,740.3407,149.2873,751.799,153.8706,740.3407,149.2873,744.924" style="stroke:#000000;stroke-width:1.1458;"/><line style="stroke:#000000;stroke-width:1.1458;" x1="234.7898" x2="313.6445" y1="1186.3784" y2="1186.3784"/><polygon fill="#000000" points="309.0611,973.9438,313.6445,962.4855,318.2278,973.9438,313.6445,969.3605" style="stroke:#000000;stroke-width:1.1458;"/><line style="stroke:#000000;stroke-width:1.1458;" x1="313.6445" x2="313.6445" y1="715.1323" y2="1186.3784"/><line style="stroke:#000000;stroke-width:1.1458;" x1="313.6445" x2="163.0373" y1="715.1323" y2="715.1323"/><polygon fill="#000000" points="174.4956,710.549,163.0373,715.1323,174.4956,719.7157,169.9123,715.1323" style="stroke:#000000;stroke-width:1.1458;"/><line style="stroke:#000000;stroke-width:1.1458;" x1="149.2873" x2="149.2873" y1="1149.7117" y2="1172.6284"/><polygon fill="#000000" points="144.704,1161.17,149.2873,1172.6284,153.8706,1161.17,149.2873,1165.7534" style="stroke:#000000;stroke-width:1.1458;"/><line style="stroke:#000000;stroke-width:1.1458;" x1="149.2873" x2="149.2873" y1="678.4657" y2="701.3823"/><polygon fill="#000000" points="144.704,689.924,149.2873,701.3823,153.8706,689.924,149.2873,694.5073" style="stroke:#000000;stroke-width:1.1458;"/><line style="stroke:#000000;stroke-width:1.1458;" x1="149.2873" x2="149.2873" y1="1200.1284" y2="1223.045"/><polygon fill="#000000" points="144.704,1211.5867,149.2873,1223.045,153.8706,1211.5867,149.2873,1216.17" style="stroke:#000000;stroke-width:1.1458;"/><line style="stroke:#000000;stroke-width:1.1458;" x1="149.2873" x2="149.2873" y1="468.9544" y2="491.8711"/><polygon fill="#000000" points="144.704,480.4127,149.2873,491.8711,153.8706,480.4127,149.2873,484.9961" style="stroke:#000000;stroke-width:1.1458;"/><line style="stroke:#000000;stroke-width:1.1458;" x1="253.8169" x2="447.66" y1="1306.6321" y2="1306.6321"/><line style="stroke:#000000;stroke-width:1.1458;" x1="447.66" x2="447.66" y1="907.5148" y2="1306.6321"/><polygon fill="#000000" points="443.0766,918.9732,447.66,907.5148,452.2433,918.9732,447.66,914.3898" style="stroke:#000000;stroke-width:1.1458;"/><line style="stroke:#000000;stroke-width:1.1458;" x1="447.66" x2="447.66" y1="455.2044" y2="860.5944"/><line style="stroke:#000000;stroke-width:1.1458;" x1="447.66" x2="163.0373" y1="455.2044" y2="455.2044"/><polygon fill="#000000" points="174.4956,450.6211,163.0373,455.2044,174.4956,459.7877,169.9123,455.2044" style="stroke:#000000;stroke-width:1.1458;"/><line style="stroke:#000000;stroke-width:1.1458;" x1="149.2873" x2="149.2873" y1="1269.9655" y2="1292.8821"/><polygon fill="#000000" points="144.704,1281.4238,149.2873,1292.8821,153.8706,1281.4238,149.2873,1286.0071" style="stroke:#000000;stroke-width:1.1458;"/><line style="stroke:#000000;stroke-width:1.1458;" x1="149.2873" x2="149.2873" y1="418.5377" y2="441.4544"/><polygon fill="#000000" points="144.704,429.9961,149.2873,441.4544,153.8706,429.9961,149.2873,434.5794" style="stroke:#000000;stroke-width:1.1458;"/><line style="stroke:#000000;stroke-width:1.1458;" x1="149.2873" x2="149.2873" y1="1320.3821" y2="1343.2988"/><polygon fill="#000000" points="144.704,1331.8405,149.2873,1343.2988,153.8706,1331.8405,149.2873,1336.4238" style="stroke:#000000;stroke-width:1.1458;"/><line style="stroke:#000000;stroke-width:1.1458;" x1="149.2873" x2="149.2873" y1="1390.2192" y2="1413.1359"/><polygon fill="#000000" points="144.704,1401.6776,149.2873,1413.1359,153.8706,1401.6776,149.2873,1406.2609" style="stroke:#000000;stroke-width:1.1458;"/><!--SRC=[VLAzRjim4Dxr5Enc3xM2efCr14MN3WbGeCq3dCYJH8JY4SUJLRrzZvALEWvG3e90Vd_tyyb76oQ7PX19-LpN3FEfzp9CxPIHBKN1A2TBOzqnEie1BbyU7hxMppxw4SBl0KVy-VByL3DskHuGNAv7yB4UDy1dAOXJciPGPG6MwloYmWQinPmncnH0EkAngNnd3ZyWboUQeZmUZNAZEKGwLaRFHcJiVHRat5GOdU-kUe7wR7niglElHPz70rDXYxSWwbAAQIh6X22Rs1C2HoMsJ7F9ePwSqIWSLAjv3-fyA9QcNGe0U-B5a9f2x2VeyGwDaIc44kUgkhtVkA_mQz34TF5E4uH2zx7N1eY_U5cQD-mzTNVIkQI0yd_o1wCEqRLWN-_rpJpuWERmxIfX8icRXTC_PhGIbiVZ1-qfkRNFYNoKR0uQno6t1EoEjzNl5j-tRXU3JXSb3-XqtdhUTz8EQ5_NudOrTSXUFEcaImcpNlth-vyKY3N5gDzhw_C-zTrvtPOPIagXhMqhNekwsIIQfD5zfVGN]--></g></svg>