<svg xmlns="http://www.w3.org/2000/svg" xmlns:xlink="http://www.w3.org/1999/xlink" contentStyleType="text/css" data-diagram-type="ACTIVITY" height="1476.9792px" preserveAspectRatio="none" style="width:923px;height:1476px;background:#FFFFFF;" version="1.1" viewBox="0 0 923 1476" width="923.5417px" zoomAndPan="magnify"><defs/><g><rect fill="#FFFFFF" height="24.0038" style="stroke:#FFFFFF;stroke-width:1.1458;" width="897.2102" x="11.4583" y="6.875"/><ellipse cx="91.3755" cy="48.0663" fill="#FFFFFF" rx="11.4583" ry="11.4583" style="stroke:#000000;stroke-width:1.1458;"/><rect fill="#FFFFFF" height="46.9204" style="stroke:#000000;stroke-width:1.1458;" width="135.7499" x="23.5005" y="82.4413"/><text fill="#000000" font-family="Arial" font-size="14.8958" lengthAdjust="spacing" textLength="105.9583" x="38.3963" y="111.5529">Access platform</text><rect fill="#FFFFFF" height="46.9204" style="stroke:#000000;stroke-width:1.1458;" width="85.2583" x="48.7463" y="212.4052"/><text fill="#000000" font-family="Arial" font-size="14.8958" lengthAdjust="spacing" textLength="55.4666" x="63.6421" y="241.5168">Register</text><polygon fill="#FFFFFF" points="42.3958,152.2783,140.3551,152.2783,154.1051,166.0283,140.3551,179.7783,42.3958,179.7783,28.6458,166.0283,42.3958,152.2783" style="stroke:#000000;stroke-width:1.1458;"/><text fill="#000000" font-family="Arial" font-size="14.8958" lengthAdjust="spacing" textLength="16.5687" x="99.3963" y="197.4316">no</text><text fill="#000000" font-family="Arial" font-size="14.8958" lengthAdjust="spacing" textLength="91.0842" x="45.8333" y="171.6797">Has account?</text><polygon fill="#FFFFFF" points="91.3755,282.2423,105.1255,295.9923,91.3755,309.7423,77.6255,295.9923,91.3755,282.2423" style="stroke:#000000;stroke-width:1.1458;"/><rect fill="#FFFFFF" height="46.9204" style="stroke:#000000;stroke-width:1.1458;" width="70.377" x="56.187" y="332.659"/><text fill="#000000" font-family="Arial" font-size="14.8958" lengthAdjust="spacing" textLength="40.5853" x="71.0828" y="361.7706">Log in</text><rect fill="#FFFFFF" height="46.9204" style="stroke:#000000;stroke-width:1.1458;" width="79.4905" x="51.6302" y="1374.1776"/><text fill="#000000" font-family="Arial" font-size="14.8958" lengthAdjust="spacing" textLength="49.6988" x="66.526" y="1403.2892">Log out</text><ellipse cx="91.3755" cy="1456.6188" fill="none" rx="12.6042" ry="12.6042" style="stroke:#000000;stroke-width:1.1458;"/><ellipse cx="91.3755" cy="1456.6188" fill="#FFFFFF" rx="6.875" ry="6.875" style="stroke:#000000;stroke-width:1.1458;"/><line style="stroke:#000000;stroke-width:1.1458;" x1="11.4583" x2="11.4583" y1="6.875" y2="1469.223"/><rect fill="#FFFFFF" height="46.9204" style="stroke:#000000;stroke-width:1.1458;" width="145.7217" x="231.2785" y="402.4961"/><text fill="#000000" font-family="Arial" font-size="14.8958" lengthAdjust="spacing" textLength="115.93" x="246.1743" y="431.6077">Authenticate user</text><rect fill="#FFFFFF" height="46.9204" style="stroke:#000000;stroke-width:1.1458;" width="187.0998" x="210.5894" y="782.6777"/><text fill="#000000" font-family="Arial" font-size="14.8958" lengthAdjust="spacing" textLength="157.3081" x="225.4852" y="811.7893">Provide learning activity</text><rect fill="#FFFFFF" height="46.9204" style="stroke:#000000;stroke-width:1.1458;" width="144.8925" x="231.693" y="1013.4163"/><text fill="#000000" font-family="Arial" font-size="14.8958" lengthAdjust="spacing" textLength="115.1009" x="246.5889" y="1042.5279">Provide feedback</text><rect fill="#FFFFFF" height="46.9204" style="stroke:#000000;stroke-width:1.1458;" width="215.2768" x="196.5009" y="1133.67"/><text fill="#000000" font-family="Arial" font-size="14.8958" lengthAdjust="spacing" textLength="185.4851" x="211.3967" y="1162.7817">Update points (leaderboard)</text><line style="stroke:#000000;stroke-width:1.1458;" x1="189.6259" x2="189.6259" y1="6.875" y2="1469.223"/><rect fill="#FFFFFF" height="46.9204" style="stroke:#000000;stroke-width:1.1458;" width="180.4811" x="467.2902" y="522.7498"/><text fill="#000000" font-family="Arial" font-size="14.8958" lengthAdjust="spacing" textLength="150.6894" x="482.186" y="551.8614">Browse course catalog</text><rect fill="#FFFFFF" height="46.9204" style="stroke:#000000;stroke-width:1.1458;" width="226.856" x="444.1027" y="592.5869"/><text fill="#000000" font-family="Arial" font-size="14.8958" lengthAdjust="spacing" textLength="197.0643" x="458.9986" y="621.6985">Filter by category or language</text><rect fill="#FFFFFF" height="46.9204" style="stroke:#000000;stroke-width:1.1458;" width="132.4551" x="491.3032" y="662.424"/><text fill="#000000" font-family="Arial" font-size="14.8958" lengthAdjust="spacing" textLength="102.6634" x="506.199" y="691.5356">Enroll in course</text><rect fill="#FFFFFF" height="46.9204" style="stroke:#000000;stroke-width:1.1458;" width="200.3446" x="457.3584" y="934.9855"/><text fill="#000000" font-family="Arial" font-size="14.8958" lengthAdjust="spacing" textLength="170.5529" x="472.2543" y="964.0971">Complete learning activity</text><polygon fill="#FFFFFF" points="557.5307,852.5148,571.2807,866.2648,557.5307,880.0148,543.7807,866.2648,557.5307,852.5148" style="stroke:#000000;stroke-width:1.1458;"/><polygon fill="#FFFFFF" points="447.2985,1083.2534,667.7629,1083.2534,681.5129,1097.0034,667.7629,1110.7534,447.2985,1110.7534,433.5485,1097.0034,447.2985,1083.2534" style="stroke:#000000;stroke-width:1.1458;"/><text fill="#000000" font-family="Arial" font-size="14.8958" lengthAdjust="spacing" textLength="213.5894" x="450.736" y="1102.6548">Activity not completed correctly?</text><polygon fill="#FFFFFF" points="557.5307,732.2611,571.2807,746.0111,557.5307,759.7611,543.7807,746.0111,557.5307,732.2611" style="stroke:#000000;stroke-width:1.1458;"/><polygon fill="#FFFFFF" points="485.7782,1203.5071,629.2832,1203.5071,643.0332,1217.2571,629.2832,1231.0071,485.7782,1231.0071,472.0282,1217.2571,485.7782,1203.5071" style="stroke:#000000;stroke-width:1.1458;"/><text fill="#000000" font-family="Arial" font-size="14.8958" lengthAdjust="spacing" textLength="136.63" x="489.2157" y="1222.9085">Course not finished?</text><rect fill="#FFFFFF" height="46.9204" style="stroke:#000000;stroke-width:1.1458;" width="211.1383" x="451.9616" y="1253.9238"/><text fill="#000000" font-family="Arial" font-size="14.8958" lengthAdjust="spacing" textLength="181.3466" x="466.8574" y="1283.0354">Check leaderboard position</text><polygon fill="#FFFFFF" points="557.5307,472.3331,571.2807,486.0831,557.5307,499.8331,543.7807,486.0831,557.5307,472.3331" style="stroke:#000000;stroke-width:1.1458;"/><polygon fill="#FFFFFF" points="466.7511,1323.7609,648.3103,1323.7609,662.0603,1337.5109,648.3103,1351.2609,466.7511,1351.2609,453.0011,1337.5109,466.7511,1323.7609" style="stroke:#000000;stroke-width:1.1458;"/><text fill="#000000" font-family="Arial" font-size="14.8958" lengthAdjust="spacing" textLength="174.6842" x="470.1886" y="1343.1623">User wants to learn more?</text><rect fill="#FFFFFF" height="46.9204" style="stroke:#000000;stroke-width:1.1458;" width="174.6696" x="725.0546" y="891.4732"/><text fill="#000000" font-family="Arial" font-size="14.8958" lengthAdjust="spacing" textLength="144.878" x="739.9504" y="920.5848">Explore more courses</text><line style="stroke:#000000;stroke-width:1.1458;" x1="416.361" x2="416.361" y1="6.875" y2="1469.223"/><line style="stroke:#000000;stroke-width:1.1458;" x1="904.3076" x2="904.3076" y1="6.875" y2="1469.223"/><line style="stroke:#000000;stroke-width:1.1458;" x1="91.3755" x2="91.3755" y1="59.5246" y2="82.4413"/><polygon fill="#000000" points="86.7921,70.9829,91.3755,82.4413,95.9588,70.9829,91.3755,75.5663" style="stroke:#000000;stroke-width:1.1458;"/><line style="stroke:#000000;stroke-width:1.1458;" x1="91.3755" x2="91.3755" y1="179.7783" y2="212.4052"/><polygon fill="#000000" points="86.7921,200.9469,91.3755,212.4052,95.9588,200.9469,91.3755,205.5302" style="stroke:#000000;stroke-width:1.1458;"/><line style="stroke:#000000;stroke-width:1.1458;" x1="154.1051" x2="167.8551" y1="166.0283" y2="166.0283"/><polygon fill="#000000" points="163.2717,227.8446,167.8551,239.3029,172.4384,227.8446,167.8551,232.4279" style="stroke:#000000;stroke-width:1.1458;"/><line style="stroke:#000000;stroke-width:1.1458;" x1="167.8551" x2="167.8551" y1="166.0283" y2="295.9923"/><line style="stroke:#000000;stroke-width:1.1458;" x1="167.8551" x2="105.1255" y1="295.9923" y2="295.9923"/><polygon fill="#000000" points="116.5838,291.409,105.1255,295.9923,116.5838,300.5756,112.0005,295.9923" style="stroke:#000000;stroke-width:1.1458;"/><line style="stroke:#000000;stroke-width:1.1458;" x1="91.3755" x2="91.3755" y1="259.3256" y2="282.2423"/><polygon fill="#000000" points="86.7921,270.784,91.3755,282.2423,95.9588,270.784,91.3755,275.3673" style="stroke:#000000;stroke-width:1.1458;"/><line style="stroke:#000000;stroke-width:1.1458;" x1="91.3755" x2="91.3755" y1="129.3617" y2="152.2783"/><polygon fill="#000000" points="86.7921,140.82,91.3755,152.2783,95.9588,140.82,91.3755,145.4033" style="stroke:#000000;stroke-width:1.1458;"/><line style="stroke:#000000;stroke-width:1.1458;" x1="91.3755" x2="91.3755" y1="309.7423" y2="332.659"/><polygon fill="#000000" points="86.7921,321.2006,91.3755,332.659,95.9588,321.2006,91.3755,325.784" style="stroke:#000000;stroke-width:1.1458;"/><line style="stroke:#000000;stroke-width:1.1458;" x1="91.3755" x2="91.3755" y1="1421.098" y2="1444.0146"/><polygon fill="#000000" points="86.7921,1432.5563,91.3755,1444.0146,95.9588,1432.5563,91.3755,1437.1396" style="stroke:#000000;stroke-width:1.1458;"/><line style="stroke:#000000;stroke-width:1.1458;" x1="557.5307" x2="557.5307" y1="569.6702" y2="592.5869"/><polygon fill="#000000" points="552.9474,581.1286,557.5307,592.5869,562.1141,581.1286,557.5307,585.7119" style="stroke:#000000;stroke-width:1.1458;"/><line style="stroke:#000000;stroke-width:1.1458;" x1="557.5307" x2="557.5307" y1="639.5073" y2="662.424"/><polygon fill="#000000" points="552.9474,650.9657,557.5307,662.424,562.1141,650.9657,557.5307,655.549" style="stroke:#000000;stroke-width:1.1458;"/><line style="stroke:#000000;stroke-width:1.1458;" x1="557.5307" x2="557.5307" y1="880.0148" y2="934.9855"/><polygon fill="#000000" points="552.9474,923.5271,557.5307,934.9855,562.1141,923.5271,557.5307,928.1105" style="stroke:#000000;stroke-width:1.1458;"/><line style="stroke:#000000;stroke-width:1.1458;" x1="681.5129" x2="695.2629" y1="1097.0034" y2="1097.0034"/><polygon fill="#000000" points="690.6796,1004.8225,695.2629,993.3642,699.8462,1004.8225,695.2629,1000.2392" style="stroke:#000000;stroke-width:1.1458;"/><line style="stroke:#000000;stroke-width:1.1458;" x1="695.2629" x2="695.2629" y1="866.2648" y2="1097.0034"/><line style="stroke:#000000;stroke-width:1.1458;" x1="695.2629" x2="571.2807" y1="866.2648" y2="866.2648"/><polygon fill="#000000" points="582.7391,861.6815,571.2807,866.2648,582.7391,870.8482,578.1557,866.2648" style="stroke:#000000;stroke-width:1.1458;"/><line style="stroke:#000000;stroke-width:1.1458;" x1="643.0332" x2="709.0129" y1="1217.2571" y2="1217.2571"/><polygon fill="#000000" points="704.4296,1004.8225,709.0129,993.3642,713.5962,1004.8225,709.0129,1000.2392" style="stroke:#000000;stroke-width:1.1458;"/><line style="stroke:#000000;stroke-width:1.1458;" x1="709.0129" x2="709.0129" y1="746.0111" y2="1217.2571"/><line style="stroke:#000000;stroke-width:1.1458;" x1="709.0129" x2="571.2807" y1="746.0111" y2="746.0111"/><polygon fill="#000000" points="582.7391,741.4277,571.2807,746.0111,582.7391,750.5944,578.1557,746.0111" style="stroke:#000000;stroke-width:1.1458;"/><line style="stroke:#000000;stroke-width:1.1458;" x1="557.5307" x2="557.5307" y1="709.3444" y2="732.2611"/><polygon fill="#000000" points="552.9474,720.8027,557.5307,732.2611,562.1141,720.8027,557.5307,725.3861" style="stroke:#000000;stroke-width:1.1458;"/><line style="stroke:#000000;stroke-width:1.1458;" x1="557.5307" x2="557.5307" y1="1231.0071" y2="1253.9238"/><polygon fill="#000000" points="552.9474,1242.4655,557.5307,1253.9238,562.1141,1242.4655,557.5307,1247.0488" style="stroke:#000000;stroke-width:1.1458;"/><line style="stroke:#000000;stroke-width:1.1458;" x1="557.5307" x2="557.5307" y1="499.8331" y2="522.7498"/><polygon fill="#000000" points="552.9474,511.2915,557.5307,522.7498,562.1141,511.2915,557.5307,515.8748" style="stroke:#000000;stroke-width:1.1458;"/><line style="stroke:#000000;stroke-width:1.1458;" x1="662.0603" x2="812.3894" y1="1337.5109" y2="1337.5109"/><line style="stroke:#000000;stroke-width:1.1458;" x1="812.3894" x2="812.3894" y1="938.3936" y2="1337.5109"/><polygon fill="#000000" points="807.8061,949.8519,812.3894,938.3936,816.9727,949.8519,812.3894,945.2686" style="stroke:#000000;stroke-width:1.1458;"/><line style="stroke:#000000;stroke-width:1.1458;" x1="812.3894" x2="812.3894" y1="486.0831" y2="891.4732"/><line style="stroke:#000000;stroke-width:1.1458;" x1="812.3894" x2="571.2807" y1="486.0831" y2="486.0831"/><polygon fill="#000000" points="582.7391,481.4998,571.2807,486.0831,582.7391,490.6665,578.1557,486.0831" style="stroke:#000000;stroke-width:1.1458;"/><line style="stroke:#000000;stroke-width:1.1458;" x1="557.5307" x2="557.5307" y1="1300.8442" y2="1323.7609"/><polygon fill="#000000" points="552.9474,1312.3026,557.5307,1323.7609,562.1141,1312.3026,557.5307,1316.8859" style="stroke:#000000;stroke-width:1.1458;"/><line style="stroke:#000000;stroke-width:1.1458;" x1="91.3755" x2="91.3755" y1="379.5794" y2="385.3086"/><line style="stroke:#000000;stroke-width:1.1458;" x1="91.3755" x2="304.1393" y1="385.3086" y2="385.3086"/><line style="stroke:#000000;stroke-width:1.1458;" x1="304.1393" x2="304.1393" y1="385.3086" y2="402.4961"/><polygon fill="#000000" points="299.556,391.0377,304.1393,402.4961,308.7226,391.0377,304.1393,395.6211" style="stroke:#000000;stroke-width:1.1458;"/><line style="stroke:#000000;stroke-width:1.1458;" x1="557.5307" x2="557.5307" y1="981.9059" y2="993.3642"/><line style="stroke:#000000;stroke-width:1.1458;" x1="557.5307" x2="304.1393" y1="993.3642" y2="993.3642"/><line style="stroke:#000000;stroke-width:1.1458;" x1="304.1393" x2="304.1393" y1="993.3642" y2="1013.4163"/><polygon fill="#000000" points="299.556,1001.958,304.1393,1013.4163,308.7226,1001.958,304.1393,1006.5413" style="stroke:#000000;stroke-width:1.1458;"/><line style="stroke:#000000;stroke-width:1.1458;" x1="304.1393" x2="304.1393" y1="1060.3367" y2="1066.0659"/><line style="stroke:#000000;stroke-width:1.1458;" x1="304.1393" x2="557.5307" y1="1066.0659" y2="1066.0659"/><line style="stroke:#000000;stroke-width:1.1458;" x1="557.5307" x2="557.5307" y1="1066.0659" y2="1083.2534"/><polygon fill="#000000" points="552.9474,1071.795,557.5307,1083.2534,562.1141,1071.795,557.5307,1076.3784" style="stroke:#000000;stroke-width:1.1458;"/><line style="stroke:#000000;stroke-width:1.1458;" x1="304.1393" x2="304.1393" y1="829.5982" y2="835.3273"/><line style="stroke:#000000;stroke-width:1.1458;" x1="304.1393" x2="557.5307" y1="835.3273" y2="835.3273"/><line style="stroke:#000000;stroke-width:1.1458;" x1="557.5307" x2="557.5307" y1="835.3273" y2="852.5148"/><polygon fill="#000000" points="552.9474,841.0565,557.5307,852.5148,562.1141,841.0565,557.5307,845.6398" style="stroke:#000000;stroke-width:1.1458;"/><line style="stroke:#000000;stroke-width:1.1458;" x1="557.5307" x2="557.5307" y1="1110.7534" y2="1116.4825"/><line style="stroke:#000000;stroke-width:1.1458;" x1="557.5307" x2="304.1393" y1="1116.4825" y2="1116.4825"/><line style="stroke:#000000;stroke-width:1.1458;" x1="304.1393" x2="304.1393" y1="1116.4825" y2="1133.67"/><polygon fill="#000000" points="299.556,1122.2117,304.1393,1133.67,308.7226,1122.2117,304.1393,1126.795" style="stroke:#000000;stroke-width:1.1458;"/><line style="stroke:#000000;stroke-width:1.1458;" x1="557.5307" x2="557.5307" y1="759.7611" y2="765.4902"/><line style="stroke:#000000;stroke-width:1.1458;" x1="557.5307" x2="304.1393" y1="765.4902" y2="765.4902"/><line style="stroke:#000000;stroke-width:1.1458;" x1="304.1393" x2="304.1393" y1="765.4902" y2="782.6777"/><polygon fill="#000000" points="299.556,771.2194,304.1393,782.6777,308.7226,771.2194,304.1393,775.8027" style="stroke:#000000;stroke-width:1.1458;"/><line style="stroke:#000000;stroke-width:1.1458;" x1="304.1393" x2="304.1393" y1="1180.5905" y2="1186.3196"/><line style="stroke:#000000;stroke-width:1.1458;" x1="304.1393" x2="557.5307" y1="1186.3196" y2="1186.3196"/><line style="stroke:#000000;stroke-width:1.1458;" x1="557.5307" x2="557.5307" y1="1186.3196" y2="1203.5071"/><polygon fill="#000000" points="552.9474,1192.0488,557.5307,1203.5071,562.1141,1192.0488,557.5307,1196.6321" style="stroke:#000000;stroke-width:1.1458;"/><line style="stroke:#000000;stroke-width:1.1458;" x1="304.1393" x2="304.1393" y1="449.4165" y2="455.1456"/><line style="stroke:#000000;stroke-width:1.1458;" x1="304.1393" x2="557.5307" y1="455.1456" y2="455.1456"/><line style="stroke:#000000;stroke-width:1.1458;" x1="557.5307" x2="557.5307" y1="455.1456" y2="472.3331"/><polygon fill="#000000" points="552.9474,460.8748,557.5307,472.3331,562.1141,460.8748,557.5307,465.4581" style="stroke:#000000;stroke-width:1.1458;"/><line style="stroke:#000000;stroke-width:1.1458;" x1="557.5307" x2="557.5307" y1="1351.2609" y2="1356.9901"/><line style="stroke:#000000;stroke-width:1.1458;" x1="557.5307" x2="91.3755" y1="1356.9901" y2="1356.9901"/><line style="stroke:#000000;stroke-width:1.1458;" x1="91.3755" x2="91.3755" y1="1356.9901" y2="1374.1776"/><polygon fill="#000000" points="86.7921,1362.7192,91.3755,1374.1776,95.9588,1362.7192,91.3755,1367.3026" style="stroke:#000000;stroke-width:1.1458;"/><text fill="#000000" font-family="Arial" font-size="14.8958" lengthAdjust="spacing" textLength="31.45" x="84.8171" y="24.5283">User</text><text fill="#000000" font-family="Arial" font-size="14.8958" lengthAdjust="spacing" textLength="49.6625" x="278.1622" y="24.5283">System</text><text fill="#000000" font-family="Arial" font-size="14.8958" lengthAdjust="spacing" textLength="51.3426" x="634.663" y="24.5283">Learner</text><!--SRC=[XPB1Rjim38RlVWhkbXmM5yDEzg7eWWuxf42nBG-WIBGjL18DYavc80y_gawxTa1R7Mo1elwF5FzFFjamEOH1PCnDNRCvRNelmtIOChAb99XaOodM7QEZ7CpnozNLr_hE9nzD-3rWnFlztQvcx78ze76vZiQdEYu9dwLaRCOfXkgyLybpbSMmLCsDjPWpZC58HnpRodUm-c4o66jfIdAz1hsRO9LeNO6kvYVsFWjoMs5olgkQ7VNWKrkTVyqQZsSLdSeTyTO8Gkb03tTeE1KmuuX65grlJAUCe2GkFoCcKDykPzzzK0eSvXB7ddW6OWWczPFfyP9qcvX2KFn5Omc_G9JrNDXJeBbdEdfzxr2AygdNRiKVlSpjlqlF1Jz5_bDjjXJ7WFA-ofle3j4TZ7tuc0YdmGU4rSr57HA9jhl0dUwOqKgOhzVlOFUZAyCOoIV9iDAI7VA13BlrMnMyfc-N6HLsfwRA0phrXgvb4Di1xGEya5LKzk99ZL7QF6cekVqp1cA4M3xBm79RlUOKTyB9b2g5bgTzpDVkBivzD1nDqgg7QVmB]--></g></svg>