<svg xmlns="http://www.w3.org/2000/svg" xmlns:xlink="http://www.w3.org/1999/xlink" contentStyleType="text/css" data-diagram-type="ACTIVITY" height="1320px" preserveAspectRatio="none" style="width:551px;height:1320px;background:#FFFFFF;" version="1.1" viewBox="0 0 551 1320" width="551.1458px" zoomAndPan="magnify"><defs/><g><ellipse cx="149.2873" cy="17.1875" fill="#FFFFFF" rx="11.4583" ry="11.4583" style="stroke:#000000;stroke-width:1.1458;"/><rect fill="#FFFFFF" height="46.9204" style="stroke:#000000;stroke-width:1.1458;" width="185.4197" x="56.5775" y="51.5625"/><text fill="#000000" font-family="Arial" font-size="14.8958" lengthAdjust="spacing" textLength="155.628" x="71.4733" y="80.6741">User accesses platform</text><rect fill="#FFFFFF" height="46.9204" style="stroke:#000000;stroke-width:1.1458;" width="122.4979" x="88.0384" y="181.5265"/><text fill="#000000" font-family="Arial" font-size="14.8958" lengthAdjust="spacing" textLength="92.7062" x="102.9342" y="210.6381">User registers</text><polygon fill="#FFFFFF" points="100.3077,121.3996,198.2669,121.3996,212.0169,135.1496,198.2669,148.8996,100.3077,148.8996,86.5577,135.1496,100.3077,121.3996" style="stroke:#000000;stroke-width:1.1458;"/><text fill="#000000" font-family="Arial" font-size="14.8958" lengthAdjust="spacing" textLength="16.5687" x="157.3081" y="166.5529">no</text><text fill="#000000" font-family="Arial" font-size="14.8958" lengthAdjust="spacing" textLength="91.0842" x="103.7452" y="140.801">Has account?</text><polygon fill="#FFFFFF" points="149.2873,251.3636,163.0373,265.1136,149.2873,278.8636,135.5373,265.1136,149.2873,251.3636" style="stroke:#000000;stroke-width:1.1458;"/><rect fill="#FFFFFF" height="46.9204" style="stroke:#000000;stroke-width:1.1458;" width="108.4385" x="95.0681" y="301.7802"/><text fill="#000000" font-family="Arial" font-size="14.8958" lengthAdjust="spacing" textLength="78.6468" x="109.9639" y="330.8918">User logs in</text><rect fill="#FFFFFF" height="46.9204" style="stroke:#000000;stroke-width:1.1458;" width="205.3196" x="46.6275" y="371.6173"/><text fill="#000000" font-family="Arial" font-size="14.8958" lengthAdjust="spacing" textLength="175.5279" x="61.5234" y="400.7289">System authenticates user</text><rect fill="#FFFFFF" height="46.9204" style="stroke:#000000;stroke-width:1.1458;" width="241.7591" x="28.4078" y="491.8711"/><text fill="#000000" font-family="Arial" font-size="14.8958" lengthAdjust="spacing" textLength="211.9674" x="43.3036" y="520.9827">Learner browses course catalog</text><rect fill="#FFFFFF" height="46.9204" style="stroke:#000000;stroke-width:1.1458;" width="284.8246" x="6.875" y="561.7081"/><text fill="#000000" font-family="Arial" font-size="14.8958" lengthAdjust="spacing" textLength="255.033" x="21.7708" y="590.8198">Learner filters by category or language</text><rect fill="#FFFFFF" height="46.9204" style="stroke:#000000;stroke-width:1.1458;" width="193.7331" x="52.4208" y="631.5452"/><text fill="#000000" font-family="Arial" font-size="14.8958" lengthAdjust="spacing" textLength="163.9414" x="67.3166" y="660.6568">Learner enrolls in course</text><rect fill="#FFFFFF" height="46.9204" style="stroke:#000000;stroke-width:1.1458;" width="246.6977" x="25.9385" y="751.799"/><text fill="#000000" font-family="Arial" font-size="14.8958" lengthAdjust="spacing" textLength="216.906" x="40.8343" y="780.9106">System provides learning activity</text><rect fill="#FFFFFF" height="46.9204" style="stroke:#000000;stroke-width:1.1458;" width="259.9643" x="19.3052" y="838.8236"/><text fill="#000000" font-family="Arial" font-size="14.8958" lengthAdjust="spacing" textLength="230.1726" x="34.201" y="867.9352">Learner completes learning activity</text><rect fill="#FFFFFF" height="46.9204" style="stroke:#000000;stroke-width:1.1458;" width="204.4904" x="47.0421" y="908.6607"/><text fill="#000000" font-family="Arial" font-size="14.8958" lengthAdjust="spacing" textLength="174.6987" x="61.9379" y="937.7723">System provides feedback</text><polygon fill="#FFFFFF" points="149.2873,701.3823,163.0373,715.1323,149.2873,728.8823,135.5373,715.1323,149.2873,701.3823" style="stroke:#000000;stroke-width:1.1458;"/><polygon fill="#FFFFFF" points="77.5348,978.4977,221.0398,978.4977,234.7898,992.2477,221.0398,1005.9977,77.5348,1005.9977,63.7848,992.2477,77.5348,978.4977" style="stroke:#000000;stroke-width:1.1458;"/><text fill="#000000" font-family="Arial" font-size="14.8958" lengthAdjust="spacing" textLength="136.63" x="80.9723" y="997.8991">Course not finished?</text><rect fill="#FFFFFF" height="46.9204" style="stroke:#000000;stroke-width:1.1458;" width="262.4881" x="18.0432" y="1028.9144"/><text fill="#000000" font-family="Arial" font-size="14.8958" lengthAdjust="spacing" textLength="232.6965" x="32.9391" y="1058.026">System updates points and badges</text><rect fill="#FFFFFF" height="46.9204" style="stroke:#000000;stroke-width:1.1458;" width="270.758" x="13.9083" y="1098.7515"/><text fill="#000000" font-family="Arial" font-size="14.8958" lengthAdjust="spacing" textLength="240.9663" x="28.8042" y="1127.8631">Learner checks leaderboard position</text><polygon fill="#FFFFFF" points="149.2873,441.4544,163.0373,455.2044,149.2873,468.9544,135.5373,455.2044,149.2873,441.4544" style="stroke:#000000;stroke-width:1.1458;"/><polygon fill="#FFFFFF" points="58.5077,1168.5886,240.0669,1168.5886,253.8169,1182.3386,240.0669,1196.0886,58.5077,1196.0886,44.7577,1182.3386,58.5077,1168.5886" style="stroke:#000000;stroke-width:1.1458;"/><text fill="#000000" font-family="Arial" font-size="14.8958" lengthAdjust="spacing" textLength="174.6842" x="61.9452" y="1187.99">User wants to learn more?</text><rect fill="#FFFFFF" height="46.9204" style="stroke:#000000;stroke-width:1.1458;" width="235.9477" x="309.0611" y="795.3113"/><text fill="#000000" font-family="Arial" font-size="14.8958" lengthAdjust="spacing" textLength="206.156" x="323.957" y="824.4229">Learner explores more courses</text><rect fill="#FFFFFF" height="46.9204" style="stroke:#000000;stroke-width:1.1458;" width="117.552" x="90.5113" y="1219.0053"/><text fill="#000000" font-family="Arial" font-size="14.8958" lengthAdjust="spacing" textLength="87.7603" x="105.4072" y="1248.1169">User logs out</text><ellipse cx="149.2873" cy="1301.4465" fill="none" rx="12.6042" ry="12.6042" style="stroke:#000000;stroke-width:1.1458;"/><ellipse cx="149.2873" cy="1301.4465" fill="#FFFFFF" rx="6.875" ry="6.875" style="stroke:#000000;stroke-width:1.1458;"/><line style="stroke:#000000;stroke-width:1.1458;" x1="149.2873" x2="149.2873" y1="28.6458" y2="51.5625"/><polygon fill="#000000" points="144.704,40.1042,149.2873,51.5625,153.8706,40.1042,149.2873,44.6875" style="stroke:#000000;stroke-width:1.1458;"/><line style="stroke:#000000;stroke-width:1.1458;" x1="149.2873" x2="149.2873" y1="148.8996" y2="181.5265"/><polygon fill="#000000" points="144.704,170.0681,149.2873,181.5265,153.8706,170.0681,149.2873,174.6515" style="stroke:#000000;stroke-width:1.1458;"/><line style="stroke:#000000;stroke-width:1.1458;" x1="212.0169" x2="225.7669" y1="135.1496" y2="135.1496"/><polygon fill="#000000" points="221.1836,196.9658,225.7669,208.4242,230.3503,196.9658,225.7669,201.5492" style="stroke:#000000;stroke-width:1.1458;"/><line style="stroke:#000000;stroke-width:1.1458;" x1="225.7669" x2="225.7669" y1="135.1496" y2="265.1136"/><line style="stroke:#000000;stroke-width:1.1458;" x1="225.7669" x2="163.0373" y1="265.1136" y2="265.1136"/><polygon fill="#000000" points="174.4956,260.5302,163.0373,265.1136,174.4956,269.6969,169.9123,265.1136" style="stroke:#000000;stroke-width:1.1458;"/><line style="stroke:#000000;stroke-width:1.1458;" x1="149.2873" x2="149.2873" y1="228.4469" y2="251.3636"/><polygon fill="#000000" points="144.704,239.9052,149.2873,251.3636,153.8706,239.9052,149.2873,244.4886" style="stroke:#000000;stroke-width:1.1458;"/><line style="stroke:#000000;stroke-width:1.1458;" x1="149.2873" x2="149.2873" y1="98.4829" y2="121.3996"/><polygon fill="#000000" points="144.704,109.9413,149.2873,121.3996,153.8706,109.9413,149.2873,114.5246" style="stroke:#000000;stroke-width:1.1458;"/><line style="stroke:#000000;stroke-width:1.1458;" x1="149.2873" x2="149.2873" y1="278.8636" y2="301.7802"/><polygon fill="#000000" points="144.704,290.3219,149.2873,301.7802,153.8706,290.3219,149.2873,294.9052" style="stroke:#000000;stroke-width:1.1458;"/><line style="stroke:#000000;stroke-width:1.1458;" x1="149.2873" x2="149.2873" y1="348.7006" y2="371.6173"/><polygon fill="#000000" points="144.704,360.159,149.2873,371.6173,153.8706,360.159,149.2873,364.7423" style="stroke:#000000;stroke-width:1.1458;"/><line style="stroke:#000000;stroke-width:1.1458;" x1="149.2873" x2="149.2873" y1="538.7915" y2="561.7081"/><polygon fill="#000000" points="144.704,550.2498,149.2873,561.7081,153.8706,550.2498,149.2873,554.8331" style="stroke:#000000;stroke-width:1.1458;"/><line style="stroke:#000000;stroke-width:1.1458;" x1="149.2873" x2="149.2873" y1="608.6286" y2="631.5452"/><polygon fill="#000000" points="144.704,620.0869,149.2873,631.5452,153.8706,620.0869,149.2873,624.6702" style="stroke:#000000;stroke-width:1.1458;"/><line style="stroke:#000000;stroke-width:1.1458;" x1="149.2873" x2="149.2873" y1="798.7194" y2="838.8236"/><polygon fill="#000000" points="144.704,827.3652,149.2873,838.8236,153.8706,827.3652,149.2873,831.9486" style="stroke:#000000;stroke-width:1.1458;"/><line style="stroke:#000000;stroke-width:1.1458;" x1="149.2873" x2="149.2873" y1="885.744" y2="908.6607"/><polygon fill="#000000" points="144.704,897.2023,149.2873,908.6607,153.8706,897.2023,149.2873,901.7857" style="stroke:#000000;stroke-width:1.1458;"/><line style="stroke:#000000;stroke-width:1.1458;" x1="149.2873" x2="149.2873" y1="728.8823" y2="751.799"/><polygon fill="#000000" points="144.704,740.3407,149.2873,751.799,153.8706,740.3407,149.2873,744.924" style="stroke:#000000;stroke-width:1.1458;"/><line style="stroke:#000000;stroke-width:1.1458;" x1="234.7898" x2="293.0195" y1="992.2477" y2="992.2477"/><polygon fill="#000000" points="288.4361,873.7421,293.0195,862.2838,297.6028,873.7421,293.0195,869.1588" style="stroke:#000000;stroke-width:1.1458;"/><line style="stroke:#000000;stroke-width:1.1458;" x1="293.0195" x2="293.0195" y1="715.1323" y2="992.2477"/><line style="stroke:#000000;stroke-width:1.1458;" x1="293.0195" x2="163.0373" y1="715.1323" y2="715.1323"/><polygon fill="#000000" points="174.4956,710.549,163.0373,715.1323,174.4956,719.7157,169.9123,715.1323" style="stroke:#000000;stroke-width:1.1458;"/><line style="stroke:#000000;stroke-width:1.1458;" x1="149.2873" x2="149.2873" y1="955.5811" y2="978.4977"/><polygon fill="#000000" points="144.704,967.0394,149.2873,978.4977,153.8706,967.0394,149.2873,971.6227" style="stroke:#000000;stroke-width:1.1458;"/><line style="stroke:#000000;stroke-width:1.1458;" x1="149.2873" x2="149.2873" y1="678.4657" y2="701.3823"/><polygon fill="#000000" points="144.704,689.924,149.2873,701.3823,153.8706,689.924,149.2873,694.5073" style="stroke:#000000;stroke-width:1.1458;"/><line style="stroke:#000000;stroke-width:1.1458;" x1="149.2873" x2="149.2873" y1="1005.9977" y2="1028.9144"/><polygon fill="#000000" points="144.704,1017.4561,149.2873,1028.9144,153.8706,1017.4561,149.2873,1022.0394" style="stroke:#000000;stroke-width:1.1458;"/><line style="stroke:#000000;stroke-width:1.1458;" x1="149.2873" x2="149.2873" y1="1075.8348" y2="1098.7515"/><polygon fill="#000000" points="144.704,1087.2932,149.2873,1098.7515,153.8706,1087.2932,149.2873,1091.8765" style="stroke:#000000;stroke-width:1.1458;"/><line style="stroke:#000000;stroke-width:1.1458;" x1="149.2873" x2="149.2873" y1="468.9544" y2="491.8711"/><polygon fill="#000000" points="144.704,480.4127,149.2873,491.8711,153.8706,480.4127,149.2873,484.9961" style="stroke:#000000;stroke-width:1.1458;"/><line style="stroke:#000000;stroke-width:1.1458;" x1="253.8169" x2="427.035" y1="1182.3386" y2="1182.3386"/><line style="stroke:#000000;stroke-width:1.1458;" x1="427.035" x2="427.035" y1="842.2317" y2="1182.3386"/><polygon fill="#000000" points="422.4516,853.69,427.035,842.2317,431.6183,853.69,427.035,849.1067" style="stroke:#000000;stroke-width:1.1458;"/><line style="stroke:#000000;stroke-width:1.1458;" x1="427.035" x2="427.035" y1="455.2044" y2="795.3113"/><line style="stroke:#000000;stroke-width:1.1458;" x1="427.035" x2="163.0373" y1="455.2044" y2="455.2044"/><polygon fill="#000000" points="174.4956,450.6211,163.0373,455.2044,174.4956,459.7877,169.9123,455.2044" style="stroke:#000000;stroke-width:1.1458;"/><line style="stroke:#000000;stroke-width:1.1458;" x1="149.2873" x2="149.2873" y1="1145.6719" y2="1168.5886"/><polygon fill="#000000" points="144.704,1157.1303,149.2873,1168.5886,153.8706,1157.1303,149.2873,1161.7136" style="stroke:#000000;stroke-width:1.1458;"/><line style="stroke:#000000;stroke-width:1.1458;" x1="149.2873" x2="149.2873" y1="418.5377" y2="441.4544"/><polygon fill="#000000" points="144.704,429.9961,149.2873,441.4544,153.8706,429.9961,149.2873,434.5794" style="stroke:#000000;stroke-width:1.1458;"/><line style="stroke:#000000;stroke-width:1.1458;" x1="149.2873" x2="149.2873" y1="1196.0886" y2="1219.0053"/><polygon fill="#000000" points="144.704,1207.5469,149.2873,1219.0053,153.8706,1207.5469,149.2873,1212.1303" style="stroke:#000000;stroke-width:1.1458;"/><line style="stroke:#000000;stroke-width:1.1458;" x1="149.2873" x2="149.2873" y1="1265.9257" y2="1288.8423"/><polygon fill="#000000" points="144.704,1277.384,149.2873,1288.8423,153.8706,1277.384,149.2873,1281.9673" style="stroke:#000000;stroke-width:1.1458;"/><!--SRC=[XLAzRjmm3Dxz5Efs6NeEWaxd8KEN30bGeCa3q1Pj4v54GQBElRSlPVkGwotruC7y_iZFtoWChbWqiqZCfxPDi1mdahdq9MCQE0W6EGxisp6XvUpW_FJu-ADzeq0UtFkC7dzzlBss2SVSpWWsjnuej7u3V9UAECRYNPC5aZId3nKsC0oOCsOJ7SZ8oNSDZURm0hcEk0HvVZ3A3UOG-A4n-cp4X1DbmPIx1eEbSTTpF6L3eMjEloywzWPAPGiD8EfIb-cQX151Dh5NX1IKs2TUQWxrJ1cDma6rkdz18xbgQVfB1U34wM9OJI5C1IQyGsD8x5oDiwjkynlt5Ru7ZOdFP3M1gtGAanv0w4nowRwmLsaj8ZgK_w3lbKT4syFmUPl3B3CvD8UVszw1HRSCb6Uqp_kzTvaIxNh3o1H4wmdMz60dp7Th3pCEdsimYwbdI5OfcOHOQwdsYtxwEjAVw3YfhDVtVgTyhUWQRgrsWMehlAsyuZNXJUrSfDEVY-DV]--></g></svg>