<?xml version="1.0" encoding="us-ascii" standalone="no"?><svg xmlns="http://www.w3.org/2000/svg" xmlns:xlink="http://www.w3.org/1999/xlink" contentStyleType="text/css" height="436.5625px" preserveAspectRatio="none" style="width:2500px;height:436px;background:#FFFFFF;" version="1.1" viewBox="0 0 2500 436" width="2500.2083px" zoomAndPan="magnify"><defs/><g><rect fill="none" height="47.3205" id="_title" rx="8.5938" ry="8.5938" style="stroke:#000000;stroke-width:2.2916666666666665;" width="444.5833" x="1022.9427" y="11.4583"/><text fill="#000000" font-family="Arial" font-size="25.2083" font-weight="bold" lengthAdjust="spacing" textLength="426.25" x="1032.1094" y="44.2701">Summary DataServer Class Diagram</text><!--cluster service--><g id="cluster_service"><rect fill="#FFFFFF" height="127.1875" style="stroke:#000000;stroke-width:1.1458333333333333;" width="515.625" x="972.2396" y="73.6746"/><text fill="#000000" font-family="Arial" font-size="14.8958" font-weight="bold" lengthAdjust="spacing" textLength="51.5625" x="1204.2708" y="93.3759">service</text></g><!--cluster UserServiceGrpc--><g id="cluster_UserServiceGrpc"><rect fill="#FFFFFF" height="106.5625" style="stroke:#000000;stroke-width:1.1458333333333333;" width="187.9167" x="575.7813" y="228.3621"/><text fill="#000000" font-family="Arial" font-size="14.8958" font-weight="bold" lengthAdjust="spacing" textLength="121.4583" x="609.0104" y="248.0634">UserServiceGrpc</text></g><!--cluster CourseServiceGrpc--><g id="cluster_CourseServiceGrpc"><rect fill="#FFFFFF" height="106.5625" style="stroke:#000000;stroke-width:1.1458333333333333;" width="203.9583" x="2047.0312" y="228.3621"/><text fill="#000000" font-family="Arial" font-size="14.8958" font-weight="bold" lengthAdjust="spacing" textLength="139.7917" x="2079.1146" y="248.0634">CourseServiceGrpc</text></g><!--cluster ProgressServiceGrpc--><g id="cluster_ProgressServiceGrpc"><rect fill="#FFFFFF" height="106.5625" style="stroke:#000000;stroke-width:1.1458333333333333;" width="215.4167" x="2278.4896" y="228.3621"/><text fill="#000000" font-family="Arial" font-size="14.8958" font-weight="bold" lengthAdjust="spacing" textLength="152.3958" x="2310" y="248.0634">ProgressServiceGrpc</text></g><!--class UserServiceImpl--><g id="elem_UserServiceImpl"><rect codeLine="11" fill="#FFFFFF" height="64.5986" id="UserServiceImpl" style="stroke:#000000;stroke-width:1.1458333333333333;" width="118.0208" x="991.1458" y="118.3621"/><text fill="#666666" font-family="Hack" font-size="11.4583" font-style="italic" lengthAdjust="spacing" textLength="104.2708" x="998.0208" y="139.4235">&lt;&lt;@GrpcService&gt;&gt;</text><text fill="#000000" font-family="Arial" font-size="13.75" lengthAdjust="spacing" textLength="104.2708" x="998.0208" y="161.7136">UserServiceImpl</text><line style="stroke:#000000;stroke-width:1.1458333333333333;" x1="992.2917" x2="1108.0208" y1="173.794" y2="173.794"/></g><!--class CourseServiceImpl--><g id="elem_CourseServiceImpl"><rect codeLine="12" fill="#FFFFFF" height="64.5986" id="CourseServiceImpl" style="stroke:#000000;stroke-width:1.1458333333333333;" width="134.0625" x="1149.2708" y="118.3621"/><text fill="#666666" font-family="Hack" font-size="11.4583" font-style="italic" lengthAdjust="spacing" textLength="104.2708" x="1164.1667" y="139.4235">&lt;&lt;@GrpcService&gt;&gt;</text><text fill="#000000" font-family="Arial" font-size="13.75" lengthAdjust="spacing" textLength="120.3125" x="1156.1458" y="161.7136">CourseServiceImpl</text><line style="stroke:#000000;stroke-width:1.1458333333333333;" x1="1150.4167" x2="1282.1875" y1="173.794" y2="173.794"/></g><!--class ProgressServiceImpl--><g id="elem_ProgressServiceImpl"><rect codeLine="13" fill="#FFFFFF" height="64.5986" id="ProgressServiceImpl" style="stroke:#000000;stroke-width:1.1458333333333333;" width="145.5208" x="1323.4375" y="118.3621"/><text fill="#666666" font-family="Hack" font-size="11.4583" font-style="italic" lengthAdjust="spacing" textLength="104.2708" x="1344.0625" y="139.4235">&lt;&lt;@GrpcService&gt;&gt;</text><text fill="#000000" font-family="Arial" font-size="13.75" lengthAdjust="spacing" textLength="131.7708" x="1330.3125" y="161.7136">ProgressServiceImpl</text><line style="stroke:#000000;stroke-width:1.1458333333333333;" x1="1324.5833" x2="1467.8125" y1="173.794" y2="173.794"/></g><!--class UserServiceImplBase--><g id="elem_UserServiceImplBase"><rect fill="#FFFFFF" height="43.3112" id="UserServiceImplBase" style="stroke:#000000;stroke-width:1.1458333333333333;" width="151.25" x="594.1146" y="273.0496"/><text fill="#000000" font-family="Arial" font-size="13.75" lengthAdjust="spacing" textLength="137.5" x="600.9896" y="295.1136">UserServiceImplBase</text><line style="stroke:#000000;stroke-width:1.1458333333333333;" x1="595.2604" x2="744.2188" y1="307.1941" y2="307.1941"/></g><!--class CourseServiceImplBase--><g id="elem_CourseServiceImplBase"><rect fill="#FFFFFF" height="43.3112" id="CourseServiceImplBase" style="stroke:#000000;stroke-width:1.1458333333333333;" width="167.2917" x="2065.3646" y="273.0496"/><text fill="#000000" font-family="Arial" font-size="13.75" lengthAdjust="spacing" textLength="153.5417" x="2072.2396" y="295.1136">CourseServiceImplBase</text><line style="stroke:#000000;stroke-width:1.1458333333333333;" x1="2066.5104" x2="2231.5104" y1="307.1941" y2="307.1941"/></g><!--class ProgressServiceImplBase--><g id="elem_ProgressServiceImplBase"><rect fill="#FFFFFF" height="43.3112" id="ProgressServiceImplBase" style="stroke:#000000;stroke-width:1.1458333333333333;" width="178.75" x="2296.8229" y="273.0496"/><text fill="#000000" font-family="Arial" font-size="13.75" lengthAdjust="spacing" textLength="165" x="2303.6979" y="295.1136">ProgressServiceImplBase</text><line style="stroke:#000000;stroke-width:1.1458333333333333;" x1="2297.9688" x2="2474.4271" y1="307.1941" y2="307.1941"/></g><!--class SystemUserRepository--><g id="elem_SystemUserRepository"><rect fill="#FFFFFF" height="43.3112" id="SystemUserRepository" style="stroke:#000000;stroke-width:1.1458333333333333;" width="159.2708" x="394.1667" y="273.0496"/><text fill="#000000" font-family="Arial" font-size="13.75" lengthAdjust="spacing" textLength="145.5208" x="401.0417" y="295.1136">SystemUserRepository</text><line style="stroke:#000000;stroke-width:1.1458333333333333;" x1="395.3125" x2="552.2917" y1="307.1941" y2="307.1941"/></g><!--class JpaRepository--><g id="elem_JpaRepository"><rect fill="#FFFFFF" height="43.3112" id="JpaRepository" style="stroke:#000000;stroke-width:1.1458333333333333;" width="104.2708" x="1062.1875" y="385.3413"/><text fill="#000000" font-family="Arial" font-size="13.75" lengthAdjust="spacing" textLength="90.5208" x="1069.0625" y="407.4053">JpaRepository</text><line style="stroke:#000000;stroke-width:1.1458333333333333;" x1="1063.3333" x2="1165.3125" y1="419.4858" y2="419.4858"/></g><!--class RoleRepository--><g id="elem_RoleRepository"><rect fill="#FFFFFF" height="43.3112" id="RoleRepository" style="stroke:#000000;stroke-width:1.1458333333333333;" width="111.1458" x="242.9167" y="273.0496"/><text fill="#000000" font-family="Arial" font-size="13.75" lengthAdjust="spacing" textLength="97.3958" x="249.7917" y="295.1136">RoleRepository</text><line style="stroke:#000000;stroke-width:1.1458333333333333;" x1="244.0625" x2="352.9167" y1="307.1941" y2="307.1941"/></g><!--class SystemUserRoleRepository--><g id="elem_SystemUserRoleRepository"><rect fill="#FFFFFF" height="43.3112" id="SystemUserRoleRepository" style="stroke:#000000;stroke-width:1.1458333333333333;" width="189.0625" x="13.75" y="273.0496"/><text fill="#000000" font-family="Arial" font-size="13.75" lengthAdjust="spacing" textLength="175.3125" x="20.625" y="295.1136">SystemUserRoleRepository</text><line style="stroke:#000000;stroke-width:1.1458333333333333;" x1="14.8958" x2="201.6667" y1="307.1941" y2="307.1941"/></g><!--class CourseRepository--><g id="elem_CourseRepository"><rect fill="#FFFFFF" height="43.3112" id="CourseRepository" style="stroke:#000000;stroke-width:1.1458333333333333;" width="128.3333" x="1639.1146" y="273.0496"/><text fill="#000000" font-family="Arial" font-size="13.75" lengthAdjust="spacing" textLength="114.5833" x="1645.9896" y="295.1136">CourseRepository</text><line style="stroke:#000000;stroke-width:1.1458333333333333;" x1="1640.2604" x2="1766.3021" y1="307.1941" y2="307.1941"/></g><!--class CourseCategoryRepository--><g id="elem_CourseCategoryRepository"><rect fill="#FFFFFF" height="43.3112" id="CourseCategoryRepository" style="stroke:#000000;stroke-width:1.1458333333333333;" width="184.4792" x="1022.0833" y="273.0496"/><text fill="#000000" font-family="Arial" font-size="13.75" lengthAdjust="spacing" textLength="170.7292" x="1028.9583" y="295.1136">CourseCategoryRepository</text><line style="stroke:#000000;stroke-width:1.1458333333333333;" x1="1023.2292" x2="1205.4167" y1="307.1941" y2="307.1941"/></g><!--class LanguageRepository--><g id="elem_LanguageRepository"><rect fill="#FFFFFF" height="43.3112" id="LanguageRepository" style="stroke:#000000;stroke-width:1.1458333333333333;" width="145.5208" x="1246.6667" y="273.0496"/><text fill="#000000" font-family="Arial" font-size="13.75" lengthAdjust="spacing" textLength="131.7708" x="1253.5417" y="295.1136">LanguageRepository</text><line style="stroke:#000000;stroke-width:1.1458333333333333;" x1="1247.8125" x2="1391.0417" y1="307.1941" y2="307.1941"/></g><!--class LearningStepRepository--><g id="elem_LearningStepRepository"><rect fill="#FFFFFF" height="43.3112" id="LearningStepRepository" style="stroke:#000000;stroke-width:1.1458333333333333;" width="166.1458" x="1432.2917" y="273.0496"/><text fill="#000000" font-family="Arial" font-size="13.75" lengthAdjust="spacing" textLength="152.3958" x="1439.1667" y="295.1136">LearningStepRepository</text><line style="stroke:#000000;stroke-width:1.1458333333333333;" x1="1433.4375" x2="1597.2917" y1="307.1941" y2="307.1941"/></g><!--class LearningStepTypeRepository--><g id="elem_LearningStepTypeRepository"><rect fill="#FFFFFF" height="43.3112" id="LearningStepTypeRepository" style="stroke:#000000;stroke-width:1.1458333333333333;" width="195.9375" x="786.0417" y="273.0496"/><text fill="#000000" font-family="Arial" font-size="13.75" lengthAdjust="spacing" textLength="182.1875" x="792.9167" y="295.1136">LearningStepTypeRepository</text><line style="stroke:#000000;stroke-width:1.1458333333333333;" x1="787.1875" x2="980.8333" y1="307.1941" y2="307.1941"/></g><!--class UserCourseProgressRepository--><g id="elem_UserCourseProgressRepository"><rect fill="#FFFFFF" height="43.3112" id="UserCourseProgressRepository" style="stroke:#000000;stroke-width:1.1458333333333333;" width="217.7083" x="1807.5521" y="273.0496"/><text fill="#000000" font-family="Arial" font-size="13.75" lengthAdjust="spacing" textLength="203.9583" x="1814.4271" y="295.1136">UserCourseProgressRepository</text><line style="stroke:#000000;stroke-width:1.1458333333333333;" x1="1808.6979" x2="2024.1146" y1="307.1941" y2="307.1941"/></g><!--link SystemUserRepository to JpaRepository--><g id="link_SystemUserRepository_JpaRepository"><path codeLine="20" d="M473.8021,316.8434 C473.8021,348.6517 473.8021,403.6746 473.8021,403.6746 C473.8021,403.6746 888.3073,403.6746 1041.276,403.6746 " fill="none" id="SystemUserRepository-to-JpaRepository" style="stroke:#000000;stroke-width:1.1458333333333333;"/><polygon fill="none" points="1061.901,403.6746,1041.276,396.7996,1041.276,410.5496,1061.901,403.6746" style="stroke:#000000;stroke-width:1.1458333333333333;"/></g><!--link RoleRepository to JpaRepository--><g id="link_RoleRepository_JpaRepository"><path codeLine="21" d="M298.4896,316.809 C298.4896,350.6569 298.4896,411.6955 298.4896,411.6955 C298.4896,411.6955 861.3573,411.6955 1041.425,411.6955 " fill="none" id="RoleRepository-to-JpaRepository" style="stroke:#000000;stroke-width:1.1458333333333333;"/><polygon fill="none" points="1062.05,411.6955,1041.425,404.8205,1041.425,418.5705,1062.05,411.6955" style="stroke:#000000;stroke-width:1.1458333333333333;"/></g><!--link SystemUserRoleRepository to JpaRepository--><g id="link_SystemUserRoleRepository_JpaRepository"><path codeLine="22" d="M108.2813,316.7746 C108.2813,352.8913 108.2813,420.8621 108.2813,420.8621 C108.2813,420.8621 834.8656,420.8621 1041.3792,420.8621 " fill="none" id="SystemUserRoleRepository-to-JpaRepository" style="stroke:#000000;stroke-width:1.1458333333333333;"/><polygon fill="none" points="1062.0042,420.8621,1041.3792,413.9871,1041.3792,427.7371,1062.0042,420.8621" style="stroke:#000000;stroke-width:1.1458333333333333;"/></g><!--link CourseRepository to JpaRepository--><g id="link_CourseRepository_JpaRepository"><path codeLine="23" d="M1703.2813,316.809 C1703.2813,350.6569 1703.2813,411.6955 1703.2813,411.6955 C1703.2813,411.6955 1331.3552,411.6955 1187.2094,411.6955 " fill="none" id="CourseRepository-to-JpaRepository" style="stroke:#000000;stroke-width:1.1458333333333333;"/><polygon fill="none" points="1166.5844,411.6955,1187.2094,418.5705,1187.2094,404.8205,1166.5844,411.6955" style="stroke:#000000;stroke-width:1.1458333333333333;"/></g><!--link CourseCategoryRepository to JpaRepository--><g id="link_CourseCategoryRepository_JpaRepository"><path codeLine="24" d="M1114.3229,317.0038 C1114.3229,336.6892 1114.3229,344.6757 1114.3229,364.3496 " fill="none" id="CourseCategoryRepository-to-JpaRepository" style="stroke:#000000;stroke-width:1.1458333333333333;"/><polygon fill="none" points="1114.3229,384.9746,1121.1979,364.3496,1107.4479,364.3496,1114.3229,384.9746" style="stroke:#000000;stroke-width:1.1458333333333333;"/></g><!--link LanguageRepository to JpaRepository--><g id="link_LanguageRepository_JpaRepository"><path codeLine="25" d="M1319.4271,316.9465 C1319.4271,346.3142 1319.4271,394.508 1319.4271,394.508 C1319.4271,394.508 1248.0073,394.508 1187.2323,394.508 " fill="none" id="LanguageRepository-to-JpaRepository" style="stroke:#000000;stroke-width:1.1458333333333333;"/><polygon fill="none" points="1166.6073,394.508,1187.2323,401.383,1187.2323,387.633,1166.6073,394.508" style="stroke:#000000;stroke-width:1.1458333333333333;"/></g><!--link LearningStepRepository to JpaRepository--><g id="link_LearningStepRepository_JpaRepository"><path codeLine="26" d="M1515.3646,316.8434 C1515.3646,348.6517 1515.3646,403.6746 1515.3646,403.6746 C1515.3646,403.6746 1296.0865,403.6746 1187.3813,403.6746 " fill="none" id="LearningStepRepository-to-JpaRepository" style="stroke:#000000;stroke-width:1.1458333333333333;"/><polygon fill="none" points="1166.7563,403.6746,1187.3813,410.5496,1187.3813,396.7996,1166.7563,403.6746" style="stroke:#000000;stroke-width:1.1458333333333333;"/></g><!--link LearningStepTypeRepository to JpaRepository--><g id="link_LearningStepTypeRepository_JpaRepository"><path codeLine="27" d="M884.0104,316.9465 C884.0104,346.3142 884.0104,394.508 884.0104,394.508 C884.0104,394.508 973.4885,394.508 1041.4365,394.508 " fill="none" id="LearningStepTypeRepository-to-JpaRepository" style="stroke:#000000;stroke-width:1.1458333333333333;"/><polygon fill="none" points="1062.0615,394.508,1041.4365,387.633,1041.4365,401.383,1062.0615,394.508" style="stroke:#000000;stroke-width:1.1458333333333333;"/></g><!--link UserCourseProgressRepository to JpaRepository--><g id="link_UserCourseProgressRepository_JpaRepository"><path codeLine="28" d="M1916.4062,316.7746 C1916.4062,352.8913 1916.4062,420.8621 1916.4062,420.8621 C1916.4062,420.8621 1365.3521,420.8621 1187.2667,420.8621 " fill="none" id="UserCourseProgressRepository-to-JpaRepository" style="stroke:#000000;stroke-width:1.1458333333333333;"/><polygon fill="none" points="1166.6417,420.8621,1187.2667,427.7371,1187.2667,413.9871,1166.6417,420.8621" style="stroke:#000000;stroke-width:1.1458333333333333;"/></g><!--link UserServiceImpl to UserServiceImplBase--><g id="link_UserServiceImpl_UserServiceImplBase"><path codeLine="31" d="M991.1344,169.9246 C884.2854,169.9246 669.7396,169.9246 669.7396,169.9246 C669.7396,169.9246 669.7396,216.2965 669.7396,252.1496 " fill="none" id="UserServiceImpl-to-UserServiceImplBase" style="stroke:#000000;stroke-width:1.1458333333333333;"/><polygon fill="none" points="669.7396,272.7746,676.6146,252.1496,662.8646,252.1496,669.7396,272.7746" style="stroke:#000000;stroke-width:1.1458333333333333;"/></g><!--link CourseServiceImpl to CourseServiceImplBase--><g id="link_CourseServiceImpl_CourseServiceImplBase"><path codeLine="32" d="M1277.226,182.5517 C1277.226,189.0715 1277.226,193.9871 1277.226,193.9871 C1277.226,193.9871 2149.0104,193.9871 2149.0104,193.9871 C2149.0104,193.9871 2149.0104,222.6559 2149.0104,252.3215 " fill="none" id="CourseServiceImpl-to-CourseServiceImplBase" style="stroke:#000000;stroke-width:1.1458333333333333;"/><polygon fill="none" points="2149.0104,272.9465,2155.8854,252.3215,2142.1354,252.3215,2149.0104,272.9465" style="stroke:#000000;stroke-width:1.1458333333333333;"/></g><!--link ProgressServiceImpl to ProgressServiceImplBase--><g id="link_ProgressServiceImpl_ProgressServiceImplBase"><path codeLine="33" d="M1468.9927,134.4038 C1697.6208,134.4038 2386.1979,134.4038 2386.1979,134.4038 C2386.1979,134.4038 2386.1979,208.2871 2386.1979,252.2298 " fill="none" id="ProgressServiceImpl-to-ProgressServiceImplBase" style="stroke:#000000;stroke-width:1.1458333333333333;"/><polygon fill="none" points="2386.1979,272.8548,2393.0729,252.2298,2379.3229,252.2298,2386.1979,272.8548" style="stroke:#000000;stroke-width:1.1458333333333333;"/></g><!--link UserServiceImpl to SystemUserRepository--><g id="link_UserServiceImpl_SystemUserRepository"><path codeLine="36" d="M991.0771,157.3205 C836.8479,157.3205 433.9844,157.3205 433.9844,157.3205 C433.9844,157.3205 433.9844,227.3882 433.9844,266.1632 " fill="none" id="UserServiceImpl-to-SystemUserRepository" style="stroke:#000000;stroke-width:1.1458333333333333;"/><polygon fill="#000000" points="433.9844,273.0382,438.5677,262.7257,433.9844,267.309,429.401,262.7257,433.9844,273.0382" style="stroke:#000000;stroke-width:1.1458333333333333;"/><text fill="#000000" font-family="Arial" font-size="14.8958" lengthAdjust="spacing" textLength="32.0833" x="618.0052" y="150.6676">uses</text></g><!--link UserServiceImpl to SystemUserRoleRepository--><g id="link_UserServiceImpl_SystemUserRoleRepository"><path codeLine="37" d="M990.8823,132.1121 C784.2542,132.1121 108.2813,132.1121 108.2813,132.1121 C108.2813,132.1121 108.2813,221.5902 108.2813,266.0027 " fill="none" id="UserServiceImpl-to-SystemUserRoleRepository" style="stroke:#000000;stroke-width:1.1458333333333333;"/><polygon fill="#000000" points="108.2813,272.8777,112.8646,262.5652,108.2813,267.1486,103.6979,262.5652,108.2813,272.8777" style="stroke:#000000;stroke-width:1.1458333333333333;"/><text fill="#000000" font-family="Arial" font-size="14.8958" lengthAdjust="spacing" textLength="32.0833" x="442.5323" y="125.4592">uses</text></g><!--link UserServiceImpl to RoleRepository--><g id="link_UserServiceImpl_RoleRepository"><path codeLine="38" d="M990.8594,144.7163 C813.3698,144.7163 298.4896,144.7163 298.4896,144.7163 C298.4896,144.7163 298.4896,224.4892 298.4896,266.1173 " fill="none" id="UserServiceImpl-to-RoleRepository" style="stroke:#000000;stroke-width:1.1458333333333333;"/><polygon fill="#000000" points="298.4896,272.9923,303.0729,262.6798,298.4896,267.2632,293.9063,262.6798,298.4896,272.9923" style="stroke:#000000;stroke-width:1.1458333333333333;"/><text fill="#000000" font-family="Arial" font-size="14.8958" lengthAdjust="spacing" textLength="32.0833" x="543.8698" y="138.0634">uses</text></g><!--link CourseServiceImpl to CourseRepository--><g id="link_CourseServiceImpl_CourseRepository"><path codeLine="40" d="M1265,182.7121 C1265,208.31 1265,239.8205 1265,239.8205 C1265,239.8205 1681.8885,239.8205 1681.8885,239.8205 C1681.8885,239.8205 1681.8885,250.5913 1681.8885,265.8882 " fill="none" id="CourseServiceImpl-to-CourseRepository" style="stroke:#000000;stroke-width:1.1458333333333333;"/><polygon fill="#000000" points="1681.8885,272.7632,1686.4719,262.4507,1681.8885,267.034,1677.3052,262.4507,1681.8885,272.7632" style="stroke:#000000;stroke-width:1.1458333333333333;"/><text fill="#000000" font-family="Arial" font-size="14.8958" lengthAdjust="spacing" textLength="32.0833" x="1424.6948" y="233.1676">uses</text></g><!--link CourseServiceImpl to LearningStepRepository--><g id="link_CourseServiceImpl_LearningStepRepository"><path codeLine="41" d="M1258.8927,182.6205 C1258.8927,215.8038 1258.8927,262.7371 1258.8927,262.7371 C1258.8927,262.7371 1450.625,262.7371 1450.625,262.7371 C1450.625,262.7371 1450.625,260.3767 1450.625,266.0142 " fill="none" id="CourseServiceImpl-to-LearningStepRepository" style="stroke:#000000;stroke-width:1.1458333333333333;"/><polygon fill="#000000" points="1450.625,272.8892,1455.2083,262.5767,1450.625,267.16,1446.0417,262.5767,1450.625,272.8892" style="stroke:#000000;stroke-width:1.1458333333333333;"/><text fill="#000000" font-family="Arial" font-size="14.8958" lengthAdjust="spacing" textLength="32.0833" x="1283.1042" y="256.0842">uses</text></g><!--link CourseServiceImpl to LearningStepTypeRepository--><g id="link_CourseServiceImpl_LearningStepTypeRepository"><path codeLine="42" d="M1177.9167,182.9069 C1177.9167,212.3777 1177.9167,251.2788 1177.9167,251.2788 C1177.9167,251.2788 884.0104,251.2788 884.0104,251.2788 C884.0104,251.2788 884.0104,254.9569 884.0104,265.659 " fill="none" id="CourseServiceImpl-to-LearningStepTypeRepository" style="stroke:#000000;stroke-width:1.1458333333333333;"/><polygon fill="#000000" points="884.0104,272.534,888.5937,262.2215,884.0104,266.8048,879.4271,262.2215,884.0104,272.534" style="stroke:#000000;stroke-width:1.1458333333333333;"/><text fill="#000000" font-family="Arial" font-size="14.8958" lengthAdjust="spacing" textLength="32.0833" x="1017.8552" y="244.6259">uses</text></g><!--link CourseServiceImpl to LanguageRepository--><g id="link_CourseServiceImpl_LanguageRepository"><path codeLine="43" d="M1252.774,182.8496 C1252.774,210.2809 1252.774,241.9975 1252.774,265.9569 " fill="none" id="CourseServiceImpl-to-LanguageRepository" style="stroke:#000000;stroke-width:1.1458333333333333;"/><polygon fill="#000000" points="1252.774,272.8319,1257.3573,262.5194,1252.774,267.1027,1248.1906,262.5194,1252.774,272.8319" style="stroke:#000000;stroke-width:1.1458333333333333;"/><text fill="#000000" font-family="Arial" font-size="14.8958" lengthAdjust="spacing" textLength="32.0833" x="1216.1073" y="221.1822">uses</text></g><!--link CourseServiceImpl to CourseCategoryRepository--><g id="link_CourseServiceImpl_CourseCategoryRepository"><path codeLine="44" d="M1192.2396,182.8496 C1192.2396,210.2809 1192.2396,241.9975 1192.2396,265.9569 " fill="none" id="CourseServiceImpl-to-CourseCategoryRepository" style="stroke:#000000;stroke-width:1.1458333333333333;"/><polygon fill="#000000" points="1192.2396,272.8319,1196.8229,262.5194,1192.2396,267.1027,1187.6563,262.5194,1192.2396,272.8319" style="stroke:#000000;stroke-width:1.1458333333333333;"/><text fill="#000000" font-family="Arial" font-size="14.8958" lengthAdjust="spacing" textLength="32.0833" x="1155.5729" y="221.1822">uses</text></g><!--link CourseServiceImpl to UserCourseProgressRepository--><g id="link_CourseServiceImpl_UserCourseProgressRepository"><path codeLine="45" d="M1271.1073,182.5861 C1271.1073,204.0475 1271.1073,228.3621 1271.1073,228.3621 C1271.1073,228.3621 1880.1177,228.3621 1880.1177,228.3621 C1880.1177,228.3621 1880.1177,246.4777 1880.1177,265.8194 " fill="none" id="CourseServiceImpl-to-UserCourseProgressRepository" style="stroke:#000000;stroke-width:1.1458333333333333;"/><polygon fill="#000000" points="1880.1177,272.6944,1884.701,262.3819,1880.1177,266.9652,1875.5344,262.3819,1880.1177,272.6944" style="stroke:#000000;stroke-width:1.1458333333333333;"/><text fill="#000000" font-family="Arial" font-size="14.8958" lengthAdjust="spacing" textLength="32.0833" x="1538.224" y="221.7092">uses</text></g><!--link CourseServiceImpl to SystemUserRepository--><g id="link_CourseServiceImpl_SystemUserRepository"><path codeLine="46" d="M1163.5938,182.758 C1163.5938,194.7319 1163.5938,205.4455 1163.5938,205.4455 C1163.5938,205.4455 473.8021,205.4455 473.8021,205.4455 C473.8021,205.4455 473.8021,239.385 473.8021,265.8538 " fill="none" id="CourseServiceImpl-to-SystemUserRepository" style="stroke:#000000;stroke-width:1.1458333333333333;"/><polygon fill="#000000" points="473.8021,272.7288,478.3854,262.4163,473.8021,266.9996,469.2187,262.4163,473.8021,272.7288" style="stroke:#000000;stroke-width:1.1458333333333333;"/><text fill="#000000" font-family="Arial" font-size="14.8958" lengthAdjust="spacing" textLength="32.0833" x="759.7333" y="198.7926">uses</text></g><!--link ProgressServiceImpl to UserCourseProgressRepository--><g id="link_ProgressServiceImpl_UserCourseProgressRepository"><path codeLine="48" d="M1469.2333,150.4455 C1620.2083,150.4455 1952.6948,150.4455 1952.6948,150.4455 C1952.6948,150.4455 1952.6948,225.635 1952.6948,266.0142 " fill="none" id="ProgressServiceImpl-to-UserCourseProgressRepository" style="stroke:#000000;stroke-width:1.1458333333333333;"/><polygon fill="#000000" points="1952.6948,272.8892,1957.2781,262.5767,1952.6948,267.16,1948.1115,262.5767,1952.6948,272.8892" style="stroke:#000000;stroke-width:1.1458333333333333;"/><text fill="#000000" font-family="Arial" font-size="14.8958" lengthAdjust="spacing" textLength="32.0833" x="1735.525" y="143.7926">uses</text></g><!--link ProgressServiceImpl to SystemUserRepository--><g id="link_ProgressServiceImpl_SystemUserRepository"><path codeLine="49" d="M1357.8125,182.8955 C1357.8125,199.7621 1357.8125,216.9038 1357.8125,216.9038 C1357.8125,216.9038 513.6198,216.9038 513.6198,216.9038 C513.6198,216.9038 513.6198,242.7882 513.6198,265.8309 " fill="none" id="ProgressServiceImpl-to-SystemUserRepository" style="stroke:#000000;stroke-width:1.1458333333333333;"/><polygon fill="#000000" points="513.6198,272.7059,518.2031,262.3934,513.6198,266.9767,509.0365,262.3934,513.6198,272.7059" style="stroke:#000000;stroke-width:1.1458333333333333;"/><text fill="#000000" font-family="Arial" font-size="14.8958" lengthAdjust="spacing" textLength="32.0833" x="888.1583" y="210.2509">uses</text></g><!--link ProgressServiceImpl to CourseRepository--><g id="link_ProgressServiceImpl_CourseRepository"><path codeLine="50" d="M1469.0958,166.4871 C1565.8615,166.4871 1724.674,166.4871 1724.674,166.4871 C1724.674,166.4871 1724.674,229.1871 1724.674,265.8882 " fill="none" id="ProgressServiceImpl-to-CourseRepository" style="stroke:#000000;stroke-width:1.1458333333333333;"/><polygon fill="#000000" points="1724.674,272.7632,1729.2573,262.4507,1724.674,267.034,1720.0906,262.4507,1724.674,272.7632" style="stroke:#000000;stroke-width:1.1458333333333333;"/><text fill="#000000" font-family="Arial" font-size="14.8958" lengthAdjust="spacing" textLength="32.0833" x="1613.3562" y="159.8342">uses</text></g><!--SRC=[ZPJVRfim5CRl_HHURxPT4DfgkwcgQ2gHfaoj547w06Vc5BpWFx9DfcZRky-OLAK9E737ER_lu8_pmGSkMTEMI6ldjBrBKmE_5nLtTVkpjMYOaWwbMp0bqXU3fR8Dx6-lhx-aJrno0SssHe6RvwV7rE2BJMk4qgO2k4n53oIk8nQw5GqXba63z8RO7PSQ30Zgk6lmGPaIJQvQMMRAI3JqvkiuiwqvsqcqbjwIKAPNHIi4c0DTWOC2pTwhimOyiU9GUVaL8HhO3Ygatj2UCoH_2FNNHvea2QtoJKQBlc6xIkYnCE7P2uwjjT0DlR__zjreTYmjbmCqKwsnE1FU65KPRoAA_oE4z4VCiG77bRGrr_qHVID7hIntoZjVoneDTo2zjU9W7Ohku0CWIVukwGyDRoMIgmRZn63IHRPtFuV9m67bR-Fi8yYgzHkxG24OoMLLEDJpoUr1NvZRUUvF-xgeEE-tSLmRxLRfuovTM1Wv3L0G3uhTnXSdq0DO9ETn2j9tvI0-0uDyB61Xm4aZZ1Y1mv21hHLgb2LAnlqtycajVo7h_7qUCRYaen6ye_vtOY_nxuCMqOoJew_jzQsTu-FqHAfcQqxo5TUTvppAJtv3KLKqpr5bR9KJ8Pltk2bjx85Jcgdr_WS0]--></g></svg>