<svg xmlns="http://www.w3.org/2000/svg" xmlns:xlink="http://www.w3.org/1999/xlink" contentStyleType="text/css" data-diagram-type="ACTIVITY" height="712.7083px" preserveAspectRatio="none" style="width:776px;height:712px;background:#FFFFFF;" version="1.1" viewBox="0 0 776 712" width="776.875px" zoomAndPan="magnify"><defs/><g><rect fill="#FFFFFF" height="24.0038" style="stroke:#FFFFFF;stroke-width:1.1458;" width="751.4331" x="11.4583" y="6.875"/><ellipse cx="142.1113" cy="48.0663" fill="#FFFFFF" rx="11.4583" ry="11.4583" style="stroke:#000000;stroke-width:1.1458;"/><rect fill="#FFFFFF" height="46.9204" style="stroke:#000000;stroke-width:1.1458;" width="151.504" x="66.3593" y="82.4413"/><text fill="#000000" font-family="Arial" font-size="14.8958" lengthAdjust="spacing" textLength="121.7123" x="81.2551" y="111.5529">Initiate registration</text><rect fill="#FFFFFF" height="46.9204" style="stroke:#000000;stroke-width:1.1458;" width="247.5559" x="18.3333" y="222.1154"/><text fill="#000000" font-family="Arial" font-size="14.8958" lengthAdjust="spacing" textLength="217.7643" x="33.2292" y="251.227">Provide username and password</text><line style="stroke:#000000;stroke-width:1.1458;" x1="11.4583" x2="11.4583" y1="6.875" y2="705.3046"/><rect fill="#FFFFFF" height="46.9204" style="stroke:#000000;stroke-width:1.1458;" width="165.5852" x="403.0449" y="152.2783"/><text fill="#000000" font-family="Arial" font-size="14.8958" lengthAdjust="spacing" textLength="135.7936" x="417.9408" y="181.3899">Request user details</text><rect fill="#FFFFFF" height="46.9204" style="stroke:#000000;stroke-width:1.1458;" width="163.9342" x="403.8704" y="291.9525"/><text fill="#000000" font-family="Arial" font-size="14.8958" lengthAdjust="spacing" textLength="134.1425" x="418.7663" y="321.0641">Validate user details</text><polygon fill="#FFFFFF" points="414.9287,361.7896,556.7463,361.7896,570.4963,375.5396,556.7463,389.2896,414.9287,389.2896,401.1787,375.5396,414.9287,361.7896" style="stroke:#000000;stroke-width:1.1458;"/><text fill="#000000" font-family="Arial" font-size="14.8958" lengthAdjust="spacing" textLength="134.9426" x="418.3662" y="381.191">User already exists?</text><text fill="#000000" font-family="Arial" font-size="14.8958" lengthAdjust="spacing" textLength="23.1802" x="374.5611" y="369.1891">yes</text><text fill="#000000" font-family="Arial" font-size="14.8958" lengthAdjust="spacing" textLength="16.5687" x="573.9338" y="369.1891">no</text><rect fill="#FFFFFF" height="46.9204" style="stroke:#000000;stroke-width:1.1458;" width="167.2217" x="277.3476" y="400.7479"/><text fill="#000000" font-family="Arial" font-size="14.8958" lengthAdjust="spacing" textLength="137.4301" x="292.2434" y="429.8595">Show error message</text><ellipse cx="360.9585" cy="483.1892" fill="none" rx="12.6042" ry="12.6042" style="stroke:#000000;stroke-width:1.1458;"/><ellipse cx="360.9585" cy="483.1892" fill="#FFFFFF" rx="6.875" ry="6.875" style="stroke:#000000;stroke-width:1.1458;"/><rect fill="#FFFFFF" height="46.9204" style="stroke:#000000;stroke-width:1.1458;" width="163.9269" x="528.7531" y="400.7479"/><text fill="#000000" font-family="Arial" font-size="14.8958" lengthAdjust="spacing" textLength="134.1352" x="543.649" y="429.8595">Create user account</text><rect fill="#FFFFFF" height="46.9204" style="stroke:#000000;stroke-width:1.1458;" width="286.4611" x="467.486" y="470.585"/><text fill="#000000" font-family="Arial" font-size="14.8958" lengthAdjust="spacing" textLength="256.6695" x="482.3818" y="499.6966">Confirm registration and log the user in</text><rect fill="#FFFFFF" height="46.9204" style="stroke:#000000;stroke-width:1.1458;" width="145.7217" x="412.9767" y="540.4221"/><text fill="#000000" font-family="Arial" font-size="14.8958" lengthAdjust="spacing" textLength="115.93" x="427.8725" y="569.5337">Authenticate user</text><rect fill="#FFFFFF" height="46.9204" style="stroke:#000000;stroke-width:1.1458;" width="192.053" x="389.811" y="610.2592"/><text fill="#000000" font-family="Arial" font-size="14.8958" lengthAdjust="spacing" textLength="162.2613" x="404.7069" y="639.3708">Grant access to platform</text><ellipse cx="485.8375" cy="692.7004" fill="none" rx="12.6042" ry="12.6042" style="stroke:#000000;stroke-width:1.1458;"/><ellipse cx="485.8375" cy="692.7004" fill="#FFFFFF" rx="6.875" ry="6.875" style="stroke:#000000;stroke-width:1.1458;"/><line style="stroke:#000000;stroke-width:1.1458;" x1="270.4726" x2="270.4726" y1="6.875" y2="705.3046"/><line style="stroke:#000000;stroke-width:1.1458;" x1="758.5305" x2="758.5305" y1="6.875" y2="705.3046"/><line style="stroke:#000000;stroke-width:1.1458;" x1="142.1113" x2="142.1113" y1="59.5246" y2="82.4413"/><polygon fill="#000000" points="137.528,70.9829,142.1113,82.4413,146.6946,70.9829,142.1113,75.5663" style="stroke:#000000;stroke-width:1.1458;"/><line style="stroke:#000000;stroke-width:1.1458;" x1="360.9585" x2="360.9585" y1="447.6684" y2="470.585"/><polygon fill="#000000" points="356.3751,459.1267,360.9585,470.585,365.5418,459.1267,360.9585,463.71" style="stroke:#000000;stroke-width:1.1458;"/><line style="stroke:#000000;stroke-width:1.1458;" x1="610.7166" x2="610.7166" y1="447.6684" y2="470.585"/><polygon fill="#000000" points="606.1332,459.1267,610.7166,470.585,615.2999,459.1267,610.7166,463.71" style="stroke:#000000;stroke-width:1.1458;"/><line style="stroke:#000000;stroke-width:1.1458;" x1="401.1787" x2="360.9585" y1="375.5396" y2="375.5396"/><line style="stroke:#000000;stroke-width:1.1458;" x1="360.9585" x2="360.9585" y1="375.5396" y2="400.7479"/><polygon fill="#000000" points="356.3751,389.2896,360.9585,400.7479,365.5418,389.2896,360.9585,393.8729" style="stroke:#000000;stroke-width:1.1458;"/><line style="stroke:#000000;stroke-width:1.1458;" x1="570.4963" x2="610.7166" y1="375.5396" y2="375.5396"/><line style="stroke:#000000;stroke-width:1.1458;" x1="610.7166" x2="610.7166" y1="375.5396" y2="400.7479"/><polygon fill="#000000" points="606.1332,389.2896,610.7166,400.7479,615.2999,389.2896,610.7166,393.8729" style="stroke:#000000;stroke-width:1.1458;"/><line style="stroke:#000000;stroke-width:1.1458;" x1="610.7166" x2="610.7166" y1="517.5054" y2="523.2346"/><line style="stroke:#000000;stroke-width:1.1458;" x1="610.7166" x2="485.8375" y1="523.2346" y2="523.2346"/><line style="stroke:#000000;stroke-width:1.1458;" x1="485.8375" x2="485.8375" y1="523.2346" y2="540.4221"/><polygon fill="#000000" points="481.2542,528.9638,485.8375,540.4221,490.4209,528.9638,485.8375,533.5471" style="stroke:#000000;stroke-width:1.1458;"/><line style="stroke:#000000;stroke-width:1.1458;" x1="485.8375" x2="485.8375" y1="338.8729" y2="361.7896"/><polygon fill="#000000" points="481.2542,350.3313,485.8375,361.7896,490.4209,350.3313,485.8375,354.9146" style="stroke:#000000;stroke-width:1.1458;"/><line style="stroke:#000000;stroke-width:1.1458;" x1="485.8375" x2="485.8375" y1="587.3425" y2="610.2592"/><polygon fill="#000000" points="481.2542,598.8009,485.8375,610.2592,490.4209,598.8009,485.8375,603.3842" style="stroke:#000000;stroke-width:1.1458;"/><line style="stroke:#000000;stroke-width:1.1458;" x1="485.8375" x2="485.8375" y1="657.1796" y2="680.0963"/><polygon fill="#000000" points="481.2542,668.6379,485.8375,680.0963,490.4209,668.6379,485.8375,673.2213" style="stroke:#000000;stroke-width:1.1458;"/><line style="stroke:#000000;stroke-width:1.1458;" x1="142.1113" x2="142.1113" y1="129.3617" y2="135.0908"/><line style="stroke:#000000;stroke-width:1.1458;" x1="142.1113" x2="485.8375" y1="135.0908" y2="135.0908"/><line style="stroke:#000000;stroke-width:1.1458;" x1="485.8375" x2="485.8375" y1="135.0908" y2="152.2783"/><polygon fill="#000000" points="481.2542,140.82,485.8375,152.2783,490.4209,140.82,485.8375,145.4033" style="stroke:#000000;stroke-width:1.1458;"/><line style="stroke:#000000;stroke-width:1.1458;" x1="485.8375" x2="485.8375" y1="199.1988" y2="204.9279"/><line style="stroke:#000000;stroke-width:1.1458;" x1="485.8375" x2="142.1113" y1="204.9279" y2="204.9279"/><line style="stroke:#000000;stroke-width:1.1458;" x1="142.1113" x2="142.1113" y1="204.9279" y2="222.1154"/><polygon fill="#000000" points="137.528,210.6571,142.1113,222.1154,146.6946,210.6571,142.1113,215.2404" style="stroke:#000000;stroke-width:1.1458;"/><line style="stroke:#000000;stroke-width:1.1458;" x1="142.1113" x2="142.1113" y1="269.0358" y2="274.765"/><line style="stroke:#000000;stroke-width:1.1458;" x1="142.1113" x2="485.8375" y1="274.765" y2="274.765"/><line style="stroke:#000000;stroke-width:1.1458;" x1="485.8375" x2="485.8375" y1="274.765" y2="291.9525"/><polygon fill="#000000" points="481.2542,280.4942,485.8375,291.9525,490.4209,280.4942,485.8375,285.0775" style="stroke:#000000;stroke-width:1.1458;"/><text fill="#000000" font-family="Arial" font-size="14.8958" lengthAdjust="spacing" textLength="31.45" x="125.2405" y="24.5283">User</text><text fill="#000000" font-family="Arial" font-size="14.8958" lengthAdjust="spacing" textLength="49.6625" x="489.6703" y="24.5283">System</text><!--SRC=[LP3BJiCm44Nt_efXroweAyGgMI340Y5HgQAK_P1Caf7y29v9IwL-F7OV4lNsNfzxx3iEZPjQWa5rbChQXFj5ppfCtvDGQc9G2hfeehTTeZQAmzt3SlbeLnpOe_iSoDDwktgtYJgn0s4hrYC7wy-5UosDnJXvPuxRZ3mQKKngghV0ogW4YNeMJQWSGssEcuCe-QEfFkXd8b4e8j2I8Zkfhv1gdUAEitX90te232sCABAFgVsF-KB7RTcvvN07iu82T2bR7u1-iuKypI4R1vWTIEO6ygasGzm3fHGJU1B1dkfJ81f7Gqu8PY5UkY-PTPt2febJqFgInD1nyZUlFJcxs9V9yntEFq2XvSwOwdag9ihDbLYRwZLXq4BE8g0HHeVQnUHhKsp-0000]--></g></svg>