<svg xmlns="http://www.w3.org/2000/svg" xmlns:xlink="http://www.w3.org/1999/xlink" contentStyleType="text/css" data-diagram-type="ACTIVITY" height="859.375px" preserveAspectRatio="none" style="width:544px;height:859px;background:#FFFFFF;" version="1.1" viewBox="0 0 544 859" width="544.2708px" zoomAndPan="magnify"><defs/><g><ellipse cx="270.4079" cy="17.1875" fill="#FFFFFF" rx="11.4583" ry="11.4583" style="stroke:#000000;stroke-width:1.1458;"/><rect fill="#FFFFFF" height="46.9204" style="stroke:#000000;stroke-width:1.1458;" width="193.7113" x="173.5522" y="51.5625"/><text fill="#000000" font-family="Arial" font-size="14.8958" lengthAdjust="spacing" textLength="163.9196" x="188.448" y="80.6741">User initiates registration</text><rect fill="#FFFFFF" height="46.9204" style="stroke:#000000;stroke-width:1.1458;" width="221.0373" x="159.8892" y="121.3996"/><text fill="#000000" font-family="Arial" font-size="14.8958" lengthAdjust="spacing" textLength="191.2456" x="174.785" y="150.5112">System requests user details</text><rect fill="#FFFFFF" height="46.9204" style="stroke:#000000;stroke-width:1.1458;" width="288.9413" x="125.9372" y="191.2367"/><text fill="#000000" font-family="Arial" font-size="14.8958" lengthAdjust="spacing" textLength="259.1497" x="140.833" y="220.3483">User provides username and password</text><rect fill="#FFFFFF" height="46.9204" style="stroke:#000000;stroke-width:1.1458;" width="222.6956" x="159.06" y="261.0738"/><text fill="#000000" font-family="Arial" font-size="14.8958" lengthAdjust="spacing" textLength="192.904" x="173.9559" y="290.1854">System validates user details</text><polygon fill="#FFFFFF" points="199.4991,330.9108,341.3166,330.9108,355.0666,344.6608,341.3166,358.4108,199.4991,358.4108,185.7491,344.6608,199.4991,330.9108" style="stroke:#000000;stroke-width:1.1458;"/><text fill="#000000" font-family="Arial" font-size="14.8958" lengthAdjust="spacing" textLength="134.9426" x="202.9366" y="350.3122">User already exists?</text><text fill="#000000" font-family="Arial" font-size="14.8958" lengthAdjust="spacing" textLength="23.1802" x="159.1314" y="338.3104">yes</text><text fill="#000000" font-family="Arial" font-size="14.8958" lengthAdjust="spacing" textLength="16.5687" x="358.5041" y="338.3104">no</text><rect fill="#FFFFFF" height="46.9204" style="stroke:#000000;stroke-width:1.1458;" width="225.9832" x="33.9955" y="369.8692"/><text fill="#000000" font-family="Arial" font-size="14.8958" lengthAdjust="spacing" textLength="196.1915" x="48.8914" y="398.9808">System shows error message</text><ellipse cx="146.9871" cy="452.3104" fill="none" rx="12.6042" ry="12.6042" style="stroke:#000000;stroke-width:1.1458;"/><ellipse cx="146.9871" cy="452.3104" fill="#FFFFFF" rx="6.875" ry="6.875" style="stroke:#000000;stroke-width:1.1458;"/><rect fill="#FFFFFF" height="46.9204" style="stroke:#000000;stroke-width:1.1458;" width="221.8665" x="282.8954" y="369.8692"/><text fill="#000000" font-family="Arial" font-size="14.8958" lengthAdjust="spacing" textLength="192.0748" x="297.7912" y="398.9808">System creates user account</text><rect fill="#FFFFFF" height="46.9204" style="stroke:#000000;stroke-width:1.1458;" width="217.6988" x="284.9792" y="439.7063"/><text fill="#000000" font-family="Arial" font-size="14.8958" lengthAdjust="spacing" textLength="187.9072" x="299.875" y="468.8179">System confirms registration</text><rect fill="#FFFFFF" height="46.9204" style="stroke:#000000;stroke-width:1.1458;" width="182.954" x="178.9309" y="509.5434"/><text fill="#000000" font-family="Arial" font-size="14.8958" lengthAdjust="spacing" textLength="153.1623" x="193.8267" y="538.655">User enters credentials</text><rect fill="#FFFFFF" height="46.9204" style="stroke:#000000;stroke-width:1.1458;" width="205.3196" x="167.7481" y="579.3804"/><text fill="#000000" font-family="Arial" font-size="14.8958" lengthAdjust="spacing" textLength="175.5279" x="182.6439" y="608.4921">System authenticates user</text><polygon fill="#FFFFFF" points="207.7689,649.2175,333.0468,649.2175,346.7968,662.9675,333.0468,676.7175,207.7689,676.7175,194.0189,662.9675,207.7689,649.2175" style="stroke:#000000;stroke-width:1.1458;"/><text fill="#000000" font-family="Arial" font-size="14.8958" lengthAdjust="spacing" textLength="118.403" x="211.2064" y="668.6189">Credentials valid?</text><text fill="#000000" font-family="Arial" font-size="14.8958" lengthAdjust="spacing" textLength="23.1802" x="167.4012" y="656.6171">yes</text><text fill="#000000" font-family="Arial" font-size="14.8958" lengthAdjust="spacing" textLength="16.5687" x="350.2343" y="656.6171">no</text><rect fill="#FFFFFF" height="46.9204" style="stroke:#000000;stroke-width:1.1458;" width="220.2009" x="21.7745" y="688.1759"/><text fill="#000000" font-family="Arial" font-size="14.8958" lengthAdjust="spacing" textLength="190.4092" x="36.6703" y="717.2875">System creates user session</text><rect fill="#FFFFFF" height="46.9204" style="stroke:#000000;stroke-width:1.1458;" width="249.9998" x="6.875" y="758.0129"/><text fill="#000000" font-family="Arial" font-size="14.8958" lengthAdjust="spacing" textLength="220.2081" x="21.7708" y="787.1246">System grants access to platform</text><ellipse cx="131.8749" cy="840.4542" fill="none" rx="12.6042" ry="12.6042" style="stroke:#000000;stroke-width:1.1458;"/><ellipse cx="131.8749" cy="840.4542" fill="#FFFFFF" rx="6.875" ry="6.875" style="stroke:#000000;stroke-width:1.1458;"/><rect fill="#FFFFFF" height="46.9204" style="stroke:#000000;stroke-width:1.1458;" width="258.2987" x="279.7915" y="688.1759"/><text fill="#000000" font-family="Arial" font-size="14.8958" lengthAdjust="spacing" textLength="228.507" x="294.6873" y="717.2875">System shows authentication error</text><ellipse cx="408.9408" cy="770.6171" fill="none" rx="12.6042" ry="12.6042" style="stroke:#000000;stroke-width:1.1458;"/><ellipse cx="408.9408" cy="770.6171" fill="#FFFFFF" rx="6.875" ry="6.875" style="stroke:#000000;stroke-width:1.1458;"/><line style="stroke:#000000;stroke-width:1.1458;" x1="270.4079" x2="270.4079" y1="28.6458" y2="51.5625"/><polygon fill="#000000" points="265.8245,40.1042,270.4079,51.5625,274.9912,40.1042,270.4079,44.6875" style="stroke:#000000;stroke-width:1.1458;"/><line style="stroke:#000000;stroke-width:1.1458;" x1="270.4079" x2="270.4079" y1="98.4829" y2="121.3996"/><polygon fill="#000000" points="265.8245,109.9413,270.4079,121.3996,274.9912,109.9413,270.4079,114.5246" style="stroke:#000000;stroke-width:1.1458;"/><line style="stroke:#000000;stroke-width:1.1458;" x1="270.4079" x2="270.4079" y1="168.32" y2="191.2367"/><polygon fill="#000000" points="265.8245,179.7783,270.4079,191.2367,274.9912,179.7783,270.4079,184.3617" style="stroke:#000000;stroke-width:1.1458;"/><line style="stroke:#000000;stroke-width:1.1458;" x1="270.4079" x2="270.4079" y1="238.1571" y2="261.0738"/><polygon fill="#000000" points="265.8245,249.6154,270.4079,261.0738,274.9912,249.6154,270.4079,254.1988" style="stroke:#000000;stroke-width:1.1458;"/><line style="stroke:#000000;stroke-width:1.1458;" x1="146.9871" x2="146.9871" y1="416.7896" y2="439.7063"/><polygon fill="#000000" points="142.4038,428.2479,146.9871,439.7063,151.5704,428.2479,146.9871,432.8313" style="stroke:#000000;stroke-width:1.1458;"/><line style="stroke:#000000;stroke-width:1.1458;" x1="393.8286" x2="393.8286" y1="416.7896" y2="439.7063"/><polygon fill="#000000" points="389.2453,428.2479,393.8286,439.7063,398.4119,428.2479,393.8286,432.8313" style="stroke:#000000;stroke-width:1.1458;"/><line style="stroke:#000000;stroke-width:1.1458;" x1="185.7491" x2="146.9871" y1="344.6608" y2="344.6608"/><line style="stroke:#000000;stroke-width:1.1458;" x1="146.9871" x2="146.9871" y1="344.6608" y2="369.8692"/><polygon fill="#000000" points="142.4038,358.4108,146.9871,369.8692,151.5704,358.4108,146.9871,362.9942" style="stroke:#000000;stroke-width:1.1458;"/><line style="stroke:#000000;stroke-width:1.1458;" x1="355.0666" x2="393.8286" y1="344.6608" y2="344.6608"/><line style="stroke:#000000;stroke-width:1.1458;" x1="393.8286" x2="393.8286" y1="344.6608" y2="369.8692"/><polygon fill="#000000" points="389.2453,358.4108,393.8286,369.8692,398.4119,358.4108,393.8286,362.9942" style="stroke:#000000;stroke-width:1.1458;"/><line style="stroke:#000000;stroke-width:1.1458;" x1="393.8286" x2="393.8286" y1="486.6267" y2="492.3559"/><line style="stroke:#000000;stroke-width:1.1458;" x1="393.8286" x2="270.4079" y1="492.3559" y2="492.3559"/><line style="stroke:#000000;stroke-width:1.1458;" x1="270.4079" x2="270.4079" y1="492.3559" y2="509.5434"/><polygon fill="#000000" points="265.8245,498.085,270.4079,509.5434,274.9912,498.085,270.4079,502.6684" style="stroke:#000000;stroke-width:1.1458;"/><line style="stroke:#000000;stroke-width:1.1458;" x1="270.4079" x2="270.4079" y1="307.9942" y2="330.9108"/><polygon fill="#000000" points="265.8245,319.4525,270.4079,330.9108,274.9912,319.4525,270.4079,324.0358" style="stroke:#000000;stroke-width:1.1458;"/><line style="stroke:#000000;stroke-width:1.1458;" x1="270.4079" x2="270.4079" y1="556.4638" y2="579.3804"/><polygon fill="#000000" points="265.8245,567.9221,270.4079,579.3804,274.9912,567.9221,270.4079,572.5054" style="stroke:#000000;stroke-width:1.1458;"/><line style="stroke:#000000;stroke-width:1.1458;" x1="131.8749" x2="131.8749" y1="735.0963" y2="758.0129"/><polygon fill="#000000" points="127.2916,746.5546,131.8749,758.0129,136.4582,746.5546,131.8749,751.1379" style="stroke:#000000;stroke-width:1.1458;"/><line style="stroke:#000000;stroke-width:1.1458;" x1="131.8749" x2="131.8749" y1="804.9334" y2="827.85"/><polygon fill="#000000" points="127.2916,816.3917,131.8749,827.85,136.4582,816.3917,131.8749,820.975" style="stroke:#000000;stroke-width:1.1458;"/><line style="stroke:#000000;stroke-width:1.1458;" x1="408.9408" x2="408.9408" y1="735.0963" y2="758.0129"/><polygon fill="#000000" points="404.3575,746.5546,408.9408,758.0129,413.5241,746.5546,408.9408,751.1379" style="stroke:#000000;stroke-width:1.1458;"/><line style="stroke:#000000;stroke-width:1.1458;" x1="194.0189" x2="131.8749" y1="662.9675" y2="662.9675"/><line style="stroke:#000000;stroke-width:1.1458;" x1="131.8749" x2="131.8749" y1="662.9675" y2="688.1759"/><polygon fill="#000000" points="127.2916,676.7175,131.8749,688.1759,136.4582,676.7175,131.8749,681.3009" style="stroke:#000000;stroke-width:1.1458;"/><line style="stroke:#000000;stroke-width:1.1458;" x1="346.7968" x2="408.9408" y1="662.9675" y2="662.9675"/><line style="stroke:#000000;stroke-width:1.1458;" x1="408.9408" x2="408.9408" y1="662.9675" y2="688.1759"/><polygon fill="#000000" points="404.3575,676.7175,408.9408,688.1759,413.5241,676.7175,408.9408,681.3009" style="stroke:#000000;stroke-width:1.1458;"/><line style="stroke:#000000;stroke-width:1.1458;" x1="270.4079" x2="270.4079" y1="626.3009" y2="649.2175"/><polygon fill="#000000" points="265.8245,637.7592,270.4079,649.2175,274.9912,637.7592,270.4079,642.3425" style="stroke:#000000;stroke-width:1.1458;"/><!--SRC=[XL7BJiD03BpdAyojFT1KY5DpuC2LIaZG3p1Pfx6qZs0xBVrxDabf6oJ4dbRhcV7Cx1t7slUEe3NhT5EMWiVLdgtjFtebgLCqYhQgKoWR8PVKu-5XlNuijnmve7zlAT3hRljI2ZLQjeHEou0Sop01xcr0hBe- -48DnOhDBWj3dXgZaOBGdjK4ZLEiYitRIOr2VltiIKrXi06E3DbhTIPtaWxiQ1f630GO7NIeUapYhY87zEp69NCLRc0n2g6NxFW4z9KjwDCIiji8YnFfie1yVeIqJKS54aa2WLHnJzK8K4jTGLu95Z7DENMMlgp6kavzj6gEIB5X2RyheEYuASvHS_iaEeYvV6KSIpZpiH_i6jUNFLEqvojugk3lO3EJcfED3cuHUy6Olo47o5Em19r7QvA4VmkOIhincRMd3c-fGzXl]--></g></svg>