<svg xmlns="http://www.w3.org/2000/svg" xmlns:xlink="http://www.w3.org/1999/xlink" contentStyleType="text/css" data-diagram-type="ACTIVITY" height="632.5px" preserveAspectRatio="none" style="width:614px;height:632px;background:#FFFFFF;" version="1.1" viewBox="0 0 614 632" width="614.1667px" zoomAndPan="magnify"><defs/><g><ellipse cx="275.7829" cy="17.1875" fill="#FFFFFF" rx="11.4583" ry="11.4583" style="stroke:#000000;stroke-width:1.1458;"/><rect fill="#FFFFFF" height="46.9204" style="stroke:#000000;stroke-width:1.1458;" width="193.7113" x="178.9272" y="51.5625"/><text fill="#000000" font-family="Arial" font-size="14.8958" lengthAdjust="spacing" textLength="163.9196" x="193.8231" y="80.6741">User initiates registration</text><rect fill="#FFFFFF" height="46.9204" style="stroke:#000000;stroke-width:1.1458;" width="221.0373" x="165.2642" y="121.3996"/><text fill="#000000" font-family="Arial" font-size="14.8958" lengthAdjust="spacing" textLength="191.2456" x="180.1601" y="150.5112">System requests user details</text><rect fill="#FFFFFF" height="46.9204" style="stroke:#000000;stroke-width:1.1458;" width="288.9413" x="131.3122" y="191.2367"/><text fill="#000000" font-family="Arial" font-size="14.8958" lengthAdjust="spacing" textLength="259.1497" x="146.208" y="220.3483">User provides username and password</text><rect fill="#FFFFFF" height="46.9204" style="stroke:#000000;stroke-width:1.1458;" width="222.6956" x="164.4351" y="261.0738"/><text fill="#000000" font-family="Arial" font-size="14.8958" lengthAdjust="spacing" textLength="192.904" x="179.3309" y="290.1854">System validates user details</text><polygon fill="#FFFFFF" points="204.8741,330.9108,346.6917,330.9108,360.4417,344.6608,346.6917,358.4108,204.8741,358.4108,191.1241,344.6608,204.8741,330.9108" style="stroke:#000000;stroke-width:1.1458;"/><text fill="#000000" font-family="Arial" font-size="14.8958" lengthAdjust="spacing" textLength="134.9426" x="208.3116" y="350.3122">User already exists?</text><text fill="#000000" font-family="Arial" font-size="14.8958" lengthAdjust="spacing" textLength="23.1802" x="164.5064" y="338.3104">yes</text><text fill="#000000" font-family="Arial" font-size="14.8958" lengthAdjust="spacing" textLength="16.5687" x="363.8792" y="338.3104">no</text><rect fill="#FFFFFF" height="46.9204" style="stroke:#000000;stroke-width:1.1458;" width="225.9832" x="6.875" y="369.8692"/><text fill="#000000" font-family="Arial" font-size="14.8958" lengthAdjust="spacing" textLength="196.1915" x="21.7708" y="398.9808">System shows error message</text><ellipse cx="119.8666" cy="452.3104" fill="none" rx="12.6042" ry="12.6042" style="stroke:#000000;stroke-width:1.1458;"/><ellipse cx="119.8666" cy="452.3104" fill="#FFFFFF" rx="6.875" ry="6.875" style="stroke:#000000;stroke-width:1.1458;"/><rect fill="#FFFFFF" height="46.9204" style="stroke:#000000;stroke-width:1.1458;" width="221.8665" x="320.7659" y="369.8692"/><text fill="#000000" font-family="Arial" font-size="14.8958" lengthAdjust="spacing" textLength="192.0748" x="335.6617" y="398.9808">System creates user account</text><rect fill="#FFFFFF" height="46.9204" style="stroke:#000000;stroke-width:1.1458;" width="351.8486" x="255.7748" y="439.7063"/><text fill="#000000" font-family="Arial" font-size="14.8958" lengthAdjust="spacing" textLength="322.0569" x="270.6707" y="468.8179">System confirms registration and logs the user in</text><rect fill="#FFFFFF" height="46.9204" style="stroke:#000000;stroke-width:1.1458;" width="205.3196" x="173.1231" y="509.5434"/><text fill="#000000" font-family="Arial" font-size="14.8958" lengthAdjust="spacing" textLength="175.5279" x="188.0189" y="538.655">System authenticates user</text><rect fill="#FFFFFF" height="46.9204" style="stroke:#000000;stroke-width:1.1458;" width="249.9998" x="150.783" y="579.3804"/><text fill="#000000" font-family="Arial" font-size="14.8958" lengthAdjust="spacing" textLength="220.2081" x="165.6788" y="608.4921">System grants access to platform</text><line style="stroke:#000000;stroke-width:1.1458;" x1="275.7829" x2="275.7829" y1="28.6458" y2="51.5625"/><polygon fill="#000000" points="271.1995,40.1042,275.7829,51.5625,280.3662,40.1042,275.7829,44.6875" style="stroke:#000000;stroke-width:1.1458;"/><line style="stroke:#000000;stroke-width:1.1458;" x1="275.7829" x2="275.7829" y1="98.4829" y2="121.3996"/><polygon fill="#000000" points="271.1995,109.9413,275.7829,121.3996,280.3662,109.9413,275.7829,114.5246" style="stroke:#000000;stroke-width:1.1458;"/><line style="stroke:#000000;stroke-width:1.1458;" x1="275.7829" x2="275.7829" y1="168.32" y2="191.2367"/><polygon fill="#000000" points="271.1995,179.7783,275.7829,191.2367,280.3662,179.7783,275.7829,184.3617" style="stroke:#000000;stroke-width:1.1458;"/><line style="stroke:#000000;stroke-width:1.1458;" x1="275.7829" x2="275.7829" y1="238.1571" y2="261.0738"/><polygon fill="#000000" points="271.1995,249.6154,275.7829,261.0738,280.3662,249.6154,275.7829,254.1988" style="stroke:#000000;stroke-width:1.1458;"/><line style="stroke:#000000;stroke-width:1.1458;" x1="119.8666" x2="119.8666" y1="416.7896" y2="439.7063"/><polygon fill="#000000" points="115.2833,428.2479,119.8666,439.7063,124.4499,428.2479,119.8666,432.8313" style="stroke:#000000;stroke-width:1.1458;"/><line style="stroke:#000000;stroke-width:1.1458;" x1="431.6991" x2="431.6991" y1="416.7896" y2="439.7063"/><polygon fill="#000000" points="427.1158,428.2479,431.6991,439.7063,436.2825,428.2479,431.6991,432.8313" style="stroke:#000000;stroke-width:1.1458;"/><line style="stroke:#000000;stroke-width:1.1458;" x1="191.1241" x2="119.8666" y1="344.6608" y2="344.6608"/><line style="stroke:#000000;stroke-width:1.1458;" x1="119.8666" x2="119.8666" y1="344.6608" y2="369.8692"/><polygon fill="#000000" points="115.2833,358.4108,119.8666,369.8692,124.4499,358.4108,119.8666,362.9942" style="stroke:#000000;stroke-width:1.1458;"/><line style="stroke:#000000;stroke-width:1.1458;" x1="360.4417" x2="431.6991" y1="344.6608" y2="344.6608"/><line style="stroke:#000000;stroke-width:1.1458;" x1="431.6991" x2="431.6991" y1="344.6608" y2="369.8692"/><polygon fill="#000000" points="427.1158,358.4108,431.6991,369.8692,436.2825,358.4108,431.6991,362.9942" style="stroke:#000000;stroke-width:1.1458;"/><line style="stroke:#000000;stroke-width:1.1458;" x1="431.6991" x2="431.6991" y1="486.6267" y2="492.3559"/><line style="stroke:#000000;stroke-width:1.1458;" x1="431.6991" x2="275.7829" y1="492.3559" y2="492.3559"/><line style="stroke:#000000;stroke-width:1.1458;" x1="275.7829" x2="275.7829" y1="492.3559" y2="509.5434"/><polygon fill="#000000" points="271.1995,498.085,275.7829,509.5434,280.3662,498.085,275.7829,502.6684" style="stroke:#000000;stroke-width:1.1458;"/><line style="stroke:#000000;stroke-width:1.1458;" x1="275.7829" x2="275.7829" y1="307.9942" y2="330.9108"/><polygon fill="#000000" points="271.1995,319.4525,275.7829,330.9108,280.3662,319.4525,275.7829,324.0358" style="stroke:#000000;stroke-width:1.1458;"/><line style="stroke:#000000;stroke-width:1.1458;" x1="275.7829" x2="275.7829" y1="556.4638" y2="579.3804"/><polygon fill="#000000" points="271.1995,567.9221,275.7829,579.3804,280.3662,567.9221,275.7829,572.5054" style="stroke:#000000;stroke-width:1.1458;"/><!--SRC=[LP1DJiD038NtEONPjGiw5MBLBBW0bP2W1p0pJc9fVeBjjFJsJ58eoYp7p-zzpm-SVPm2mM0swi4vmSkkPnkcpqb9VCb6sNQ-9DS9XQ8Hpq_x_RCxSkQ4yMEWH6-duwiJwjGDX45TGiuktGIFDYjsuvHYeuPYpU5KZQ5EZT58GQXdDK7Zajlcy7vLerH_loPIKvWn890XHsr_bqSfPmvq6sPC19W3ZAXwAHB-JSuOEImXQnVkOBCOOPHAV0NwhWZwieLAcs5p9TqsKD-VaGxbea0YHI2HAlRKBWArCZOKbM2Joth7L-jxD7fVfcpjMb5onvBM9rYgnDBhp79RvdeNoe6xvjuCfvdKsDyZ_bltWhaUhaPMKh02OqJhYgIs-G40]--></g></svg>