<svg xmlns="http://www.w3.org/2000/svg" xmlns:xlink="http://www.w3.org/1999/xlink" contentStyleType="text/css" data-diagram-type="SEQUENCE" height="877.7083px" preserveAspectRatio="none" style="width:451px;height:877px;background:#FFFFFF;" version="1.1" viewBox="0 0 451 877" width="451.4583px" zoomAndPan="magnify"><title>SSD03 - Correct course</title><defs/><g><text fill="#000000" font-family="Arial" font-size="16.0417" font-weight="bold" lengthAdjust="spacing" textLength="179.1998" x="138.1426" y="35.6719">SSD03 - Correct course</text><rect fill="#FFFFFF" height="193.2934" style="stroke:#000000;stroke-width:1.7188;" width="433.7141" x="11.4583" y="487.7093"/><g><title>Administrator</title><rect fill="#000000" fill-opacity="0.00000" height="632.7059" width="9.1667" x="69.0812" y="147.8668"/><line style="stroke:#181818;stroke-width:0.5729;stroke-dasharray:5.7292,5.7292;" x1="73.3333" x2="73.3333" y1="147.8668" y2="780.5727"/></g><g><title>Server</title><rect fill="#000000" fill-opacity="0.00000" height="632.7059" width="9.1667" x="395.736" y="147.8668"/><line style="stroke:#181818;stroke-width:0.5729;stroke-dasharray:5.7292,5.7292;" x1="400.1538" x2="400.1538" y1="147.8668" y2="780.5727"/></g><g class="participant participant-head" data-participant="Administrator"><text fill="#000000" font-family="Arial" font-size="14.8958" lengthAdjust="spacing" textLength="87.7458" x="26.3542" y="141.2726">Administrator</text><ellipse cx="73.6646" cy="64.8526" fill="#E3E3E3" rx="9.1667" ry="9.1667" style="stroke:#181818;stroke-width:0.5729;"/><path d="M73.6646,74.0193 L73.6646,104.9568 M58.7687,83.1859 L88.5604,83.1859 M73.6646,104.9568 L58.7687,122.1443 M73.6646,104.9568 L88.5604,122.1443" fill="none" style="stroke:#181818;stroke-width:0.5729;"/></g><g class="participant participant-tail" data-participant="Administrator"><text fill="#000000" font-family="Arial" font-size="14.8958" lengthAdjust="spacing" textLength="87.7458" x="26.3542" y="796.8364">Administrator</text><ellipse cx="73.6646" cy="813.1702" fill="#E3E3E3" rx="9.1667" ry="9.1667" style="stroke:#181818;stroke-width:0.5729;"/><path d="M73.6646,822.3368 L73.6646,853.2743 M58.7687,831.5035 L88.5604,831.5035 M73.6646,853.2743 L58.7687,870.4618 M73.6646,853.2743 L88.5604,870.4618" fill="none" style="stroke:#181818;stroke-width:0.5729;"/></g><g class="participant participant-head" data-participant="Server"><rect fill="#E3E3E3" height="40.0454" style="stroke:#181818;stroke-width:0.5729;" width="66.7896" x="366.9246" y="106.6755"/><text fill="#000000" font-family="Arial" font-size="14.8958" lengthAdjust="spacing" textLength="43.8729" x="378.3829" y="132.106">Server</text></g><g class="participant participant-tail" data-participant="Server"><rect fill="#E3E3E3" height="40.0454" style="stroke:#181818;stroke-width:0.5729;" width="66.7896" x="366.9246" y="779.4268"/><text fill="#000000" font-family="Arial" font-size="14.8958" lengthAdjust="spacing" textLength="43.8729" x="378.3829" y="804.8573">Server</text></g><g class="message" data-participant-1="Administrator" data-participant-2="Server"><polygon fill="#000000" points="386.5694,185.6205,398.0277,190.2039,386.5694,194.7872,391.1527,190.2039" style="stroke:#000000;stroke-width:1.1458;"/><line style="stroke:#000000;stroke-width:1.1458;" x1="73.6646" x2="393.4444" y1="190.2039" y2="190.2039"/><text fill="#000000" font-family="Arial" font-size="14.8958" lengthAdjust="spacing" textLength="90.2551" x="85.1229" y="181.3181">Login/register</text></g><g class="message" data-participant-1="Server" data-participant-2="Administrator"><polygon fill="#000000" points="86.2687,225.6659,74.8104,230.2493,86.2687,234.8326,81.6854,230.2493" style="stroke:#000000;stroke-width:1.1458;"/><line style="stroke:#000000;stroke-width:1.1458;stroke-dasharray:2.2917,2.2917;" x1="79.3937" x2="399.1735" y1="230.2493" y2="230.2493"/><text fill="#000000" font-family="Arial" font-size="14.8958" lengthAdjust="spacing" textLength="119.2249" x="96.5812" y="221.3635">Auth OK / session</text></g><g class="message" data-participant-1="Administrator" data-participant-2="Server"><polygon fill="#000000" points="386.5694,265.7114,398.0277,270.2947,386.5694,274.878,391.1527,270.2947" style="stroke:#000000;stroke-width:1.1458;"/><line style="stroke:#000000;stroke-width:1.1458;" x1="73.6646" x2="393.4444" y1="270.2947" y2="270.2947"/><text fill="#000000" font-family="Arial" font-size="14.8958" lengthAdjust="spacing" textLength="150.6821" x="85.1229" y="261.4089">Request list of courses</text></g><g class="message" data-participant-1="Server" data-participant-2="Administrator"><polygon fill="#000000" points="86.2687,305.7568,74.8104,310.3401,86.2687,314.9235,81.6854,310.3401" style="stroke:#000000;stroke-width:1.1458;"/><line style="stroke:#000000;stroke-width:1.1458;stroke-dasharray:2.2917,2.2917;" x1="79.3937" x2="399.1735" y1="310.3401" y2="310.3401"/><text fill="#000000" font-family="Arial" font-size="14.8958" lengthAdjust="spacing" textLength="144.0415" x="96.5812" y="301.4543">Display list of courses</text></g><g class="message" data-participant-1="Administrator" data-participant-2="Server"><polygon fill="#000000" points="386.5694,345.8022,398.0277,350.3855,386.5694,354.9689,391.1527,350.3855" style="stroke:#000000;stroke-width:1.1458;"/><line style="stroke:#000000;stroke-width:1.1458;" x1="73.6646" x2="393.4444" y1="350.3855" y2="350.3855"/><text fill="#000000" font-family="Arial" font-size="14.8958" lengthAdjust="spacing" textLength="156.4717" x="85.1229" y="341.4997">Select course to correct</text></g><g class="message" data-participant-1="Server" data-participant-2="Administrator"><polygon fill="#000000" points="86.2687,385.8476,74.8104,390.431,86.2687,395.0143,81.6854,390.431" style="stroke:#000000;stroke-width:1.1458;"/><line style="stroke:#000000;stroke-width:1.1458;stroke-dasharray:2.2917,2.2917;" x1="79.3937" x2="399.1735" y1="390.431" y2="390.431"/><text fill="#000000" font-family="Arial" font-size="14.8958" lengthAdjust="spacing" textLength="214.4476" x="96.5812" y="381.5452">Present course correction option</text></g><g class="message" data-participant-1="Administrator" data-participant-2="Server"><polygon fill="#000000" points="386.5694,425.893,398.0277,430.4764,386.5694,435.0597,391.1527,430.4764" style="stroke:#000000;stroke-width:1.1458;"/><line style="stroke:#000000;stroke-width:1.1458;" x1="73.6646" x2="393.4444" y1="430.4764" y2="430.4764"/><text fill="#000000" font-family="Arial" font-size="14.8958" lengthAdjust="spacing" textLength="239.2643" x="85.1229" y="421.5906">Submit corrected course information</text></g><g class="message" data-participant-1="Server" data-participant-2="Administrator"><polygon fill="#000000" points="86.2687,465.9385,74.8104,470.5218,86.2687,475.1051,81.6854,470.5218" style="stroke:#000000;stroke-width:1.1458;"/><line style="stroke:#000000;stroke-width:1.1458;stroke-dasharray:2.2917,2.2917;" x1="79.3937" x2="399.1735" y1="470.5218" y2="470.5218"/><text fill="#000000" font-family="Arial" font-size="14.8958" lengthAdjust="spacing" textLength="236.8132" x="96.5812" y="461.636">Acknowledge changes saved (draft)</text></g><path d="M11.4583,487.7093 L101.3313,487.7093 L101.3313,502.5464 L89.8729,514.0047 L11.4583,514.0047 L11.4583,487.7093" fill="#EEEEEE" style="stroke:#000000;stroke-width:1.7188;"/><rect fill="none" height="193.2934" style="stroke:#000000;stroke-width:1.7188;" width="433.7141" x="11.4583" y="487.7093"/><text fill="#000000" font-family="Arial" font-size="14.8958" font-weight="bold" lengthAdjust="spacing" textLength="31.4354" x="32.0833" y="506.2648">loop</text><text fill="#000000" font-family="Arial" font-size="14.8958" font-weight="bold" lengthAdjust="spacing" textLength="179.6155" x="121.9563" y="507.4106">[For each step to correct]</text><g class="message" data-participant-1="Administrator" data-participant-2="Server"><polygon fill="#000000" points="386.5694,547.1164,398.0277,551.6997,386.5694,556.2831,391.1527,551.6997" style="stroke:#000000;stroke-width:1.1458;"/><line style="stroke:#000000;stroke-width:1.1458;" x1="73.6646" x2="393.4444" y1="551.6997" y2="551.6997"/><text fill="#000000" font-family="Arial" font-size="14.8958" lengthAdjust="spacing" textLength="292.2798" x="85.1229" y="542.8139">Present step correction option (choose step)</text></g><g class="message" data-participant-1="Server" data-participant-2="Administrator"><polygon fill="#000000" points="86.2687,587.1618,74.8104,591.7451,86.2687,596.3285,81.6854,591.7451" style="stroke:#000000;stroke-width:1.1458;"/><line style="stroke:#000000;stroke-width:1.1458;stroke-dasharray:2.2917,2.2917;" x1="79.3937" x2="399.1735" y1="591.7451" y2="591.7451"/><text fill="#000000" font-family="Arial" font-size="14.8958" lengthAdjust="spacing" textLength="134.1352" x="96.5812" y="582.8593">Step data / edit form</text></g><g class="message" data-participant-1="Administrator" data-participant-2="Server"><polygon fill="#000000" points="386.5694,627.2072,398.0277,631.7906,386.5694,636.3739,391.1527,631.7906" style="stroke:#000000;stroke-width:1.1458;"/><line style="stroke:#000000;stroke-width:1.1458;" x1="73.6646" x2="393.4444" y1="631.7906" y2="631.7906"/><text fill="#000000" font-family="Arial" font-size="14.8958" lengthAdjust="spacing" textLength="178.3936" x="85.1229" y="622.9048">Correct step's needed data</text></g><g class="message" data-participant-1="Server" data-participant-2="Administrator"><polygon fill="#000000" points="86.2687,667.2527,74.8104,671.836,86.2687,676.4193,81.6854,671.836" style="stroke:#000000;stroke-width:1.1458;"/><line style="stroke:#000000;stroke-width:1.1458;stroke-dasharray:2.2917,2.2917;" x1="79.3937" x2="399.1735" y1="671.836" y2="671.836"/><text fill="#000000" font-family="Arial" font-size="14.8958" lengthAdjust="spacing" textLength="169.731" x="96.5812" y="662.9502">Validation result / preview</text></g><g class="message" data-participant-1="Administrator" data-participant-2="Server"><polygon fill="#000000" points="386.5694,715.3189,398.0277,719.9022,386.5694,724.4856,391.1527,719.9022" style="stroke:#000000;stroke-width:1.1458;"/><line style="stroke:#000000;stroke-width:1.1458;" x1="73.6646" x2="393.4444" y1="719.9022" y2="719.9022"/><text fill="#000000" font-family="Arial" font-size="14.8958" lengthAdjust="spacing" textLength="170.5311" x="85.1229" y="711.0164">Confirm course correction</text></g><g class="message" data-participant-1="Server" data-participant-2="Administrator"><polygon fill="#000000" points="86.2687,755.3643,74.8104,759.9477,86.2687,764.531,81.6854,759.9477" style="stroke:#000000;stroke-width:1.1458;"/><line style="stroke:#000000;stroke-width:1.1458;stroke-dasharray:2.2917,2.2917;" x1="79.3937" x2="399.1735" y1="759.9477" y2="759.9477"/><text fill="#000000" font-family="Arial" font-size="14.8958" lengthAdjust="spacing" textLength="141.5541" x="96.5812" y="751.0619">Correction committed</text></g><!--SRC=[VLAnJiCm4Dtz5ST4EwH5Okk0X5gnW0GY4XEBiQ-9XUCpzgKLVyybD9IgghVOv_VUlVV2ZZr2NMzkRg62DQM4Xi5GdpAgAnUCxot2ubrdrctLkR28VUULqeOfmRsL6vSvQJcfg1Cxuw8E33Mc7IQbJbv0TNSOhE296XUM2HiPoiFVQwZanGba1VSzj_3y24l8cBEZK21znQyUCuEN8T3su2CNs3SkHw-_pn2NDMhqnuY0IRx6q0eYBmapXZ_C0I1MW2AN7TNzH-TuWg2TE5pOKkhqY2vaPpu3xJtQHbHR7HhCaFLEQ6OswItFbV944Hv45BLfGRg8_pq1NDniCZL2pYp1pBH4ikWmdWlFvINhWS1grb8nMZ4xE5CbwUat7RYlCmH4AvO6YgBGc_REZf61xDvx5i6OSETmhp3OGWjh2bkNklC22zclZv4OwgH4QK_z0000]--></g></svg>