<svg xmlns="http://www.w3.org/2000/svg" xmlns:xlink="http://www.w3.org/1999/xlink" contentStyleType="text/css" data-diagram-type="SEQUENCE" height="877.7083px" preserveAspectRatio="none" style="width:422px;height:877px;background:#FFFFFF;" version="1.1" viewBox="0 0 422 877" width="422.8125px" zoomAndPan="magnify"><title>SSD02 - Create course</title><defs/><g><text fill="#000000" font-family="Arial" font-size="16.0417" font-weight="bold" lengthAdjust="spacing" textLength="172.0798" x="127.2232" y="35.6719">SSD02 - Create course</text><rect fill="#FFFFFF" height="193.2934" style="stroke:#000000;stroke-width:1.7188;" width="404.7553" x="11.4583" y="487.7093"/><g><title>Teacher</title><rect fill="#000000" fill-opacity="0.00000" height="632.7059" width="9.1667" x="52.5307" y="147.8668"/><line style="stroke:#181818;stroke-width:0.5729;stroke-dasharray:5.7292,5.7292;" x1="56.1458" x2="56.1458" y1="147.8668" y2="780.5727"/></g><g><title>Server</title><rect fill="#000000" fill-opacity="0.00000" height="632.7059" width="9.1667" x="366.7772" y="147.8668"/><line style="stroke:#181818;stroke-width:0.5729;stroke-dasharray:5.7292,5.7292;" x1="371.1949" x2="371.1949" y1="147.8668" y2="780.5727"/></g><g class="participant participant-head" data-participant="Teacher"><text fill="#000000" font-family="Arial" font-size="14.8958" lengthAdjust="spacing" textLength="54.6447" x="26.3542" y="141.2726">Teacher</text><ellipse cx="57.114" cy="64.8526" fill="#E3E3E3" rx="9.1667" ry="9.1667" style="stroke:#181818;stroke-width:0.5729;"/><path d="M57.114,74.0193 L57.114,104.9568 M42.2182,83.1859 L72.0099,83.1859 M57.114,104.9568 L42.2182,122.1443 M57.114,104.9568 L72.0099,122.1443" fill="none" style="stroke:#181818;stroke-width:0.5729;"/></g><g class="participant participant-tail" data-participant="Teacher"><text fill="#000000" font-family="Arial" font-size="14.8958" lengthAdjust="spacing" textLength="54.6447" x="26.3542" y="796.8364">Teacher</text><ellipse cx="57.114" cy="813.1702" fill="#E3E3E3" rx="9.1667" ry="9.1667" style="stroke:#181818;stroke-width:0.5729;"/><path d="M57.114,822.3368 L57.114,853.2743 M42.2182,831.5035 L72.0099,831.5035 M57.114,853.2743 L42.2182,870.4618 M57.114,853.2743 L72.0099,870.4618" fill="none" style="stroke:#181818;stroke-width:0.5729;"/></g><g class="participant participant-head" data-participant="Server"><rect fill="#E3E3E3" height="40.0454" style="stroke:#181818;stroke-width:0.5729;" width="66.7896" x="337.9657" y="106.6755"/><text fill="#000000" font-family="Arial" font-size="14.8958" lengthAdjust="spacing" textLength="43.8729" x="349.4241" y="132.106">Server</text></g><g class="participant participant-tail" data-participant="Server"><rect fill="#E3E3E3" height="40.0454" style="stroke:#181818;stroke-width:0.5729;" width="66.7896" x="337.9657" y="779.4268"/><text fill="#000000" font-family="Arial" font-size="14.8958" lengthAdjust="spacing" textLength="43.8729" x="349.4241" y="804.8573">Server</text></g><g class="message" data-participant-1="Teacher" data-participant-2="Server"><polygon fill="#000000" points="357.6105,185.6205,369.0688,190.2039,357.6105,194.7872,362.1938,190.2039" style="stroke:#000000;stroke-width:1.1458;"/><line style="stroke:#000000;stroke-width:1.1458;" x1="57.114" x2="364.4855" y1="190.2039" y2="190.2039"/><text fill="#000000" font-family="Arial" font-size="14.8958" lengthAdjust="spacing" textLength="90.2551" x="68.5724" y="181.3181">Login/register</text></g><g class="message" data-participant-1="Server" data-participant-2="Teacher"><polygon fill="#000000" points="69.7182,225.6659,58.2599,230.2493,69.7182,234.8326,65.1349,230.2493" style="stroke:#000000;stroke-width:1.1458;"/><line style="stroke:#000000;stroke-width:1.1458;stroke-dasharray:2.2917,2.2917;" x1="62.8432" x2="370.2147" y1="230.2493" y2="230.2493"/><text fill="#000000" font-family="Arial" font-size="14.8958" lengthAdjust="spacing" textLength="119.2249" x="80.0307" y="221.3635">Auth OK / session</text></g><g class="message" data-participant-1="Teacher" data-participant-2="Server"><polygon fill="#000000" points="357.6105,265.7114,369.0688,270.2947,357.6105,274.878,362.1938,270.2947" style="stroke:#000000;stroke-width:1.1458;"/><line style="stroke:#000000;stroke-width:1.1458;" x1="57.114" x2="364.4855" y1="270.2947" y2="270.2947"/><text fill="#000000" font-family="Arial" font-size="14.8958" lengthAdjust="spacing" textLength="204.505" x="68.5724" y="261.4089">Request list of created courses</text></g><g class="message" data-participant-1="Server" data-participant-2="Teacher"><polygon fill="#000000" points="69.7182,305.7568,58.2599,310.3401,69.7182,314.9235,65.1349,310.3401" style="stroke:#000000;stroke-width:1.1458;"/><line style="stroke:#000000;stroke-width:1.1458;stroke-dasharray:2.2917,2.2917;" x1="62.8432" x2="370.2147" y1="310.3401" y2="310.3401"/><text fill="#000000" font-family="Arial" font-size="14.8958" lengthAdjust="spacing" textLength="158.9592" x="80.0307" y="301.4543">Display created courses</text></g><g class="message" data-participant-1="Teacher" data-participant-2="Server"><polygon fill="#000000" points="357.6105,345.8022,369.0688,350.3855,357.6105,354.9689,362.1938,350.3855" style="stroke:#000000;stroke-width:1.1458;"/><line style="stroke:#000000;stroke-width:1.1458;" x1="57.114" x2="364.4855" y1="350.3855" y2="350.3855"/><text fill="#000000" font-family="Arial" font-size="14.8958" lengthAdjust="spacing" textLength="149.6711" x="68.5724" y="341.4997">Select "Create course"</text></g><g class="message" data-participant-1="Server" data-participant-2="Teacher"><polygon fill="#000000" points="69.7182,385.8476,58.2599,390.431,69.7182,395.0143,65.1349,390.431" style="stroke:#000000;stroke-width:1.1458;"/><line style="stroke:#000000;stroke-width:1.1458;stroke-dasharray:2.2917,2.2917;" x1="62.8432" x2="370.2147" y1="390.431" y2="390.431"/><text fill="#000000" font-family="Arial" font-size="14.8958" lengthAdjust="spacing" textLength="202.0393" x="80.0307" y="381.5452">Present course creation option</text></g><g class="message" data-participant-1="Teacher" data-participant-2="Server"><polygon fill="#000000" points="357.6105,425.893,369.0688,430.4764,357.6105,435.0597,362.1938,430.4764" style="stroke:#000000;stroke-width:1.1458;"/><line style="stroke:#000000;stroke-width:1.1458;" x1="57.114" x2="364.4855" y1="430.4764" y2="430.4764"/><text fill="#000000" font-family="Arial" font-size="14.8958" lengthAdjust="spacing" textLength="238.4206" x="68.5724" y="421.5906">Submit course meta (title, tags, etc.)</text></g><g class="message" data-participant-1="Server" data-participant-2="Teacher"><polygon fill="#000000" points="69.7182,465.9385,58.2599,470.5218,69.7182,475.1051,65.1349,470.5218" style="stroke:#000000;stroke-width:1.1458;"/><line style="stroke:#000000;stroke-width:1.1458;stroke-dasharray:2.2917,2.2917;" x1="62.8432" x2="370.2147" y1="470.5218" y2="470.5218"/><text fill="#000000" font-family="Arial" font-size="14.8958" lengthAdjust="spacing" textLength="184.6487" x="80.0307" y="461.636">Acknowledge / draft created</text></g><path d="M11.4583,487.7093 L101.3313,487.7093 L101.3313,502.5464 L89.8729,514.0047 L11.4583,514.0047 L11.4583,487.7093" fill="#EEEEEE" style="stroke:#000000;stroke-width:1.7188;"/><rect fill="none" height="193.2934" style="stroke:#000000;stroke-width:1.7188;" width="404.7553" x="11.4583" y="487.7093"/><text fill="#000000" font-family="Arial" font-size="14.8958" font-weight="bold" lengthAdjust="spacing" textLength="31.4354" x="32.0833" y="506.2648">loop</text><text fill="#000000" font-family="Arial" font-size="14.8958" font-weight="bold" lengthAdjust="spacing" textLength="203.6249" x="121.9563" y="507.4106">[For each step to be created]</text><g class="message" data-participant-1="Teacher" data-participant-2="Server"><polygon fill="#000000" points="357.6105,547.1164,369.0688,551.6997,357.6105,556.2831,362.1938,551.6997" style="stroke:#000000;stroke-width:1.1458;"/><line style="stroke:#000000;stroke-width:1.1458;" x1="57.114" x2="364.4855" y1="551.6997" y2="551.6997"/><text fill="#000000" font-family="Arial" font-size="14.8958" lengthAdjust="spacing" textLength="279.8715" x="68.5724" y="542.8139">Present step creation option (choose type)</text></g><g class="message" data-participant-1="Server" data-participant-2="Teacher"><polygon fill="#000000" points="69.7182,587.1618,58.2599,591.7451,69.7182,596.3285,65.1349,591.7451" style="stroke:#000000;stroke-width:1.1458;"/><line style="stroke:#000000;stroke-width:1.1458;stroke-dasharray:2.2917,2.2917;" x1="62.8432" x2="370.2147" y1="591.7451" y2="591.7451"/><text fill="#000000" font-family="Arial" font-size="14.8958" lengthAdjust="spacing" textLength="134.1207" x="80.0307" y="582.8593">Step template / form</text></g><g class="message" data-participant-1="Teacher" data-participant-2="Server"><polygon fill="#000000" points="357.6105,627.2072,369.0688,631.7906,357.6105,636.3739,362.1938,631.7906" style="stroke:#000000;stroke-width:1.1458;"/><line style="stroke:#000000;stroke-width:1.1458;" x1="57.114" x2="364.4855" y1="631.7906" y2="631.7906"/><text fill="#000000" font-family="Arial" font-size="14.8958" lengthAdjust="spacing" textLength="148.5874" x="68.5724" y="622.9048">Fill step's needed data</text></g><g class="message" data-participant-1="Server" data-participant-2="Teacher"><polygon fill="#000000" points="69.7182,667.2527,58.2599,671.836,69.7182,676.4193,65.1349,671.836" style="stroke:#000000;stroke-width:1.1458;"/><line style="stroke:#000000;stroke-width:1.1458;stroke-dasharray:2.2917,2.2917;" x1="62.8432" x2="370.2147" y1="671.836" y2="671.836"/><text fill="#000000" font-family="Arial" font-size="14.8958" lengthAdjust="spacing" textLength="169.731" x="80.0307" y="662.9502">Validation result / preview</text></g><g class="message" data-participant-1="Teacher" data-participant-2="Server"><polygon fill="#000000" points="357.6105,715.3189,369.0688,719.9022,357.6105,724.4856,362.1938,719.9022" style="stroke:#000000;stroke-width:1.1458;"/><line style="stroke:#000000;stroke-width:1.1458;" x1="57.114" x2="364.4855" y1="719.9022" y2="719.9022"/><text fill="#000000" font-family="Arial" font-size="14.8958" lengthAdjust="spacing" textLength="158.1228" x="68.5724" y="711.0164">Confirm course creation</text></g><g class="message" data-participant-1="Server" data-participant-2="Teacher"><polygon fill="#000000" points="69.7182,755.3643,58.2599,759.9477,69.7182,764.531,65.1349,759.9477" style="stroke:#000000;stroke-width:1.1458;"/><line style="stroke:#000000;stroke-width:1.1458;stroke-dasharray:2.2917,2.2917;" x1="62.8432" x2="370.2147" y1="759.9477" y2="759.9477"/><text fill="#000000" font-family="Arial" font-size="14.8958" lengthAdjust="spacing" textLength="101.8415" x="80.0307" y="751.0619">Course created</text></g><!--SRC=[TP51Jm8n48Nl_HKZ5o5XmNZaO68WN3JHkCQJbzBExZPsszhEGlZt3kn25Cjr-lhcc_V8a4KeozNTFHImZ2W9GVak9XGtnYdRQOJPfqmacw8rRXQwrWeX5Va8xoXLWr446Sae4wGZA35kUII6DoWUXj42ddrjt3nYRHAnf1z3mOf1l837ZXfuUO8v94p9U9SrUiFl3XE1PIFm5QWZjXwuKzPvPLAmSlzFc_ClqQ8Y6Fs9OvIrVOsOaC_kDRqxOuCFT8s-x3QjEVzeaIICwL3354ZMQGf8QZR9nwE-dDzPr3LoH3hAYau72M6z3x3cMWvgu8W3a8SDdXK06PhJ0KVz1JwCLUCzGz8-u8J_vvZAuo9iELqwK5K-jYA_QssiFIwwJU0GDTUW9SahnX_I6jtZC6DdYSr3nAt1dK2dizaklQjCR2_ho8Qv_ANXT7u0]--></g></svg>