<svg xmlns="http://www.w3.org/2000/svg" xmlns:xlink="http://www.w3.org/1999/xlink" contentStyleType="text/css" data-diagram-type="SEQUENCE" height="797.5px" preserveAspectRatio="none" style="width:375px;height:797px;background:#FFFFFF;" version="1.1" viewBox="0 0 375 797" width="375.8333px" zoomAndPan="magnify"><title>SSD01 - Do learning step</title><defs/><g><text fill="#000000" font-family="Arial" font-size="16.0417" font-weight="bold" lengthAdjust="spacing" textLength="190.7611" x="94.6732" y="35.6719">SSD01 - Do learning step</text><rect fill="#FFFFFF" height="273.3842" style="stroke:#000000;stroke-width:1.7188;" width="358.3367" x="11.4583" y="407.6185"/><g><title>Learner</title><rect fill="#000000" fill-opacity="0.00000" height="552.6151" width="9.1667" x="50.8796" y="147.8668"/><line style="stroke:#181818;stroke-width:0.5729;stroke-dasharray:5.7292,5.7292;" x1="55" x2="55" y1="147.8668" y2="700.4818"/></g><g><title>Server</title><rect fill="#000000" fill-opacity="0.00000" height="552.6151" width="9.1667" x="320.3586" y="147.8668"/><line style="stroke:#181818;stroke-width:0.5729;stroke-dasharray:5.7292,5.7292;" x1="324.7763" x2="324.7763" y1="147.8668" y2="700.4818"/></g><g class="participant participant-head" data-participant="Learner"><text fill="#000000" font-family="Arial" font-size="14.8958" lengthAdjust="spacing" textLength="51.3426" x="26.3542" y="141.2726">Learner</text><ellipse cx="55.463" cy="64.8526" fill="#E3E3E3" rx="9.1667" ry="9.1667" style="stroke:#181818;stroke-width:0.5729;"/><path d="M55.463,74.0193 L55.463,104.9568 M40.5671,83.1859 L70.3588,83.1859 M55.463,104.9568 L40.5671,122.1443 M55.463,104.9568 L70.3588,122.1443" fill="none" style="stroke:#181818;stroke-width:0.5729;"/></g><g class="participant participant-tail" data-participant="Learner"><text fill="#000000" font-family="Arial" font-size="14.8958" lengthAdjust="spacing" textLength="51.3426" x="26.3542" y="716.7456">Learner</text><ellipse cx="55.463" cy="733.0793" fill="#E3E3E3" rx="9.1667" ry="9.1667" style="stroke:#181818;stroke-width:0.5729;"/><path d="M55.463,742.246 L55.463,773.1835 M40.5671,751.4127 L70.3588,751.4127 M55.463,773.1835 L40.5671,790.371 M55.463,773.1835 L70.3588,790.371" fill="none" style="stroke:#181818;stroke-width:0.5729;"/></g><g class="participant participant-head" data-participant="Server"><rect fill="#E3E3E3" height="40.0454" style="stroke:#181818;stroke-width:0.5729;" width="66.7896" x="291.5472" y="106.6755"/><text fill="#000000" font-family="Arial" font-size="14.8958" lengthAdjust="spacing" textLength="43.8729" x="303.0055" y="132.106">Server</text></g><g class="participant participant-tail" data-participant="Server"><rect fill="#E3E3E3" height="40.0454" style="stroke:#181818;stroke-width:0.5729;" width="66.7896" x="291.5472" y="699.336"/><text fill="#000000" font-family="Arial" font-size="14.8958" lengthAdjust="spacing" textLength="43.8729" x="303.0055" y="724.7664">Server</text></g><g class="message" data-participant-1="Learner" data-participant-2="Server"><polygon fill="#000000" points="311.1919,185.6205,322.6503,190.2039,311.1919,194.7872,315.7753,190.2039" style="stroke:#000000;stroke-width:1.1458;"/><line style="stroke:#000000;stroke-width:1.1458;" x1="55.463" x2="318.0669" y1="190.2039" y2="190.2039"/><text fill="#000000" font-family="Arial" font-size="14.8958" lengthAdjust="spacing" textLength="90.2551" x="66.9213" y="181.3181">Login/register</text></g><g class="message" data-participant-1="Server" data-participant-2="Learner"><polygon fill="#000000" points="68.0671,225.6659,56.6088,230.2493,68.0671,234.8326,63.4838,230.2493" style="stroke:#000000;stroke-width:1.1458;"/><line style="stroke:#000000;stroke-width:1.1458;stroke-dasharray:2.2917,2.2917;" x1="61.1921" x2="323.7961" y1="230.2493" y2="230.2493"/><text fill="#000000" font-family="Arial" font-size="14.8958" lengthAdjust="spacing" textLength="119.2249" x="78.3796" y="221.3635">Auth OK / session</text></g><g class="message" data-participant-1="Learner" data-participant-2="Server"><polygon fill="#000000" points="311.1919,265.7114,322.6503,270.2947,311.1919,274.878,315.7753,270.2947" style="stroke:#000000;stroke-width:1.1458;"/><line style="stroke:#000000;stroke-width:1.1458;" x1="55.463" x2="318.0669" y1="270.2947" y2="270.2947"/><text fill="#000000" font-family="Arial" font-size="14.8958" lengthAdjust="spacing" textLength="174.7133" x="66.9213" y="261.4089">Request available courses</text></g><g class="message" data-participant-1="Server" data-participant-2="Learner"><polygon fill="#000000" points="68.0671,305.7568,56.6088,310.3401,68.0671,314.9235,63.4838,310.3401" style="stroke:#000000;stroke-width:1.1458;"/><line style="stroke:#000000;stroke-width:1.1458;stroke-dasharray:2.2917,2.2917;" x1="61.1921" x2="323.7961" y1="310.3401" y2="310.3401"/><text fill="#000000" font-family="Arial" font-size="14.8958" lengthAdjust="spacing" textLength="168.0727" x="78.3796" y="301.4543">Display available courses</text></g><g class="message" data-participant-1="Learner" data-participant-2="Server"><polygon fill="#000000" points="311.1919,345.8022,322.6503,350.3855,311.1919,354.9689,315.7753,350.3855" style="stroke:#000000;stroke-width:1.1458;"/><line style="stroke:#000000;stroke-width:1.1458;" x1="55.463" x2="318.0669" y1="350.3855" y2="350.3855"/><text fill="#000000" font-family="Arial" font-size="14.8958" lengthAdjust="spacing" textLength="143.2415" x="66.9213" y="341.4997">Select desired course</text></g><g class="message" data-participant-1="Server" data-participant-2="Learner"><polygon fill="#000000" points="68.0671,385.8476,56.6088,390.431,68.0671,395.0143,63.4838,390.431" style="stroke:#000000;stroke-width:1.1458;"/><line style="stroke:#000000;stroke-width:1.1458;stroke-dasharray:2.2917,2.2917;" x1="61.1921" x2="323.7961" y1="390.431" y2="390.431"/><text fill="#000000" font-family="Arial" font-size="14.8958" lengthAdjust="spacing" textLength="200.3737" x="78.3796" y="381.5452">Course context (learning path)</text></g><path d="M11.4583,407.6185 L101.3313,407.6185 L101.3313,422.4555 L89.8729,433.9139 L11.4583,433.9139 L11.4583,407.6185" fill="#EEEEEE" style="stroke:#000000;stroke-width:1.7188;"/><rect fill="none" height="273.3842" style="stroke:#000000;stroke-width:1.7188;" width="358.3367" x="11.4583" y="407.6185"/><text fill="#000000" font-family="Arial" font-size="14.8958" font-weight="bold" lengthAdjust="spacing" textLength="31.4354" x="32.0833" y="426.1739">loop</text><text fill="#000000" font-family="Arial" font-size="14.8958" font-weight="bold" lengthAdjust="spacing" textLength="216.8842" x="121.9563" y="427.3197">[Unless step is done correctly]</text><g class="message" data-participant-1="Learner" data-participant-2="Server"><polygon fill="#000000" points="311.1919,467.0256,322.6503,471.6089,311.1919,476.1922,315.7753,471.6089" style="stroke:#000000;stroke-width:1.1458;"/><line style="stroke:#000000;stroke-width:1.1458;" x1="55.463" x2="318.0669" y1="471.6089" y2="471.6089"/><text fill="#000000" font-family="Arial" font-size="14.8958" lengthAdjust="spacing" textLength="229.3653" x="66.9213" y="462.7231">Request current learning-path step</text></g><g class="message" data-participant-1="Server" data-participant-2="Learner"><polygon fill="#000000" points="68.0671,507.071,56.6088,511.6543,68.0671,516.2376,63.4838,511.6543" style="stroke:#000000;stroke-width:1.1458;"/><line style="stroke:#000000;stroke-width:1.1458;stroke-dasharray:2.2917,2.2917;" x1="61.1921" x2="323.7961" y1="511.6543" y2="511.6543"/><text fill="#000000" font-family="Arial" font-size="14.8958" lengthAdjust="spacing" textLength="131.6332" x="78.3796" y="502.7685">Display current step</text></g><g class="message" data-participant-1="Learner" data-participant-2="Server"><polygon fill="#000000" points="311.1919,547.1164,322.6503,551.6997,311.1919,556.2831,315.7753,551.6997" style="stroke:#000000;stroke-width:1.1458;"/><line style="stroke:#000000;stroke-width:1.1458;" x1="55.463" x2="318.0669" y1="551.6997" y2="551.6997"/><text fill="#000000" font-family="Arial" font-size="14.8958" lengthAdjust="spacing" textLength="235.104" x="66.9213" y="542.8139">Submit step work (answers/actions)</text></g><g class="message" data-participant-1="Server" data-participant-2="Learner"><polygon fill="#000000" points="68.0671,587.1618,56.6088,591.7451,68.0671,596.3285,63.4838,591.7451" style="stroke:#000000;stroke-width:1.1458;"/><line style="stroke:#000000;stroke-width:1.1458;stroke-dasharray:2.2917,2.2917;" x1="61.1921" x2="323.7961" y1="591.7451" y2="591.7451"/><text fill="#000000" font-family="Arial" font-size="14.8958" lengthAdjust="spacing" textLength="90.2623" x="78.3796" y="582.8593">Evaluate step</text></g><g class="message" data-participant-1="Learner" data-participant-2="Server"><polygon fill="#000000" points="311.1919,627.2072,322.6503,631.7906,311.1919,636.3739,315.7753,631.7906" style="stroke:#000000;stroke-width:1.1458;"/><line style="stroke:#000000;stroke-width:1.1458;" x1="55.463" x2="318.0669" y1="631.7906" y2="631.7906"/><text fill="#000000" font-family="Arial" font-size="14.8958" lengthAdjust="spacing" textLength="120.0758" x="66.9213" y="622.9048">Request feedback</text></g><g class="message" data-participant-1="Server" data-participant-2="Learner"><polygon fill="#000000" points="68.0671,667.2527,56.6088,671.836,68.0671,676.4193,63.4838,671.836" style="stroke:#000000;stroke-width:1.1458;"/><line style="stroke:#000000;stroke-width:1.1458;stroke-dasharray:2.2917,2.2917;" x1="61.1921" x2="323.7961" y1="671.836" y2="671.836"/><text fill="#000000" font-family="Arial" font-size="14.8958" lengthAdjust="spacing" textLength="187.9435" x="78.3796" y="662.9502">Show feedback (hints/result)</text></g><!--SRC=[VPAnRW8n38RtFCNV3OQ3TcMeL9LEHQhKKxSkvixbB799cZXGthu13gQ3rVdyMRyT5RMCkbu-Fg72qiCoHITkWwGSp8EunkQMCVkcfDHLlRXPoBqrXXhr4QiZpj44YYgD17AAckEkbCpmXkfvA2smyXjnyyWRAVfepcLKXHZW1LwoTlXunno9KnBlHaMV_9ivAMX7OcbTCZG-nz8nwbnA2fOE8_IOksRBZQBb997R0HtrlfwU2k6K_nIJw_82QJSrndeVyELi2NBQ9oIXzUxO4MEPOGy6k9EkoGKh6xrugwFtV1dWNj1BumaTdr7dTIzd0diVjvYGItkEQLukMzQUfZTclEt8PbA-9xy4-65krzHiRwZgpk-l32QTE4tbTwHiTMhOjUOV]--></g></svg>